<svg width="407" height="483" viewBox="0 0 407 483" fill="none" xmlns="http://www.w3.org/2000/svg">
<path fill-rule="evenodd" clip-rule="evenodd" d="M192.621 61.2158C192.621 61.2158 240.786 60.9829 228.185 26.7633C212.218 -16.5992 114.228 -5.90671 111.326 50.5257C108.424 106.956 94.6315 131.313 77.937 149.726C61.2424 168.141 23.5 205.563 55.4353 273.278C87.3733 340.998 40.916 351.688 40.916 351.688C48.4977 351.125 68.5145 356.891 80.9857 354.835C114.975 349.223 169.232 329.507 168.665 315.456C166.225 254.895 231.087 221.601 192.621 61.2158Z" fill="#3A2100"/>
<path fill-rule="evenodd" clip-rule="evenodd" d="M202.294 77.9773C224.766 77.9773 243.094 64.8442 243.094 48.7432C243.094 32.6401 224.766 19.5069 202.294 19.5069C179.823 19.5069 161.495 32.6401 161.495 48.7432C161.495 64.8442 179.823 77.9773 202.294 77.9773Z" fill="#BB495C"/>
<path fill-rule="evenodd" clip-rule="evenodd" d="M95.4989 206.927C95.0235 202.638 73.5666 197.562 66.4134 211.609C59.2602 225.657 72.1348 245.558 96.4525 247.118C120.767 248.677 113.617 245.166 113.617 245.166L95.4989 206.927Z" fill="#E4AE7C"/>
<path fill-rule="evenodd" clip-rule="evenodd" d="M312.02 206.927C312.498 202.638 333.953 197.562 341.103 211.609C348.253 225.657 335.381 245.558 311.064 247.118C286.746 248.677 293.899 245.166 293.899 245.166L312.02 206.927Z" fill="#E4AE7C"/>
<path fill-rule="evenodd" clip-rule="evenodd" d="M203.497 480.554H7.29692C5.02767 398.451 82.2179 350.786 148.499 333C153.875 310.092 152.501 280.381 152.501 280.381H203.494H254.49C254.49 280.381 253.116 310.092 258.492 333C324.773 350.786 401.966 398.451 399.694 480.554H203.497Z" fill="#E4AE7C"/>
<path fill-rule="evenodd" clip-rule="evenodd" d="M254.496 280.381C254.496 280.381 254.222 286.269 254.393 294.826C235.023 334.653 174.881 339.134 152.568 296.482C152.814 287.04 152.507 280.383 152.507 280.383C186.476 280.381 220.521 280.381 254.496 280.381Z" fill="#D67F54"/>
<path fill-rule="evenodd" clip-rule="evenodd" d="M406.388 480.554C408.707 399.471 330.89 351.985 262.94 333.683C234.299 385.686 172.283 384.415 144.61 333.538C76.5271 351.729 -1.7134 399.254 0.611124 480.554H406.388Z" fill="#BB495C"/>
<path fill-rule="evenodd" clip-rule="evenodd" d="M203.497 301.54C76.9806 304.028 13.1045 48.7025 203.497 55.2397C393.895 48.7002 330.016 304.026 203.497 301.54Z" fill="#E4AE7C"/>
<path fill-rule="evenodd" clip-rule="evenodd" d="M160.996 178.306C166.073 181.303 167.217 187.098 163.541 191.247C159.871 195.395 152.773 196.325 147.695 193.328C142.615 190.329 141.473 184.533 145.15 180.387C148.82 176.239 155.915 175.309 160.996 178.306Z" fill="#20201E"/>
<path fill-rule="evenodd" clip-rule="evenodd" d="M246.712 178.306C241.632 181.303 240.491 187.098 244.164 191.247C247.835 195.395 254.932 196.325 260.007 193.328C265.09 190.329 266.232 184.533 262.556 180.387C258.885 176.239 251.79 175.309 246.712 178.306Z" fill="#20201E"/>
<path fill-rule="evenodd" clip-rule="evenodd" d="M147.02 211.969C153.477 216.025 153.759 221.967 147.651 225.238C141.542 228.509 131.354 227.875 124.895 223.817C118.438 219.762 118.156 213.819 124.264 210.546C130.373 207.278 140.561 207.911 147.02 211.969Z" fill="#DA9077"/>
<path fill-rule="evenodd" clip-rule="evenodd" d="M260.685 211.969C254.228 216.025 253.946 221.967 260.054 225.238C266.163 228.509 276.354 227.875 282.808 223.817C289.267 219.762 289.546 213.819 283.441 210.546C277.332 207.278 267.144 207.911 260.685 211.969Z" fill="#DA9077"/>
<path fill-rule="evenodd" clip-rule="evenodd" d="M165.948 153.123C165.528 152.974 165.105 152.831 164.671 152.696C159.729 151.237 155.536 150.841 150.196 151.155C144.967 151.61 141.061 152.576 136.678 154.623C134.63 155.704 126.644 160.993 128.908 162.945C129.831 163.157 137.789 159.83 140.124 159.21C143.762 158.33 146.711 157.993 150.561 158.059C154.152 158.192 156.855 158.62 160.125 159.654C160.216 159.667 160.805 159.884 160.932 159.93C167.607 162.585 167.002 164.291 171.551 161.737C178.563 158.685 171.349 155.421 165.948 153.123Z" fill="#3F2716"/>
<path fill-rule="evenodd" clip-rule="evenodd" d="M241.054 153.123C241.471 152.974 241.897 152.831 242.328 152.696C247.27 151.237 251.466 150.841 256.803 151.155C262.035 151.61 265.941 152.576 270.325 154.623C272.37 155.704 280.358 160.993 278.094 162.945C277.171 163.157 269.216 159.83 266.875 159.21C263.24 158.33 260.291 157.993 256.441 158.059C252.851 158.192 250.147 158.62 246.872 159.654C246.786 159.667 246.195 159.884 246.068 159.93C239.395 162.585 239.998 164.291 235.448 161.737C228.436 158.685 235.65 155.421 241.054 153.123Z" fill="#3F2716"/>
<path fill-rule="evenodd" clip-rule="evenodd" d="M180.492 233.632C188.873 233.512 197.223 233.454 205.576 233.454C213.926 233.454 222.278 233.512 230.662 233.632C230.662 248.605 217.693 253.95 205.623 253.95H205.576H205.531C193.461 253.952 180.492 248.605 180.492 233.632Z" fill="white"/>
<path fill-rule="evenodd" clip-rule="evenodd" d="M228.964 242.074C225.062 250.679 215.067 253.952 205.62 253.952H205.573H205.529C196.081 253.952 186.084 250.679 182.187 242.074C189.998 241.972 197.787 241.92 205.573 241.92C213.362 241.918 221.151 241.972 228.964 242.074Z" fill="#88342A"/>
<path fill-rule="evenodd" clip-rule="evenodd" d="M197.551 262.873C196.902 262.559 196.683 261.876 197.065 261.34C197.446 260.81 198.286 260.629 198.936 260.941C200.824 261.844 203.223 262.301 205.63 262.301C208.029 262.301 210.39 261.851 212.198 260.95C212.842 260.632 213.682 260.801 214.074 261.328C214.467 261.855 214.257 262.543 213.613 262.864C211.357 263.984 208.491 264.545 205.63 264.545C202.772 264.545 199.876 263.986 197.551 262.873Z" fill="#D67F54"/>
<path fill-rule="evenodd" clip-rule="evenodd" d="M202.467 213.087C201.709 213.087 201.093 212.582 201.093 211.965C201.093 211.345 201.709 210.84 202.467 210.84C205.758 210.84 209.692 210.816 212.729 210.395C215.222 210.051 217.06 209.495 217.06 208.563C217.06 205.332 213.064 185.257 213.053 185.203C212.934 184.59 213.445 184.018 214.189 183.923C214.938 183.825 215.634 184.242 215.75 184.85C215.761 184.909 219.805 205.194 219.805 208.563C219.805 210.926 216.994 212.075 213.18 212.602C209.902 213.059 205.852 213.087 202.467 213.087Z" fill="#D67F54"/>
<path fill-rule="evenodd" clip-rule="evenodd" d="M333.322 222.695C333.322 223.315 332.709 223.817 331.951 223.817C331.197 223.817 330.58 223.315 330.58 222.695C330.58 219.287 329.859 217.145 328.701 215.977C328.004 215.276 327.128 214.955 326.15 214.935C325.028 214.914 323.745 215.258 322.413 215.876C318.811 217.545 315.088 221.085 313.029 224.937C312.04 226.794 311.18 228.703 310.691 230.147C312.797 228.948 315.121 228.47 317.081 228.629C318.198 228.721 319.212 229.02 320.036 229.506C320.906 230.018 321.553 230.728 321.879 231.619C322.441 233.162 322.007 235.227 319.986 237.695C319.566 238.208 318.717 238.344 318.09 238.002C317.463 237.659 317.294 236.964 317.714 236.451C319.223 234.609 319.599 233.205 319.256 232.259C319.107 231.859 318.822 231.547 318.438 231.321C318.013 231.069 317.451 230.911 316.813 230.859C315.05 230.717 312.822 231.345 310.964 232.872C310.467 233.284 310 233.512 309.571 233.589C308.468 233.782 307.83 233.386 307.592 232.506L307.573 232.447C307.496 232.114 307.515 231.667 307.614 231.137C307.924 229.543 309.096 226.717 310.522 224.048C312.808 219.771 316.995 215.821 321.064 213.933C322.811 213.123 324.572 212.673 326.205 212.704C327.982 212.736 329.577 213.315 330.826 214.566C332.363 216.118 333.322 218.732 333.322 222.695Z" fill="#D67F54"/>
<path fill-rule="evenodd" clip-rule="evenodd" d="M76.4193 222.695C76.4193 223.315 75.8057 223.817 75.0456 223.817C74.291 223.817 73.6719 223.315 73.6719 222.695C73.6719 218.732 74.6337 216.118 76.1733 214.564C77.4199 213.31 79.012 212.731 80.792 212.702C82.4255 212.67 84.1834 213.12 85.9302 213.93C90.0016 215.819 94.1863 219.768 96.4722 224.046C97.8984 226.715 99.0703 229.54 99.3798 231.135C99.4849 231.664 99.5042 232.112 99.4185 232.445L99.4047 232.504C99.1642 233.386 98.5257 233.779 97.4257 233.587C96.9973 233.51 96.5302 233.279 96.0299 232.87C94.1753 231.343 91.9447 230.714 90.1813 230.857C89.5456 230.909 88.9845 231.067 88.556 231.318C88.1746 231.544 87.8871 231.857 87.7434 232.257C87.3979 233.203 87.7738 234.605 89.283 236.448C89.7031 236.964 89.5372 237.656 88.9098 238C88.2824 238.342 87.4311 238.206 87.011 237.693C84.9905 235.222 84.5566 233.157 85.1177 231.617C85.441 230.726 86.0906 230.015 86.9612 229.504C87.7849 229.018 88.8021 228.719 89.9159 228.626C91.8756 228.468 94.2001 228.945 96.3063 230.144C95.8143 228.701 94.9602 226.792 93.9652 224.935C91.906 221.083 88.1829 217.543 84.5814 215.873C83.252 215.256 81.9694 214.912 80.8472 214.932C79.8716 214.953 78.9898 215.274 78.2961 215.975C77.1407 217.145 76.4193 219.287 76.4193 222.695Z" fill="#D67F54"/>
<path fill-rule="evenodd" clip-rule="evenodd" d="M89.3327 204.964C3.86154 -9.62314 396.935 -15.8074 316.575 203.776C309.101 221.789 293.576 139.829 293.559 139.287C293.396 133.955 280.59 107.345 264.568 104.594C214.5 96.0055 113.946 122.598 113.44 139.287C113.424 139.881 106.505 168.724 99.518 188.297C94.6783 201.856 91.9779 212.754 89.3327 204.964Z" fill="#4E2C0B"/>
<path fill-rule="evenodd" clip-rule="evenodd" d="M316.804 202.582C316.312 206.538 301.461 273.455 301.326 273.812C294.325 258.998 304.778 218.246 306.658 201.573C307.282 192.459 304.916 178.363 310.215 178.688C317.476 176.263 317.056 198.169 316.804 202.582Z" fill="#4E2C0B"/>
<path fill-rule="evenodd" clip-rule="evenodd" d="M89.1057 201.987C89.5977 205.943 105.535 273.455 105.668 273.812C112.672 258.998 102.218 218.246 100.341 201.573C99.7139 192.459 102.08 178.363 96.7814 178.688C89.5231 176.263 88.8542 197.576 89.1057 201.987Z" fill="#4E2C0B"/>
<path fill-rule="evenodd" clip-rule="evenodd" d="M212.279 118.293C214.518 125.5 191.64 145.03 196.69 147.292C205.255 151.126 240.441 144.765 265.032 122.014C268.125 119.148 268.593 129.483 277.401 138.056C287.343 147.728 305.824 156.141 311.465 159.165C316.844 162.049 316.921 160.674 318.309 154.734C323.964 130.512 306.357 57.6849 203.5 57.6849C87.9872 57.6849 79.9965 149.549 91.7297 161.244C121.462 156.699 171.181 117.105 165.791 123.609C160.108 130.472 133.543 148.398 140.506 148.427C179.777 148.59 212.107 117.743 212.279 118.293Z" fill="#623A1C"/>
<path fill-rule="evenodd" clip-rule="evenodd" d="M203.497 431.191C207.297 431.191 210.393 419.315 210.393 404.757C210.393 390.199 207.297 378.323 203.497 378.323C199.702 378.323 196.601 390.199 196.601 404.757C196.603 419.315 199.702 431.191 203.497 431.191Z" fill="#E4AE7C"/>
<path fill-rule="evenodd" clip-rule="evenodd" d="M60.4238 434.086C60.4321 433.159 61.3581 432.415 62.4913 432.421C63.6218 432.43 64.5339 433.186 64.5228 434.113L64.017 480.57C64.0087 481.498 63.0828 482.242 61.9523 482.235C60.8163 482.228 59.9097 481.471 59.918 480.545L60.4238 434.086Z" fill="#B4283F"/>
<path fill-rule="evenodd" clip-rule="evenodd" d="M342.98 434.086C342.988 433.159 343.914 432.415 345.044 432.421C346.175 432.43 347.087 433.186 347.079 434.113L346.57 480.57C346.562 481.498 345.636 482.242 344.508 482.235C343.375 482.228 342.465 481.471 342.474 480.545L342.98 434.086Z" fill="#B4283F"/>
<path fill-rule="evenodd" clip-rule="evenodd" d="M112.473 137.875C111.884 138.262 111.025 138.185 110.552 137.703C110.077 137.221 110.171 136.518 110.762 136.129C113.164 134.545 117.081 131.983 121.265 129.246C148.845 111.199 190.244 84.1096 199.376 72.2544C199.782 71.7319 200.625 71.5735 201.264 71.9015C201.902 72.234 202.096 72.924 201.695 73.4465C192.322 85.6115 150.696 112.851 122.971 130.992C119.552 133.227 116.387 135.296 112.473 137.875Z" fill="#7C5032"/>
<path fill-rule="evenodd" clip-rule="evenodd" d="M156.387 144.111C155.798 144.5 154.939 144.424 154.463 143.939C153.991 143.46 154.085 142.754 154.673 142.367C163.46 136.574 188.601 117.965 207.043 100.197C218.226 89.423 226.91 79.0155 227.842 72.1345C227.922 71.5215 228.599 71.0759 229.351 71.1438C230.106 71.2117 230.647 71.7636 230.564 72.3811C229.567 79.7711 220.625 90.5743 209.135 101.647C190.569 119.53 165.246 138.273 156.387 144.111Z" fill="#7C5032"/>
<path fill-rule="evenodd" clip-rule="evenodd" d="M220.333 139.311C219.777 139.73 218.91 139.703 218.398 139.246C217.89 138.791 217.923 138.081 218.478 137.665C227.967 130.508 236.102 122.729 241.983 114.864C247.434 107.576 250.944 100.222 251.798 93.2322C253.592 78.5134 253.252 76.568 253.252 76.5612C253.153 75.9482 253.678 75.385 254.427 75.3036C255.173 75.2199 255.864 75.6497 255.966 76.2627C255.966 76.2695 256.351 78.4704 254.521 93.4539C253.623 100.794 249.974 108.469 244.324 116.029C238.302 124.081 230.001 132.021 220.333 139.311Z" fill="#7C5032"/>
<path fill-rule="evenodd" clip-rule="evenodd" d="M302.424 128.549C302.515 129.162 301.979 129.725 301.227 129.8C300.478 129.874 299.795 129.438 299.698 128.82C298.344 119.951 294.049 111.15 289.027 103.585C280.851 91.2688 270.98 82.3158 268.659 81.6236C267.948 81.411 267.581 80.7708 267.838 80.1895C268.098 79.6059 268.88 79.305 269.593 79.5177C272.221 80.3003 282.943 89.7352 291.426 102.513C296.6 110.306 301.022 119.376 302.424 128.549Z" fill="#7C5032"/>
<path fill-rule="evenodd" clip-rule="evenodd" d="M229.048 41.6111C229.285 42.1947 228.896 42.8281 228.18 43.0226C227.464 43.2149 226.69 42.8959 226.452 42.3124C224.736 38.0982 222.613 33.7145 220.628 30.4074C218.995 27.6863 217.555 25.7704 216.693 25.4673C215.996 25.2252 215.67 24.5692 215.966 23.9992C216.264 23.4314 217.066 23.1645 217.762 23.4066C219.28 23.9381 221.176 26.2476 223.086 29.4235C225.12 32.8165 227.292 37.2998 229.048 41.6111Z" fill="#B4283F"/>
<path fill-rule="evenodd" clip-rule="evenodd" d="M179.71 41.9844C179.492 42.577 178.729 42.9163 178.005 42.7398C177.278 42.5611 176.866 41.9391 177.082 41.3442C178.538 37.3676 180.694 34.004 182.914 31.3009C186.703 26.6909 190.78 23.963 191.886 23.4563C192.544 23.1577 193.378 23.3522 193.743 23.8906C194.111 24.4312 193.873 25.1121 193.212 25.4129C192.262 25.8449 188.688 28.2812 185.183 32.545C183.102 35.0807 181.078 38.243 179.71 41.9844Z" fill="#B4283F"/>
<path fill-rule="evenodd" clip-rule="evenodd" d="M204.807 40.177C204.807 40.7991 204.196 41.299 203.436 41.299C202.679 41.299 202.062 40.7991 202.062 40.177C202.062 36.4515 203.519 24.0716 203.525 24.0331C203.594 23.4201 204.263 22.9654 205.014 23.0243C205.763 23.0831 206.316 23.6305 206.247 24.2435C206.244 24.2819 204.807 36.4786 204.807 40.177Z" fill="#B4283F"/>
<path fill-rule="evenodd" clip-rule="evenodd" d="M129.19 337.671C129.099 337.058 129.638 336.499 130.387 336.42C131.136 336.347 131.821 336.784 131.912 337.399C133.468 347.578 141.133 359.359 153.875 367.724C164.293 374.559 178.102 379.102 194.741 378.593C195.495 378.57 196.131 379.054 196.159 379.672C196.184 380.289 195.595 380.809 194.838 380.832C177.471 381.363 163.046 376.618 152.161 369.47C138.844 360.727 130.826 348.368 129.19 337.671Z" fill="#B4283F"/>
<path fill-rule="evenodd" clip-rule="evenodd" d="M275.084 337.399C275.176 336.784 275.858 336.347 276.61 336.42C277.362 336.497 277.898 337.055 277.807 337.671C276.173 348.368 268.155 360.725 254.841 369.47C243.951 376.616 229.531 381.363 212.162 380.832C211.41 380.809 210.819 380.291 210.844 379.672C210.871 379.056 211.501 378.572 212.259 378.593C228.901 379.102 242.71 374.562 253.124 367.724C265.866 359.359 273.531 347.578 275.084 337.399Z" fill="#B4283F"/>
</svg>
