<svg width="393" height="457" viewBox="0 0 393 457" fill="none" xmlns="http://www.w3.org/2000/svg">
<path fill-rule="evenodd" clip-rule="evenodd" d="M196.529 454.554H0.326215C-1.94303 372.451 75.2472 324.786 141.531 307C146.907 284.092 145.533 254.381 145.533 254.381H196.529H247.525C247.525 254.381 246.151 284.092 251.53 307C317.808 324.786 395.001 372.451 392.729 454.554H196.529Z" fill="#58556C"/>
<path fill-rule="evenodd" clip-rule="evenodd" d="M88.529 188.532C88.0536 184.236 66.5939 179.165 59.4434 193.212C52.2929 207.259 65.1676 227.16 89.4825 228.721C113.797 230.282 106.647 226.771 106.647 226.771L88.529 188.532Z" fill="#E4AE7C"/>
<path fill-rule="evenodd" clip-rule="evenodd" d="M305.047 188.532C305.522 184.236 326.979 179.165 334.129 193.212C341.28 207.259 328.408 227.16 304.093 228.721C279.775 230.282 286.926 226.771 286.926 226.771L305.047 188.532Z" fill="#E4AE7C"/>
<path fill-rule="evenodd" clip-rule="evenodd" d="M248.151 283.844C226.075 318.405 169.211 322.01 144.797 285.174C145.438 277.641 145.645 270.548 145.684 265.074H247.372C247.405 270.224 247.593 276.807 248.151 283.844Z" fill="#D67F54"/>
<path fill-rule="evenodd" clip-rule="evenodd" d="M196.53 283.142C70.013 285.633 6.13415 30.3051 196.53 36.8445C386.922 30.3051 323.046 285.633 196.53 283.142Z" fill="#E4AE7C"/>
<path fill-rule="evenodd" clip-rule="evenodd" d="M154.021 164.632C159.099 167.631 160.24 173.426 156.57 177.573C152.894 181.721 145.801 182.653 140.724 179.656C135.644 176.656 134.505 170.861 138.175 166.713C141.849 162.564 148.941 161.635 154.021 164.632Z" fill="#20201E"/>
<path fill-rule="evenodd" clip-rule="evenodd" d="M239.739 164.632C234.658 167.631 233.517 173.426 237.19 177.573C240.861 181.721 247.956 182.653 253.036 179.656C258.114 176.656 259.255 170.861 255.585 166.713C251.911 162.564 244.819 161.635 239.739 164.632Z" fill="#20201E"/>
<path fill-rule="evenodd" clip-rule="evenodd" d="M140.047 198.295C146.504 202.353 146.788 208.295 140.68 211.566C134.571 214.837 124.383 214.201 117.924 210.143C111.467 206.087 111.185 200.145 117.294 196.874C123.402 193.603 133.59 194.239 140.047 198.295Z" fill="#DA9077"/>
<path fill-rule="evenodd" clip-rule="evenodd" d="M253.713 198.295C247.256 202.353 246.974 208.295 253.083 211.566C259.191 214.837 269.379 214.201 275.836 210.143C282.293 206.087 282.575 200.145 276.466 196.874C270.36 193.603 260.172 194.239 253.713 198.295Z" fill="#DA9077"/>
<path fill-rule="evenodd" clip-rule="evenodd" d="M158.975 139.453C158.554 139.302 158.132 139.162 157.7 139.026C152.756 137.567 148.563 137.173 143.223 137.488C137.99 137.94 134.088 138.908 129.701 140.955C127.656 142.034 119.668 147.325 121.931 149.279C122.857 149.488 130.812 146.16 133.151 145.54C136.785 144.66 139.734 144.326 143.585 144.391C147.175 144.525 149.878 144.95 153.151 145.984C153.239 145.997 153.831 146.217 153.958 146.26C160.63 148.915 160.025 150.623 164.577 148.067C171.589 145.016 164.375 141.747 158.975 139.453Z" fill="#3F2716"/>
<path fill-rule="evenodd" clip-rule="evenodd" d="M234.081 139.453C234.504 139.302 234.924 139.162 235.356 139.026C240.3 137.567 244.493 137.173 249.836 137.488C255.066 137.94 258.968 138.908 263.355 140.955C265.4 142.034 273.388 147.325 271.122 149.279C270.198 149.488 262.241 146.16 259.905 145.54C256.268 144.66 253.319 144.326 249.468 144.391C245.878 144.525 243.178 144.95 239.905 145.984C239.814 145.997 239.225 146.217 239.098 146.26C232.426 148.915 233.028 150.623 228.476 148.067C221.466 145.016 228.68 141.747 234.081 139.453Z" fill="#3F2716"/>
<path fill-rule="evenodd" clip-rule="evenodd" d="M190.58 249.199C189.931 248.887 189.713 248.204 190.094 247.67C190.475 247.138 191.31 246.957 191.962 247.269C193.85 248.172 196.252 248.627 198.657 248.627C201.059 248.627 203.416 248.176 205.227 247.278C205.868 246.957 206.711 247.129 207.104 247.656C207.493 248.181 207.286 248.871 206.642 249.192C204.387 250.312 201.518 250.87 198.657 250.87C195.799 250.87 192.905 250.314 190.58 249.199Z" fill="#D67F54"/>
<path fill-rule="evenodd" clip-rule="evenodd" d="M195.492 208.576C194.737 208.576 194.121 208.073 194.121 207.454C194.121 206.836 194.735 206.332 195.492 206.332C198.784 206.332 202.72 206.307 205.755 205.886C208.253 205.54 210.089 204.986 210.089 204.054C210.089 200.824 206.092 180.748 206.078 180.692C205.962 180.081 206.471 179.509 207.217 179.412C207.963 179.317 208.663 179.731 208.781 180.341C208.792 180.4 212.831 200.686 212.831 204.054C212.831 206.418 210.022 207.564 206.205 208.094C202.933 208.551 198.881 208.576 195.492 208.576Z" fill="#D67F54"/>
<path fill-rule="evenodd" clip-rule="evenodd" d="M326.352 204.303C326.352 204.92 325.738 205.425 324.981 205.425C324.221 205.425 323.607 204.92 323.607 204.303C323.607 200.892 322.886 198.749 321.728 197.582C321.034 196.881 320.152 196.56 319.177 196.542C318.054 196.519 316.772 196.863 315.44 197.483C311.838 199.15 308.115 202.69 306.056 206.544C305.064 208.399 304.21 210.308 303.718 211.751C305.824 210.553 308.148 210.075 310.108 210.236C311.222 210.329 312.239 210.623 313.063 211.109C313.931 211.623 314.58 212.333 314.906 213.226C315.467 214.767 315.033 216.834 313.013 219.3C312.593 219.813 311.742 219.951 311.114 219.607C310.487 219.266 310.318 218.569 310.738 218.053C312.247 216.212 312.62 214.807 312.278 213.864C312.134 213.464 311.847 213.149 311.465 212.923C311.037 212.672 310.476 212.514 309.84 212.462C308.079 212.319 305.849 212.948 303.991 214.477C303.494 214.887 303.024 215.117 302.595 215.192C301.495 215.386 300.854 214.991 300.616 214.108L300.603 214.05C300.52 213.719 300.539 213.269 300.641 212.74C300.951 211.143 302.123 208.32 303.549 205.651C305.835 201.373 310.02 197.422 314.091 195.535C315.838 194.728 317.596 194.273 319.229 194.305C321.009 194.341 322.604 194.915 323.848 196.171C325.393 197.723 326.352 200.337 326.352 204.303Z" fill="#D67F54"/>
<path fill-rule="evenodd" clip-rule="evenodd" d="M69.4489 204.303C69.4489 204.92 68.8353 205.425 68.078 205.425C67.3206 205.425 66.707 204.92 66.707 204.303C66.707 200.337 67.6634 197.722 69.2057 196.171C70.455 194.913 72.0471 194.338 73.8243 194.305C75.4606 194.273 77.2185 194.725 78.9626 195.535C83.034 197.422 87.2187 201.373 89.5045 205.651C90.9307 208.32 92.1027 211.143 92.4122 212.74C92.5145 213.269 92.5339 213.719 92.4537 214.05L92.4371 214.108C92.1994 214.991 91.5609 215.386 90.4581 215.192C90.0297 215.117 89.5626 214.884 89.065 214.477C87.2076 212.948 84.9771 212.319 83.2164 212.462C82.5779 212.514 82.0168 212.672 81.5884 212.923C81.2042 213.149 80.9195 213.464 80.7758 213.864C80.4303 214.807 80.8062 216.21 82.3153 218.053C82.7355 218.569 82.5669 219.263 81.9394 219.607C81.312 219.951 80.4635 219.813 80.0406 219.3C78.0228 216.832 77.5861 214.764 78.15 213.226C78.4761 212.333 79.1229 211.622 79.9908 211.109C80.8173 210.623 81.8316 210.329 82.9455 210.236C84.9052 210.075 87.2297 210.553 89.3359 211.751C88.8467 210.308 87.9898 208.401 86.9976 206.544C84.9384 202.69 81.2125 199.15 77.611 197.483C76.2815 196.863 74.999 196.519 73.8741 196.542C72.8984 196.56 72.0222 196.881 71.3229 197.582C70.1703 198.749 69.4489 200.892 69.4489 204.303Z" fill="#D67F54"/>
<path fill-rule="evenodd" clip-rule="evenodd" d="M336.531 58.0915C341.802 58.9171 341.113 62.4617 325.734 71.3446C339.947 86.0001 342.133 109.285 337.277 131.131C336.24 135.793 320.201 168.853 305.09 190.509C303.689 192.52 304.623 147.569 288.758 129.614C280.706 120.505 274.072 109.706 257.674 100.708C257.508 103.264 267.248 110.24 263.613 111.642C249.708 117.005 210.55 111.466 192.463 107.713C197.667 112.099 202.98 115.282 200.984 116.883C194.759 121.887 155.389 114.076 131.071 100.717C125.179 116.63 116.859 133.527 107.511 138.028C82.4913 150.076 93.3981 200.953 86.8336 193.477C56.7115 159.189 64.307 114.791 64.307 114.791C61.3882 118.58 58.0686 121.839 55.7662 125.757C51.6119 132.833 48.7677 67.7548 86.5682 59.3153C86.5682 59.3153 80.6063 57.63 65.2688 59.9825C59.6413 60.8489 76.3331 48.15 94.3351 46.501C94.8519 40.0928 98.3484 14.3715 121.331 6.07225C131.992 2.22233 149.46 -0.392494 147.241 0.706838C136.284 6.1379 133.136 13.6907 133.136 13.6907C217.236 -18.7781 255.493 15.7378 288.454 37.3738C298.421 43.9133 319.518 57.0012 336.531 58.0915Z" fill="#35253D"/>
<path fill-rule="evenodd" clip-rule="evenodd" d="M144.528 143.17C155.724 143.17 165.86 146.886 173.196 152.892C180.534 158.893 185.075 167.19 185.075 176.353C185.075 185.514 180.534 193.811 173.196 199.815C165.86 205.818 155.724 209.535 144.528 209.535C133.333 209.535 123.195 205.818 115.857 199.815C108.521 193.811 103.982 185.514 103.982 176.353C103.982 167.19 108.524 158.893 115.857 152.892C123.195 146.886 133.333 143.17 144.528 143.17ZM168.348 156.859C162.25 151.869 153.828 148.784 144.528 148.784C135.227 148.784 126.802 151.869 120.705 156.859C114.61 161.847 110.837 168.742 110.837 176.353C110.837 183.965 114.61 190.857 120.705 195.847C126.802 200.835 135.224 203.92 144.528 203.92C153.828 203.92 162.253 200.835 168.348 195.847C174.445 190.857 178.215 183.965 178.215 176.353C178.215 168.742 174.445 161.847 168.348 156.859Z" fill="#2E1E11"/>
<path fill-rule="evenodd" clip-rule="evenodd" d="M248.528 143.17C259.723 143.17 269.861 146.886 277.199 152.892C284.538 158.893 289.073 167.19 289.073 176.353C289.073 185.514 284.535 193.811 277.199 199.815C269.864 205.818 259.723 209.535 248.528 209.535C237.331 209.535 227.196 205.818 219.857 199.815C212.519 193.811 207.98 185.514 207.98 176.353C207.98 167.19 212.519 158.893 219.857 152.892C227.196 146.886 237.331 143.17 248.528 143.17ZM272.348 156.859C266.251 151.869 257.829 148.784 248.528 148.784C239.225 148.784 230.803 151.869 224.708 156.859C218.611 161.847 214.843 168.742 214.843 176.353C214.843 183.965 218.611 190.857 224.708 195.847C230.803 200.835 239.227 203.92 248.528 203.92C257.829 203.92 266.254 200.835 272.348 195.847C278.443 190.857 282.216 183.965 282.216 176.353C282.216 168.742 278.443 161.847 272.348 156.859Z" fill="#2E1E11"/>
<path fill-rule="evenodd" clip-rule="evenodd" d="M106.199 173.639C107.617 173.22 109.184 173.827 109.693 174.992C110.201 176.152 109.463 177.432 108.04 177.851L83.8908 184.969C82.4701 185.386 80.9084 184.779 80.3971 183.614C79.8885 182.454 80.6265 181.174 82.0499 180.755L106.199 173.639Z" fill="#2E1E11"/>
<path fill-rule="evenodd" clip-rule="evenodd" d="M285.118 177.849C283.697 177.43 282.959 176.15 283.467 174.989C283.979 173.824 285.54 173.22 286.961 173.637L311.11 180.755C312.531 181.171 313.269 182.454 312.76 183.614C312.252 184.779 310.687 185.383 309.267 184.969L285.118 177.849Z" fill="#2E1E11"/>
<path fill-rule="evenodd" clip-rule="evenodd" d="M182.239 173.772C181.451 174.829 179.765 175.161 178.477 174.517C177.186 173.872 176.78 172.494 177.568 171.44C177.579 171.422 182.219 164.982 196.529 164.982C210.838 164.982 215.476 171.425 215.49 171.44C216.275 172.497 215.868 173.872 214.578 174.517C213.29 175.161 211.604 174.829 210.816 173.772C210.81 173.759 207.737 169.472 196.529 169.472C185.318 169.47 182.247 173.759 182.239 173.772Z" fill="#2E1E11"/>
<path fill-rule="evenodd" clip-rule="evenodd" d="M239.44 219.207C222.215 224.441 169.868 224.335 153.615 219.838C162.595 246.616 230.709 246.19 239.44 219.207Z" fill="white"/>
<path fill-rule="evenodd" clip-rule="evenodd" d="M143.706 279.141C142.304 278.648 138.706 278.691 138.708 280.765C138.714 283.009 141.279 290.731 139.441 296.436C137.501 302.46 134.242 307.411 137.998 308.606C155.281 314.102 174.113 317.009 193.029 317.319C214.243 317.672 235.567 314.767 254.948 308.606C258.705 307.411 255.443 302.46 253.506 296.436C251.668 290.731 254.233 283.009 254.238 280.765C254.244 278.691 250.642 278.648 249.241 279.141C215.512 290.967 177.435 290.967 143.706 279.141Z" fill="#67627E"/>
<path fill-rule="evenodd" clip-rule="evenodd" d="M53.4523 408.086C53.4633 407.159 54.3865 406.415 55.5198 406.421C56.653 406.43 57.5624 407.186 57.5541 408.113L57.0483 454.57C57.04 455.498 56.114 456.242 54.9835 456.235C53.8531 456.228 52.9437 455.471 52.9492 454.545L53.4523 408.086Z" fill="#383546"/>
<path fill-rule="evenodd" clip-rule="evenodd" d="M336.009 408.086C336.017 407.159 336.943 406.415 338.073 406.421C339.207 406.43 340.116 407.186 340.108 408.113L339.602 454.57C339.594 455.498 338.668 456.242 337.534 456.235C336.404 456.228 335.492 455.471 335.5 454.545L336.009 408.086Z" fill="#383546"/>
<path fill-rule="evenodd" clip-rule="evenodd" d="M148.028 284.389C148.053 283.774 148.683 283.287 149.435 283.305C150.192 283.326 150.784 283.839 150.759 284.459C150.698 285.988 150.679 287.424 150.659 288.872C150.618 291.84 150.577 294.855 150.214 298.397C149.642 304.014 145.958 308.696 145.947 308.708C145.543 309.228 144.698 309.384 144.059 309.049C143.426 308.717 143.238 308.027 143.644 307.504C143.653 307.493 146.967 303.288 147.484 298.214C147.846 294.642 147.887 291.727 147.929 288.854C147.948 287.366 147.97 285.888 148.028 284.389Z" fill="#58556C"/>
<path fill-rule="evenodd" clip-rule="evenodd" d="M159.278 287.655C159.303 287.04 159.933 286.553 160.688 286.572C161.442 286.592 162.034 287.105 162.012 287.725C161.951 289.254 161.932 290.691 161.912 292.138C161.871 295.104 161.829 298.121 161.467 301.664C160.895 307.28 157.208 311.96 157.197 311.974C156.793 312.494 155.947 312.65 155.309 312.315C154.676 311.983 154.488 311.293 154.894 310.77C154.903 310.759 158.217 306.552 158.734 301.478C159.096 297.906 159.137 294.991 159.179 292.118C159.198 290.634 159.22 289.155 159.278 287.655Z" fill="#58556C"/>
<path fill-rule="evenodd" clip-rule="evenodd" d="M171.076 289.438C171.101 288.82 171.728 288.336 172.483 288.356C173.237 288.377 173.831 288.892 173.807 289.508C173.748 291.037 173.729 292.473 173.707 293.921C173.668 296.886 173.627 299.904 173.262 303.448C172.69 309.065 169.005 313.745 168.994 313.759C168.591 314.277 167.745 314.433 167.107 314.1C166.471 313.768 166.286 313.078 166.692 312.557C166.698 312.544 170.014 308.337 170.531 303.263C170.893 299.693 170.935 296.775 170.976 293.905C170.993 292.417 171.015 290.937 171.076 289.438Z" fill="#58556C"/>
<path fill-rule="evenodd" clip-rule="evenodd" d="M183.231 291.22C183.256 290.602 183.886 290.116 184.638 290.134C185.395 290.157 185.987 290.67 185.962 291.288C185.901 292.817 185.882 294.256 185.863 295.701C185.821 298.669 185.78 301.684 185.418 305.226C184.848 310.845 181.161 315.523 181.15 315.539C180.746 316.059 179.901 316.213 179.262 315.878C178.629 315.546 178.441 314.858 178.848 314.335C178.856 314.324 182.17 310.117 182.687 305.043C183.049 301.474 183.09 298.556 183.132 295.683C183.151 294.199 183.173 292.722 183.231 291.22Z" fill="#58556C"/>
<path fill-rule="evenodd" clip-rule="evenodd" d="M240.874 284.459C240.852 283.841 241.443 283.326 242.198 283.305C242.955 283.285 243.582 283.771 243.607 284.389C243.668 285.888 243.687 287.366 243.71 288.856C243.748 291.729 243.79 294.645 244.155 298.216C244.671 303.29 247.983 307.497 247.994 307.506C248.4 308.027 248.212 308.719 247.576 309.051C246.941 309.384 246.095 309.23 245.689 308.71C245.68 308.698 241.99 304.018 241.418 298.4C241.059 294.857 241.017 291.842 240.976 288.874C240.954 287.424 240.934 285.988 240.874 284.459Z" fill="#58556C"/>
<path fill-rule="evenodd" clip-rule="evenodd" d="M229.622 287.725C229.6 287.108 230.191 286.592 230.946 286.572C231.703 286.551 232.33 287.038 232.355 287.655C232.416 289.155 232.435 290.632 232.455 292.123C232.496 294.995 232.538 297.911 232.9 301.483C233.417 306.554 236.731 310.764 236.739 310.775C237.145 311.295 236.957 311.985 236.322 312.32C235.686 312.652 234.837 312.499 234.434 311.978C234.426 311.965 230.736 307.287 230.166 301.668C229.807 298.126 229.765 295.111 229.724 292.143C229.705 290.691 229.683 289.254 229.622 287.725Z" fill="#58556C"/>
<path fill-rule="evenodd" clip-rule="evenodd" d="M217.829 289.508C217.807 288.892 218.398 288.377 219.153 288.356C219.907 288.336 220.537 288.82 220.562 289.438C220.62 290.937 220.64 292.414 220.662 293.905C220.701 296.775 220.742 299.693 221.107 303.263C221.624 308.337 224.938 312.546 224.946 312.557C225.352 313.075 225.164 313.765 224.529 314.1C223.893 314.43 223.047 314.277 222.641 313.759C222.633 313.745 218.945 309.067 218.373 303.448C218.014 299.904 217.972 296.889 217.931 293.921C217.912 292.473 217.89 291.035 217.829 289.508Z" fill="#58556C"/>
<path fill-rule="evenodd" clip-rule="evenodd" d="M205.669 291.29C205.646 290.675 206.238 290.159 206.993 290.137C207.75 290.116 208.377 290.602 208.402 291.222C208.463 292.722 208.482 294.199 208.504 295.687C208.543 298.56 208.585 301.478 208.949 305.048C209.464 310.121 212.778 314.331 212.789 314.34C213.195 314.86 213.007 315.55 212.371 315.883C211.736 316.215 210.89 316.061 210.483 315.543C210.475 315.527 206.785 310.852 206.216 305.231C205.857 301.689 205.815 298.673 205.774 295.706C205.751 294.256 205.729 292.817 205.669 291.29Z" fill="#58556C"/>
<path fill-rule="evenodd" clip-rule="evenodd" d="M194.6 291.256C194.6 290.639 195.213 290.137 195.968 290.137C196.722 290.137 197.336 290.639 197.336 291.256L197.394 314.939C197.394 315.555 196.783 316.057 196.029 316.057C195.274 316.057 194.663 315.555 194.663 314.939L194.6 291.256Z" fill="#58556C"/>
<path fill-rule="evenodd" clip-rule="evenodd" d="M121.602 49.4258C121.246 48.8807 121.494 48.2021 122.16 47.908C122.827 47.614 123.659 47.8198 124.015 48.3627C131.553 59.7993 147.208 69.8584 165.254 77.8727C188.278 88.0947 215.114 94.944 234.05 97.0884C234.799 97.1721 235.321 97.7376 235.219 98.3506C235.117 98.9636 234.423 99.3911 233.677 99.3074C214.456 97.1314 187.25 90.1938 163.947 79.8452C145.483 71.6499 129.421 61.2922 121.602 49.4258Z" fill="#432D4C"/>
<path fill-rule="evenodd" clip-rule="evenodd" d="M136.963 39.62C136.205 39.62 135.592 39.1178 135.592 38.5003C135.592 37.8805 136.205 37.3783 136.963 37.3783C159.014 37.3783 179.548 40.5067 198.26 45.5962C220.303 51.5883 239.792 60.297 256.238 69.8041C273.568 79.8248 287.554 91.1393 297.62 104.856C307.689 118.577 313.82 134.678 315.434 154.258C315.484 154.873 314.915 155.412 314.157 155.45C313.403 155.489 312.75 155.023 312.701 154.407C311.117 135.199 305.122 119.423 295.274 106.005C285.423 92.5802 271.697 81.4829 254.662 71.6386C238.402 62.2378 219.148 53.6331 197.403 47.7202C178.97 42.7054 158.726 39.62 136.963 39.62Z" fill="#432D4C"/>
<path fill-rule="evenodd" clip-rule="evenodd" d="M146.973 29.4161C146.287 29.6763 145.472 29.432 145.157 28.8687C144.842 28.31 145.14 27.6427 145.828 27.3848C202.09 6.17631 238.721 27.2831 270.311 45.4877C278.116 49.9845 285.612 54.3027 292.97 57.7228C293.628 58.0282 293.86 58.709 293.484 59.2474C293.111 59.7857 292.279 59.9757 291.621 59.6681C284.125 56.1869 276.588 51.8416 268.735 47.3176C237.74 29.4614 201.799 8.75049 146.973 29.4161Z" fill="#432D4C"/>
<path fill-rule="evenodd" clip-rule="evenodd" d="M110.326 68.2569C110.287 67.6393 110.867 67.1123 111.622 67.0807C112.376 67.049 113.018 67.524 113.059 68.1415C113.457 74.163 111.362 82.7246 107.761 91.1823C104.272 99.3684 99.358 107.491 93.9157 113.144C83.3296 124.135 83.1693 137.675 83.1693 137.714C83.1582 138.331 82.5336 138.825 81.7818 138.813C81.0272 138.804 80.4246 138.295 80.4357 137.678C80.4357 137.637 80.6098 123.339 91.7626 111.757C97.0197 106.297 101.782 98.4116 105.179 90.4426C108.67 82.2451 110.702 73.9956 110.326 68.2569Z" fill="#432D4C"/>
</svg>
