<svg width="2304" height="2304" viewBox="0 0 2304 2304" fill="none" xmlns="http://www.w3.org/2000/svg">
<path d="M2212.68 703.882C2154.7 566.79 2071.71 443.686 1966.01 337.99C1860.31 232.294 1737.21 149.301 1600.12 91.3159C1458.14 31.2649 1307.37 0.815918 1152 0.815918C996.628 0.815918 845.859 31.2649 703.882 91.3159C566.79 149.301 443.686 232.294 337.99 337.991C232.294 443.688 149.301 566.79 91.3164 703.882C31.2654 845.859 0.816406 996.627 0.816406 1152C0.816406 1307.37 31.2654 1458.14 91.3164 1600.12C149.301 1737.21 232.294 1860.31 337.99 1966.01C361.572 1989.59 386.027 2012.03 411.305 2033.33L435.273 1953.78C455.556 1874.97 488.596 1800.45 533.473 1732.28C577.58 1665.27 631.955 1606.15 695.087 1556.54C758.878 1506.41 829.871 1467.39 906.095 1440.54C984.959 1412.76 1067.69 1398.68 1152 1398.68C1236.31 1398.68 1319.04 1412.77 1397.9 1440.54C1474.13 1467.39 1545.12 1506.41 1608.91 1556.54C1672.04 1606.15 1726.42 1665.27 1770.53 1732.28C1815.4 1800.45 1848.44 1874.97 1868.73 1953.78L1890.25 2035.37C1916.39 2013.47 1941.67 1990.35 1966.01 1966.01C2071.7 1860.31 2154.7 1737.21 2212.68 1600.12C2272.73 1458.14 2303.18 1307.37 2303.18 1152C2303.18 996.627 2272.73 845.859 2212.68 703.882Z" fill="url(#paint0_linear_1697_11764)"/>
<path d="M1868.73 1953.78C1848.44 1874.97 1815.4 1800.45 1770.53 1732.28C1726.42 1665.27 1672.04 1606.15 1608.91 1556.54C1545.12 1506.41 1474.13 1467.39 1397.91 1440.54C1319.04 1412.76 1236.31 1398.68 1152 1398.68C1067.69 1398.68 984.96 1412.77 906.097 1440.54C829.873 1467.39 758.88 1506.41 695.089 1556.54C631.957 1606.15 577.582 1665.27 533.475 1732.28C488.597 1800.45 455.558 1874.97 435.275 1953.78L411.307 2033.33C423.035 2043.21 434.947 2052.84 447.028 2062.22C525.612 2123.24 611.571 2173.64 703.884 2212.68C845.861 2272.73 996.629 2303.18 1152 2303.18C1307.37 2303.18 1458.14 2272.73 1600.12 2212.68C1700.03 2170.43 1792.5 2114.87 1876.23 2046.94C1880.93 2043.12 1885.6 2039.27 1890.25 2035.37L1868.73 1953.78Z" fill="#F2F2F2"/>
<path d="M1530.79 735.308C1510.08 686.34 1480.45 642.38 1442.72 604.648C1404.99 566.916 1361.03 537.283 1312.06 516.572C1261.32 495.111 1207.47 484.229 1152 484.229C1096.53 484.229 1042.68 495.111 991.941 516.572C942.973 537.284 899.013 566.916 861.282 604.648C823.551 642.38 793.917 686.34 773.206 735.308C751.745 786.048 740.863 839.899 740.863 895.366C740.863 950.833 751.745 1004.68 773.206 1055.42C793.917 1104.39 823.55 1148.35 861.282 1186.08C899.014 1223.81 942.974 1253.45 991.941 1274.16C1042.68 1295.62 1096.53 1306.5 1152 1306.5C1207.47 1306.5 1261.32 1295.62 1312.06 1274.16C1361.03 1253.45 1404.99 1223.81 1442.72 1186.08C1480.45 1148.35 1510.08 1104.39 1530.79 1055.42C1552.26 1004.68 1563.14 950.833 1563.14 895.366C1563.14 839.899 1552.26 786.048 1530.79 735.308Z" fill="#F2F2F2"/>
<defs>
<linearGradient id="paint0_linear_1697_11764" x1="1152" y1="0.815918" x2="1152" y2="2035.37" gradientUnits="userSpaceOnUse">
<stop stop-color="#009A99"/>
<stop offset="1" stop-color="#3C6868"/>
</linearGradient>
</defs>
</svg>
