<svg width="396" height="460" viewBox="0 0 396 460" fill="none" xmlns="http://www.w3.org/2000/svg">
<path fill-rule="evenodd" clip-rule="evenodd" d="M199.948 327.045C217.911 374.087 252.857 400.562 314.306 413.236C298.581 394.391 304.123 366.431 330.663 354.447C357.203 342.465 386.369 330.689 386.302 306.546C386.2 268.893 351.249 273.186 371.454 248.798C391.662 224.406 393.127 183.132 356.531 163.226C356.012 162.943 355.525 162.663 355.02 162.38C348.14 156.967 343.237 155.585 351.056 144.793C402.602 73.6532 246.455 4.13512 201.098 61.6985C191.156 50.2347 173.129 38.2099 142.028 41.1098C122.691 42.9103 73.2407 59.4026 51.2697 88.9556C14.7517 138.07 69.1334 137.206 42.8229 162.681C40.1252 164.479 37.3751 166.477 35.197 168.913C34.8792 169.128 34.5613 169.347 34.2407 169.555C-0.193235 191.716 8.2342 224.406 28.4418 248.798C48.6467 273.186 9.4559 273.544 8.7649 305.282C8.05179 337.868 49.6694 344.152 76.2093 356.134C102.752 368.116 101.315 394.391 85.5903 413.236C147.04 400.562 181.985 374.087 199.948 327.045Z" fill="#39271F"/>
<path fill-rule="evenodd" clip-rule="evenodd" d="M197.529 459.415H395.011C395.011 307.417 247.704 389.424 247.704 262.795H197.529H146.627C146.627 389.426 0.046875 307.42 0.046875 459.415H197.529Z" fill="#E4AE7C"/>
<path fill-rule="evenodd" clip-rule="evenodd" d="M89.529 185.785C89.0536 181.494 67.5939 176.42 60.4434 190.467C53.2929 204.514 66.1676 224.415 90.4825 225.976C114.797 227.535 107.647 224.024 107.647 224.024L89.529 185.785Z" fill="#E4AE7C"/>
<path fill-rule="evenodd" clip-rule="evenodd" d="M306.047 185.785C306.522 181.494 327.979 176.42 335.129 190.467C342.28 204.514 329.408 224.415 305.093 225.976C280.775 227.535 287.926 224.024 287.926 224.024L306.047 185.785Z" fill="#E4AE7C"/>
<path fill-rule="evenodd" clip-rule="evenodd" d="M248.523 259.239C248.523 259.239 248.252 265.131 248.423 273.684C229.053 313.511 168.911 317.992 146.595 275.34C146.841 265.896 146.531 259.237 146.531 259.237C180.509 259.239 214.551 259.239 248.523 259.239Z" fill="#D67F54"/>
<path fill-rule="evenodd" clip-rule="evenodd" d="M197.53 280.398C71.013 282.886 7.13415 27.5604 197.53 34.0999C387.922 27.5604 324.046 282.886 197.53 280.398Z" fill="#E4AE7C"/>
<path fill-rule="evenodd" clip-rule="evenodd" d="M140.483 168.295C140.665 169.833 139.291 171.202 137.414 171.353C135.535 171.505 133.863 170.381 133.678 168.845C133.498 167.395 133.636 165.925 134.1 164.511C134.556 163.131 135.317 161.794 136.4 160.573C138.788 157.879 142.293 156.227 146.033 155.734C149.758 155.246 153.711 155.915 157.017 157.867C159.123 159.112 160.709 160.729 161.743 162.529C162.813 164.396 163.283 166.449 163.109 168.483C162.981 170.026 161.353 171.195 159.466 171.091C157.581 170.987 156.152 169.655 156.279 168.112C156.37 167.001 156.124 165.891 155.555 164.898C155.005 163.939 154.156 163.075 153.026 162.41C151.248 161.36 149.117 160.998 147.105 161.263C145.109 161.525 143.23 162.414 141.947 163.864C141.367 164.518 140.961 165.23 140.72 165.961C140.463 166.734 140.389 167.526 140.483 168.295Z" fill="#39271F"/>
<path fill-rule="evenodd" clip-rule="evenodd" d="M141.047 190.827C147.504 194.883 147.788 200.825 141.68 204.098C135.571 207.369 125.383 206.733 118.924 202.678C112.467 198.62 112.185 192.68 118.294 189.406C124.402 186.136 134.59 186.769 141.047 190.827Z" fill="#DA9077"/>
<path fill-rule="evenodd" clip-rule="evenodd" d="M254.713 190.827C248.256 194.883 247.974 200.825 254.083 204.098C260.191 207.369 270.379 206.733 276.836 202.678C283.293 198.62 283.575 192.68 277.466 189.406C271.36 186.136 261.172 186.769 254.713 190.827Z" fill="#DA9077"/>
<path fill-rule="evenodd" clip-rule="evenodd" d="M159.975 131.983C159.554 131.834 159.132 131.692 158.7 131.558C153.756 130.099 149.563 129.703 144.223 130.02C138.99 130.472 135.088 131.438 130.701 133.485C128.656 134.567 120.668 139.86 122.931 141.807C123.857 142.018 131.812 138.692 134.151 138.07C137.785 137.191 140.734 136.853 144.585 136.919C148.175 137.053 150.878 137.48 154.151 138.514C154.239 138.527 154.831 138.744 154.958 138.792C161.63 141.448 161.025 143.153 165.577 140.599C172.589 137.543 165.375 134.279 159.975 131.983Z" fill="#3F2716"/>
<path fill-rule="evenodd" clip-rule="evenodd" d="M235.081 131.983C235.504 131.834 235.924 131.692 236.356 131.558C241.3 130.099 245.493 129.703 250.836 130.02C256.066 130.472 259.968 131.438 264.355 133.485C266.4 134.567 274.388 139.86 272.122 141.807C271.198 142.018 263.241 138.692 260.905 138.07C257.268 137.191 254.319 136.853 250.468 136.919C246.878 137.053 244.178 137.48 240.905 138.514C240.814 138.527 240.225 138.744 240.098 138.792C233.426 141.448 234.028 143.153 229.476 140.599C222.466 137.543 229.68 134.279 235.081 131.983Z" fill="#3F2716"/>
<path fill-rule="evenodd" clip-rule="evenodd" d="M164.709 212.492C176.37 212.375 187.987 212.314 199.602 212.314C211.219 212.314 222.836 212.375 234.497 212.492C234.497 227.465 216.454 232.812 199.665 232.812H199.602H199.538C182.75 232.81 164.709 227.465 164.709 212.492Z" fill="white"/>
<path fill-rule="evenodd" clip-rule="evenodd" d="M191.58 241.731C190.931 241.419 190.713 240.734 191.094 240.2C191.475 239.668 192.31 239.489 192.962 239.802C194.85 240.706 197.252 241.161 199.657 241.161C202.059 241.161 204.416 240.711 206.227 239.811C206.868 239.492 207.711 239.661 208.104 240.188C208.493 240.718 208.286 241.405 207.642 241.722C205.387 242.844 202.518 243.405 199.657 243.405C196.799 243.403 193.905 242.844 191.58 241.731Z" fill="#D67F54"/>
<path fill-rule="evenodd" clip-rule="evenodd" d="M196.492 191.947C195.737 191.947 195.121 191.442 195.121 190.823C195.121 190.205 195.735 189.701 196.492 189.701C199.784 189.701 203.72 189.676 206.755 189.255C209.253 188.909 211.089 188.355 211.089 187.423C211.089 184.193 207.092 164.117 207.078 164.061C206.962 163.45 207.471 162.876 208.217 162.781C208.963 162.683 209.663 163.099 209.781 163.708C209.792 163.767 213.831 184.055 213.831 187.423C213.831 189.787 211.022 190.933 207.205 191.463C203.933 191.917 199.881 191.947 196.492 191.947Z" fill="#D67F54"/>
<path fill-rule="evenodd" clip-rule="evenodd" d="M327.352 201.553C327.352 202.173 326.738 202.678 325.981 202.678C325.221 202.678 324.607 202.176 324.607 201.553C324.607 198.147 323.886 196.003 322.728 194.838C322.034 194.134 321.152 193.813 320.177 193.795C319.054 193.774 317.772 194.121 316.44 194.736C312.838 196.405 309.115 199.945 307.056 203.797C306.064 205.654 305.21 207.564 304.718 209.007C306.824 207.806 309.148 207.328 311.108 207.489C312.222 207.582 313.239 207.878 314.063 208.364C314.931 208.876 315.58 209.586 315.906 210.477C316.467 212.017 316.033 214.085 314.013 216.553C313.593 217.066 312.742 217.204 312.114 216.86C311.487 216.517 311.318 215.822 311.738 215.309C313.247 213.467 313.62 212.063 313.278 211.117C313.134 210.717 312.847 210.402 312.465 210.178C312.037 209.925 311.476 209.767 310.84 209.715C309.079 209.572 306.849 210.201 304.991 211.728C304.494 212.14 304.024 212.368 303.595 212.445C302.495 212.637 301.854 212.241 301.616 211.359L301.603 211.3C301.52 210.966 301.539 210.52 301.641 209.991C301.951 208.396 303.123 205.571 304.549 202.902C306.835 198.626 311.02 194.675 315.091 192.788C316.838 191.978 318.596 191.528 320.229 191.558C322.009 191.592 323.604 192.171 324.848 193.422C326.393 194.978 327.352 197.593 327.352 201.553Z" fill="#D67F54"/>
<path fill-rule="evenodd" clip-rule="evenodd" d="M70.4489 201.553C70.4489 202.173 69.8353 202.678 69.078 202.678C68.3206 202.678 67.707 202.176 67.707 201.553C67.707 197.59 68.6634 194.976 70.2057 193.424C71.455 192.171 73.0471 191.592 74.8243 191.56C76.4606 191.531 78.2185 191.981 79.9626 192.79C84.034 194.679 88.2187 198.629 90.5045 202.904C91.9307 205.573 93.1027 208.398 93.4122 209.993C93.5145 210.522 93.5339 210.968 93.4537 211.303L93.4371 211.361C93.1994 212.244 92.5609 212.64 91.4581 212.447C91.0297 212.37 90.5626 212.14 90.065 211.73C88.2076 210.203 85.9771 209.572 84.2164 209.717C83.5779 209.769 83.0168 209.927 82.5884 210.181C82.2042 210.405 81.9195 210.719 81.7758 211.119C81.4303 212.063 81.8062 213.467 83.3153 215.311C83.7355 215.824 83.5669 216.519 82.9394 216.863C82.312 217.206 81.4635 217.069 81.0406 216.555C79.0228 214.087 78.5861 212.02 79.15 210.479C79.4761 209.588 80.1229 208.878 80.9908 208.367C81.8173 207.88 82.8316 207.584 83.9455 207.491C85.9052 207.331 88.2297 207.808 90.3359 209.009C89.8467 207.566 88.9898 205.659 87.9976 203.8C85.9384 199.947 82.2125 196.407 78.611 194.738C77.2815 194.123 75.999 193.777 74.8741 193.797C73.8984 193.815 73.0222 194.136 72.3229 194.84C71.1703 196.003 70.4489 198.147 70.4489 201.553Z" fill="#D67F54"/>
<path fill-rule="evenodd" clip-rule="evenodd" d="M91.3202 201.696C78.5643 181.324 78.7578 158.571 77.5583 149.828C65.7947 64.0827 131.047 23.3531 195.509 24.8573C196.186 24.8415 196.855 24.8347 197.53 24.8279V58.4322C185.705 55.2586 175.625 53.3359 170.288 53.3359C169.627 53.3359 168.975 53.3268 168.325 53.3065C167.678 53.3268 167.026 53.3359 166.366 53.3359C151.515 53.3359 144.132 73.6057 127.031 79.0933C117.233 82.2375 126.611 119.323 116.475 137.984C113.993 142.554 101.033 153.248 98.0367 154.33C89.2721 161.636 88.3544 169.836 91.3202 201.696Z" fill="#462917"/>
<path fill-rule="evenodd" clip-rule="evenodd" d="M303.739 201.696C316.492 181.324 316.301 158.571 317.501 149.828C329.265 64.0827 264.015 23.3531 199.553 24.8573C198.876 24.8415 198.204 24.8347 197.535 24.8279V58.4322C209.357 55.2586 219.434 53.3359 224.774 53.3359C225.435 53.3359 226.087 53.3268 226.737 53.3065C227.384 53.3268 228.036 53.3359 228.696 53.3359C243.547 53.3359 250.93 79.2471 268.028 84.7347C277.827 87.8789 268.448 119.321 278.584 137.982C281.066 142.551 294.026 153.246 297.025 154.327C305.787 161.636 306.702 169.836 303.739 201.696Z" fill="#462917"/>
<path fill-rule="evenodd" clip-rule="evenodd" d="M197.53 459.415H348.082L339.726 417.17H55.3302L46.9746 459.415H197.53Z" fill="#2E1E11"/>
<path fill-rule="evenodd" clip-rule="evenodd" d="M66.298 420.8C66.1985 423.431 63.5091 425.498 60.2946 425.415C57.08 425.333 54.5537 423.132 54.6532 420.502L66.2537 351.205C66.3532 348.574 69.0426 346.509 72.2572 346.591C75.4745 346.674 77.9952 348.873 77.8985 351.506L66.298 420.8Z" fill="#2E1E11"/>
<path fill-rule="evenodd" clip-rule="evenodd" d="M328.759 420.8C328.858 423.431 331.548 425.498 334.762 425.415C337.98 425.333 340.506 423.132 340.404 420.502L328.806 351.205C328.704 348.574 326.017 346.509 322.8 346.591C319.585 346.674 317.059 348.873 317.161 351.506L328.759 420.8Z" fill="#2E1E11"/>
<path fill-rule="evenodd" clip-rule="evenodd" d="M239.497 168.295C239.683 169.833 238.309 171.202 236.429 171.353C234.55 171.505 232.878 170.381 232.695 168.845C232.515 167.395 232.654 165.925 233.118 164.511C233.574 163.131 234.334 161.794 235.418 160.573C237.806 157.879 241.311 156.227 245.05 155.734C248.776 155.246 252.731 155.915 256.034 157.867C258.14 159.112 259.727 160.729 260.761 162.529C261.83 164.396 262.3 166.449 262.129 168.483C262.002 170.026 260.371 171.195 258.486 171.091C256.598 170.987 255.172 169.655 255.296 168.112C255.39 167.001 255.142 165.891 254.575 164.898C254.025 163.939 253.174 163.075 252.046 162.41C250.269 161.36 248.138 160.998 246.125 161.263C244.13 161.525 242.25 162.414 240.968 163.864C240.387 164.518 239.981 165.23 239.741 165.961C239.481 166.734 239.406 167.526 239.497 168.295Z" fill="#39271F"/>
<path fill-rule="evenodd" clip-rule="evenodd" d="M122.364 84.4203C179.582 51.791 154.938 109.657 203.266 109.811C227.321 109.888 249.35 117.839 248.955 134.539C248.563 151.24 248.416 158.639 270.481 167.311C313.243 184.113 231.633 242.027 338.744 245.251C327.547 202.933 380.682 189.253 362.708 152.534C344.736 115.815 309.979 126.521 317.547 103.717C323.503 85.773 326.002 66.3628 310.258 52.56C287.513 32.6228 265.017 52.9378 250.453 33.7492C238.234 17.6483 231.086 -6.23386 179.449 2.71688C113.702 14.1128 110.921 57.1112 122.364 84.4203Z" fill="#623A1C"/>
<path fill-rule="evenodd" clip-rule="evenodd" d="M129.742 64.3767C129.308 64.8789 128.454 65.001 127.837 64.6459C127.224 64.2885 127.077 63.5941 127.511 63.0896C129.687 60.5743 134.855 57.8192 141.107 56.039C145.522 54.7836 150.511 53.9919 155.406 54.0937C160.375 54.1955 165.254 55.2179 169.356 57.5952C172.96 59.6831 175.939 62.7979 177.822 67.2269C182.075 77.2362 186.014 82.7939 191.47 85.911C196.907 89.019 204.066 89.8016 214.702 90.2382C225.749 90.6906 238.934 92.1292 249.553 96.9495C260.33 101.842 268.426 110.151 268.989 124.29C269.526 137.731 271.452 145.209 274.99 149.749C278.423 154.151 283.564 155.854 290.549 157.714C291.063 157.849 291.535 157.983 291.958 158.112C298.796 160.188 303.879 163.712 306.406 168.901C308.893 174.009 308.852 180.682 305.499 189.122C305.173 189.945 304.83 190.752 304.474 191.542C300.488 200.332 299.54 208.263 301.057 214.567C302.605 221 306.729 225.714 312.796 227.84C313.49 228.082 313.816 228.74 313.52 229.31C313.224 229.878 312.42 230.143 311.724 229.901C304.789 227.469 300.095 222.178 298.368 214.997C296.759 208.308 297.732 199.954 301.9 190.761C302.276 189.936 302.605 189.158 302.895 188.429C306.038 180.517 306.121 174.355 303.866 169.727C301.654 165.183 297.127 162.077 291.002 160.215C290.535 160.075 290.101 159.948 289.7 159.844C282.168 157.84 276.601 155.976 272.685 150.95C268.873 146.06 266.809 138.242 266.253 124.36C265.728 111.175 258.221 103.444 248.221 98.9062C238.066 94.2985 225.296 92.9164 214.572 92.4753C203.436 92.0184 195.893 91.1701 189.9 87.7454C183.919 84.3298 179.693 78.4509 175.237 67.9643C173.554 64.008 170.934 61.2506 167.78 59.4207C164.165 57.3238 159.806 56.4235 155.339 56.3308C150.795 56.2358 146.138 56.9777 142.009 58.154C136.27 59.7849 131.61 62.2165 129.742 64.3767Z" fill="#774D30"/>
<path fill-rule="evenodd" clip-rule="evenodd" d="M143.744 32.0708C143.064 32.3423 142.243 32.1116 141.912 31.5528C141.577 30.9964 141.862 30.3246 142.545 30.0509C145.126 29.0217 148.203 28.0761 151.569 27.3139C159.115 25.606 168.109 24.8257 176.188 26.072C184.447 27.3455 191.755 30.7182 195.694 37.3232C196.387 38.4904 196.979 39.7684 197.446 41.1596C200.39 49.8592 206.133 55.8037 213.298 59.432C221.531 63.6054 231.681 64.7477 241.656 63.5149C243.796 63.2502 246.076 63.1168 248.433 63.1168C257.527 63.1168 267.933 65.0938 276.452 69.1111C285.095 73.185 291.809 79.3534 293.346 87.6934C293.564 88.8742 293.677 90.0957 293.677 91.3533C293.677 95.0698 293.559 98.6754 293.451 101.967C293.011 115.416 292.751 123.322 302.072 127.81C302.826 128.176 303.523 128.502 304.272 128.86H304.28C318.833 135.736 354.635 152.654 341.857 179.963C328.722 208.03 325.704 211.124 325.696 211.133C325.237 211.624 324.377 211.717 323.777 211.343C323.178 210.968 323.064 210.264 323.52 209.774C323.529 209.765 326.301 206.935 339.294 179.164C351.24 153.635 316.876 137.396 302.906 130.796C302.041 130.386 301.254 130.015 300.687 129.742C289.974 124.584 290.25 116.19 290.717 101.917C290.819 98.7863 290.933 95.3525 290.933 91.3533C290.933 90.202 290.831 89.0913 290.634 88.0259C289.236 80.446 283.055 74.8023 275.09 71.0474C267.008 67.2359 257.101 65.3607 248.431 65.3607C246.2 65.3607 244.058 65.4851 242.06 65.7339C231.49 67.0391 220.683 65.804 211.86 61.3343C204.135 57.4211 197.955 51.049 194.809 41.7567C194.389 40.5171 193.856 39.3681 193.225 38.3094C189.723 32.4373 183.145 29.4266 175.679 28.2752C168.043 27.0967 159.488 27.8432 152.293 29.4741C149.115 30.1934 146.199 31.0891 143.744 32.0708Z" fill="#774D30"/>
</svg>
