<svg width="393" height="421" viewBox="0 0 393 421" fill="none" xmlns="http://www.w3.org/2000/svg">
<path fill-rule="evenodd" clip-rule="evenodd" d="M196.471 418.554H0.274457C-1.99479 336.451 75.1954 288.786 141.476 271C146.852 248.092 145.478 218.381 145.478 218.381H196.471H247.465C247.465 218.381 246.094 248.092 251.47 271C317.753 288.786 394.94 336.451 392.671 418.554H196.471Z" fill="#E4AE7C"/>
<path fill-rule="evenodd" clip-rule="evenodd" d="M248.15 247.844C241.771 257.828 219.512 267.362 196.475 267.516C174.216 267.668 151.164 258.78 144.799 249.174C145.44 241.641 145.65 234.548 145.686 229.074H247.374C247.407 234.224 247.592 240.807 248.15 247.844Z" fill="#D67F54"/>
<path fill-rule="evenodd" clip-rule="evenodd" d="M88.471 152.532C87.9928 148.236 66.536 143.165 59.3883 157.212C52.235 171.259 65.1068 191.16 89.4245 192.721C113.742 194.282 106.592 190.771 106.592 190.771L88.471 152.532Z" fill="#E4AE7C"/>
<path fill-rule="evenodd" clip-rule="evenodd" d="M196.472 418.554H189.241H182.01H174.777H167.547H160.316H153.082H145.852H138.619H131.388H124.157H116.927H109.693H102.463H95.2319H88.0014H80.768H73.5346H66.3039H59.0734H51.84H44.6093H37.3676H30.1371H22.9037H15.673H8.44244H1.21174H0.277472C-1.56335 352.011 48.7941 308.092 103.231 284.366C105.81 283.296 108.248 282.283 110.531 281.314C120.885 277.161 131.308 273.73 141.479 271C141.747 269.855 141.999 268.69 142.237 267.516C164.432 275.524 205.93 284.382 250.939 268.579C251.11 269.391 251.287 270.201 251.475 271C261.517 273.694 271.81 277.08 282.04 281.163C284.527 282.222 287.214 283.337 290.058 284.513C344.365 308.275 394.515 352.147 392.677 418.554H391.743H384.512H377.279H370.048H362.818H355.587H348.354H341.123H333.892H326.662H319.428H312.195H304.964H297.734H290.5H283.27H276.039H268.808H261.575H254.344H247.114H239.883H232.65H225.416H218.186H210.955H203.722H196.472Z" fill="#575756"/>
<path fill-rule="evenodd" clip-rule="evenodd" d="M304.992 152.532C305.468 148.236 326.924 143.165 334.075 157.212C341.225 171.259 328.353 191.16 304.036 192.721C279.721 194.282 286.871 190.771 286.871 190.771L304.992 152.532Z" fill="#E4AE7C"/>
<path fill-rule="evenodd" clip-rule="evenodd" d="M196.471 247.142C69.9544 249.633 6.07555 -5.69491 196.471 0.844533C386.866 -5.69491 322.993 249.633 196.471 247.142Z" fill="#E4AE7C"/>
<path fill-rule="evenodd" clip-rule="evenodd" d="M326.296 168.303C326.296 168.92 325.68 169.425 324.923 169.425C324.168 169.425 323.552 168.92 323.552 168.303C323.552 164.892 322.83 162.749 321.675 161.582C320.976 160.881 320.099 160.56 319.121 160.542C317.999 160.519 316.716 160.863 315.384 161.483C311.783 163.15 308.059 166.69 306.003 170.544C305.011 172.399 304.154 174.308 303.662 175.751C305.771 174.553 308.093 174.075 310.052 174.236C311.169 174.329 312.183 174.623 313.01 175.109C313.878 175.623 314.527 176.333 314.851 177.226C315.412 178.767 314.981 180.834 312.957 183.3C312.537 183.813 311.689 183.951 311.058 183.607C310.431 183.266 310.262 182.569 310.683 182.053C312.192 180.212 312.568 178.807 312.225 177.864C312.078 177.464 311.791 177.149 311.409 176.923C310.981 176.672 310.423 176.514 309.784 176.462C308.021 176.319 305.793 176.948 303.935 178.477C303.435 178.887 302.971 179.117 302.54 179.192C301.442 179.386 300.798 178.991 300.561 178.108L300.544 178.05C300.461 177.719 300.483 177.269 300.583 176.74C300.892 175.143 302.064 172.32 303.49 169.651C305.776 165.373 309.961 161.422 314.032 159.535C315.779 158.728 317.537 158.273 319.171 158.305C320.951 158.341 322.546 158.915 323.789 160.171C325.337 161.723 326.296 164.337 326.296 168.303Z" fill="#D67F54"/>
<path fill-rule="evenodd" clip-rule="evenodd" d="M69.3942 168.303C69.3942 168.92 68.7805 169.425 68.0232 169.425C67.2659 169.425 66.6523 168.92 66.6523 168.303C66.6523 164.337 67.6114 161.722 69.151 160.171C70.3975 158.913 71.9924 158.338 73.7724 158.305C75.4059 158.273 77.1638 158.725 78.9107 159.535C82.982 161.422 87.1667 165.373 89.4498 169.651C90.8788 172.32 92.0479 175.143 92.3602 176.74C92.4625 177.269 92.4819 177.719 92.4017 178.05L92.3852 178.108C92.1447 178.991 91.5089 179.386 90.4033 179.192C89.9749 179.117 89.5078 178.884 89.0103 178.477C87.1529 176.948 84.9223 176.319 83.1616 176.462C82.5259 176.514 81.9622 176.672 81.5365 176.923C81.1496 177.149 80.8675 177.464 80.721 177.864C80.3755 178.807 80.7514 180.21 82.2606 182.053C82.6807 182.569 82.5149 183.263 81.8847 183.607C81.2573 183.951 80.4086 183.813 79.9885 183.3C77.9653 180.832 77.5341 178.764 78.0952 177.226C78.4213 176.333 79.071 175.622 79.9389 175.109C80.7653 174.623 81.7797 174.329 82.8908 174.236C84.8533 174.075 87.1777 174.553 89.2866 175.751C88.7947 174.308 87.9379 172.401 86.9456 170.544C84.8864 166.69 81.1606 163.15 77.5646 161.483C76.2324 160.863 74.9499 160.519 73.8277 160.542C72.852 160.56 71.9703 160.881 71.2737 161.582C70.1129 162.749 69.3942 164.892 69.3942 168.303Z" fill="#D67F54"/>
<path fill-rule="evenodd" clip-rule="evenodd" d="M53.4014 372.086C53.4097 371.159 54.3356 370.415 55.4661 370.421C56.5993 370.43 57.5058 371.186 57.5003 372.113L56.9945 418.57C56.9835 419.498 56.0603 420.242 54.9271 420.235C53.7966 420.228 52.8846 419.471 52.8956 418.545L53.4014 372.086Z" fill="#383546"/>
<path fill-rule="evenodd" clip-rule="evenodd" d="M335.951 372.086C335.959 371.159 336.885 370.415 338.016 370.421C339.149 370.43 340.059 371.186 340.05 372.113L339.544 418.57C339.533 419.498 338.61 420.242 337.477 420.235C336.346 420.228 335.437 419.471 335.445 418.545L335.951 372.086Z" fill="#383546"/>
<path fill-rule="evenodd" clip-rule="evenodd" d="M79.4961 133.742C81.16 128.376 83.9462 112.859 84.101 115.279C87.0806 162.46 109.662 193.418 130.475 206.976C151.031 220.363 119.041 173.795 194.396 174.419C195.103 174.412 195.783 174.419 196.471 174.421C197.162 174.419 197.84 174.412 198.547 174.419C273.905 173.795 241.914 220.363 262.47 206.976C283.28 193.418 305.862 162.46 308.844 115.279C308.999 112.859 311.785 128.376 313.447 133.742C301.556 192.524 255.936 248.312 196.471 247.142C137.007 248.314 91.3868 192.526 79.4961 133.742Z" fill="#784928"/>
<path fill-rule="evenodd" clip-rule="evenodd" d="M83.9544 150.897C85.5105 147.212 86.453 139.532 86.2899 129.634C86.0577 115.863 109.372 109.081 106.589 89.3453C98.4183 31.4336 153.248 51.0542 196.471 51.0655V0.844545C86.7929 -2.92395 61.5024 80.2091 83.9544 150.897Z" fill="#784928"/>
<path fill-rule="evenodd" clip-rule="evenodd" d="M309.37 149.65C308.046 145.839 307.084 138.761 306.656 129.631C306.012 115.867 283.576 109.079 286.357 89.343C294.524 31.4313 239.695 51.0519 196.469 51.0632V0.84223C305.511 -2.90138 331.128 79.2364 309.37 149.65Z" fill="#784928"/>
<path fill-rule="evenodd" clip-rule="evenodd" d="M153.964 128.632C159.047 131.631 160.186 137.426 156.513 141.573C152.842 145.721 145.747 146.653 140.666 143.656C135.586 140.656 134.445 134.861 138.118 130.713C141.794 126.564 148.887 125.635 153.964 128.632Z" fill="#20201E"/>
<path fill-rule="evenodd" clip-rule="evenodd" d="M239.684 128.632C234.604 131.631 233.465 137.426 237.135 141.573C240.806 145.721 247.904 146.653 252.981 143.656C258.059 140.656 259.2 134.861 255.53 130.713C251.856 126.564 244.764 125.635 239.684 128.632Z" fill="#20201E"/>
<path fill-rule="evenodd" clip-rule="evenodd" d="M139.992 162.295C146.448 166.353 146.73 172.295 140.622 175.566C134.513 178.837 124.325 178.201 117.866 174.143C111.409 170.087 111.127 164.145 117.238 160.874C123.35 157.603 133.535 158.239 139.992 162.295Z" fill="#DA9077"/>
<path fill-rule="evenodd" clip-rule="evenodd" d="M253.662 162.295C247.202 166.353 246.92 172.295 253.029 175.566C259.14 178.837 269.325 178.201 275.782 174.143C282.239 170.087 282.52 164.145 276.412 160.874C270.304 157.603 260.118 158.239 253.662 162.295Z" fill="#DA9077"/>
<path fill-rule="evenodd" clip-rule="evenodd" d="M158.92 103.453C158.5 103.302 158.074 103.162 157.646 103.026C152.701 101.567 148.508 101.173 143.168 101.488C137.938 101.94 134.033 102.908 129.646 104.955C127.604 106.034 119.613 111.325 121.879 113.279C122.805 113.488 130.76 110.16 133.099 109.54C136.733 108.66 139.683 108.326 143.533 108.391C147.123 108.525 149.826 108.95 153.102 109.984C153.19 109.997 153.782 110.217 153.906 110.26C160.581 112.915 159.976 114.623 164.528 112.067C171.535 109.016 164.321 105.747 158.92 103.453Z" fill="#3F2716"/>
<path fill-rule="evenodd" clip-rule="evenodd" d="M234.026 103.453C234.447 103.302 234.869 103.162 235.301 103.026C240.245 101.567 244.438 101.173 249.776 101.488C255.008 101.94 258.913 102.908 263.297 104.955C265.342 106.034 273.331 111.325 271.067 113.279C270.144 113.488 262.186 110.16 259.851 109.54C256.213 108.66 253.264 108.326 249.414 108.391C245.823 108.525 243.123 108.95 239.847 109.984C239.759 109.997 239.167 110.217 239.043 110.26C232.368 112.915 232.973 114.623 228.421 112.067C221.414 109.016 228.626 105.747 234.026 103.453Z" fill="#3F2716"/>
<path fill-rule="evenodd" clip-rule="evenodd" d="M190.526 213.199C189.876 212.887 189.658 212.204 190.039 211.67C190.421 211.138 191.255 210.957 191.908 211.269C193.796 212.172 196.197 212.627 198.602 212.627C201.001 212.627 203.365 212.176 205.172 211.278C205.816 210.957 206.656 211.129 207.049 211.656C207.441 212.181 207.231 212.871 206.587 213.192C204.332 214.312 201.466 214.87 198.602 214.87C195.747 214.87 192.85 214.314 190.526 213.199Z" fill="#D67F54"/>
<path fill-rule="evenodd" clip-rule="evenodd" d="M195.44 172.576C194.683 172.576 194.066 172.073 194.066 171.454C194.066 170.836 194.683 170.332 195.44 170.332C198.729 170.332 202.663 170.307 205.703 169.886C208.199 169.54 210.034 168.986 210.034 168.054C210.034 164.824 206.037 144.748 206.026 144.692C205.91 144.081 206.419 143.509 207.162 143.412C207.911 143.317 208.608 143.731 208.729 144.341C208.74 144.4 212.781 164.686 212.781 168.054C212.781 170.418 209.971 171.564 206.154 172.094C202.878 172.551 198.823 172.576 195.44 172.576Z" fill="#D67F54"/>
<path fill-rule="evenodd" clip-rule="evenodd" d="M144.475 107.17C155.669 107.17 165.807 110.886 173.143 116.892C180.478 122.893 185.02 131.19 185.02 140.353C185.02 149.515 180.478 157.811 173.143 163.815C165.807 169.818 155.669 173.535 144.475 173.535C133.278 173.535 123.139 169.818 115.804 163.815C108.465 157.811 103.927 149.515 103.927 140.353C103.927 131.19 108.465 122.893 115.804 116.892C123.139 110.886 133.278 107.17 144.475 107.17ZM168.295 120.859C162.197 115.869 153.776 112.784 144.475 112.784C135.171 112.784 126.746 115.869 120.652 120.859C114.557 125.847 110.787 132.742 110.787 140.353C110.787 147.965 114.557 154.857 120.652 159.847C126.746 164.835 135.171 167.92 144.475 167.92C153.776 167.92 162.197 164.835 168.295 159.847C174.389 154.857 178.159 147.965 178.159 140.353C178.159 132.742 174.389 125.847 168.295 120.859Z" fill="#2E1E11"/>
<path fill-rule="evenodd" clip-rule="evenodd" d="M248.474 107.17C259.671 107.17 269.806 110.886 277.145 116.892C284.48 122.893 289.022 131.19 289.022 140.353C289.022 149.515 284.48 157.811 277.145 163.815C269.806 169.818 259.671 173.535 248.474 173.535C237.277 173.535 227.141 169.818 219.806 163.815C212.467 157.811 207.929 149.515 207.929 140.353C207.929 131.19 212.467 122.893 219.806 116.892C227.141 110.886 237.277 107.17 248.474 107.17ZM272.294 120.859C266.199 115.869 257.777 112.784 248.474 112.784C239.173 112.784 230.748 115.869 224.654 120.859C218.559 125.847 214.789 132.742 214.789 140.353C214.789 147.965 218.559 154.857 224.654 159.847C230.748 164.835 239.173 167.92 248.474 167.92C257.777 167.92 266.199 164.835 272.294 159.847C278.389 154.857 282.159 147.965 282.159 140.353C282.159 132.742 278.389 125.847 272.294 120.859Z" fill="#2E1E11"/>
<path fill-rule="evenodd" clip-rule="evenodd" d="M106.144 137.639C107.565 137.22 109.129 137.827 109.638 138.992C110.149 140.152 109.408 141.432 107.988 141.851L83.8386 148.969C82.4179 149.386 80.8563 148.779 80.345 147.614C79.8364 146.454 80.5772 145.174 81.9979 144.755L106.144 137.639Z" fill="#2E1E11"/>
<path fill-rule="evenodd" clip-rule="evenodd" d="M285.063 141.849C283.642 141.43 282.904 140.15 283.413 138.989C283.921 137.824 285.486 137.22 286.906 137.637L311.055 144.755C312.473 145.171 313.211 146.454 312.706 147.614C312.194 148.779 310.633 149.383 309.212 148.969L285.063 141.849Z" fill="#2E1E11"/>
<path fill-rule="evenodd" clip-rule="evenodd" d="M182.184 137.772C181.396 138.829 179.713 139.161 178.422 138.517C177.132 137.872 176.725 136.494 177.513 135.44C177.527 135.422 182.165 128.982 196.471 128.982C210.78 128.982 215.421 135.425 215.432 135.44C216.22 136.497 215.811 137.872 214.52 138.517C213.232 139.161 211.549 138.829 210.761 137.772C210.75 137.759 207.682 133.472 196.471 133.472C185.266 133.47 182.192 137.759 182.184 137.772Z" fill="#2E1E11"/>
<path fill-rule="evenodd" clip-rule="evenodd" d="M239.388 183.207C222.16 188.441 169.813 188.335 153.561 183.838C162.541 210.616 230.651 210.19 239.388 183.207Z" fill="white"/>
<path fill-rule="evenodd" clip-rule="evenodd" d="M88.1562 52.5583C96.5118 53.7142 112.607 53.9042 120.871 51.4183C138.873 43.6325 158.669 53.6305 196.475 53.3772C213.766 53.3727 259.712 50.2918 275.625 34.9894C283.53 27.3868 279.373 40.5924 263.999 49.1653C273.115 51.9408 293.795 55.0647 304.978 52.9226C288.715 21.0985 254.369 -1.14378 196.475 0.846785C138.798 -1.13699 104.491 20.9288 88.1562 52.5583Z" fill="#231A11"/>
<path fill-rule="evenodd" clip-rule="evenodd" d="M125.367 275.012C125.367 273.153 127.211 271.647 129.483 271.647C131.755 271.647 133.596 273.153 133.596 275.012C133.596 295.581 141.799 318.316 154.566 335.392C165.968 350.638 180.877 361.233 196.471 361.233C212.375 361.233 227.522 350.9 238.981 335.575C251.406 318.963 259.347 296.642 259.347 275.012C259.347 273.153 261.187 271.647 263.462 271.647C265.734 271.647 267.575 273.153 267.575 275.012C267.575 297.856 259.156 321.465 245.988 339.075C233.083 356.331 215.501 367.967 196.468 367.967C177.704 367.967 160.384 356.046 147.554 338.889C134.043 320.818 125.367 296.768 125.367 275.012Z" fill="#D57B19"/>
</svg>
