<svg width="395" height="451" viewBox="0 0 395 451" fill="none" xmlns="http://www.w3.org/2000/svg">
<path fill-rule="evenodd" clip-rule="evenodd" d="M197.472 448.739H394.954C394.954 296.739 247.647 378.748 247.647 252.116H197.472H146.57C146.57 378.748 -0.0078125 296.739 -0.0078125 448.739H197.472Z" fill="#E4AE7C"/>
<path fill-rule="evenodd" clip-rule="evenodd" d="M89.471 175.109C88.9928 170.816 67.536 165.744 60.3883 179.791C53.235 193.838 66.1068 213.739 90.4245 215.3C114.742 216.861 107.592 213.35 107.592 213.35L89.471 175.109Z" fill="#E4AE7C"/>
<path fill-rule="evenodd" clip-rule="evenodd" d="M305.992 175.109C306.468 170.816 327.924 165.744 335.075 179.791C342.225 193.838 329.353 213.739 305.036 215.3C280.721 216.861 287.871 213.35 287.871 213.35L305.992 175.109Z" fill="#E4AE7C"/>
<path fill-rule="evenodd" clip-rule="evenodd" d="M248.468 248.561C248.468 248.561 248.197 254.453 248.371 263.006C230.645 299.449 165.448 300.795 146.542 264.661C146.788 255.22 146.481 248.561 146.481 248.561C180.451 248.561 214.495 248.561 248.468 248.561Z" fill="#D67F54"/>
<path fill-rule="evenodd" clip-rule="evenodd" d="M197.472 269.722C70.9553 272.21 7.07653 16.882 197.472 23.4237C387.867 16.882 323.994 272.208 197.472 269.722Z" fill="#E4AE7C"/>
<path fill-rule="evenodd" clip-rule="evenodd" d="M140.428 157.617C140.611 159.155 139.237 160.526 137.36 160.677C135.481 160.829 133.809 159.705 133.623 158.166C133.444 156.717 133.579 155.246 134.046 153.832C134.502 152.45 135.265 151.116 136.349 149.894C138.731 147.198 142.241 145.547 145.978 145.056C149.704 144.567 153.657 145.237 156.962 147.187C159.071 148.431 160.658 150.048 161.689 151.849C162.759 153.715 163.228 155.769 163.057 157.802C162.93 159.345 161.297 160.514 159.411 160.41C157.526 160.306 156.1 158.974 156.227 157.429C156.318 156.318 156.07 155.21 155.5 154.217C154.953 153.258 154.102 152.394 152.971 151.727C151.194 150.679 149.063 150.317 147.051 150.582C145.055 150.842 143.178 151.731 141.893 153.183C141.313 153.837 140.906 154.55 140.666 155.28C140.409 156.056 140.331 156.85 140.428 157.617Z" fill="#39271F"/>
<path fill-rule="evenodd" clip-rule="evenodd" d="M140.992 180.149C147.448 184.209 147.73 190.147 141.622 193.422C135.513 196.693 125.325 196.057 118.866 192.001C112.409 187.943 112.127 182.003 118.238 178.73C124.347 175.457 134.535 176.093 140.992 180.149Z" fill="#DA9077"/>
<path fill-rule="evenodd" clip-rule="evenodd" d="M254.662 180.149C248.202 184.209 247.92 190.147 254.029 193.422C260.14 196.693 270.325 196.057 276.782 192.001C283.239 187.943 283.52 182.003 277.412 178.73C271.304 175.457 261.118 176.093 254.662 180.149Z" fill="#DA9077"/>
<path fill-rule="evenodd" clip-rule="evenodd" d="M159.92 121.305C159.5 121.156 159.074 121.013 158.646 120.88C153.701 119.421 149.508 119.025 144.168 119.339C138.938 119.794 135.033 120.76 130.646 122.807C128.604 123.888 120.613 129.179 122.879 131.129C123.805 131.337 131.76 128.012 134.099 127.392C137.733 126.514 140.683 126.175 144.533 126.241C148.123 126.374 150.826 126.802 154.102 127.835C154.19 127.847 154.782 128.066 154.906 128.111C161.581 130.765 160.976 132.472 165.528 129.919C172.535 126.867 165.321 123.603 159.92 121.305Z" fill="#3F2716"/>
<path fill-rule="evenodd" clip-rule="evenodd" d="M235.026 121.305C235.447 121.156 235.869 121.013 236.301 120.88C241.245 119.421 245.438 119.025 250.776 119.339C256.008 119.794 259.913 120.76 264.297 122.807C266.342 123.888 274.331 129.179 272.067 131.129C271.144 131.337 263.186 128.012 260.851 127.392C257.213 126.514 254.264 126.175 250.414 126.241C246.823 126.374 244.123 126.802 240.847 127.835C240.759 127.847 240.167 128.066 240.043 128.111C233.368 130.765 233.973 132.472 229.421 129.919C222.414 126.867 229.626 123.603 235.026 121.305Z" fill="#3F2716"/>
<path fill-rule="evenodd" clip-rule="evenodd" d="M164.654 201.814C176.316 201.694 187.93 201.635 199.547 201.635C211.164 201.635 222.778 201.694 234.44 201.814C234.44 216.786 216.399 222.134 199.608 222.134L199.547 222.131L199.486 222.134C182.698 222.134 164.654 216.786 164.654 201.814Z" fill="white"/>
<path fill-rule="evenodd" clip-rule="evenodd" d="M191.527 231.055C190.877 230.743 190.659 230.055 191.04 229.524C191.422 228.992 192.256 228.813 192.909 229.125C194.796 230.03 197.198 230.483 199.603 230.483C202.002 230.483 204.365 230.033 206.173 229.134C206.817 228.816 207.657 228.983 208.05 229.512C208.442 230.039 208.232 230.729 207.588 231.046C205.333 232.166 202.467 232.729 199.603 232.729C196.748 232.727 193.851 232.168 191.527 231.055Z" fill="#D67F54"/>
<path fill-rule="evenodd" clip-rule="evenodd" d="M196.441 181.268C195.684 181.268 195.067 180.764 195.067 180.146C195.067 179.527 195.684 179.022 196.441 179.022C199.73 179.022 203.663 178.997 206.704 178.577C209.2 178.23 211.035 177.676 211.035 176.744C211.035 173.516 207.038 153.441 207.027 153.382C206.911 152.772 207.42 152.199 208.163 152.102C208.912 152.005 209.609 152.423 209.73 153.032C209.741 153.091 213.782 173.376 213.782 176.744C213.782 179.11 210.972 180.257 207.154 180.786C203.879 181.241 199.824 181.268 196.441 181.268Z" fill="#D67F54"/>
<path fill-rule="evenodd" clip-rule="evenodd" d="M327.296 190.877C327.296 191.497 326.68 192.001 325.923 192.001C325.168 192.001 324.552 191.499 324.552 190.877C324.552 187.471 323.83 185.324 322.675 184.159C321.976 183.458 321.099 183.137 320.121 183.119C318.999 183.096 317.716 183.442 316.384 184.06C312.783 185.727 309.059 189.267 307.003 193.121C306.011 194.978 305.154 196.885 304.662 198.328C306.771 197.129 309.093 196.652 311.052 196.813C312.169 196.906 313.183 197.2 314.01 197.686C314.878 198.199 315.527 198.91 315.851 199.801C316.412 201.339 315.981 203.409 313.957 205.877C313.537 206.39 312.689 206.526 312.058 206.182C311.431 205.838 311.262 205.144 311.683 204.628C313.192 202.789 313.568 201.382 313.225 200.439C313.078 200.038 312.791 199.724 312.409 199.498C311.981 199.247 311.423 199.088 310.784 199.036C309.021 198.892 306.793 199.52 304.935 201.049C304.435 201.459 303.971 201.69 303.54 201.767C302.442 201.961 301.798 201.563 301.561 200.683L301.544 200.622C301.461 200.289 301.483 199.844 301.583 199.312C301.892 197.718 303.064 194.892 304.49 192.225C306.776 187.948 310.961 183.999 315.032 182.11C316.779 181.302 318.537 180.85 320.171 180.882C321.951 180.915 323.546 181.492 324.789 182.748C326.337 184.299 327.296 186.914 327.296 190.877Z" fill="#D67F54"/>
<path fill-rule="evenodd" clip-rule="evenodd" d="M70.3942 190.877C70.3942 191.497 69.7805 192.001 69.0232 192.001C68.2659 192.001 67.6523 191.499 67.6523 190.877C67.6523 186.914 68.6114 184.299 70.151 182.748C71.3975 181.492 72.9924 180.915 74.7724 180.881C76.4059 180.852 78.1638 181.302 79.9107 182.11C83.982 183.999 88.1667 187.95 90.4498 192.225C91.8788 194.895 93.0479 197.718 93.3602 199.312C93.4625 199.844 93.4819 200.289 93.4017 200.622L93.3852 200.683C93.1447 201.565 92.5089 201.961 91.4033 201.767C90.9749 201.69 90.5078 201.459 90.0103 201.049C88.1529 199.52 85.9223 198.889 84.1616 199.036C83.5259 199.088 82.9622 199.247 82.5365 199.498C82.1496 199.724 81.8675 200.038 81.721 200.439C81.3755 201.382 81.7514 202.787 83.2606 204.628C83.6807 205.141 83.5149 205.838 82.8847 206.182C82.2573 206.526 81.4086 206.39 80.9885 205.877C78.9653 203.409 78.5341 201.339 79.0952 199.801C79.4213 198.907 80.071 198.197 80.9389 197.686C81.7653 197.2 82.7797 196.906 83.8908 196.813C85.8533 196.652 88.1777 197.129 90.2866 198.328C89.7947 196.887 88.9379 194.978 87.9456 193.121C85.8864 189.267 82.1606 185.727 78.5646 184.06C77.2324 183.442 75.9499 183.096 74.8277 183.119C73.852 183.137 72.9703 183.458 72.2737 184.159C71.1129 185.324 70.3942 187.471 70.3942 190.877Z" fill="#D67F54"/>
<path fill-rule="evenodd" clip-rule="evenodd" d="M239.443 157.617C239.628 159.155 238.255 160.526 236.378 160.677C234.501 160.829 232.826 159.705 232.638 158.166C232.461 156.717 232.597 155.246 233.064 153.832C233.52 152.45 234.28 151.116 235.364 149.894C237.749 147.198 241.256 145.547 244.996 145.056C248.719 144.567 252.675 145.237 255.977 147.187C258.086 148.431 259.673 150.048 260.704 151.849C261.773 153.715 262.243 155.769 262.072 157.802C261.945 159.345 260.314 160.514 258.429 160.41C256.541 160.306 255.115 158.974 255.242 157.429C255.336 156.318 255.085 155.21 254.515 154.217C253.968 153.258 253.117 152.394 251.986 151.727C250.212 150.679 248.078 150.317 246.068 150.582C244.07 150.842 242.193 151.731 240.911 153.183C240.33 153.837 239.924 154.55 239.681 155.28C239.426 156.056 239.349 156.85 239.443 157.617Z" fill="#39271F"/>
<path fill-rule="evenodd" clip-rule="evenodd" d="M295.11 82.1022C272.229 74.0292 267.674 64.8748 261.513 54.3068C249.49 33.6841 255.786 11.0008 279.142 3.76239C324.408 -10.2711 362.33 25.3848 356.421 54.1801C352.244 74.5472 325.052 92.6703 295.11 82.1022Z" fill="#2E1E11"/>
<path fill-rule="evenodd" clip-rule="evenodd" d="M100.391 82.1022C123.269 74.0292 127.827 64.8748 133.988 54.3068C146.008 33.6841 139.715 11.0008 116.359 3.76239C71.0929 -10.2711 33.1708 25.3848 39.0774 54.1801C43.2566 74.5472 70.446 92.6703 100.391 82.1022Z" fill="#2E1E11"/>
<path fill-rule="evenodd" clip-rule="evenodd" d="M89.7032 195.293C94.7005 191.106 85.7424 170.024 92.6662 140.846C99.5873 111.671 183.768 76.3206 197.51 60.3938C211.253 76.3206 295.428 111.671 302.351 140.846C309.273 170.022 305.397 176.848 310.398 181.038C314.234 184.25 363.945 18.4428 197.51 19.6303C17.6651 19.6303 89.1614 195.747 89.7032 195.293Z" fill="#4E3832"/>
<path fill-rule="evenodd" clip-rule="evenodd" d="M197.159 57.2723C202.665 84.6402 133.908 99.4156 119.867 172.444C107.335 237.624 129.527 302.184 129.527 302.184C130.61 305.789 125.502 304.018 120.718 295.857C113.468 283.497 70.2114 216.807 85.6926 155.857C101.182 94.9097 160.68 66.8835 197.159 57.2723Z" fill="#F1D3A4"/>
<path fill-rule="evenodd" clip-rule="evenodd" d="M197.787 57.2723C192.281 84.6402 261.035 99.4156 275.079 172.444C287.608 237.624 265.419 302.184 265.419 302.184C264.336 305.789 269.441 304.018 274.228 295.857C281.475 283.497 324.735 216.807 309.251 155.857C293.764 94.9097 234.266 66.8835 197.787 57.2723Z" fill="#F1D3A4"/>
<path fill-rule="evenodd" clip-rule="evenodd" d="M251.347 282.791C222.986 298.155 170.183 299.666 143.043 282.19C141.29 288.754 138.916 294.445 136.05 299.46C169.914 317.009 223.815 315.873 258.36 299.702C255.504 294.78 253.125 289.209 251.347 282.791Z" fill="#35253D"/>
<path fill-rule="evenodd" clip-rule="evenodd" d="M-0.0078125 448.738H199.547H394.954C394.954 387.995 371.424 364.635 343.179 350.382C263.548 429.369 133.482 428.88 54.4705 348.923C25.0643 363.049 -0.0078125 385.878 -0.0078125 448.738Z" fill="#35253D"/>
<path fill-rule="evenodd" clip-rule="evenodd" d="M54.4014 402.266C54.4097 401.341 55.3356 400.594 56.4661 400.601C57.5993 400.608 58.5058 401.365 58.5003 402.291L57.9945 448.75C57.9835 449.677 57.0603 450.421 55.9271 450.415C54.7966 450.408 53.8846 449.65 53.8956 448.723L54.4014 402.266Z" fill="#23142B"/>
<path fill-rule="evenodd" clip-rule="evenodd" d="M336.951 402.266C336.959 401.341 337.885 400.594 339.016 400.601C340.149 400.608 341.059 401.365 341.05 402.291L340.544 448.75C340.533 449.677 339.61 450.421 338.477 450.415C337.346 450.408 336.437 449.65 336.445 448.723L336.951 402.266Z" fill="#23142B"/>
<path fill-rule="evenodd" clip-rule="evenodd" d="M121.636 276.603C121.962 277.159 121.68 277.829 121 278.098C120.32 278.367 119.502 278.134 119.173 277.577C98.1086 242.026 93.0119 201.111 103.941 163.747C114.339 128.202 139.234 95.8665 178.663 74.3979C179.293 74.0563 180.142 74.1988 180.559 74.7145C180.976 75.228 180.808 75.9247 180.175 76.2663C141.351 97.4001 116.84 129.251 106.6 164.267C95.8147 201.135 100.842 241.512 121.636 276.603Z" fill="#DDBA8A"/>
<path fill-rule="evenodd" clip-rule="evenodd" d="M275.773 277.575C275.447 278.132 274.629 278.365 273.949 278.095C273.269 277.826 272.981 277.157 273.31 276.6C294.104 241.51 299.134 201.133 288.349 164.263C278.106 129.249 253.594 97.3956 214.774 76.2617C214.141 75.9202 213.97 75.2235 214.387 74.71C214.802 74.192 215.653 74.0495 216.281 74.3933C255.715 95.862 280.607 128.2 291.003 163.742C301.934 201.111 296.843 242.023 275.773 277.575Z" fill="#DDBA8A"/>
</svg>
