<svg width="327" height="274" viewBox="0 0 327 274" fill="none" xmlns="http://www.w3.org/2000/svg">
<g clip-path="url(#clip0_252_11584)">
<path d="M65.5767 251.463C65.5767 251.463 33.7236 199.794 66.9425 154.81C103.862 104.815 68.9797 48.8788 105.765 28.9659C157.637 0.880886 166.935 56.4262 225.024 42.6577C273.529 31.1606 272.501 120.992 258.16 153.05C246.279 179.628 292.084 192.804 268.636 251.343L65.5767 251.463Z" fill="#EBF3FA"/>
<g opacity="0.3">
<path d="M186.082 113.313C186.082 113.313 191.113 82.544 210.389 78.4792C210.389 78.4792 214.14 77.7599 215.512 82.9262C216.883 88.0925 209.4 88.4062 204.82 90.6667C200.24 92.9272 189.66 102.21 186.082 113.313Z" fill="#AEC3FF"/>
</g>
<g opacity="0.3">
<path d="M185.509 107.611C185.509 107.611 182.914 82.3699 196.83 72.8717C196.83 72.8717 199.555 71.0784 201.689 74.5801C203.824 78.0819 198.154 80.7999 195.121 84.0523C192.088 87.3047 185.925 97.9181 185.509 107.611Z" fill="#AEC3FF"/>
</g>
<path d="M107.342 98.3784C109.702 89.9365 121.109 93.6985 121.109 93.6985C121.109 93.6985 128.078 109.497 130.341 110.069C132.604 110.64 126.481 95.0973 126.481 95.0973C130.938 94.9685 141.818 102.831 141.818 102.831C141.818 102.831 140.074 120.35 142.379 120.203C144.684 120.055 143.293 104.591 143.293 104.591C147.482 106.603 151.112 113.253 151.112 113.253C155.509 123.939 144.361 130.488 144.361 130.488C144.361 130.488 143.86 136.577 146.449 143.853C146.449 143.853 147.05 145.208 147.609 147.467L146.441 147.359C146.369 146.957 146.285 146.567 146.191 146.191C146.19 146.186 146.19 146.18 146.191 146.175C146.124 145.941 146.027 145.606 145.907 145.201C145.602 144.29 145.399 143.62 145.274 143.138C144.367 140.283 143.037 136.551 142.054 135.703C142.173 135.503 142.27 135.284 142.343 135.052C142.251 135.26 142.154 135.475 142.054 135.703C139.74 140.9 129.693 140.873 124.21 138.922C118.726 136.971 121.267 135.223 124.454 132.297C127.641 129.371 133.873 130.79 135.802 129.712C137.731 128.634 135.092 127.12 131.36 127.136C127.628 127.153 125.497 131.645 119.459 131.808C113.422 131.971 109.682 117.372 109.682 117.372C113.728 119.37 121.32 117.186 121.711 115.418C122.103 113.651 111.098 112.815 109.416 112.115C107.734 111.415 104.981 106.819 107.342 98.3784Z" fill="#CDE0FB"/>
<path d="M89.8609 231.061C85.7255 221.996 97.0756 212.195 97.0756 212.195C97.0756 212.195 113.506 216.509 115.635 214.43C117.764 212.35 102.16 207.293 102.16 207.293C105.471 202.242 119.304 196.156 119.304 196.156C119.304 196.156 130.294 211.463 131.948 208.789C133.602 206.115 121.667 195.859 121.667 195.859C126.278 192.741 133.725 193.784 133.725 193.784C144.6 197.057 140.701 214.439 140.701 214.439C140.701 214.439 144.601 219.645 151.692 222.318C151.692 222.318 153.104 222.684 155.12 223.788L154.153 225.002C153.814 224.776 153.478 224.57 153.14 224.388H153.134L153.119 224.38C152.901 224.276 152.596 224.128 152.219 223.951C151.347 223.596 150.718 223.31 150.284 223.08C147.584 221.91 143.945 220.538 142.598 220.982C142.549 220.696 142.469 220.42 142.362 220.16L142.598 220.982C144.487 227.521 136.802 238.655 131.244 243.265C125.686 247.875 126.398 243.709 126.775 237.937C127.152 232.166 132.907 226.328 133.618 223.356C134.329 220.385 131.236 222.162 128.402 226.324C125.568 230.486 127.094 236.278 122.606 243.112C118.117 249.945 104.992 242.956 104.992 242.956C109.485 239.987 113.743 229.885 112.798 228.101C111.853 226.317 102.866 237.903 101.092 239.24C99.3189 240.577 93.9964 240.127 89.8609 231.061Z" fill="#AFCDFB"/>
<g opacity="0.5">
<path d="M248.221 110.19C247.42 100.796 234.971 101.195 234.971 101.195C234.971 101.195 224.767 115.318 222.327 115.216C219.888 115.113 229.176 101 229.176 101C224.619 99.5126 211.922 104.288 211.922 104.288C211.922 104.288 210.344 122.826 207.998 121.974C205.653 121.122 210.063 105.649 210.063 105.649C205.376 106.443 200.362 112.175 200.362 112.175C193.784 121.827 203.985 131.946 203.985 131.946C203.985 131.946 203.331 138.355 199.266 145.047C199.266 145.047 198.388 146.257 197.378 148.411L198.599 148.654C198.751 148.263 198.912 147.888 199.081 147.53L199.089 147.515C199.198 147.294 199.365 146.98 199.567 146.599C200.055 145.756 200.393 145.128 200.615 144.671C202.097 142.013 204.181 138.581 205.355 138.008C205.272 137.767 205.214 137.512 205.183 137.252C205.237 137.493 205.292 137.744 205.355 138.008C206.734 144.054 217.066 147.08 223.078 146.742C229.091 146.404 226.814 143.833 224.102 139.856C221.39 135.879 214.709 135.452 212.935 133.75C211.16 132.049 214.162 131.302 217.997 132.453C221.831 133.604 223.155 138.87 229.333 140.873C235.511 142.876 242.16 129.006 242.16 129.006C237.617 129.828 230.233 125.277 230.17 123.341C230.107 121.405 241.581 123.889 243.443 123.683C245.305 123.478 249.024 119.586 248.221 110.19Z" fill="#AFCDFB"/>
</g>
<g opacity="0.2">
<path d="M254.76 224.476C263.007 215.971 252.944 197.712 252.944 197.712C252.944 197.712 231.67 193.478 229.871 189.766C228.073 186.053 248.619 188.92 248.619 188.92C246.477 180.966 232.09 165.743 232.09 165.743C232.09 165.743 213.358 177.812 212.341 173.657C211.324 169.502 229.362 164.033 229.362 164.033C224.961 157.651 215.649 154.639 215.649 154.639C201.418 152.336 199.801 175.424 199.801 175.424C199.801 175.424 193.237 179.432 183.759 178.575C183.759 178.575 181.933 178.207 179.114 178.375L179.834 180.387C180.322 180.308 180.802 180.25 181.271 180.23H181.3C181.597 180.23 182.019 180.23 182.537 180.23C183.713 180.303 184.569 180.318 185.174 180.292C188.836 180.429 193.7 180.874 195.154 182.179C195.317 181.866 195.512 181.582 195.733 181.333L195.154 182.179C190.517 188.939 195.699 206.702 200.696 215.411C205.694 224.12 206.349 218.719 207.999 211.575C209.65 204.43 204.851 194.137 205.077 190.166C205.303 186.194 208.347 190.093 210.24 196.707C212.134 203.322 208.194 209.395 211.112 220.166C214.03 230.937 232.299 230.066 232.299 230.066C227.985 223.931 226.539 209.379 228.32 207.776C230.101 206.173 236.682 225.223 238.324 227.842C239.967 230.461 246.513 232.982 254.76 224.476Z" fill="#AFCDFB"/>
</g>
<path d="M127.991 160.656C127.6 161.979 126.921 163.515 126.209 163.896C125.401 164.329 125.065 164.941 125.065 164.941L124.411 164.466L123.632 163.896C123.632 163.896 123.651 163.788 123.689 163.611C123.727 163.434 123.785 163.189 123.863 162.916C123.934 162.791 123.979 162.647 123.995 162.496C124.011 162.344 123.998 162.19 123.956 162.046C123.81 161.561 123.839 160.813 124.089 160.357C124.339 159.901 124.58 158.776 124.73 158.81C125.094 158.888 124.551 160.434 124.707 160.72C124.739 160.797 124.793 160.855 124.858 160.883C124.923 160.911 124.994 160.907 125.057 160.871H125.062C126.084 160.306 127.323 157.262 127.871 157.673C128.075 157.824 128.158 160.093 127.991 160.656Z" fill="#FFB27D"/>
<path d="M124.457 162.498L125.737 163.629C125.759 163.648 125.783 163.661 125.809 163.669C125.834 163.676 125.861 163.677 125.887 163.671C125.913 163.665 125.938 163.653 125.96 163.635C125.982 163.617 126.001 163.594 126.016 163.567L129.295 157.705C129.325 157.65 129.337 157.582 129.328 157.516C129.319 157.45 129.289 157.391 129.246 157.353L127.966 156.222C127.922 156.184 127.868 156.169 127.816 156.181C127.763 156.192 127.717 156.229 127.686 156.284L124.408 162.146C124.378 162.201 124.366 162.269 124.375 162.335C124.384 162.401 124.414 162.46 124.457 162.498Z" fill="#2B478B"/>
<path d="M125.628 163.533L126.379 164.196C126.396 164.211 126.414 164.223 126.435 164.229C126.455 164.235 126.476 164.236 126.496 164.231C126.516 164.227 126.536 164.217 126.553 164.203C126.571 164.189 126.585 164.171 126.597 164.149L129.93 158.188C129.942 158.168 129.951 158.144 129.956 158.119C129.961 158.093 129.961 158.067 129.958 158.042C129.954 158.016 129.947 157.992 129.936 157.97C129.925 157.948 129.91 157.929 129.893 157.914L129.143 157.251C129.127 157.236 129.108 157.225 129.087 157.219C129.067 157.213 129.046 157.212 129.026 157.216C129.006 157.221 128.986 157.231 128.969 157.245C128.952 157.259 128.937 157.278 128.925 157.299L125.591 163.26C125.579 163.281 125.57 163.305 125.566 163.33C125.561 163.355 125.56 163.381 125.564 163.406C125.567 163.432 125.575 163.456 125.586 163.478C125.597 163.499 125.611 163.518 125.628 163.533Z" fill="#233862"/>
<path d="M106.098 154.085C106.098 154.085 112.61 168.361 114.972 170.987L123.634 162.871C123.634 162.871 124.891 163.355 125.441 164.941C125.441 164.941 120.181 178.411 115.002 178.982C109.824 179.554 102.555 162.837 102.555 162.837L106.098 154.085Z" fill="#94B0ED"/>
<path d="M91.3627 251.178H87.6C87.1259 250.855 86.704 250.115 86.5711 249.011C86.3868 247.488 85.0287 246.657 84.7344 245.411C84.4401 244.164 85.9465 242.412 85.9465 242.412L86.1983 242.001L86.4599 241.577L88.9571 242.316C88.9571 242.316 89.0192 243.064 89.0573 244.016C89.0899 244.741 89.0935 245.468 89.0682 246.193C88.9941 247.855 89.4378 249.644 90.6117 249.967C91.4804 250.208 91.4423 250.856 91.3627 251.178Z" fill="#233862"/>
<path d="M113.198 251.178H104.593C104.179 250.544 104.331 248.201 104.395 247.437C104.408 247.282 104.417 247.193 104.417 247.193C104.417 247.193 107.354 244.239 107.758 246.508C107.77 246.578 107.786 246.645 107.802 246.716C108.31 248.832 110.59 249.793 111.908 250.06C112.764 250.229 113.081 250.788 113.198 251.178Z" fill="#233862"/>
<path d="M111.558 190.812C111.558 190.812 111.112 197.809 110.587 206.219C109.875 217.642 109.017 231.675 108.933 234.334C108.786 238.95 108.198 246.334 108.198 246.334C108.198 246.334 106.804 248.088 104.012 247.349C104.012 247.349 101.525 236.808 100.814 225.655C100.803 225.473 100.792 225.288 100.781 225.107C100.12 213.754 99.0918 189.846 99.0918 189.846L111.558 190.812Z" fill="#F99746"/>
<path d="M111.558 190.812C111.558 190.812 111.112 197.809 110.587 206.219L100.814 225.655C100.803 225.473 100.792 225.288 100.781 225.107C100.12 213.754 99.0918 189.846 99.0918 189.846L111.558 190.812Z" fill="#ED7D2B"/>
<path d="M109.521 191.644C109.521 191.644 101.479 216.98 96.1912 228.888C90.9036 240.797 89.2512 244.119 89.2512 244.119C89.2512 244.119 86.2221 242.595 85.9463 241.557C85.9463 241.557 87.9682 218.57 91.5053 212.966C93.5054 209.799 95.8566 200.297 95.9667 196.974C96.0767 193.652 96.6828 187.075 96.6828 187.075L109.521 191.644Z" fill="#F99746"/>
<path d="M107.519 154.706C104.376 155.953 98.9395 152.589 98.9395 152.589C98.9395 152.589 101.837 149.849 101.685 144.173L104.115 146.639L105.765 148.311C105.742 149.219 105.68 150.124 105.578 151.023C105.531 151.478 105.938 152.48 106.292 153.044C107.244 154.557 107.519 154.706 107.519 154.706Z" fill="#FFB27D"/>
<path d="M105.765 148.305C105.742 149.213 105.68 150.119 105.578 151.018C103.749 150.625 101.674 146.908 101.674 146.908C102.463 146.6 103.295 146.507 104.115 146.634L105.765 148.305Z" fill="#ED975D"/>
<path d="M106.726 148.212C106.726 148.212 101.536 149.296 101.049 145.223C100.561 141.15 99.5629 138.547 102.856 137.688C106.149 136.829 106.981 138.255 107.407 139.566C107.832 140.877 108.064 147.823 106.726 148.212Z" fill="#FFB27D"/>
<path d="M111.905 191.396C111.814 191.495 111.698 191.551 111.578 191.553C110.397 191.533 106.956 192.357 104.045 191.981C101.59 191.685 99.4178 190.771 97.0841 189.457C96.7745 189.282 96.0616 188.804 96.0769 188.361C96.0878 187.884 96.126 187.194 96.1728 186.323C96.3385 183.296 96.6263 178.09 96.345 172.084C96.2949 170.965 96.2676 169.855 96.2655 168.763C96.2404 160.623 97.5255 153.463 100.106 151.04C100.324 150.841 101.68 151.672 102.923 152.444C103.97 153.092 105.162 153.274 106.302 152.958L107.392 154.165C108.714 155.707 110.162 157.803 110.792 160.987C111.327 163.697 111.641 168.582 111.814 173.646C111.893 175.941 111.956 178.255 111.972 180.451V180.529C111.988 180.747 111.988 180.985 111.988 181.203C112.052 186.846 111.983 191.315 111.905 191.396Z" fill="#AEC3FF"/>
<path d="M96.1694 186.329C96.3351 183.303 96.6229 178.097 96.3417 172.091C96.2915 170.972 96.2643 169.862 96.2621 168.77C97.3368 165.493 98.2154 163.116 98.2154 163.116H100.925C100.925 163.116 102.911 180.17 96.1694 186.329Z" fill="#94B0ED"/>
<path d="M82.2951 205.659L93.8491 207.729C94.5741 207.856 95.3097 207.617 95.8952 207.065C96.4807 206.512 96.8685 205.691 96.9741 204.781L97.687 198.487C97.7885 197.576 97.5988 196.651 97.1594 195.915C96.7201 195.18 96.0668 194.692 95.3424 194.56L83.7884 192.49C83.0629 192.362 82.3265 192.6 81.7402 193.152C81.154 193.704 80.7656 194.526 80.6601 195.437L79.9472 201.739C79.8476 202.65 80.0386 203.573 80.4784 204.307C80.9182 205.042 81.5713 205.527 82.2951 205.659Z" fill="#233862"/>
<path d="M95.992 196.436C95.8287 195.92 95.5699 195.459 95.2368 195.094C94.9037 194.728 94.506 194.468 94.0768 194.334C93.9896 194.308 93.9013 194.285 93.8098 194.269L91.5088 193.858L91.6625 192.5C91.6961 192.198 91.6334 191.892 91.488 191.648C91.3426 191.404 91.1263 191.243 90.8864 191.199L90.2858 191.092L87.8693 190.659L87.4333 190.581C87.1932 190.538 86.9495 190.617 86.7556 190.8C86.5617 190.982 86.4334 191.255 86.3989 191.556L86.2452 192.915L82.2732 192.204C81.5453 192.075 80.8064 192.314 80.2181 192.868C79.6299 193.422 79.2401 194.246 79.134 195.161L78.4135 201.527C78.3117 202.442 78.5024 203.371 78.9438 204.109C79.3852 204.848 80.0414 205.337 80.769 205.47L92.3045 207.536C92.5037 207.572 92.7055 207.58 92.9062 207.56C93.2171 207.53 93.5216 207.433 93.8065 207.274C94.2389 207.036 94.6159 206.664 94.902 206.192C95.1881 205.72 95.3737 205.164 95.4415 204.577L96.1631 198.21C96.231 197.61 96.172 196.998 95.992 196.436ZM86.9646 191.663C86.975 191.572 87.0083 191.488 87.0594 191.423C87.1106 191.357 87.1771 191.314 87.2491 191.3C87.283 191.293 87.3176 191.293 87.3515 191.3L87.8649 191.392L89.7659 191.733L90.8025 191.918C90.892 191.934 90.9727 191.994 91.027 192.085C91.0814 192.176 91.1049 192.29 91.0924 192.403L90.9387 193.762L86.8109 193.022L86.9646 191.663Z" fill="#2B478B"/>
<path d="M91.0773 186.916C91.0773 186.916 90.4712 187.932 90.4462 188.338C90.2838 191.09 91.2844 191.471 88.6935 192.996C88.6935 192.996 87.5882 193.526 87.5697 192.448C87.5511 191.37 88.3327 191.352 88.1931 189.845C88.0275 188.102 88.0438 188.086 88.9561 187.176L89.5578 185.924L91.0773 186.916Z" fill="#FFB27D"/>
<path d="M89.5339 187.69C90.2055 187.833 90.8879 187.879 91.5679 187.827C91.5679 187.827 94.4651 176.581 94.8379 175.553C95.2106 174.526 103.441 162.374 103.441 162.374L100.012 151.588C100.012 151.588 91.1079 170.28 90.2021 172.906C88.7077 177.246 88.1899 186.977 88.1899 186.977C88.5961 187.324 89.0529 187.566 89.5339 187.69Z" fill="#AEC3FF"/>
<path d="M101.043 144.831C101.043 144.831 101.575 144.718 101.49 143.796C101.405 142.874 101.405 141.669 102.001 141.894C102.598 142.118 102.627 142.716 102.873 142.368C103.12 142.02 103.123 140.541 104.898 140.439C106.674 140.336 107.395 141.111 108.22 140.655C109.045 140.199 109.092 138.629 109.092 138.629C109.092 138.629 108.857 139.191 108.502 139.369C108.502 139.369 109.88 137.001 108.284 135.378C106.688 133.754 105.064 134.817 104.142 134.887C102.109 135.042 100.796 135.196 100.132 136.874C99.4681 138.552 99.7352 143.214 101.043 144.831Z" fill="#2B478B"/>
<path d="M90.1201 188.125C90.1201 188.125 90.7044 188.891 90.7415 189.211C90.8603 190.233 91.1317 190.675 90.9954 190.786C90.712 191.018 90.3414 190.26 90.1594 189.58C89.9774 188.901 90.1201 188.125 90.1201 188.125Z" fill="#FFB27D"/>
<path d="M197.886 98.292H141.494C137.95 98.292 135.077 101.903 135.077 106.357V241.946C135.077 246.4 137.95 250.011 141.494 250.011H197.886C201.43 250.011 204.303 246.4 204.303 241.946V106.357C204.303 101.903 201.43 98.292 197.886 98.292Z" fill="#6376E5"/>
<path d="M197.886 251.024H141.493C139.578 251.021 137.742 250.064 136.389 248.362C135.035 246.66 134.274 244.353 134.271 241.946V106.357C134.274 103.951 135.035 101.644 136.389 99.9426C137.743 98.2411 139.578 97.2839 141.493 97.281H197.886C199.801 97.2839 201.636 98.2411 202.99 99.9426C204.343 101.644 205.105 103.951 205.107 106.357V241.942C205.106 244.349 204.345 246.658 202.991 248.36C201.637 250.063 199.801 251.021 197.886 251.024ZM141.493 99.3045C140.005 99.307 138.579 100.051 137.527 101.373C136.475 102.695 135.883 104.488 135.881 106.357V241.942C135.883 243.812 136.475 245.605 137.527 246.927C138.579 248.249 140.005 248.993 141.493 248.995H197.886C199.375 248.994 200.802 248.252 201.855 246.929C202.909 245.607 203.501 243.813 203.503 241.942V106.357C203.501 104.488 202.909 102.695 201.857 101.373C200.805 100.051 199.379 99.307 197.892 99.3045H141.493Z" fill="#2B478B"/>
<g opacity="0.9">
<path d="M192.456 138.215H146.924V195.443H192.456V138.215Z" fill="white"/>
</g>
<path d="M153.298 189.437H151.488V191.711H153.298V189.437Z" fill="#2B478B"/>
<path d="M155.107 189.437H153.297V191.711H155.107V189.437Z" fill="#2B478B"/>
<path d="M156.916 189.437H155.107V191.711H156.916V189.437Z" fill="#2B478B"/>
<path d="M158.726 189.437H156.917V191.711H158.726V189.437Z" fill="#2B478B"/>
<path d="M160.535 189.437H158.726V191.711H160.535V189.437Z" fill="#2B478B"/>
<path d="M164.154 189.437H162.345V191.711H164.154V189.437Z" fill="#2B478B"/>
<path d="M165.963 189.437H164.154V191.711H165.963V189.437Z" fill="#2B478B"/>
<path d="M171.391 189.437H169.582V191.711H171.391V189.437Z" fill="#2B478B"/>
<path d="M175.117 189.437H173.201V191.711H175.117V189.437Z" fill="#2B478B"/>
<path d="M176.928 189.437H175.118V191.711H176.928V189.437Z" fill="#2B478B"/>
<path d="M180.547 189.437H178.737V191.711H180.547V189.437Z" fill="#2B478B"/>
<path d="M182.356 189.437H180.546V191.711H182.356V189.437Z" fill="#2B478B"/>
<path d="M184.165 189.437H182.356V191.711H184.165V189.437Z" fill="#2B478B"/>
<path d="M185.975 189.437H184.166V191.711H185.975V189.437Z" fill="#2B478B"/>
<path d="M187.784 189.437H185.975V191.711H187.784V189.437Z" fill="#2B478B"/>
<path d="M189.7 189.437H187.784V191.711H189.7V189.437Z" fill="#2B478B"/>
<path d="M151.488 189.437H149.679V191.711H151.488V189.437Z" fill="#2B478B"/>
<path d="M160.535 187.163H158.726V189.437H160.535V187.163Z" fill="#2B478B"/>
<path d="M165.963 187.163H164.154V189.437H165.963V187.163Z" fill="#2B478B"/>
<path d="M169.582 187.163H167.773V189.437H169.582V187.163Z" fill="#2B478B"/>
<path d="M171.391 187.163H169.582V189.437H171.391V187.163Z" fill="#2B478B"/>
<path d="M173.201 187.163H171.392V189.437H173.201V187.163Z" fill="#2B478B"/>
<path d="M175.117 187.163H173.201V189.437H175.117V187.163Z" fill="#2B478B"/>
<path d="M180.547 187.163H178.737V189.437H180.547V187.163Z" fill="#2B478B"/>
<path d="M189.7 187.163H187.784V189.437H189.7V187.163Z" fill="#2B478B"/>
<path d="M151.488 187.163H149.679V189.437H151.488V187.163Z" fill="#2B478B"/>
<path d="M155.107 184.888H153.297V187.163H155.107V184.888Z" fill="#2B478B"/>
<path d="M156.916 184.888H155.107V187.163H156.916V184.888Z" fill="#2B478B"/>
<path d="M160.535 184.888H158.726V187.163H160.535V184.888Z" fill="#2B478B"/>
<path d="M164.154 184.888H162.345V187.163H164.154V184.888Z" fill="#2B478B"/>
<path d="M165.963 184.888H164.154V187.163H165.963V184.888Z" fill="#2B478B"/>
<path d="M167.773 184.888H165.963V187.163H167.773V184.888Z" fill="#2B478B"/>
<path d="M171.391 184.888H169.582V187.163H171.391V184.888Z" fill="#2B478B"/>
<path d="M173.201 184.888H171.392V187.163H173.201V184.888Z" fill="#2B478B"/>
<path d="M175.117 184.888H173.201V187.163H175.117V184.888Z" fill="#2B478B"/>
<path d="M176.928 184.888H175.118V187.163H176.928V184.888Z" fill="#2B478B"/>
<path d="M180.547 184.888H178.737V187.163H180.547V184.888Z" fill="#2B478B"/>
<path d="M184.165 184.888H182.356V187.163H184.165V184.888Z" fill="#2B478B"/>
<path d="M185.975 184.888H184.166V187.163H185.975V184.888Z" fill="#2B478B"/>
<path d="M189.7 184.888H187.784V187.163H189.7V184.888Z" fill="#2B478B"/>
<path d="M151.488 184.888H149.679V187.163H151.488V184.888Z" fill="#2B478B"/>
<path d="M155.107 182.614H153.297V184.888H155.107V182.614Z" fill="#2B478B"/>
<path d="M156.916 182.614H155.107V184.888H156.916V182.614Z" fill="#2B478B"/>
<path d="M160.535 182.614H158.726V184.888H160.535V182.614Z" fill="#2B478B"/>
<path d="M164.154 182.614H162.345V184.888H164.154V182.614Z" fill="#2B478B"/>
<path d="M167.773 182.614H165.963V184.888H167.773V182.614Z" fill="#2B478B"/>
<path d="M171.391 182.614H169.582V184.888H171.391V182.614Z" fill="#2B478B"/>
<path d="M180.547 182.614H178.737V184.888H180.547V182.614Z" fill="#2B478B"/>
<path d="M184.165 182.614H182.356V184.888H184.165V182.614Z" fill="#2B478B"/>
<path d="M185.975 182.614H184.166V184.888H185.975V182.614Z" fill="#2B478B"/>
<path d="M189.7 182.614H187.784V184.888H189.7V182.614Z" fill="#2B478B"/>
<path d="M151.488 182.614H149.679V184.888H151.488V182.614Z" fill="#2B478B"/>
<path d="M160.535 180.34H158.726V182.614H160.535V180.34Z" fill="#2B478B"/>
<path d="M164.154 180.34H162.345V182.614H164.154V180.34Z" fill="#2B478B"/>
<path d="M165.963 180.34H164.154V182.614H165.963V180.34Z" fill="#2B478B"/>
<path d="M167.773 180.34H165.963V182.614H167.773V180.34Z" fill="#2B478B"/>
<path d="M171.391 180.34H169.582V182.614H171.391V180.34Z" fill="#2B478B"/>
<path d="M173.201 180.34H171.392V182.614H173.201V180.34Z" fill="#2B478B"/>
<path d="M176.928 180.34H175.118V182.614H176.928V180.34Z" fill="#2B478B"/>
<path d="M180.547 180.34H178.737V182.614H180.547V180.34Z" fill="#2B478B"/>
<path d="M189.7 180.34H187.784V182.614H189.7V180.34Z" fill="#2B478B"/>
<path d="M151.488 180.34H149.679V182.614H151.488V180.34Z" fill="#2B478B"/>
<path d="M153.298 178.066H151.488V180.34H153.298V178.066Z" fill="#2B478B"/>
<path d="M155.107 178.066H153.297V180.34H155.107V178.066Z" fill="#2B478B"/>
<path d="M156.916 178.066H155.107V180.34H156.916V178.066Z" fill="#2B478B"/>
<path d="M158.726 178.066H156.917V180.34H158.726V178.066Z" fill="#2B478B"/>
<path d="M160.535 178.066H158.726V180.34H160.535V178.066Z" fill="#2B478B"/>
<path d="M164.154 178.066H162.345V180.34H164.154V178.066Z" fill="#2B478B"/>
<path d="M167.773 178.066H165.963V180.34H167.773V178.066Z" fill="#2B478B"/>
<path d="M169.582 178.066H167.773V180.34H169.582V178.066Z" fill="#2B478B"/>
<path d="M173.201 178.066H171.392V180.34H173.201V178.066Z" fill="#2B478B"/>
<path d="M180.547 178.066H178.737V180.34H180.547V178.066Z" fill="#2B478B"/>
<path d="M182.356 178.066H180.546V180.34H182.356V178.066Z" fill="#2B478B"/>
<path d="M184.165 178.066H182.356V180.34H184.165V178.066Z" fill="#2B478B"/>
<path d="M185.975 178.066H184.166V180.34H185.975V178.066Z" fill="#2B478B"/>
<path d="M187.784 178.066H185.975V180.34H187.784V178.066Z" fill="#2B478B"/>
<path d="M189.7 178.066H187.784V180.34H189.7V178.066Z" fill="#2B478B"/>
<path d="M151.488 178.066H149.679V180.34H151.488V178.066Z" fill="#2B478B"/>
<path d="M169.582 175.792H167.773V178.066H169.582V175.792Z" fill="#2B478B"/>
<path d="M171.391 175.792H169.582V178.066H171.391V175.792Z" fill="#2B478B"/>
<path d="M173.201 175.792H171.392V178.066H173.201V175.792Z" fill="#2B478B"/>
<path d="M176.928 175.792H175.118V178.066H176.928V175.792Z" fill="#2B478B"/>
<path d="M153.298 173.517H151.488V175.792H153.298V173.517Z" fill="#2B478B"/>
<path d="M155.107 173.517H153.297V175.792H155.107V173.517Z" fill="#2B478B"/>
<path d="M156.916 173.517H155.107V175.792H156.916V173.517Z" fill="#2B478B"/>
<path d="M158.726 173.517H156.917V175.792H158.726V173.517Z" fill="#2B478B"/>
<path d="M164.154 173.517H162.345V175.792H164.154V173.517Z" fill="#2B478B"/>
<path d="M165.963 173.517H164.154V175.792H165.963V173.517Z" fill="#2B478B"/>
<path d="M167.773 173.517H165.963V175.792H167.773V173.517Z" fill="#2B478B"/>
<path d="M171.391 173.517H169.582V175.792H171.391V173.517Z" fill="#2B478B"/>
<path d="M173.201 173.517H171.392V175.792H173.201V173.517Z" fill="#2B478B"/>
<path d="M175.117 173.517H173.201V175.792H175.117V173.517Z" fill="#2B478B"/>
<path d="M176.928 173.517H175.118V175.792H176.928V173.517Z" fill="#2B478B"/>
<path d="M178.737 173.517H176.928V175.792H178.737V173.517Z" fill="#2B478B"/>
<path d="M180.547 173.517H178.737V175.792H180.547V173.517Z" fill="#2B478B"/>
<path d="M182.356 173.517H180.546V175.792H182.356V173.517Z" fill="#2B478B"/>
<path d="M184.165 173.517H182.356V175.792H184.165V173.517Z" fill="#2B478B"/>
<path d="M187.784 173.517H185.975V175.792H187.784V173.517Z" fill="#2B478B"/>
<path d="M189.7 173.517H187.784V175.792H189.7V173.517Z" fill="#2B478B"/>
<path d="M155.107 171.243H153.297V173.517H155.107V171.243Z" fill="#2B478B"/>
<path d="M156.916 171.243H155.107V173.517H156.916V171.243Z" fill="#2B478B"/>
<path d="M162.345 171.243H160.535V173.517H162.345V171.243Z" fill="#2B478B"/>
<path d="M164.154 171.243H162.345V173.517H164.154V171.243Z" fill="#2B478B"/>
<path d="M167.773 171.243H165.963V173.517H167.773V171.243Z" fill="#2B478B"/>
<path d="M173.201 171.243H171.392V173.517H173.201V171.243Z" fill="#2B478B"/>
<path d="M176.928 171.243H175.118V173.517H176.928V171.243Z" fill="#2B478B"/>
<path d="M178.737 171.243H176.928V173.517H178.737V171.243Z" fill="#2B478B"/>
<path d="M182.356 171.243H180.546V173.517H182.356V171.243Z" fill="#2B478B"/>
<path d="M184.165 171.243H182.356V173.517H184.165V171.243Z" fill="#2B478B"/>
<path d="M153.298 168.969H151.488V171.243H153.298V168.969Z" fill="#2B478B"/>
<path d="M156.916 168.969H155.107V171.243H156.916V168.969Z" fill="#2B478B"/>
<path d="M158.726 168.969H156.917V171.243H158.726V168.969Z" fill="#2B478B"/>
<path d="M160.535 168.969H158.726V171.243H160.535V168.969Z" fill="#2B478B"/>
<path d="M162.345 168.969H160.535V171.243H162.345V168.969Z" fill="#2B478B"/>
<path d="M165.963 168.969H164.154V171.243H165.963V168.969Z" fill="#2B478B"/>
<path d="M167.773 168.969H165.963V171.243H167.773V168.969Z" fill="#2B478B"/>
<path d="M169.582 168.969H167.773V171.243H169.582V168.969Z" fill="#2B478B"/>
<path d="M171.391 168.969H169.582V171.243H171.391V168.969Z" fill="#2B478B"/>
<path d="M173.201 168.969H171.392V171.243H173.201V168.969Z" fill="#2B478B"/>
<path d="M175.117 168.969H173.201V171.243H175.117V168.969Z" fill="#2B478B"/>
<path d="M184.165 168.969H182.356V171.243H184.165V168.969Z" fill="#2B478B"/>
<path d="M185.975 168.969H184.166V171.243H185.975V168.969Z" fill="#2B478B"/>
<path d="M189.7 168.969H187.784V171.243H189.7V168.969Z" fill="#2B478B"/>
<path d="M151.488 168.969H149.679V171.243H151.488V168.969Z" fill="#2B478B"/>
<path d="M153.298 166.695H151.488V168.969H153.298V166.695Z" fill="#2B478B"/>
<path d="M155.107 166.695H153.297V168.969H155.107V166.695Z" fill="#2B478B"/>
<path d="M156.916 166.695H155.107V168.969H156.916V166.695Z" fill="#2B478B"/>
<path d="M164.154 166.695H162.345V168.969H164.154V166.695Z" fill="#2B478B"/>
<path d="M165.963 166.695H164.154V168.969H165.963V166.695Z" fill="#2B478B"/>
<path d="M173.201 166.695H171.392V168.969H173.201V166.695Z" fill="#2B478B"/>
<path d="M178.737 166.695H176.928V168.969H178.737V166.695Z" fill="#2B478B"/>
<path d="M180.547 166.695H178.737V168.969H180.547V166.695Z" fill="#2B478B"/>
<path d="M184.165 166.695H182.356V168.969H184.165V166.695Z" fill="#2B478B"/>
<path d="M185.975 166.695H184.166V168.969H185.975V166.695Z" fill="#2B478B"/>
<path d="M187.784 166.695H185.975V168.969H187.784V166.695Z" fill="#2B478B"/>
<path d="M189.7 166.695H187.784V168.969H189.7V166.695Z" fill="#2B478B"/>
<path d="M151.488 166.695H149.679V168.969H151.488V166.695Z" fill="#2B478B"/>
<path d="M156.916 164.421H155.107V166.695H156.916V164.421Z" fill="#2B478B"/>
<path d="M158.726 164.421H156.917V166.695H158.726V164.421Z" fill="#2B478B"/>
<path d="M160.535 164.421H158.726V166.695H160.535V164.421Z" fill="#2B478B"/>
<path d="M162.345 164.421H160.535V166.695H162.345V164.421Z" fill="#2B478B"/>
<path d="M164.154 164.421H162.345V166.695H164.154V164.421Z" fill="#2B478B"/>
<path d="M165.963 164.421H164.154V166.695H165.963V164.421Z" fill="#2B478B"/>
<path d="M171.391 164.421H169.582V166.695H171.391V164.421Z" fill="#2B478B"/>
<path d="M176.928 164.421H175.118V166.695H176.928V164.421Z" fill="#2B478B"/>
<path d="M178.737 164.421H176.928V166.695H178.737V164.421Z" fill="#2B478B"/>
<path d="M185.975 164.421H184.166V166.695H185.975V164.421Z" fill="#2B478B"/>
<path d="M151.488 164.421H149.679V166.695H151.488V164.421Z" fill="#2B478B"/>
<path d="M153.298 162.146H151.488V164.421H153.298V162.146Z" fill="#2B478B"/>
<path d="M155.107 162.146H153.297V164.421H155.107V162.146Z" fill="#2B478B"/>
<path d="M156.916 162.146H155.107V164.421H156.916V162.146Z" fill="#2B478B"/>
<path d="M158.726 162.146H156.917V164.421H158.726V162.146Z" fill="#2B478B"/>
<path d="M162.345 162.146H160.535V164.421H162.345V162.146Z" fill="#2B478B"/>
<path d="M165.963 162.146H164.154V164.421H165.963V162.146Z" fill="#2B478B"/>
<path d="M167.773 162.146H165.963V164.421H167.773V162.146Z" fill="#2B478B"/>
<path d="M171.391 162.146H169.582V164.421H171.391V162.146Z" fill="#2B478B"/>
<path d="M173.201 162.146H171.392V164.421H173.201V162.146Z" fill="#2B478B"/>
<path d="M175.117 162.146H173.201V164.421H175.117V162.146Z" fill="#2B478B"/>
<path d="M176.928 162.146H175.118V164.421H176.928V162.146Z" fill="#2B478B"/>
<path d="M180.547 162.146H178.737V164.421H180.547V162.146Z" fill="#2B478B"/>
<path d="M182.356 162.146H180.546V164.421H182.356V162.146Z" fill="#2B478B"/>
<path d="M184.165 162.146H182.356V164.421H184.165V162.146Z" fill="#2B478B"/>
<path d="M185.975 162.146H184.166V164.421H185.975V162.146Z" fill="#2B478B"/>
<path d="M189.7 162.146H187.784V164.421H189.7V162.146Z" fill="#2B478B"/>
<path d="M153.298 159.872H151.488V162.146H153.298V159.872Z" fill="#2B478B"/>
<path d="M156.916 159.872H155.107V162.146H156.916V159.872Z" fill="#2B478B"/>
<path d="M160.535 159.872H158.726V162.146H160.535V159.872Z" fill="#2B478B"/>
<path d="M162.345 159.872H160.535V162.146H162.345V159.872Z" fill="#2B478B"/>
<path d="M167.773 159.872H165.963V162.146H167.773V159.872Z" fill="#2B478B"/>
<path d="M169.582 159.872H167.773V162.146H169.582V159.872Z" fill="#2B478B"/>
<path d="M171.391 159.872H169.582V162.146H171.391V159.872Z" fill="#2B478B"/>
<path d="M175.117 159.872H173.201V162.146H175.117V159.872Z" fill="#2B478B"/>
<path d="M176.928 159.872H175.118V162.146H176.928V159.872Z" fill="#2B478B"/>
<path d="M178.737 159.872H176.928V162.146H178.737V159.872Z" fill="#2B478B"/>
<path d="M182.356 159.872H180.546V162.146H182.356V159.872Z" fill="#2B478B"/>
<path d="M185.975 159.872H184.166V162.146H185.975V159.872Z" fill="#2B478B"/>
<path d="M187.784 159.872H185.975V162.146H187.784V159.872Z" fill="#2B478B"/>
<path d="M189.7 159.872H187.784V162.146H189.7V159.872Z" fill="#2B478B"/>
<path d="M151.488 159.872H149.679V162.146H151.488V159.872Z" fill="#2B478B"/>
<path d="M153.298 157.598H151.488V159.872H153.298V157.598Z" fill="#2B478B"/>
<path d="M160.535 157.598H158.726V159.872H160.535V157.598Z" fill="#2B478B"/>
<path d="M162.345 157.598H160.535V159.872H162.345V157.598Z" fill="#2B478B"/>
<path d="M165.963 157.598H164.154V159.872H165.963V157.598Z" fill="#2B478B"/>
<path d="M167.773 157.598H165.963V159.872H167.773V157.598Z" fill="#2B478B"/>
<path d="M171.391 157.598H169.582V159.872H171.391V157.598Z" fill="#2B478B"/>
<path d="M173.201 157.598H171.392V159.872H173.201V157.598Z" fill="#2B478B"/>
<path d="M176.928 157.598H175.118V159.872H176.928V157.598Z" fill="#2B478B"/>
<path d="M178.737 157.598H176.928V159.872H178.737V157.598Z" fill="#2B478B"/>
<path d="M180.547 157.598H178.737V159.872H180.547V157.598Z" fill="#2B478B"/>
<path d="M182.356 157.598H180.546V159.872H182.356V157.598Z" fill="#2B478B"/>
<path d="M184.165 157.598H182.356V159.872H184.165V157.598Z" fill="#2B478B"/>
<path d="M185.975 157.598H184.166V159.872H185.975V157.598Z" fill="#2B478B"/>
<path d="M151.488 157.598H149.679V159.872H151.488V157.598Z" fill="#2B478B"/>
<path d="M165.963 155.324H164.154V157.598H165.963V155.324Z" fill="#2B478B"/>
<path d="M169.582 155.324H167.773V157.598H169.582V155.324Z" fill="#2B478B"/>
<path d="M171.391 155.324H169.582V157.598H171.391V155.324Z" fill="#2B478B"/>
<path d="M175.117 155.324H173.201V157.598H175.117V155.324Z" fill="#2B478B"/>
<path d="M176.928 155.324H175.118V157.598H176.928V155.324Z" fill="#2B478B"/>
<path d="M178.737 155.324H176.928V157.598H178.737V155.324Z" fill="#2B478B"/>
<path d="M153.298 153.05H151.488V155.324H153.298V153.05Z" fill="#2B478B"/>
<path d="M155.107 153.05H153.297V155.324H155.107V153.05Z" fill="#2B478B"/>
<path d="M156.916 153.05H155.107V155.324H156.916V153.05Z" fill="#2B478B"/>
<path d="M158.726 153.05H156.917V155.324H158.726V153.05Z" fill="#2B478B"/>
<path d="M160.535 153.05H158.726V155.324H160.535V153.05Z" fill="#2B478B"/>
<path d="M164.154 153.05H162.345V155.324H164.154V153.05Z" fill="#2B478B"/>
<path d="M165.963 153.05H164.154V155.324H165.963V153.05Z" fill="#2B478B"/>
<path d="M171.391 153.05H169.582V155.324H171.391V153.05Z" fill="#2B478B"/>
<path d="M178.737 153.05H176.928V155.324H178.737V153.05Z" fill="#2B478B"/>
<path d="M180.547 153.05H178.737V155.324H180.547V153.05Z" fill="#2B478B"/>
<path d="M184.165 153.05H182.356V155.324H184.165V153.05Z" fill="#2B478B"/>
<path d="M189.7 153.05H187.784V155.324H189.7V153.05Z" fill="#2B478B"/>
<path d="M151.488 153.05H149.679V155.324H151.488V153.05Z" fill="#2B478B"/>
<path d="M160.535 150.775H158.726V153.05H160.535V150.775Z" fill="#2B478B"/>
<path d="M175.117 150.775H173.201V153.05H175.117V150.775Z" fill="#2B478B"/>
<path d="M176.928 150.775H175.118V153.05H176.928V150.775Z" fill="#2B478B"/>
<path d="M180.547 150.775H178.737V153.05H180.547V150.775Z" fill="#2B478B"/>
<path d="M182.356 150.775H180.546V153.05H182.356V150.775Z" fill="#2B478B"/>
<path d="M185.975 150.775H184.166V153.05H185.975V150.775Z" fill="#2B478B"/>
<path d="M187.784 150.775H185.975V153.05H187.784V150.775Z" fill="#2B478B"/>
<path d="M189.7 150.775H187.784V153.05H189.7V150.775Z" fill="#2B478B"/>
<path d="M151.488 150.775H149.679V153.05H151.488V150.775Z" fill="#2B478B"/>
<path d="M155.107 148.501H153.297V150.775H155.107V148.501Z" fill="#2B478B"/>
<path d="M156.916 148.501H155.107V150.775H156.916V148.501Z" fill="#2B478B"/>
<path d="M160.535 148.501H158.726V150.775H160.535V148.501Z" fill="#2B478B"/>
<path d="M164.154 148.501H162.345V150.775H164.154V148.501Z" fill="#2B478B"/>
<path d="M165.963 148.501H164.154V150.775H165.963V148.501Z" fill="#2B478B"/>
<path d="M169.582 148.501H167.773V150.775H169.582V148.501Z" fill="#2B478B"/>
<path d="M171.391 148.501H169.582V150.775H171.391V148.501Z" fill="#2B478B"/>
<path d="M175.117 148.501H173.201V150.775H175.117V148.501Z" fill="#2B478B"/>
<path d="M182.356 148.501H180.546V150.775H182.356V148.501Z" fill="#2B478B"/>
<path d="M184.165 148.501H182.356V150.775H184.165V148.501Z" fill="#2B478B"/>
<path d="M185.975 148.501H184.166V150.775H185.975V148.501Z" fill="#2B478B"/>
<path d="M151.488 148.501H149.679V150.775H151.488V148.501Z" fill="#2B478B"/>
<path d="M155.107 146.226H153.297V148.5H155.107V146.226Z" fill="#2B478B"/>
<path d="M156.916 146.226H155.107V148.5H156.916V146.226Z" fill="#2B478B"/>
<path d="M160.535 146.226H158.726V148.5H160.535V146.226Z" fill="#2B478B"/>
<path d="M164.154 146.226H162.345V148.5H164.154V146.226Z" fill="#2B478B"/>
<path d="M167.773 146.226H165.963V148.5H167.773V146.226Z" fill="#2B478B"/>
<path d="M169.582 146.226H167.773V148.5H169.582V146.226Z" fill="#2B478B"/>
<path d="M171.391 146.226H169.582V148.5H171.391V146.226Z" fill="#2B478B"/>
<path d="M173.201 146.226H171.392V148.5H173.201V146.226Z" fill="#2B478B"/>
<path d="M175.117 146.226H173.201V148.5H175.117V146.226Z" fill="#2B478B"/>
<path d="M178.737 146.226H176.928V148.5H178.737V146.226Z" fill="#2B478B"/>
<path d="M180.547 146.226H178.737V148.5H180.547V146.226Z" fill="#2B478B"/>
<path d="M182.356 146.226H180.546V148.5H182.356V146.226Z" fill="#2B478B"/>
<path d="M185.975 146.226H184.166V148.5H185.975V146.226Z" fill="#2B478B"/>
<path d="M187.784 146.226H185.975V148.5H187.784V146.226Z" fill="#2B478B"/>
<path d="M189.7 146.226H187.784V148.5H189.7V146.226Z" fill="#2B478B"/>
<path d="M151.488 146.226H149.679V148.5H151.488V146.226Z" fill="#2B478B"/>
<path d="M160.535 143.951H158.726V146.226H160.535V143.951Z" fill="#2B478B"/>
<path d="M167.773 143.951H165.963V146.226H167.773V143.951Z" fill="#2B478B"/>
<path d="M169.582 143.951H167.773V146.226H169.582V143.951Z" fill="#2B478B"/>
<path d="M173.201 143.951H171.392V146.226H173.201V143.951Z" fill="#2B478B"/>
<path d="M175.117 143.951H173.201V146.226H175.117V143.951Z" fill="#2B478B"/>
<path d="M176.928 143.951H175.118V146.226H176.928V143.951Z" fill="#2B478B"/>
<path d="M178.737 143.951H176.928V146.226H178.737V143.951Z" fill="#2B478B"/>
<path d="M187.784 143.951H185.975V146.226H187.784V143.951Z" fill="#2B478B"/>
<path d="M151.488 143.951H149.679V146.226H151.488V143.951Z" fill="#2B478B"/>
<path d="M153.298 141.677H151.488V143.951H153.298V141.677Z" fill="#2B478B"/>
<path d="M155.107 141.677H153.297V143.951H155.107V141.677Z" fill="#2B478B"/>
<path d="M156.916 141.677H155.107V143.951H156.916V141.677Z" fill="#2B478B"/>
<path d="M158.726 141.677H156.917V143.951H158.726V141.677Z" fill="#2B478B"/>
<path d="M160.535 141.677H158.726V143.951H160.535V141.677Z" fill="#2B478B"/>
<path d="M164.154 141.677H162.345V143.951H164.154V141.677Z" fill="#2B478B"/>
<path d="M165.963 141.677H164.154V143.951H165.963V141.677Z" fill="#2B478B"/>
<path d="M175.117 141.677H173.201V143.951H175.117V141.677Z" fill="#2B478B"/>
<path d="M178.737 141.677H176.928V143.951H178.737V141.677Z" fill="#2B478B"/>
<path d="M182.356 141.677H180.546V143.951H182.356V141.677Z" fill="#2B478B"/>
<path d="M184.165 141.677H182.356V143.951H184.165V141.677Z" fill="#2B478B"/>
<path d="M189.7 141.677H187.784V143.951H189.7V141.677Z" fill="#2B478B"/>
<path d="M151.488 141.677H149.679V143.951H151.488V141.677Z" fill="#2B478B"/>
<g opacity="0.8">
<path d="M143.63 146.157C143.46 146.157 143.296 146.071 143.176 145.919C143.055 145.767 142.987 145.562 142.987 145.347V134.317C142.987 134.103 143.055 133.897 143.176 133.746C143.296 133.594 143.46 133.509 143.63 133.509H152.491C152.662 133.509 152.825 133.594 152.946 133.746C153.066 133.897 153.134 134.103 153.134 134.317C153.134 134.532 153.066 134.737 152.946 134.889C152.825 135.04 152.662 135.126 152.491 135.126H144.28V145.347C144.28 145.454 144.263 145.56 144.23 145.659C144.198 145.757 144.15 145.847 144.089 145.922C144.029 145.997 143.957 146.057 143.879 146.097C143.8 146.137 143.715 146.158 143.63 146.157Z" fill="white"/>
<path d="M195.749 146.206C195.578 146.206 195.414 146.121 195.293 145.969C195.173 145.817 195.105 145.612 195.105 145.397V135.082H186.972C186.806 135.073 186.649 134.985 186.534 134.834C186.419 134.683 186.354 134.482 186.354 134.273C186.354 134.064 186.419 133.863 186.534 133.712C186.649 133.562 186.806 133.473 186.972 133.464H195.749C195.92 133.464 196.083 133.55 196.204 133.702C196.324 133.854 196.392 134.059 196.392 134.274V145.402C196.391 145.616 196.323 145.82 196.202 145.971C196.082 146.121 195.919 146.206 195.749 146.206Z" fill="white"/>
</g>
<g opacity="0.8">
<path d="M195.749 201.637H186.894C186.727 201.628 186.57 201.539 186.455 201.388C186.34 201.237 186.276 201.037 186.276 200.828C186.276 200.619 186.34 200.418 186.455 200.267C186.57 200.116 186.727 200.027 186.894 200.019H195.11V189.797C195.106 189.688 195.12 189.579 195.151 189.477C195.182 189.375 195.229 189.282 195.289 189.203C195.349 189.124 195.421 189.062 195.501 189.019C195.581 188.976 195.667 188.954 195.754 188.954C195.84 188.954 195.926 188.976 196.006 189.019C196.086 189.062 196.158 189.124 196.218 189.203C196.279 189.282 196.325 189.375 196.356 189.477C196.387 189.579 196.401 189.688 196.397 189.797V200.827C196.397 200.934 196.38 201.039 196.348 201.138C196.315 201.237 196.267 201.326 196.207 201.401C196.147 201.477 196.075 201.536 195.997 201.577C195.918 201.617 195.834 201.637 195.749 201.637Z" fill="white"/>
<path d="M152.407 201.686H143.63C143.46 201.686 143.296 201.6 143.176 201.448C143.055 201.297 142.987 201.091 142.987 200.876V189.745C142.984 189.636 142.998 189.527 143.029 189.425C143.059 189.323 143.106 189.23 143.166 189.151C143.226 189.072 143.299 189.01 143.378 188.967C143.458 188.924 143.544 188.902 143.631 188.902C143.718 188.902 143.804 188.924 143.884 188.967C143.964 189.01 144.036 189.072 144.096 189.151C144.156 189.23 144.203 189.323 144.233 189.425C144.264 189.527 144.278 189.636 144.275 189.745V200.065H152.407C152.573 200.074 152.73 200.163 152.845 200.314C152.961 200.464 153.025 200.665 153.025 200.874C153.025 201.083 152.961 201.284 152.845 201.435C152.73 201.586 152.573 201.675 152.407 201.683V201.686Z" fill="white"/>
</g>
<path d="M191.235 215.449H148.144C147.47 215.449 146.924 216.135 146.924 216.982V218.529C146.924 219.375 147.47 220.062 148.144 220.062H191.235C191.909 220.062 192.455 219.375 192.455 218.529V216.982C192.455 216.135 191.909 215.449 191.235 215.449Z" fill="white"/>
<path d="M178.737 215.449V220.062H148.144C147.821 220.061 147.511 219.899 147.283 219.612C147.054 219.324 146.925 218.935 146.924 218.529V216.982C146.925 216.576 147.054 216.186 147.283 215.899C147.511 215.612 147.821 215.45 148.144 215.449H178.737Z" fill="#ED7D2B"/>
<path d="M172.363 215.449L168.977 220.062H162.645L166.029 215.449H172.363Z" fill="#F99746"/>
<path d="M178.737 215.449V220.062H172.866L176.252 215.449H178.737Z" fill="#F99746"/>
<path d="M162.165 215.449L158.78 220.062H152.447L155.832 215.449H162.165Z" fill="#F99746"/>
<path d="M151.968 215.449L148.589 220.062H148.125C147.801 220.061 147.491 219.899 147.263 219.612C147.034 219.324 146.905 218.935 146.904 218.529V216.982C146.905 216.576 147.034 216.186 147.263 215.899C147.491 215.612 147.801 215.45 148.125 215.449H151.968Z" fill="#F99746"/>
<path d="M165.02 212.817L165.26 212.457C165.453 212.692 165.71 212.825 165.979 212.829C166.226 212.829 166.382 212.692 166.382 212.461C166.382 212.257 166.292 212.146 165.869 212.02C165.384 211.883 165.106 211.696 165.106 211.161C165.106 210.67 165.433 210.339 165.883 210.339C166.183 210.331 166.476 210.458 166.708 210.698L166.49 211.079C166.315 210.898 166.098 210.795 165.872 210.784C165.638 210.784 165.501 210.935 165.501 211.132C165.501 211.353 165.61 211.45 166.046 211.581C166.527 211.728 166.778 211.944 166.778 212.427C166.778 212.962 166.443 213.282 165.965 213.282C165.615 213.28 165.278 213.114 165.02 212.817Z" fill="white"/>
<path d="M167.153 211.802C167.149 211.607 167.177 211.413 167.235 211.232C167.293 211.05 167.379 210.886 167.489 210.748C167.598 210.609 167.729 210.501 167.873 210.427C168.017 210.354 168.171 210.319 168.327 210.322C168.492 210.315 168.656 210.35 168.81 210.427C168.963 210.503 169.102 210.62 169.218 210.768L168.961 211.139C168.879 211.03 168.78 210.942 168.671 210.881C168.561 210.82 168.443 210.787 168.323 210.784C167.887 210.784 167.572 211.233 167.572 211.802C167.572 212.37 167.889 212.82 168.323 212.82C168.604 212.82 168.782 212.683 168.977 212.447L169.235 212.775C169.12 212.94 168.978 213.071 168.818 213.159C168.658 213.246 168.485 213.288 168.31 213.282C168.156 213.283 168.003 213.246 167.861 213.172C167.719 213.098 167.589 212.989 167.481 212.851C167.373 212.713 167.289 212.549 167.232 212.368C167.176 212.188 167.149 211.996 167.153 211.802Z" fill="white"/>
<path d="M170.461 210.353H170.831L171.832 213.23H171.41L171.179 212.545H170.102L169.869 213.23H169.459L170.461 210.353ZM171.033 212.098L170.639 210.953L170.249 212.098H171.033Z" fill="white"/>
<path d="M172.22 210.373H172.591L173.809 212.35V210.373H174.203V213.234H173.868L172.614 211.198V213.234H172.22V210.373Z" fill="white"/>
<path d="M203.83 190.263C205.929 189.494 208.299 190.377 209.781 192.399C213.447 197.402 210.744 201.259 212.578 204.76C213.687 206.876 214.617 210.581 211.184 212.773C209.596 213.787 204.862 219.084 203.898 219.212C194.088 220.478 193.91 207.966 197.217 204.34C201.868 199.241 197.617 192.54 203.83 190.263Z" fill="#233862"/>
<path d="M208.959 209.61C208.959 209.61 217.915 215.064 219.592 214.972C221.27 214.88 231.756 210.239 231.756 210.239L231.493 212.473C231.493 212.473 223.515 218.241 220.725 218.564C217.979 218.886 208.59 215.467 207.684 214.745C206.778 214.023 206.325 210.339 208.959 209.61Z" fill="#ED985F"/>
<path d="M209.945 214.752C209.004 215.551 207.949 216.115 206.838 216.413C202.049 217.804 200.213 212.714 199.524 209.225C200.025 208.877 200.577 208.663 201.146 208.598C201.493 208.547 201.857 208.513 202.159 208.494C202.696 207.976 203.497 205.858 203.675 202.567L203.9 202.644L207.674 203.942C207.674 203.942 207.502 205.449 207.417 206.876C207.352 207.991 207.341 209.057 207.509 209.317C207.804 209.398 207.981 209.454 207.981 209.454C208.768 211.137 209.426 212.911 209.945 214.752Z" fill="#FFB27D"/>
<path d="M207.674 203.942C207.674 203.942 207.501 205.449 207.417 206.876C205.278 206.602 204.286 204.048 203.899 202.645L207.674 203.942Z" fill="#ED985F"/>
<path d="M208.313 205.363C208.313 205.363 203.238 205.012 203.46 201.042C203.683 197.072 203.179 194.354 206.428 194.411C209.678 194.469 210.223 196.039 210.405 197.386C210.587 198.732 209.639 205.348 208.313 205.363Z" fill="#FFB27D"/>
<path d="M210.379 195.161C209.664 193.896 209.057 194.105 208.705 194.433C206.043 192.269 204.096 194.939 204.096 194.939C203.772 196.654 202.985 198.175 201.868 199.241C201.868 199.241 202.767 200.145 204.92 199.545C207.674 198.778 208.626 195.775 208.749 195.314C209.039 195.691 209.413 195.931 209.699 196.749C210.039 197.721 210.254 198.286 210.26 199.882C210.261 199.883 211.453 197.057 210.379 195.161Z" fill="#233862"/>
<path d="M198.078 227.721C197.62 224.777 196.126 213.01 197.62 209.226C198.156 207.867 200.263 207.744 202.574 207.856C203.292 208.44 206.033 210.644 207.152 210.37L207.215 210.351C207.745 210.184 207.945 209.717 207.503 209.313C208.32 209.402 209.133 209.544 209.939 209.739C210.742 209.929 212.946 211.631 212.946 211.631C212.946 211.631 211.947 213.584 210.339 214.439C210.613 217.514 210.206 218.87 207.669 225.969C205.525 231.971 207.957 237.374 207.957 237.374C207.957 237.374 195.337 250.128 195.267 243.634C195.219 238.75 198.664 231.486 198.078 227.721Z" fill="#F99746"/>
<path d="M208.589 251.246C208.928 251.198 209.255 251.057 209.546 250.834C209.838 250.612 210.087 250.312 210.277 249.955L210.472 249.585C211.909 246.845 212.468 238.488 215.704 229.563C216.492 227.391 219.317 227.001 220.087 224.547C220.087 224.547 221.984 216.592 216.459 216.357C210.933 216.123 201.65 238.491 201.508 240.838C201.367 243.111 197.856 252.765 208.589 251.246Z" fill="#94B0ED"/>
<path d="M230.55 251.201H222.687C222.687 251.201 222.392 249.581 222.905 248.48C223.361 247.506 223.187 246.951 222.848 246.151C223.264 246.383 223.717 246.493 224.172 246.473C224.565 246.444 224.979 246.214 225.342 245.943C225.681 246.44 227.131 248.559 227.583 248.98C228.101 249.45 230.392 249.28 230.55 251.201Z" fill="#0D2644"/>
<path d="M220.261 218.652C220.736 223.114 222.584 237.199 225.847 244.07C226.898 246.285 223.197 247.528 223.177 247.521C222.68 247.358 221.853 246.363 221.472 245.932C218.824 242.931 213.448 234.436 213.448 227.626C213.448 224.305 213.401 217.963 215.323 216.352C216.505 215.364 220.071 216.885 220.261 218.652Z" fill="#94B0ED"/>
<path d="M198.388 214.745C198.388 214.745 199.983 218.826 207.435 221.71C214.886 224.594 210.623 217.348 210.623 217.348L200.208 212.773L198.388 214.745Z" fill="#ED7D2B"/>
<path d="M204.749 251.258C205.035 250.677 205.255 250.049 205.403 249.391C205.826 247.526 205.976 246.17 206.788 243.266C207.641 240.216 208.652 236.465 209.918 232.562C210.308 231.356 210.722 230.137 211.162 228.92C211.949 226.749 214.115 227.049 214.886 224.594C214.886 224.594 217.891 216.086 212.366 215.85C206.84 215.615 196.343 238.612 195.738 240.839C195.075 243.275 192.701 253.587 204.749 251.258Z" fill="#AEC3FF"/>
<path d="M224.777 251.201H216.91C216.91 251.201 216.616 249.581 217.128 248.48C217.585 247.506 217.409 246.951 217.071 246.151C217.487 246.383 217.94 246.493 218.395 246.473C218.787 246.444 219.202 246.214 219.565 245.943C219.904 246.44 221.353 248.559 221.806 248.98C222.327 249.45 224.619 249.28 224.777 251.201Z" fill="#163560"/>
<g opacity="0.5">
<path d="M206.786 243.264C207.639 240.215 208.65 236.463 209.916 232.56C209.589 229.603 208.872 227.016 207.674 225.973C207.674 225.973 204.769 237.284 206.786 243.264Z" fill="#94B0ED"/>
</g>
<path d="M215.671 218.341C216.145 222.803 216.812 237.203 220.074 244.074C221.125 246.289 217.424 247.532 217.404 247.525C216.908 247.362 216.08 246.367 215.699 245.936C213.051 242.935 207.674 234.44 207.674 227.63C207.674 224.309 210.775 218.234 212.696 216.622C213.88 215.629 215.483 216.568 215.671 218.341Z" fill="#AEC3FF"/>
<path d="M232.695 204.485L224.641 203.411C224.527 203.394 224.412 203.425 224.313 203.5C224.215 203.574 224.138 203.687 224.096 203.822L221.216 213.339C221.186 213.436 221.176 213.54 221.185 213.643C221.194 213.746 221.222 213.845 221.268 213.931C221.313 214.018 221.374 214.089 221.446 214.14C221.517 214.191 221.598 214.22 221.68 214.224L229.672 214.635C229.778 214.64 229.883 214.605 229.972 214.533C230.062 214.461 230.132 214.357 230.173 214.234L233.116 205.388C233.147 205.294 233.161 205.193 233.156 205.091C233.15 204.99 233.126 204.892 233.086 204.804C233.045 204.716 232.988 204.642 232.92 204.587C232.853 204.531 232.776 204.496 232.695 204.485Z" fill="#DB6B3A"/>
<path d="M233.394 204.578L225.341 203.503C225.227 203.486 225.112 203.517 225.013 203.591C224.914 203.666 224.838 203.779 224.796 203.914L221.924 213.437C221.895 213.533 221.884 213.638 221.893 213.74C221.902 213.843 221.931 213.942 221.976 214.028C222.021 214.115 222.082 214.187 222.154 214.238C222.226 214.289 222.306 214.317 222.388 214.322L230.38 214.733C230.486 214.738 230.591 214.702 230.68 214.63C230.77 214.559 230.84 214.454 230.881 214.331L233.824 205.485C233.856 205.391 233.87 205.288 233.865 205.185C233.859 205.082 233.835 204.983 233.793 204.894C233.751 204.806 233.693 204.731 233.624 204.676C233.554 204.621 233.476 204.588 233.394 204.578Z" fill="#F78248"/>
<path d="M228.93 209.021C229.028 208.681 228.889 208.406 228.619 208.406C228.472 208.419 228.332 208.483 228.214 208.592C228.096 208.701 228.005 208.85 227.951 209.021C227.853 209.361 227.992 209.636 228.262 209.636C228.408 209.624 228.549 209.559 228.667 209.45C228.785 209.341 228.877 209.193 228.93 209.021Z" fill="#EBF3FA"/>
<path d="M233.151 205.477C233.165 205.445 233.172 205.408 233.171 205.372C233.171 205.335 233.162 205.299 233.146 205.268C233.131 205.237 233.109 205.212 233.083 205.196C233.057 205.179 233.028 205.172 232.998 205.174C232.927 205.18 232.858 205.212 232.8 205.266C232.742 205.32 232.698 205.393 232.671 205.477C232.658 205.509 232.651 205.545 232.652 205.582C232.653 205.618 232.662 205.653 232.677 205.684C232.693 205.715 232.715 205.74 232.74 205.757C232.766 205.774 232.795 205.782 232.824 205.78C232.896 205.773 232.965 205.741 233.022 205.688C233.08 205.634 233.125 205.561 233.151 205.477Z" fill="#EBF3FA"/>
<path d="M199.524 209.225C199.524 209.225 210.686 214.391 212.363 214.285C213.453 214.217 222.458 210.236 222.458 210.236L223.267 212.154C223.267 212.154 214.496 219.238 212.085 219.203C207.325 219.134 199.293 215.461 198.387 214.739C197.482 214.017 196.89 209.955 199.524 209.225Z" fill="#FFB27D"/>
<path d="M222.458 210.236C222.458 210.236 223.267 208.672 224.072 208.625C224.878 208.579 226.27 209.31 226.745 209.431C227.22 209.551 228.576 210.098 228.173 210.927C227.77 211.756 225.904 211.939 225.098 211.749C224.292 211.558 223.267 212.16 223.267 212.16L222.458 210.236Z" fill="#FFB27D"/>
<path d="M223.853 208.673C223.853 208.673 225.134 207.935 225.5 207.798C225.866 207.661 225.793 207.798 225.683 208.235C225.573 208.672 224.92 209.088 224.92 209.225C224.92 209.362 223.853 208.673 223.853 208.673Z" fill="#FFB27D"/>
<path d="M232.564 209.407C232.564 209.407 232.054 207.292 231.493 207.957C230.909 208.642 231.263 209.34 231.335 210.223C231.471 211.909 231.742 211.836 231.915 211.761C232.087 211.686 232.755 210.255 232.564 209.407Z" fill="#FFB27D"/>
<path d="M232.595 209.729C232.595 209.729 232.853 211.531 231.493 212.469L231.895 211.229L232.595 209.729Z" fill="#FFB27D"/>
<path d="M209.264 203.075C209.264 203.075 208.784 202.837 207.434 202.975C207.434 202.975 207.506 203.637 208.501 203.703C209.062 203.74 209.264 203.075 209.264 203.075Z" fill="white"/>
<path d="M205.275 211.772C205.275 211.772 204.277 215.745 200.848 216.649C200.848 216.649 195.186 214.457 198.005 209.607C198.005 209.61 200.792 207.007 205.275 211.772Z" fill="#F99746"/>
<path d="M232.595 209.984C232.595 209.984 232.83 208.994 232.844 208.821C232.859 208.648 232.844 208.563 232.72 208.684C232.596 208.804 232.414 209.122 232.468 209.422C232.523 209.722 232.595 209.984 232.595 209.984Z" fill="#FFB27D"/>
<path d="M159.043 120.841C158.938 120.985 158.869 121.165 158.843 121.357C158.818 121.55 158.837 121.748 158.899 121.927C159.107 122.651 159.796 123.459 160.596 124.267C160.699 124.371 160.789 124.465 160.869 124.552L160.93 124.622C160.946 124.639 160.961 124.658 160.977 124.674C161.723 125.539 161.442 125.737 162.783 127.491C164.309 129.49 165.363 129.525 165.663 129.343C165.915 129.188 165.401 128.128 164.831 126.937C164.804 126.88 164.776 126.821 164.748 126.763C164.672 126.604 164.597 126.444 164.521 126.285C163.853 124.851 164.024 124.178 164.183 122.038C164.312 120.304 166.33 112.35 166.33 112.35L163.401 111.715C163.401 111.715 162.519 118.049 161.548 119.024C161.028 119.545 160.447 119.55 159.948 119.937C159.911 119.963 159.875 119.991 159.839 120.019C159.546 120.247 159.278 120.524 159.043 120.841Z" fill="#FFC49C"/>
<path d="M159.043 120.841C158.938 120.985 158.869 121.165 158.843 121.357C158.818 121.55 158.837 121.748 158.899 121.927C159.154 122.651 159.826 123.455 160.6 124.256C160.7 124.362 160.789 124.459 160.869 124.549L160.93 124.619C160.946 124.636 160.961 124.655 160.977 124.671C161.723 125.536 161.442 125.734 162.783 127.488C164.309 129.487 165.363 129.522 165.663 129.34C165.915 129.185 165.401 128.125 164.831 126.935C163.761 126.41 162.821 125.54 162.106 124.411C161.186 122.935 160.571 121.039 159.946 119.941C159.909 119.967 159.873 119.995 159.837 120.023C159.544 120.25 159.278 120.525 159.043 120.841Z" fill="#233862"/>
<path d="M182.659 118.542C182.84 119.678 184.128 119.489 185.568 119.046C187.008 118.604 186.666 119.13 188.715 118.845C190.764 118.56 191.384 117.6 191.447 117.216C191.503 116.876 190.49 116.757 189.405 116.599C189.267 116.58 189.131 116.558 188.994 116.538C187.768 116.345 186.869 115.35 185.756 114.533C184.7 113.759 183.126 110.608 183.126 110.608L180.316 110.882C180.316 110.882 181.791 113.71 182.357 114.927C182.693 115.646 182.675 116.598 182.633 117.334C182.598 117.736 182.607 118.143 182.659 118.542Z" fill="#FFC49C"/>
<path d="M185.568 119.053C187.008 118.611 186.666 119.137 188.715 118.852C190.764 118.567 191.384 117.606 191.448 117.223C191.503 116.883 190.49 116.764 189.405 116.606L189.394 116.632C188.516 117.34 187.502 117.737 186.46 117.779C185.07 117.821 183.597 117.321 182.637 117.341C182.601 117.743 182.609 118.149 182.659 118.549C182.84 119.678 184.128 119.489 185.568 119.053Z" fill="#233862"/>
<path d="M171.893 95.9574L169.266 104.842L165.834 116.45C165.221 116.507 164.606 116.436 164.011 116.24C163.192 115.942 162.25 115.162 162.25 115.162C162.25 115.162 163.203 102.706 164.975 95.556C165.431 93.7216 165.941 92.2365 166.501 91.4008C169.261 87.3032 171.893 95.9574 171.893 95.9574Z" fill="#ED7D2B"/>
<path d="M169.219 81.8479C167.584 81.1835 163.049 81.9644 158.362 83.0878C158.155 83.1375 157.941 83.1066 157.749 82.999C157.556 82.8915 157.395 82.7126 157.286 82.4864L156.632 81.1164L145.981 80.071C145.981 80.071 143.232 87.9211 144.402 94.456C144.689 96.0562 146.245 98.1276 148.625 98.314C155.296 98.8359 159.796 95.9247 166.719 92.8641C167.918 92.3325 168.471 95.6959 169.723 99.0003C170.974 102.305 181.495 113.635 181.495 113.635C181.495 113.635 183.111 113.655 183.784 113.34C184.501 113.002 184.765 112.562 184.765 112.562C184.765 112.562 173.101 83.4221 169.219 81.8479Z" fill="#F99746"/>
<path d="M156.208 42.1411C154.843 41.2411 152.768 41.1191 152.43 41.0616C148.397 40.3766 145.965 47.7513 145.822 49.9844C145.559 54.0944 143.826 54.7287 141.388 57.307C136.497 62.476 137.932 68.4835 140.605 70.7152C142.21 72.0537 145.037 70.7152 145.037 70.7152C145.078 70.7495 152.776 65.3092 156.564 62.6843C162.25 61.6691 159.685 44.4359 156.208 42.1411Z" fill="#233862"/>
<path d="M153.386 60.45C153.402 60.4637 151.52 61.272 150.261 60.5705C149.076 59.9129 148.179 57.4647 148.197 57.4634C148.742 57.4318 149.327 56.84 149.782 52.9561L150.011 53.0588L153.869 54.8001C153.869 54.8001 153.59 56.3564 153.409 57.8374C153.254 59.0827 153.175 60.2801 153.386 60.45Z" fill="#FFB27D"/>
<path d="M153.869 54.7999C153.869 54.7999 153.676 55.9041 153.462 57.4139C151.247 56.9125 150.324 54.5615 150.011 53.0559L153.869 54.7999Z" fill="#ED975D"/>
<path d="M154.443 56.3467C154.443 56.3467 149.167 55.4562 149.658 51.3352C150.15 47.2143 149.8 44.3209 153.19 44.7154C156.58 45.11 157.045 46.806 157.148 48.2322C157.25 49.6584 155.829 56.4728 154.443 56.3467Z" fill="#FFB27D"/>
<path d="M156.96 45.9717C156.96 45.9717 153.581 49.631 151.283 49.9269C148.986 50.2228 148.116 49.294 148.116 49.294C149.033 48.2612 149.771 47.002 150.285 45.595C150.402 45.2643 150.587 44.9789 150.821 44.7684C151.055 44.5579 151.33 44.4299 151.617 44.3976C153.254 44.225 156.364 44.1441 156.96 45.9717Z" fill="#233862"/>
<path d="M154.843 45.6442C154.843 45.6442 155.974 47.0142 156.33 48.0362C156.673 49.0199 156.776 51.3708 156.502 52.3051C156.502 52.3051 158.264 48.002 157.265 45.91C156.209 43.6933 154.843 45.6442 154.843 45.6442Z" fill="#233862"/>
<path d="M157.832 70.2206C158.238 82.1944 157.597 81.5341 156.62 82.1163C156.283 82.3177 155.547 82.6054 154.505 82.6917C151.235 82.9657 145.471 82.2807 145.252 81.5259C144.497 78.8941 145.034 78.0762 144.4 74.0456C144.335 73.6168 144.253 73.1524 144.158 72.6469C143.632 69.8795 143.12 68.9369 144.985 64.4899C146.676 60.4607 148.433 57.1919 148.591 57.3097C153.052 60.6388 153.412 57.8399 153.412 57.8399C153.412 57.8399 157.614 63.6775 157.832 70.2206Z" fill="#AEC3FF"/>
<path d="M169.263 104.842L165.834 116.45C165.221 116.507 164.606 116.436 164.011 116.24C163.192 115.942 162.25 115.162 162.25 115.162C162.25 115.162 163.203 102.706 164.975 95.5562L169.263 104.842Z" fill="#F99746"/>
<path d="M153.409 57.8401C153.409 57.8401 157.999 58.8183 158.538 61.3021L162.244 78.3901C162.244 78.3901 159.911 78.9175 158.833 77.5681C157.755 76.2186 155.081 64.997 155.081 64.997L153.409 57.8401Z" fill="#AEC3FF"/>
<path d="M154.502 82.6918C151.232 82.9658 145.468 82.2808 145.249 81.5259C144.494 78.8941 145.031 78.0762 144.396 74.0457L145.976 68.4534C145.976 68.4534 145.715 74.68 147.175 76.3185C148.634 77.9571 153.157 79.4791 153.867 80.8478C154.211 81.5054 154.436 82.163 154.502 82.6918Z" fill="#94B0ED"/>
<path d="M150.747 80.0737C150.747 80.0737 153.978 79.1695 154.5 79.5257C155.022 79.8819 156.295 81.1985 156.455 81.6561C156.616 82.1137 155.295 81.3081 154.865 81.1642C154.587 81.0697 153.855 81.3903 153.492 81.5424C151.966 82.1808 151.033 81.852 151.033 81.852L150.747 80.0737Z" fill="#FFB27D"/>
<path d="M148.585 57.3071C148.585 57.3071 144.245 57.6428 142.743 60.2759C140.629 63.9831 136.434 79.7806 138.838 81.8877C141.545 84.2605 151.155 82.5083 151.155 82.5083C151.155 82.5083 151.474 80.6286 151.03 79.719C150.585 78.8093 143.35 77.3406 143.016 76.9214C142.681 76.5022 147.189 68.7384 147.189 67.4794C147.189 66.2203 148.585 57.3071 148.585 57.3071Z" fill="#AEC3FF"/>
<path d="M154.658 80.6602C154.658 80.6602 155.336 81.7562 155.557 81.8932C155.669 81.9696 155.795 82.0038 155.922 81.9918L155.466 80.9588L154.658 80.6602Z" fill="#FFB27D"/>
<path d="M154.502 79.5298L156.47 80.7313C156.432 80.7914 156.381 80.8377 156.324 80.8654C156.266 80.893 156.204 80.9011 156.143 80.8888C155.9 80.8751 155.289 80.5943 155.289 80.5943L154.502 79.5298Z" fill="#FFB27D"/>
<path d="M155.557 83.5699H171.13L175.815 68.9287H160.266L155.557 83.5699Z" fill="#2B478B"/>
<path d="M171.313 83H150.749V83.5699H171.13L171.313 83Z" fill="#2B478B"/>
<path d="M167.2 76.2502C167.316 75.7351 167.08 75.3186 166.67 75.3186C166.455 75.3338 166.248 75.4311 166.078 75.5975C165.907 75.7639 165.781 75.9916 165.716 76.2502C165.598 76.7653 165.836 77.1818 166.245 77.1818C166.46 77.1668 166.667 77.0697 166.838 76.9032C167.008 76.7368 167.135 76.509 167.2 76.2502Z" fill="#EBF3FA"/>
</g>
<defs>
<clipPath id="clip0_252_11584">
<rect width="327" height="274" fill="white"/>
</clipPath>
</defs>
</svg>
