<svg width="201" height="240" viewBox="0 0 201 240" fill="none" xmlns="http://www.w3.org/2000/svg">
<path d="M148.177 11.8551L136.418 18.8977C135.538 19.345 134.968 20.3756 134.968 21.5166V28.0844C134.968 33.9519 136.34 39.7666 139.161 44.9002C141.279 48.7537 144.089 53.679 148.763 56.4951H150.872C156.075 54.6006 159.959 49.55 162.333 45.23C165.155 40.0964 166.526 34.2822 166.526 28.4142V21.517C166.526 20.3761 165.956 19.345 165.077 18.8982L151.682 12.0831C151.085 11.7793 148.773 11.5513 148.177 11.8551Z" fill="#E0E0E0"/>
<path d="M147.703 12.0831L134.308 18.8977C133.429 19.345 132.858 20.3756 132.858 21.5165V28.0844C132.858 33.9519 134.23 39.7666 137.051 44.9002C139.425 49.2197 143.102 53.6679 148.762 56.4951C153.965 54.6005 157.849 49.55 160.223 45.23C163.045 40.0964 164.416 34.2821 164.416 28.4141V21.517C164.416 20.3761 163.846 19.345 162.967 18.8981L149.572 12.0831C148.975 11.7793 148.3 11.7793 147.703 12.0831Z" fill="#F5F5F5"/>
<path d="M164.374 26.6353C164.381 26.6348 164.389 26.7389 164.399 26.9377C164.408 27.1633 164.419 27.4513 164.432 27.8074C164.444 28.1857 164.463 28.6484 164.441 29.1855C164.418 29.7221 164.437 30.337 164.372 31.01C164.317 31.6839 164.28 32.4255 164.164 33.2103C164.11 33.6034 164.069 34.0129 164.001 34.429C163.926 34.8442 163.849 35.2714 163.771 35.7092C163.42 37.4497 162.935 39.3418 162.226 41.2316C161.515 43.1199 160.674 44.8244 159.823 46.2999C159.377 47.0204 158.965 47.7164 158.524 48.3145C158.307 48.6169 158.11 48.9217 157.898 49.1914C157.686 49.4597 157.482 49.7175 157.286 49.9642C156.906 50.4677 156.516 50.8676 156.191 51.2391C155.868 51.6135 155.569 51.9092 155.322 52.1449C155.089 52.3685 154.901 52.5495 154.754 52.6911C154.623 52.8135 154.552 52.8749 154.547 52.8682C154.543 52.8615 154.605 52.7871 154.727 52.6522C154.867 52.502 155.047 52.3095 155.269 52.0714C155.507 51.8247 155.797 51.5194 156.111 51.1373C156.428 50.7581 156.809 50.3511 157.179 49.8428C157.37 49.5941 157.57 49.334 157.777 49.0637C157.985 48.7925 158.178 48.4863 158.39 48.1829C158.824 47.5829 159.227 46.8869 159.666 46.1684C160.502 44.6967 161.33 43.0028 162.036 41.1303C162.739 39.2559 163.225 37.3815 163.584 35.6569C163.664 35.2229 163.744 34.8001 163.82 34.3882C163.892 33.9754 163.936 33.5693 163.993 33.1796C164.116 32.401 164.162 31.6647 164.225 30.9956C164.3 30.3274 164.291 29.7159 164.325 29.1821C164.358 28.6474 164.351 28.1866 164.351 27.8093C164.354 27.4532 164.357 27.1652 164.358 26.9401C164.361 26.7404 164.366 26.6357 164.374 26.6353Z" fill="#E0E0E0"/>
<path d="M147.64 40.9125L139.956 33.6179L142.088 30.4168L147.24 35.308L154.765 25.2539L157.318 27.9793L147.64 40.9125Z" fill="white"/>
<path d="M183.93 47.788H182.476V38.3397C182.476 36.1158 180.961 34.3067 179.098 34.3067C177.236 34.3067 175.721 36.1158 175.721 38.3397V47.788H174.267V38.3397C174.267 35.1587 176.435 32.5706 179.099 32.5706C181.763 32.5706 183.93 35.1587 183.93 38.3397V47.788H183.93Z" fill="#EBEBEB"/>
<path d="M184.372 53.561H173.824C173.141 53.561 172.587 52.8996 172.587 52.084V42.8517C172.587 42.0362 173.141 41.3748 173.824 41.3748H184.372C185.055 41.3748 185.609 42.0362 185.609 42.8517V52.084C185.609 52.8996 185.055 53.561 184.372 53.561Z" fill="#EBEBEB"/>
<path d="M180.098 47.7851C180.353 47.4789 180.51 47.0579 180.51 46.5913C180.51 45.6467 179.869 44.8811 179.078 44.8811C178.287 44.8811 177.646 45.6467 177.646 46.5913C177.646 47.3728 178.087 48.0246 178.687 48.2286L178.379 49.8534H179.742L179.469 48.2286C179.71 48.1465 179.926 47.992 180.098 47.7851Z" fill="#FAFAFA"/>
<path d="M18.6653 185.733C17.1116 184.568 15.3319 183.836 13.5068 183.613C12.6638 183.51 11.7429 183.539 11.0667 184.148C10.9232 184.278 10.7833 184.469 10.8154 184.68C10.8392 184.836 10.9489 184.949 11.0542 185.044C13.1531 186.956 16.3277 187.198 18.6653 185.733Z" fill="#E0E0E0"/>
<path d="M18.5331 185.558C17.3653 184.47 16.1906 183.374 15.2013 182.058C14.212 180.742 13.408 179.179 13.1125 177.446C13.0229 176.92 12.9951 176.319 13.2777 175.902C15.9333 178.379 18.0197 181.582 18.5331 185.558Z" fill="#E0E0E0"/>
<path d="M18.6381 185.709C18.4383 183.975 18.3664 182.191 18.7 180.486C19.0337 178.781 19.8103 177.149 21.03 176.176C21.4891 177.457 21.2917 178.932 20.9685 180.271C20.4688 182.34 19.6849 184.31 18.6582 186.079" fill="#E0E0E0"/>
<path d="M21.2414 191.279C19.6612 191.509 18.2847 192.503 17.1045 193.779C15.9242 195.055 15.0856 196.774 14.7383 198.63C16.2884 198.515 17.6037 197.21 18.5573 195.746C19.5112 194.283 20.1721 192.677 21.2197 191.308" fill="#E0E0E0"/>
<path d="M21.8071 192.17C20.5339 188.426 20.9954 183.915 22.9853 180.646C23.8854 184.47 23.555 188.79 21.8071 192.17Z" fill="#E0E0E0"/>
<path d="M25.247 197.061C23.8126 196.955 22.3546 197.362 21.1092 198.218C19.8638 199.074 18.8359 200.375 18.1927 201.91C18.105 202.118 18.0283 202.383 18.1452 202.57C18.2469 202.732 18.4435 202.748 18.6132 202.734C20.0033 202.627 21.2358 201.628 22.2525 200.491C23.2691 199.354 24.1551 198.039 25.2787 197.056" fill="#E0E0E0"/>
<path d="M25.1372 196.795C24.3975 193.968 24.3513 190.888 25.0062 188.031C25.2647 186.903 25.6988 185.716 26.5724 185.187C26.6467 185.142 26.7336 185.102 26.812 185.137C26.8863 185.17 26.9293 185.261 26.9635 185.346C27.2743 186.121 27.3647 187.001 27.3329 187.86C27.3012 188.719 27.1516 189.564 27.0029 190.405C26.7279 191.961 26.5812 193.632 25.8669 194.974C25.6972 195.292 25.5477 195.636 25.4126 195.977C25.2771 196.318 25.2763 196.438 25.1525 196.709" fill="#E0E0E0"/>
<path d="M34.2429 198.414C33.5683 195.351 34.2843 191.636 35.9015 189.124C36.0205 188.939 36.1785 188.741 36.3731 188.762C36.671 188.795 36.7482 189.269 36.7349 189.626C36.6175 192.757 35.7427 195.843 34.2429 198.414Z" fill="#E0E0E0"/>
<path d="M35.0637 199.085C38.1812 200.053 41.7582 199.111 44.3511 196.829C42.8143 195.899 41.0029 195.634 39.3233 196.092C37.6438 196.551 36.1089 197.45 35.0637 199.085Z" fill="#E0E0E0"/>
<path d="M35.7561 197.044C37.5024 193.645 40.8498 191.426 44.1852 191.225C43.8009 192.845 42.6862 194.103 41.4283 194.864C40.1705 195.625 38.7663 195.956 37.3822 196.277C36.8435 196.402 36.105 196.539 35.7561 197.044Z" fill="#E0E0E0"/>
<path d="M34.4161 187.145C34.8888 185.21 35.3644 183.259 35.4942 181.25C35.6241 179.242 35.3841 177.145 34.5109 175.42C32.88 179.188 32.7148 183.591 34.367 187.346" fill="#E0E0E0"/>
<path d="M39.9075 183.831C41.815 179.692 45.7063 176.386 49.6439 175.922C48.1248 180.438 43.9821 183.928 39.9075 183.831Z" fill="#E0E0E0"/>
<path d="M38.7075 184.642C41.5521 185.16 43.9757 187.329 46.6338 188.644C47.2022 188.925 47.8156 189.15 48.4255 189.054C49.0357 188.959 49.6375 188.47 49.7746 187.753C49.8883 187.159 49.6612 186.527 49.3038 186.091C48.9465 185.655 48.4741 185.383 48.0022 185.148C45.107 183.709 42.0019 183.673 38.9519 184.546" fill="#E0E0E0"/>
<path d="M37.0613 187.025C37.7053 187.245 37.9252 187.643 38.4353 188.161C40.1655 189.921 42.2406 191.193 44.446 191.848C44.6756 191.916 44.9771 191.943 45.0908 191.695C45.1901 191.479 45.0643 191.217 44.9353 191.024C44.0111 189.644 42.6933 188.7 41.306 188.082C39.9187 187.466 38.7171 186.722 37.0613 186.881" fill="#E0E0E0"/>
<path d="M35.2036 172.636C37.5167 175.215 40.7749 176.538 43.9246 176.179C44.0681 176.163 44.2241 176.136 44.3218 176.009C44.5413 175.724 44.278 175.284 44.0223 175.046C41.4583 172.659 38.3525 171.669 35.2036 172.636Z" fill="#E0E0E0"/>
<path d="M37.4062 171.674C40.4639 168.937 44.6567 168.111 48.2884 169.53C46.918 171.143 45.0165 172.01 43.1026 172.248C41.1891 172.486 39.2727 172.233 37.4062 171.674Z" fill="#E0E0E0"/>
<path d="M36.5307 165.063C36.279 162.007 36.4422 159.595 36.2646 156.524C36.2505 156.279 36.2063 155.984 36.0141 155.896C35.7464 155.773 35.5237 156.165 35.4356 156.491C34.6734 159.321 35.0903 162.567 36.5271 164.995" fill="#E0E0E0"/>
<path d="M36.3464 165.4C38.0811 164.119 39.3823 162.447 40.5859 160.48C41.4233 159.112 42.1292 157.474 41.9391 155.795C40.7632 155.766 39.6456 156.541 38.881 157.608C38.116 158.675 37.6614 160.008 37.3221 161.353C36.9824 162.697 36.7448 164.079 36.3464 165.4Z" fill="#E0E0E0"/>
<path d="M40.5115 164.018C44.3185 162.337 47.8702 159.837 50.9447 156.673C49.6985 156.073 48.2718 156.433 47.0256 157.033C44.179 158.405 41.853 160.721 40.4573 163.985" fill="#E0E0E0"/>
<path d="M37.5181 167.072C39.444 167.323 41.4002 167.487 43.3113 167.105C45.1894 166.731 46.9643 165.842 48.7194 164.96C48.8649 164.887 49.0233 164.799 49.0868 164.627C49.156 164.44 49.0824 164.212 48.955 164.074C48.8279 163.937 48.6587 163.871 48.4939 163.816C46.586 163.179 44.5269 163.477 42.6492 164.233C40.7719 164.989 39.2326 165.887 37.5181 167.072Z" fill="#E0E0E0"/>
<path d="M26.5209 172.741C25.2067 169.574 25.2924 165.878 26.4272 162.614C27.2264 164.067 27.3237 165.919 27.1777 167.649C27.0318 169.379 26.5904 171.16 26.5619 172.898" fill="#E0E0E0"/>
<path d="M21.2716 169.58C17.9909 169.505 14.7093 171.174 12.4814 174.051C14.1188 174.358 15.8052 173.854 17.2946 172.985C18.784 172.117 20.1074 170.899 21.4191 169.689" fill="#E0E0E0"/>
<path d="M17.7424 168.17C16.1376 168.015 14.5931 167.778 13.0502 168.342C11.5069 168.907 10.1028 170.188 9.47363 171.963C10.9747 172.165 12.4967 171.716 13.8727 170.971C15.2488 170.227 16.4998 169.196 17.7424 168.17Z" fill="#E0E0E0"/>
<path d="M22.9676 168.235C21.5241 167.105 20.0415 165.955 18.3603 165.487C16.6792 165.019 14.7311 165.365 13.5588 166.877C14.9196 167.831 16.5706 167.943 18.1485 167.942C19.7263 167.941 21.6607 167.919 23.1481 168.548" fill="#E0E0E0"/>
<path d="M22.9765 168.326C20.5082 165.432 19.5724 160.233 20.5657 156.277C22.5054 159.796 23.3745 164.139 22.9765 168.326Z" fill="#E0E0E0"/>
<path d="M29.7634 160.126C30.2289 158.834 30.5562 157.478 30.9739 156.162C31.3915 154.847 31.9105 153.553 32.6996 152.508C33.4888 151.464 34.5802 150.686 35.7564 150.616C35.02 154.599 32.8046 158.157 29.8233 160.146" fill="#E0E0E0"/>
<path d="M28.5354 161.834C27.7651 160.568 26.8751 158.85 25.8303 157.905C24.7855 156.96 23.4255 156.388 22.1504 156.751C23.4468 159.518 25.897 161.47 28.5354 161.834Z" fill="#E0E0E0"/>
<path d="M28.7809 160.231C28.276 158.699 27.7675 157.151 27.5633 155.523C27.3591 153.895 27.4833 152.156 28.1808 150.736C29.5359 153.794 29.9721 157.076 28.8501 160.266" fill="#E0E0E0"/>
<path d="M29.7759 150.736C30.5433 147.704 32.8681 145.472 35.3781 144.448C35.6945 144.318 36.0298 144.211 36.3602 144.272C36.6907 144.333 37.0147 144.603 37.0842 144.993C37.1759 145.509 36.8189 145.971 36.4832 146.314C34.5291 148.309 32.2317 149.824 29.7759 150.736Z" fill="#E0E0E0"/>
<path d="M29.8036 148.256C29.9013 146.301 30.0034 144.318 30.5357 142.466C31.0683 140.614 32.0942 138.877 33.5873 138.066C33.8413 140.04 33.1117 142.004 32.2321 143.703C31.3525 145.402 30.2921 147.005 29.7634 148.9" fill="#E0E0E0"/>
<path d="M29.7634 149.602C29.1291 147.392 29.0635 144.586 27.9556 142.661C27.181 141.316 25.9408 140.399 25.2735 138.975C24.8301 140.306 24.9659 141.839 25.4294 143.16C25.8929 144.481 26.6592 145.618 27.4792 146.664C28.2989 147.709 29.0012 148.495 29.7634 149.602Z" fill="#E0E0E0"/>
<path d="M29.7754 214.667C29.7262 214.667 29.6838 199.928 29.6806 181.751C29.6774 163.567 29.7142 148.832 29.763 148.832C29.8122 148.832 29.8546 163.567 29.8578 181.751C29.8614 199.928 29.8242 214.667 29.7754 214.667Z" fill="#E0E0E0"/>
<path d="M40.5628 170.517C40.5664 170.531 40.4008 170.604 40.0989 170.725C39.7656 170.86 39.3363 171.032 38.8217 171.24C37.7448 171.678 36.2654 172.312 34.6598 173.098C33.0699 173.912 31.5704 174.573 30.7166 175.457C30.2901 175.892 30.0452 176.364 29.9242 176.708C29.8016 177.054 29.7799 177.266 29.7634 177.262C29.7574 177.261 29.7594 177.208 29.7687 177.107C29.7827 177.008 29.8044 176.86 29.8595 176.678C29.9636 176.314 30.2016 175.81 30.633 175.343C31.0623 174.876 31.6597 174.456 32.3439 174.074C33.0281 173.693 33.7867 173.295 34.5923 172.9C36.2027 172.112 37.6937 171.498 38.7827 171.096C39.327 170.893 39.7712 170.743 40.0792 170.645C40.3871 170.549 40.5596 170.503 40.5628 170.517Z" fill="#E0E0E0"/>
<path d="M44.0987 160.147C44.1028 160.153 44.0577 160.209 43.9689 160.313C43.8636 160.431 43.7329 160.578 43.5729 160.757C43.2051 161.156 42.7046 161.699 42.0944 162.361C40.8176 163.718 39.0862 165.559 37.1727 167.593C35.2515 169.635 33.5913 171.586 32.4407 173.055C31.8647 173.789 31.4108 174.396 31.1013 174.821C30.957 175.018 30.8388 175.179 30.7435 175.308C30.6607 175.419 30.6149 175.475 30.61 175.47C30.6052 175.465 30.6418 175.4 30.7158 175.281C30.7905 175.163 30.8991 174.986 31.0478 174.767C31.3417 174.326 31.7819 173.701 32.3475 172.953C33.4775 171.454 35.1285 169.48 37.0537 167.434C38.9817 165.397 40.736 163.566 42.0108 162.247C42.6363 161.607 43.1496 161.081 43.5271 160.694C43.6959 160.527 43.8342 160.39 43.9452 160.28C44.0417 160.187 44.0943 160.141 44.0987 160.147Z" fill="#E0E0E0"/>
<path d="M35.098 169.67C35.0478 169.643 35.449 168.536 35.849 167.137C36.2526 165.738 36.4427 164.557 36.4938 164.567C36.5404 164.573 36.4266 165.788 36.0182 167.205C35.8172 167.913 35.5953 168.535 35.4208 168.976C35.2456 169.418 35.1201 169.681 35.098 169.67Z" fill="#E0E0E0"/>
<path d="M29.7872 178.59C29.7771 178.599 29.6722 178.453 29.4909 178.18C29.2899 177.872 29.0358 177.483 28.7327 177.019C28.0956 176.035 27.2148 174.678 26.2279 173.193C25.2401 171.708 24.3328 170.375 23.6756 169.411C23.3656 168.953 23.1059 168.569 22.9005 168.266C22.7196 167.993 22.6239 167.838 22.6332 167.829C22.6424 167.819 22.7562 167.957 22.9536 168.212C23.1514 168.468 23.4312 168.845 23.7724 169.315C24.455 170.255 25.3788 171.574 26.3678 173.061C27.3559 174.548 28.2222 175.922 28.8336 176.929C29.1396 177.433 29.3832 177.844 29.5472 178.132C29.7112 178.419 29.7972 178.582 29.7872 178.59Z" fill="#E0E0E0"/>
<path d="M27.4217 174.965C27.3928 175.002 26.7616 174.108 26.4308 172.75C26.1868 171.793 26.1759 170.918 26.2061 170.517L26.2849 170.525C26.2495 170.696 26.2237 170.786 26.2097 170.783C26.1956 170.78 26.1948 170.685 26.2065 170.51L26.2853 170.517C26.3142 170.914 26.3644 171.759 26.6016 172.69C26.9212 174.005 27.4695 174.929 27.4217 174.965Z" fill="#E0E0E0"/>
<path d="M24.3686 170.379C24.3457 170.408 24.1427 170.103 23.6768 169.899C23.2145 169.685 22.519 169.638 21.756 169.716C20.9922 169.783 20.31 169.946 19.822 170.089C19.3336 170.234 19.0353 170.347 19.026 170.317C19.018 170.292 19.3022 170.128 19.7882 169.944C20.2735 169.762 20.9653 169.572 21.7428 169.504C22.5146 169.424 23.2466 169.495 23.7242 169.759C24.2082 170.015 24.3843 170.373 24.3686 170.379Z" fill="#E0E0E0"/>
<path d="M23.6446 169.267C23.6309 169.3 23.2418 169.074 22.5849 168.806C21.9292 168.537 20.995 168.254 19.9406 168.156C18.8853 168.062 17.9261 168.173 17.2439 168.32C16.5605 168.466 16.1473 168.619 16.138 168.583C16.1344 168.57 16.2341 168.52 16.419 168.44C16.6031 168.358 16.8769 168.265 17.2194 168.172C17.904 167.984 18.8801 167.848 19.9546 167.944C21.0284 168.043 21.9759 168.355 22.6287 168.665C22.9556 168.818 23.2144 168.96 23.3857 169.075C23.5577 169.186 23.6502 169.254 23.6446 169.267Z" fill="#E0E0E0"/>
<path d="M29.7633 164.567C29.7154 164.581 29.3693 163.146 28.9902 161.361C28.6111 159.575 28.3422 158.117 28.39 158.103C28.4379 158.088 28.7836 159.523 29.1631 161.309C29.5422 163.094 29.8111 164.552 29.7633 164.567Z" fill="#E0E0E0"/>
<path d="M29.8125 164.567C29.7595 164.587 29.5367 163.628 28.9559 162.647C28.3902 161.646 27.6687 161.143 27.6948 161.094C27.704 161.071 27.9034 161.158 28.1816 161.393C28.4602 161.624 28.8047 162.017 29.1018 162.525C29.7052 163.546 29.8559 164.563 29.8125 164.567Z" fill="#E0E0E0"/>
<path d="M29.7758 206.81C29.7565 206.813 29.7203 206.455 29.5813 205.829C29.4438 205.204 29.1849 204.316 28.7564 203.278C27.9037 201.197 26.3516 198.558 24.3798 195.916C23.4025 194.583 22.4546 193.325 21.6502 192.121C20.8442 190.919 20.1821 189.773 19.6985 188.76C19.2133 187.747 18.8973 186.878 18.7132 186.265C18.6227 185.957 18.556 185.718 18.5198 185.552C18.4808 185.387 18.4631 185.299 18.4692 185.297C18.4853 185.291 18.5749 185.635 18.7783 186.235C18.9813 186.836 19.3126 187.688 19.8078 188.684C20.3019 189.68 20.9696 190.808 21.7788 191.998C22.5865 193.19 23.536 194.44 24.5148 195.775C26.4919 198.425 28.04 201.097 28.8705 203.212C29.2882 204.268 29.5314 205.172 29.6492 205.809C29.7063 206.128 29.7449 206.377 29.7585 206.548C29.7754 206.719 29.7819 206.809 29.7758 206.81Z" fill="#E0E0E0"/>
<path d="M39.5232 193.663C39.5288 193.679 39.3423 193.792 39.0122 194.006C38.6846 194.225 38.2195 194.564 37.6873 195.052C37.1546 195.538 36.5588 196.178 35.947 196.947C35.3364 197.717 34.7072 198.612 34.0648 199.57C32.7808 201.494 31.5801 203.196 30.8613 204.554C30.4963 205.228 30.231 205.796 30.0569 206.195C29.8816 206.593 29.7888 206.816 29.7755 206.809C29.7699 206.806 29.7863 206.747 29.8229 206.636C29.8611 206.526 29.9126 206.361 29.9946 206.158C30.1502 205.746 30.4006 205.163 30.7548 204.474C31.453 203.082 32.6442 201.357 33.9257 199.437C34.5693 198.476 35.2061 197.58 35.8284 196.811C36.4519 196.043 37.0633 195.408 37.6117 194.931C38.16 194.453 38.64 194.13 38.9801 193.932C39.1493 193.83 39.2876 193.768 39.3789 193.721C39.4713 193.677 39.5208 193.657 39.5232 193.663Z" fill="#E0E0E0"/>
<path d="M39.7141 197.928C39.7161 197.959 39.3016 198.019 38.6343 198.115C37.9694 198.218 37.0432 198.35 36.0736 198.718C35.1072 199.094 34.304 199.666 33.7806 200.154C33.2519 200.642 33.0027 201.046 32.9782 201.022C32.9697 201.014 33.0212 200.904 33.1382 200.725C33.2536 200.545 33.4429 200.303 33.7006 200.038C34.2155 199.508 35.0264 198.901 36.0185 198.515C37.0123 198.14 37.9505 198.031 38.6215 197.966C39.2952 197.907 39.7121 197.901 39.7141 197.928Z" fill="#E0E0E0"/>
<path d="M33.2933 200.554C33.237 200.516 33.7234 199.628 34.1009 198.434C34.4551 197.23 34.5379 196.174 34.6014 196.186C34.6243 196.189 34.6235 196.453 34.5833 196.877C34.5411 197.3 34.4559 197.888 34.2681 198.507C34.0796 199.125 33.832 199.642 33.6418 200.002C33.4501 200.361 33.3134 200.568 33.2933 200.554Z" fill="#E0E0E0"/>
<path d="M42.6799 182.214C42.6823 182.221 42.6224 182.259 42.5071 182.324C42.3732 182.396 42.2052 182.488 41.9997 182.599C41.7774 182.713 41.5077 182.858 41.2038 183.049C40.8987 183.236 40.5429 183.43 40.1722 183.696C39.9841 183.824 39.7875 183.957 39.5833 184.096C39.3791 184.236 39.1769 184.403 38.9618 184.564C38.5277 184.878 38.0927 185.265 37.6284 185.661C36.7199 186.484 35.7643 187.459 34.8445 188.584C33.9336 189.721 33.1501 190.894 32.492 192.007C32.1769 192.575 31.8673 193.107 31.6189 193.636C31.4919 193.898 31.3592 194.145 31.2487 194.393C31.1397 194.642 31.0344 194.881 30.9339 195.11C30.724 195.561 30.5741 195.993 30.4274 196.363C30.2774 196.733 30.1661 197.059 30.0784 197.329C29.992 197.578 29.9216 197.781 29.8654 197.944C29.8147 198.084 29.7854 198.156 29.7793 198.153C29.7737 198.151 29.7914 198.074 29.8312 197.929C29.8794 197.763 29.9397 197.554 30.0133 197.299C30.0913 197.024 30.1938 196.692 30.3357 196.316C30.4744 195.939 30.6171 195.501 30.8209 195.042C30.9186 194.81 31.0211 194.567 31.1272 194.315C31.235 194.063 31.3656 193.813 31.4907 193.547C31.7355 193.01 32.0422 192.471 32.3562 191.896C33.0118 190.769 33.7973 189.582 34.7155 188.436C35.6425 187.302 36.6089 186.324 37.5295 185.503C37.9998 185.109 38.4412 184.724 38.8818 184.414C39.1001 184.256 39.3051 184.092 39.5126 183.954C39.72 183.819 39.9198 183.689 40.1111 183.564C40.4878 183.305 40.8496 183.12 41.1604 182.942C41.4699 182.76 41.7449 182.626 41.972 182.524C42.1835 182.427 42.3559 182.347 42.4934 182.285C42.614 182.232 42.6779 182.207 42.6799 182.214Z" fill="#E0E0E0"/>
<path d="M34.9656 188.386C34.9499 188.383 35.0356 188.025 35.3897 187.632C35.735 187.239 36.3654 186.875 37.099 186.849C37.8303 186.826 38.4646 187.07 38.8976 187.268C39.3329 187.472 39.5862 187.638 39.5774 187.663C39.5673 187.693 39.296 187.576 38.8558 187.411C38.4172 187.25 37.7973 187.039 37.1043 187.062C36.4136 187.087 35.8175 187.405 35.4717 187.746C35.1188 188.086 34.9942 188.407 34.9656 188.386Z" fill="#E0E0E0"/>
<path d="M33.8127 189.806C33.7636 189.774 34.199 189.012 34.2979 187.921C34.4121 186.831 34.1351 185.97 34.1889 185.953C34.2086 185.943 34.3055 186.143 34.3895 186.502C34.474 186.858 34.5294 187.378 34.4752 187.946C34.4189 188.513 34.2645 189.003 34.1138 189.327C33.9626 189.653 33.8296 189.821 33.8127 189.806Z" fill="#E0E0E0"/>
<path d="M21.2507 208.922C21.5169 214.554 22.9383 220.283 25.1248 226.074H34.6325C36.7177 220.34 38.0411 214.62 38.2762 208.922H21.2507Z" fill="#E0E0E0"/>
<path d="M36.7353 218.036C36.7353 218.095 33.6049 218.142 29.7437 218.142C25.8817 218.142 22.7517 218.095 22.7517 218.036C22.7517 217.977 25.8817 217.929 29.7437 217.929C33.6049 217.929 36.7353 217.977 36.7353 218.036Z" fill="#FAFAFA"/>
<path d="M36.523 220.076C36.523 220.135 33.588 220.183 29.9688 220.183C26.348 220.183 23.4138 220.135 23.4138 220.076C23.4138 220.018 26.348 219.97 29.9688 219.97C33.588 219.97 36.523 220.018 36.523 220.076Z" fill="#FAFAFA"/>
<path d="M25.2775 212.62C25.3267 212.62 25.3663 213.79 25.3663 215.235C25.3663 216.679 25.3267 217.85 25.2775 217.85C25.2283 217.85 25.1887 216.679 25.1887 215.235C25.1887 213.791 25.2283 212.62 25.2775 212.62Z" fill="#FAFAFA"/>
<path d="M30.372 212.62C30.4212 212.62 30.4608 213.832 30.4608 215.328C30.4608 216.824 30.4212 218.036 30.372 218.036C30.3228 218.036 30.2832 216.823 30.2832 215.328C30.2832 213.832 30.3228 212.62 30.372 212.62Z" fill="#FAFAFA"/>
<path d="M35.1542 212.574C35.2034 212.574 35.243 213.811 35.243 215.336C35.243 216.862 35.2034 218.098 35.1542 218.098C35.1054 218.098 35.0654 216.862 35.0654 215.336C35.0654 213.81 35.1054 212.574 35.1542 212.574Z" fill="#FAFAFA"/>
<path d="M37.9743 212.62C37.9743 212.679 34.3024 212.726 29.7743 212.726C25.2446 212.726 21.5735 212.679 21.5735 212.62C21.5735 212.561 25.2446 212.513 29.7743 212.513C34.3028 212.513 37.9743 212.561 37.9743 212.62Z" fill="#FAFAFA"/>
<path d="M185.48 160.094C187.167 159.249 188.366 157.172 188.376 154.725C188.387 151.519 186.355 148.908 183.837 148.894C181.32 148.88 179.27 151.468 179.259 154.674C179.25 157.144 180.458 159.246 182.164 160.094C175.148 161.356 175.466 170.46 175.466 170.46L192.056 170.551C192.056 170.551 192.434 161.348 185.48 160.094Z" fill="#EBEBEB"/>
<path d="M110.901 27.747C112.083 27.5056 113.105 26.392 113.415 24.832C113.819 22.7882 112.846 20.763 111.24 20.3099C109.636 19.8568 108.007 21.1461 107.603 23.1899C107.292 24.7648 107.802 26.3195 108.785 27.1614C104.152 26.728 103.227 32.5936 103.227 32.5936L113.802 35.5811C113.802 35.5811 115.184 29.775 110.901 27.747Z" fill="#EBEBEB"/>
<path d="M185.932 76.614C186.917 75.9074 187.507 74.4876 187.329 72.965C187.094 70.9706 185.634 69.5656 184.068 69.8272C182.502 70.0888 181.422 71.9176 181.656 73.912C181.837 75.4485 182.746 76.626 183.87 76.9701C179.604 78.5076 180.487 84.1336 180.487 84.1336L190.807 82.41C190.807 82.41 190.35 76.6476 185.932 76.614Z" fill="#F5F5F5"/>
<path d="M20.2918 78.3543L14.7161 73.0613L16.263 70.7381L20.002 74.2872L25.4615 66.9917L27.3147 68.9693L20.2918 78.3543Z" fill="#F5F5F5"/>
<path d="M189.205 226.245C189.205 226.314 148.947 226.37 99.2985 226.37C49.6326 226.37 9.38354 226.314 9.38354 226.245C9.38354 226.176 49.6326 226.12 99.2985 226.12C148.947 226.12 189.205 226.177 189.205 226.245Z" fill="#263238"/>
<path d="M27.9001 86.0226L15.5687 93.4079C14.6469 93.8768 14.0483 94.9578 14.0483 96.1544V103.042C14.0483 109.195 15.4867 115.293 18.4454 120.676C20.6665 124.717 23.6123 129.883 28.5139 132.835H30.7265C36.1829 130.848 40.2555 125.552 42.7455 121.022C45.7046 115.639 47.1426 109.541 47.1426 103.388V96.1544C47.1426 94.9578 46.5444 93.8768 45.6222 93.4079L31.5755 86.2612C30.9496 85.9429 28.526 85.7039 27.9001 86.0226Z" fill="#FF725E"/>
<path opacity="0.3" d="M27.9001 86.0226L15.5687 93.4079C14.6469 93.8768 14.0483 94.9578 14.0483 96.1544V103.042C14.0483 109.195 15.4867 115.293 18.4454 120.676C20.6665 124.717 23.6123 129.883 28.5139 132.835H30.7265C36.1829 130.848 40.2555 125.552 42.7455 121.022C45.7046 115.639 47.1426 109.541 47.1426 103.388V96.1544C47.1426 94.9578 46.5444 93.8768 45.6222 93.4079L31.5755 86.2612C30.9496 85.9429 28.526 85.7039 27.9001 86.0226Z" fill="black"/>
<path d="M27.4031 86.2616L13.3561 93.4078C12.4343 93.8768 11.8357 94.9577 11.8357 96.1544V103.042C11.8357 109.195 13.274 115.293 16.2328 120.676C18.7228 125.206 22.5783 129.871 28.5139 132.835C33.9702 130.848 38.0429 125.551 40.5329 121.022C43.492 115.639 44.9299 109.541 44.9299 103.387V96.1544C44.9299 94.9577 44.3318 93.8768 43.4096 93.4078L29.3629 86.2611C28.737 85.9428 28.0291 85.9428 27.4031 86.2616Z" fill="#FF725E"/>
<path opacity="0.3" d="M31.7144 117.497C36.4557 115.301 38.8085 108.932 36.9695 103.271C35.1306 97.6095 29.7963 94.8002 25.055 96.9959C20.3138 99.1917 17.961 105.561 19.7999 111.222C21.6388 116.883 26.9731 119.693 31.7144 117.497Z" fill="black"/>
<path d="M28.3834 107.859C30.4946 107.859 32.206 105.816 32.206 103.295C32.206 100.774 30.4946 98.7305 28.3834 98.7305C26.2722 98.7305 24.5608 100.774 24.5608 103.295C24.5608 105.816 26.2722 107.859 28.3834 107.859Z" fill="white"/>
<path d="M21.4019 114.419C21.4019 114.419 23.1815 109.349 28.2427 109.349C33.3039 109.349 35.3653 114.419 35.3653 114.419C35.3653 114.419 33.1077 118.401 28.1132 118.247C23.5911 118.108 21.4019 114.419 21.4019 114.419Z" fill="white"/>
<path d="M37.5909 107.253C37.5873 107.253 37.5813 107.192 37.5728 107.075C37.5648 106.944 37.554 106.772 37.5403 106.553C37.5339 106.438 37.5266 106.309 37.519 106.17C37.5057 106.029 37.48 105.877 37.4587 105.711C37.4137 105.381 37.3706 104.997 37.2633 104.58C37.0989 103.733 36.7644 102.733 36.239 101.674C35.7092 100.619 34.9466 99.5174 33.909 98.5833C32.8751 97.6579 31.571 96.8711 30.0663 96.5543C28.5717 96.2486 26.8853 96.3052 25.2793 97.0343C24.8705 97.1908 24.4865 97.4323 24.0914 97.6588C23.7171 97.9291 23.3232 98.1782 22.975 98.5166C22.6048 98.8199 22.2812 99.2001 21.9423 99.5654C21.636 99.9705 21.3144 100.367 21.0502 100.826C20.5084 101.724 20.0352 102.723 19.7494 103.821C19.4527 104.912 19.2927 106.071 19.2798 107.251C19.2931 108.431 19.4523 109.59 19.749 110.682C20.0352 111.78 20.5084 112.779 21.0498 113.678C21.314 114.138 21.6356 114.534 21.9419 114.939C22.2808 115.305 22.6044 115.684 22.9746 115.988C23.3228 116.327 23.7171 116.576 24.0914 116.846C24.4865 117.072 24.8705 117.314 25.2793 117.47C26.8857 118.2 28.5725 118.256 30.0671 117.95C31.5718 117.633 32.8759 116.846 33.9102 115.921C34.9474 114.987 35.7104 113.885 36.2398 112.831C36.7652 111.771 37.0997 110.771 37.2641 109.925C37.3714 109.508 37.4141 109.124 37.4591 108.793C37.4804 108.628 37.5065 108.476 37.5194 108.335C37.527 108.195 37.5343 108.067 37.5407 107.951C37.5544 107.733 37.5652 107.56 37.5733 107.43C37.5813 107.313 37.5873 107.253 37.5909 107.253C37.5946 107.253 37.5958 107.313 37.5942 107.431C37.5913 107.561 37.5873 107.735 37.5825 107.955C37.5793 108.071 37.5753 108.2 37.5712 108.341C37.5612 108.483 37.5387 108.636 37.5206 108.804C37.4816 109.138 37.4446 109.526 37.3429 109.949C37.1893 110.807 36.8629 111.823 36.3403 112.903C35.8133 113.978 35.0483 115.103 33.9999 116.062C32.9551 117.011 31.6313 117.822 30.0993 118.154C28.5777 118.475 26.8567 118.426 25.2138 117.687C24.7961 117.528 24.4025 117.284 23.9989 117.053C23.6158 116.779 23.2126 116.525 22.856 116.18C22.4773 115.871 22.1453 115.484 21.7988 115.11C21.4848 114.697 21.1556 114.292 20.885 113.823C20.3299 112.905 19.8455 111.883 19.5516 110.76C19.2473 109.643 19.0841 108.457 19.0708 107.251C19.0841 106.044 19.2477 104.859 19.552 103.742C19.8459 102.62 20.3303 101.598 20.8854 100.68C21.156 100.211 21.4852 99.8063 21.7992 99.3935C22.1461 99.0201 22.4778 98.6332 22.8564 98.3236C23.213 97.9795 23.6162 97.7251 23.9989 97.451C24.4029 97.2206 24.7961 96.9758 25.2138 96.8169C26.8563 96.0787 28.5769 96.0287 30.0985 96.3499C31.6305 96.682 32.9543 97.4927 33.9991 98.4417C35.0475 99.4003 35.8129 100.526 36.3399 101.601C36.8625 102.681 37.1889 103.697 37.3429 104.555C37.445 104.977 37.4816 105.366 37.5206 105.7C37.5387 105.867 37.5616 106.02 37.5712 106.163C37.5753 106.304 37.5793 106.432 37.5825 106.549C37.5873 106.769 37.5913 106.943 37.5942 107.073C37.5958 107.193 37.5946 107.253 37.5909 107.253Z" fill="#263238"/>
<path d="M44.8849 101.522C44.8921 101.522 44.9006 101.631 44.9106 101.839C44.9191 102.073 44.9299 102.376 44.9436 102.751C44.9565 103.147 44.9753 103.633 44.9524 104.196C44.9456 104.479 44.938 104.78 44.9303 105.098C44.9275 105.418 44.9106 105.755 44.8785 106.109C44.8214 106.815 44.782 107.593 44.6598 108.415C44.6039 108.828 44.5601 109.257 44.4885 109.693C44.4101 110.129 44.3297 110.576 44.2469 111.035C43.8795 112.86 43.3706 114.844 42.6273 116.825C41.8812 118.805 41.0004 120.592 40.1083 122.139C39.6404 122.895 39.2091 123.624 38.746 124.252C38.5188 124.569 38.3118 124.889 38.0899 125.172C37.8676 125.453 37.6537 125.723 37.4491 125.982C37.0511 126.51 36.6423 126.93 36.3014 127.319C35.9625 127.712 35.6498 128.022 35.3901 128.27C35.1452 128.506 34.9479 128.696 34.7951 128.844C34.6576 128.972 34.5832 129.037 34.5788 129.03C34.5744 129.023 34.6399 128.946 34.7682 128.804C34.9141 128.648 35.1026 128.446 35.3366 128.196C35.5874 127.938 35.891 127.618 36.221 127.218C36.553 126.82 36.9526 126.394 37.3418 125.861C37.542 125.6 37.7514 125.327 37.9693 125.044C38.1872 124.759 38.3894 124.438 38.6125 124.12C39.0672 123.491 39.4901 122.761 39.9507 122.008C40.8279 120.464 41.6966 118.688 42.4367 116.723C43.1744 114.757 43.6845 112.792 44.06 110.982C44.1448 110.527 44.2276 110.083 44.3084 109.651C44.3828 109.219 44.4294 108.793 44.4889 108.384C44.6176 107.567 44.6654 106.795 44.7317 106.093C44.7687 105.742 44.79 105.407 44.7981 105.089C44.8117 104.772 44.8242 104.473 44.8363 104.191C44.8704 103.63 44.8632 103.147 44.8632 102.751C44.866 102.377 44.868 102.074 44.8696 101.84C44.8724 101.632 44.8777 101.523 44.8849 101.522Z" fill="#263238"/>
<path d="M142.632 226.245H47.5772C45.0048 226.245 42.9192 223.669 42.9192 220.492V47.003C42.9192 43.8259 45.0048 41.2498 47.5772 41.2498H142.632C145.205 41.2498 147.29 43.8254 147.29 47.003V220.491C147.29 223.669 145.204 226.245 142.632 226.245Z" fill="#263238"/>
<path d="M96.9251 217.829C96.9251 220.695 94.9432 223.019 92.4987 223.019C90.0537 223.019 88.0723 220.695 88.0723 217.829C88.0723 214.963 90.0537 212.64 92.4987 212.64C94.9432 212.64 96.9251 214.963 96.9251 217.829Z" fill="#455A64"/>
<path d="M105.798 51.0265H84.4827C83.6618 51.0265 82.9961 50.2047 82.9961 49.1905C82.9961 48.1767 83.6618 47.3545 84.4827 47.3545H105.798C106.619 47.3545 107.285 48.1767 107.285 49.1905C107.285 50.2043 106.619 51.0265 105.798 51.0265Z" fill="#455A64"/>
<path d="M143.909 54.4482H46.1199V208.942H143.909V54.4482Z" fill="white"/>
<path d="M143.909 54.4482H139.737V208.942H143.909V54.4482Z" fill="#F5F5F5"/>
<path d="M141.823 109.953C141.105 109.953 140.522 109.258 140.522 108.4V74.2257C140.522 73.3684 141.105 72.6729 141.823 72.6729C142.541 72.6729 143.123 73.3679 143.123 74.2257V108.4C143.123 109.258 142.541 109.953 141.823 109.953Z" fill="#E0E0E0"/>
<path d="M131.157 89.6074H59.0527C57.9074 89.6074 56.9788 88.4986 56.9788 87.1311C56.9788 85.7636 57.9074 84.6548 59.0527 84.6548H131.157C132.302 84.6548 133.231 85.7636 133.231 87.1311C133.231 88.4986 132.302 89.6074 131.157 89.6074Z" fill="#E0E0E0"/>
<path d="M120.067 71.5369H74.7094C73.5641 71.5369 72.6355 70.4281 72.6355 69.0606C72.6355 67.693 73.5641 66.5842 74.7094 66.5842H120.067C121.212 66.5842 122.141 67.693 122.141 69.0606C122.141 70.4286 121.212 71.5369 120.067 71.5369Z" fill="#FF725E"/>
<path d="M120.918 99.575H69.2912C68.1459 99.575 67.2173 98.4662 67.2173 97.0986C67.2173 95.7311 68.1459 94.6223 69.2912 94.6223H120.918C122.064 94.6223 122.992 95.7311 122.992 97.0986C122.992 98.4666 122.064 99.575 120.918 99.575Z" fill="#E0E0E0"/>
<path d="M97.6096 143.03H57.8884C56.7431 143.03 55.8145 141.921 55.8145 140.554C55.8145 139.186 56.7431 138.077 57.8884 138.077H97.6096C98.7549 138.077 99.6835 139.186 99.6835 140.554C99.6835 141.921 98.7549 143.03 97.6096 143.03Z" fill="#E0E0E0"/>
<path d="M129.992 132.659H57.8884C56.7431 132.659 55.8145 131.55 55.8145 130.183C55.8145 128.815 56.7431 127.706 57.8884 127.706H129.992C131.138 127.706 132.066 128.815 132.066 130.183C132.066 131.55 131.138 132.659 129.992 132.659Z" fill="#E0E0E0"/>
<path d="M129.992 166.065H66.8801C65.7348 166.065 64.8062 164.956 64.8062 163.589C64.8062 162.221 65.7348 161.113 66.8801 161.113H129.992C131.138 161.113 132.066 162.221 132.066 163.589C132.066 164.956 131.138 166.065 129.992 166.065Z" fill="#E0E0E0"/>
<path d="M129.992 176.65H57.8884C56.7431 176.65 55.8145 175.541 55.8145 174.173C55.8145 172.806 56.7431 171.697 57.8884 171.697H129.992C131.138 171.697 132.066 172.806 132.066 174.173C132.066 175.541 131.138 176.65 129.992 176.65Z" fill="#E0E0E0"/>
<path d="M129.992 187.399H57.8884C56.7431 187.399 55.8145 186.29 55.8145 184.923C55.8145 183.555 56.7431 182.447 57.8884 182.447H129.992C131.138 182.447 132.066 183.555 132.066 184.923C132.066 186.29 131.138 187.399 129.992 187.399Z" fill="#E0E0E0"/>
<path d="M61.1338 163.589C61.1338 165.009 60.1694 166.161 58.9795 166.161C57.7896 166.161 56.8252 165.009 56.8252 163.589C56.8252 162.168 57.7896 161.016 58.9795 161.016C60.1694 161.016 61.1338 162.168 61.1338 163.589Z" fill="#FF725E"/>
<path d="M129.992 122.987H66.8801C65.7348 122.987 64.8062 121.878 64.8062 120.511C64.8062 119.143 65.7348 118.034 66.8801 118.034H129.992C131.138 118.034 132.066 119.143 132.066 120.511C132.066 121.878 131.138 122.987 129.992 122.987Z" fill="#E0E0E0"/>
<path d="M58.9795 123.083C60.1693 123.083 61.1338 121.931 61.1338 120.511C61.1338 119.09 60.1693 117.938 58.9795 117.938C57.7897 117.938 56.8252 119.09 56.8252 120.511C56.8252 121.931 57.7897 123.083 58.9795 123.083Z" fill="#FF725E"/>
<path d="M127.977 203.15H111.798C109.972 203.15 108.493 201.383 108.493 199.203C108.493 197.024 109.972 195.257 111.798 195.257H127.977C129.803 195.257 131.282 197.024 131.282 199.203C131.282 201.383 129.803 203.15 127.977 203.15Z" fill="#FF725E"/>
<path d="M44.6214 16.969L27.8491 27.0145C26.5953 27.6524 25.7812 29.1226 25.7812 30.7503V40.1185C25.7812 48.4878 27.7374 56.7817 31.7622 64.1036C34.7832 69.6001 38.79 76.6254 45.4567 80.642H48.4661C55.8874 77.9396 61.427 70.7353 64.8138 64.574C68.8387 57.2521 70.7948 48.9586 70.7948 40.5889V30.7503C70.7948 29.1226 69.9811 27.6524 68.7269 27.0145L49.6211 17.294C48.7696 16.861 45.4732 16.5361 44.6214 16.969Z" fill="#FF725E"/>
<path opacity="0.3" d="M44.6214 16.969L27.8491 27.0145C26.5953 27.6524 25.7812 29.1226 25.7812 30.7503V40.1185C25.7812 48.4878 27.7374 56.7817 31.7622 64.1036C34.7832 69.6001 38.79 76.6254 45.4567 80.642H48.4661C55.8874 77.9396 61.427 70.7353 64.8138 64.574C68.8387 57.2521 70.7948 48.9586 70.7948 40.5889V30.7503C70.7948 29.1226 69.9811 27.6524 68.7269 27.0145L49.6211 17.294C48.7696 16.861 45.4732 16.5361 44.6214 16.969Z" fill="black"/>
<path d="M43.9457 17.294L24.8399 27.0144C23.586 27.6524 22.772 29.1226 22.772 30.7503V40.1184C22.772 48.4877 24.7281 56.7816 28.7529 64.1036C32.1398 70.2653 37.3839 76.6095 45.4572 80.642C52.8786 77.9396 58.4181 70.7352 61.805 64.574C65.8298 57.252 67.7859 48.9586 67.7859 40.5888V30.7503C67.7859 29.1226 66.9723 27.6524 65.718 27.0144L46.6118 17.294C45.7603 16.861 44.7976 16.861 43.9457 17.294Z" fill="#FF725E"/>
<path d="M67.7239 38.0505C67.7275 38.0505 67.7315 38.0875 67.7364 38.16C67.7404 38.2473 67.7456 38.3534 67.7516 38.4821C67.7609 38.7873 67.7737 39.2011 67.7894 39.7229C67.8047 40.2619 67.8284 40.9214 67.795 41.6875C67.7846 42.0715 67.7737 42.4809 67.7621 42.9144C67.7561 43.1318 67.7496 43.355 67.7432 43.5845C67.7255 43.8129 67.7074 44.0477 67.6889 44.2877C67.6097 45.2477 67.5542 46.3041 67.387 47.4225C67.3102 47.9822 67.2499 48.5659 67.1522 49.1592C67.0453 49.7505 66.9356 50.3587 66.8226 50.9827C66.3213 53.4619 65.6287 56.1571 64.6188 58.8489C63.6054 61.5389 62.4094 63.9677 61.1986 66.0715C60.5635 67.0987 59.9782 68.0913 59.3498 68.9453C59.0415 69.3768 58.7609 69.8121 58.4594 70.1966C58.1575 70.5801 57.8672 70.9483 57.5903 71.3001C57.0504 72.0192 56.496 72.5913 56.0337 73.1227C55.7982 73.3829 55.5859 73.6339 55.3777 73.8475C55.1674 74.0558 54.9745 74.2473 54.7992 74.4206C54.4607 74.7513 54.1926 75.0134 53.9948 75.2069C53.91 75.2865 53.84 75.3523 53.7825 75.4065C53.7339 75.4502 53.7082 75.4713 53.7057 75.468C53.7033 75.4646 53.725 75.4373 53.7693 75.3869C53.8235 75.3273 53.8887 75.2558 53.9683 75.1685C54.1596 74.9664 54.4189 74.6928 54.7461 74.3477C54.9174 74.1696 55.1059 73.9733 55.3113 73.7592C55.5152 73.5408 55.723 73.2849 55.9537 73.0209C56.4068 72.4819 56.9523 71.903 57.4829 71.1787C57.7559 70.8249 58.0413 70.4544 58.3388 70.0689C58.6359 69.6825 58.9116 69.2462 59.216 68.8137C59.8358 67.9584 60.4127 66.9657 61.0402 65.9405C62.2362 63.84 63.4197 61.4222 64.4275 58.7477C65.4317 56.0712 66.1255 53.3937 66.6349 50.9299C66.7498 50.3102 66.8624 49.7054 66.9713 49.1179C67.0718 48.5285 67.135 47.9481 67.2154 47.3918C67.3894 46.2801 67.4529 45.2289 67.541 44.2733C67.5619 44.0342 67.5824 43.8009 67.6025 43.5734C67.6113 43.3454 67.6202 43.1227 67.6286 42.9062C67.6459 42.4747 67.6624 42.0667 67.6777 41.6841C67.7223 40.9209 67.7102 40.2629 67.7078 39.7248C67.7086 39.2035 67.709 38.7897 67.7094 38.4849C67.7118 38.3558 67.7134 38.2497 67.715 38.1619C67.7175 38.0885 67.7203 38.051 67.7239 38.0505Z" fill="#263238"/>
<path d="M52.8473 50.6411H50.8099V37.3993C50.8099 34.2827 48.6862 31.7468 46.076 31.7468C43.4658 31.7468 41.342 34.2827 41.342 37.3993V50.6411H39.3047V37.3993C39.3047 32.9411 42.3426 29.3142 46.076 29.3142C49.8093 29.3142 52.8473 32.9416 52.8473 37.3993V50.6411Z" fill="#F5F5F5"/>
<path d="M52.8654 58.7319H39.2862C37.9962 58.7319 36.9502 57.483 36.9502 55.9427V44.4414C36.9502 42.9011 37.9962 41.6521 39.2862 41.6521H52.8654C54.1554 41.6521 55.2014 42.9011 55.2014 44.4414V55.9427C55.2014 57.483 54.1554 58.7319 52.8654 58.7319Z" fill="white"/>
<path d="M52.8653 58.732C52.8637 58.7137 53.0827 58.7344 53.4727 58.6072C53.851 58.4814 54.4347 58.1478 54.8286 57.3568C55.0268 56.9699 55.1518 56.4717 55.1514 55.9201C55.1486 55.3576 55.1458 54.748 55.143 54.0933C55.1386 52.78 55.1333 51.2877 55.1273 49.6393C55.1209 47.9901 55.114 46.1857 55.1064 44.2489C55.0586 43.3168 54.5509 42.3942 53.7806 41.9973C53.3951 41.7851 52.9818 41.7462 52.53 41.7654C52.085 41.7664 51.6335 41.7669 51.1769 41.7678C47.5211 41.7707 43.5043 41.7741 39.2873 41.7774C38.7836 41.7832 38.2843 41.9833 37.8964 42.3587C37.5109 42.7317 37.223 43.2515 37.1165 43.8246C37.059 44.1126 37.0494 44.3958 37.0534 44.7059C37.0534 45.0102 37.053 45.3136 37.053 45.6155C37.0526 46.2193 37.0522 46.8184 37.0522 47.4121C37.0502 49.7867 37.0482 52.0773 37.0462 54.2598C37.0844 55.3427 36.8946 56.4621 37.3629 57.3189C37.7883 58.1838 38.6055 58.6758 39.3971 58.6288C41.0215 58.6341 42.5351 58.6393 43.918 58.6441C46.6733 58.6609 48.9072 58.6744 50.4645 58.684C51.2283 58.6941 51.8257 58.7017 52.2446 58.7075C52.4395 58.7128 52.5931 58.7166 52.7073 58.72C52.8118 58.7233 52.8653 58.7277 52.8653 58.732C52.8653 58.7363 52.8118 58.7406 52.7077 58.7449C52.5931 58.7478 52.4399 58.7521 52.245 58.7574C51.8265 58.7627 51.2287 58.7709 50.4649 58.7809C48.9076 58.7905 46.6741 58.804 43.9184 58.8208C42.5355 58.8256 41.0215 58.8304 39.3975 58.8361C38.5629 58.8913 37.6644 58.3657 37.2058 57.4321C36.9674 56.9766 36.8524 56.4217 36.856 55.876C36.8552 55.3446 36.8548 54.8056 36.854 54.2603C36.852 52.0777 36.85 49.7872 36.848 47.4126C36.8476 46.8189 36.8476 46.2198 36.8472 45.616C36.8472 45.3141 36.8468 45.0112 36.8468 44.7064C36.8419 44.4088 36.8516 44.0766 36.9147 43.7675C37.0317 43.1401 37.3453 42.5713 37.7669 42.1638C38.1903 41.7534 38.7382 41.5331 39.2881 41.5273C43.5047 41.5307 47.5219 41.5341 51.1777 41.5374C51.6343 41.5384 52.0854 41.5389 52.5308 41.5398C52.965 41.5206 53.4518 41.5648 53.8566 41.7966C54.6887 42.2305 55.2326 43.2294 55.2801 44.2341C55.2937 46.1886 55.2769 47.9857 55.2761 49.6393C55.2704 51.2877 55.2652 52.78 55.2604 54.0933C55.2572 54.748 55.2543 55.3581 55.2519 55.9201C55.2467 56.4933 55.1096 57.0112 54.899 57.4072C54.4797 58.2179 53.8727 58.5433 53.4843 58.6561C53.0832 58.7694 52.8653 58.732 52.8653 58.732Z" fill="#263238"/>
<path d="M47.4765 50.6373C47.8335 50.2077 48.0542 49.6183 48.0542 48.964C48.0542 47.6407 47.1553 46.5674 46.047 46.5674C44.9387 46.5674 44.0398 47.6407 44.0398 48.964C44.0398 50.0594 44.6589 50.9728 45.4995 51.2589L45.0681 53.536H46.9788L46.5949 51.2589C46.9334 51.1437 47.2357 50.9267 47.4765 50.6373Z" fill="#FF725E"/>
<path d="M171.986 67.7612V87.2132C172.021 90.577 172.435 95.856 167.978 95.6794C164.12 95.1783 163.097 90.818 163.067 87.6788C163.053 86.1898 163.039 84.9476 163.029 84.7949C163.029 84.7949 158.806 84.3836 158.449 79.404C158.277 76.9978 158.26 72.0063 158.289 67.4909C158.32 62.641 161.469 58.6349 165.52 58.2821L165.923 58.2471C170.285 58.1703 172.043 62.5532 171.986 67.7612Z" fill="#FFBF9D"/>
<path d="M163.028 84.7949C163.028 84.7949 165.671 84.7498 168.346 82.4021C168.346 82.4021 167.243 86.1586 163.05 86.0727L163.028 84.7949Z" fill="#FF9A6C"/>
<path d="M165.42 69.531C165.503 69.6318 165.984 69.169 166.683 69.1465C167.381 69.1114 167.904 69.5334 167.977 69.4258C168.013 69.3778 167.927 69.194 167.699 69.003C167.475 68.8129 167.096 68.6334 166.661 68.6511C166.225 68.6694 165.864 68.8782 165.658 69.0865C165.447 69.2962 165.379 69.4863 165.42 69.531Z" fill="#263238"/>
<path d="M165.409 71.8916C165.42 72.2482 165.682 72.5305 165.994 72.5233C166.305 72.5161 166.549 72.2218 166.538 71.8657C166.527 71.5095 166.265 71.2263 165.953 71.233C165.641 71.2402 165.398 71.535 165.409 71.8916Z" fill="#263238"/>
<path d="M163.669 75.3346C163.669 75.2909 163.266 75.2434 162.613 75.2011C162.448 75.1954 162.291 75.1699 162.255 75.0389C162.208 74.9011 162.264 74.6841 162.329 74.4494C162.454 73.9627 162.585 73.4525 162.722 72.9178C163.265 70.7386 163.646 68.9525 163.572 68.927C163.498 68.9016 162.998 70.6473 162.455 72.8265C162.326 73.3637 162.201 73.8753 162.083 74.365C162.034 74.5925 161.943 74.8541 162.045 75.1402C162.098 75.2822 162.225 75.3777 162.332 75.4022C162.439 75.4315 162.531 75.4253 162.613 75.4243C163.266 75.4104 163.669 75.3787 163.669 75.3346Z" fill="#263238"/>
<path d="M165.717 65.9809C165.784 66.1662 166.343 66.0265 167.014 66.0678C167.684 66.0918 168.234 66.2852 168.312 66.1072C168.346 66.0222 168.242 65.8518 168.014 65.6867C167.788 65.5216 167.435 65.3771 167.034 65.3569C166.632 65.3377 166.272 65.4476 166.038 65.5902C165.801 65.7328 165.687 65.8931 165.717 65.9809Z" fill="#263238"/>
<path d="M159.08 67.2305C159.154 67.3812 159.699 67.2137 160.36 67.1897C161.021 67.1513 161.569 67.2665 161.639 67.1085C161.669 67.0332 161.56 66.8983 161.33 66.7783C161.102 66.6583 160.749 66.5671 160.353 66.5853C159.957 66.6045 159.607 66.7298 159.381 66.8714C159.154 67.013 159.048 67.1585 159.08 67.2305Z" fill="#263238"/>
<path d="M152.751 63.0202C152.796 62.8195 152.918 62.6549 153.068 62.5493C153.394 62.3194 153.77 62.3496 154.134 62.3429C155.241 62.3218 156.339 61.9181 157.27 61.2043C157.706 60.4536 158.197 59.748 158.73 59.0923C159.994 57.5357 161.034 56.4763 162.11 55.9594C163.502 55.2903 165.83 55.0191 167.281 55.4736C168.732 55.9282 170.035 57.3341 170.237 59.1091C171.051 58.2874 172.273 58.2946 173.264 58.7703L173.289 58.7573C174.393 59.2272 175.02 60.6197 175.345 61.9637C175.671 63.3077 175.81 64.7453 176.406 65.9496C176.531 66.2016 176.679 66.5035 176.57 66.7656C176.486 66.9682 176.27 67.0517 176.083 67.0191C175.896 66.9859 175.729 66.8626 175.569 66.7411C175.692 67.093 175.815 67.4453 175.939 67.7971C175.539 67.8802 175.126 67.8418 174.738 67.7016C174.504 68.9587 174.224 70.3939 173.953 71.2459C173.491 71.2445 173.069 71.2839 172.785 71.5891C172.398 72.0043 172.225 72.7848 171.583 72.4887C171.256 72.3379 170.958 71.5186 170.848 71.1211C170.122 68.4816 169.881 65.6544 170.143 62.8944C169.686 62.3127 169.134 61.837 168.527 61.5019L168.577 61.5552C167.411 61.0719 166.093 60.5962 164.987 61.2499C164.129 61.7568 163.625 62.8195 162.984 63.6677C161.768 65.2752 160.128 66.1488 158.316 66.2419C158.255 67.644 158.353 69.6259 158.292 71.0285L157.304 68.7821L157.303 68.7931C157.222 68.6285 157.155 68.4629 157.091 68.2968L157.068 68.2464V68.2402C156.966 67.9733 156.868 67.7064 156.738 67.4424C156.734 67.4463 156.73 67.4506 156.727 67.4544C156.09 68.1245 155.153 67.0997 155.655 66.2827C155.754 66.1205 155.873 65.976 156.009 65.857C155.719 66.1829 155.285 66.3394 154.903 66.1992C154.522 66.0591 154.226 65.5987 154.259 65.124C154.282 64.8 154.476 64.5106 154.721 64.3824C154.207 64.4295 153.681 64.296 153.233 63.9907C152.939 63.7906 152.651 63.4608 152.751 63.0202Z" fill="#263238"/>
<path d="M168.924 59.6809C168.916 59.6939 169.099 59.8124 169.343 60.1379C169.584 60.4614 169.855 61.0249 169.983 61.7919C170.049 62.1731 170.09 62.5993 170.09 63.0582C170.091 63.5171 170.06 64.0081 170.031 64.526C170.003 65.0435 169.972 65.5907 170 66.1595C170.014 66.4436 170.042 66.7326 170.094 67.0211C170.146 67.3047 170.209 67.6129 170.388 67.8572C170.531 68.056 170.77 68.1443 170.977 68.0934C171.186 68.0492 171.371 67.9168 171.507 67.7363C171.775 67.3619 171.842 66.8876 171.909 66.4695L171.821 66.482C171.964 66.8579 172.111 67.2294 172.329 67.5255C172.543 67.8236 172.839 68.0214 173.141 68.0535C173.29 68.0699 173.442 68.0411 173.571 67.9633C173.702 67.887 173.797 67.7569 173.863 67.6196C173.925 67.4795 173.958 67.3263 173.951 67.178C173.944 67.0302 173.896 66.89 173.817 66.7907L173.773 66.8377C174.095 67.275 174.435 67.5102 174.669 67.6407C174.788 67.706 174.883 67.7449 174.947 67.7699C175.012 67.7929 175.046 67.8025 175.047 67.7991C175.048 67.7958 175.015 67.7799 174.953 67.7511C174.89 67.7209 174.798 67.6763 174.683 67.6067C174.455 67.4675 174.127 67.226 173.818 66.7921L173.774 66.8391C173.914 67.0167 173.922 67.3287 173.802 67.5793C173.741 67.7027 173.653 67.8188 173.538 67.8836C173.423 67.9508 173.285 67.9763 173.148 67.9595C172.871 67.9263 172.595 67.7415 172.394 67.4579C172.189 67.1747 172.047 66.8132 171.906 66.4364L171.846 66.2766L171.818 66.4489C171.751 66.8665 171.68 67.322 171.435 67.659C171.314 67.8207 171.144 67.9407 170.961 67.9787C170.778 68.0209 170.585 67.9489 170.461 67.7785C170.304 67.5673 170.24 67.2755 170.189 66.9966C170.138 66.7148 170.11 66.4321 170.095 66.1523C170.067 65.5931 170.095 65.0497 170.121 64.5323C170.148 64.0148 170.176 63.5214 170.171 63.0567C170.168 62.5921 170.122 62.1601 170.051 61.7742C169.912 60.9975 169.626 60.4273 169.371 60.1071C169.114 59.786 168.924 59.6809 168.924 59.6809Z" fill="#455A64"/>
<path d="M156.018 64.528C156.016 64.5294 156.028 64.5409 156.051 64.562C156.079 64.5865 156.113 64.6163 156.155 64.6528C156.201 64.6936 156.258 64.7411 156.332 64.7881C156.404 64.8376 156.486 64.8976 156.586 64.9475C156.974 65.1673 157.595 65.3857 158.372 65.331C159.141 65.2792 160.065 64.9537 160.89 64.2208C161.723 63.5051 162.455 62.451 163.053 61.2438C163.357 60.6404 163.604 60.0222 163.876 59.451C164.147 58.8798 164.446 58.3513 164.809 57.9347C165.167 57.5156 165.582 57.2056 166.011 57.0635C166.224 56.9876 166.439 56.9704 166.645 56.9761C166.85 56.9891 167.045 57.039 167.225 57.1091C167.585 57.2531 167.875 57.4902 168.095 57.7345C168.316 57.9808 168.464 58.2409 168.566 58.4636C168.755 58.9216 168.766 59.2153 168.781 59.2105C168.783 59.2105 168.782 59.1928 168.778 59.1582C168.773 59.1169 168.766 59.067 168.758 59.0056C168.738 58.8721 168.69 58.6787 168.6 58.443C168.502 58.2126 168.355 57.9433 168.133 57.687C167.911 57.4331 167.617 57.1844 167.248 57.0308C167.063 56.9555 166.862 56.9017 166.649 56.8859C166.436 56.8772 166.21 56.8936 165.989 56.9699C165.544 57.1134 165.114 57.4302 164.746 57.8569C164.373 58.2817 164.067 58.8193 163.793 59.3944C163.517 59.9694 163.27 60.5862 162.969 61.1838C162.375 62.3819 161.655 63.4244 160.837 64.1334C160.027 64.8601 159.126 65.186 158.367 65.2484C157.603 65.3128 156.989 65.1102 156.602 64.9057C156.211 64.6984 156.025 64.514 156.018 64.528Z" fill="#455A64"/>
<path d="M155.638 62.339C155.634 62.3462 155.688 62.3899 155.788 62.4633C155.887 62.5391 156.038 62.6327 156.231 62.7321C156.423 62.8334 156.662 62.9279 156.932 63.0071C157.203 63.0806 157.508 63.1348 157.829 63.1492C158.151 63.1593 158.457 63.1286 158.732 63.0758C159.006 63.0177 159.249 62.9414 159.447 62.855C159.644 62.7705 159.8 62.6889 159.903 62.6207C160.007 62.555 160.062 62.5151 160.059 62.5079C160.051 62.4883 159.821 62.6299 159.425 62.7767C159.228 62.8521 158.988 62.9183 158.718 62.9697C158.447 63.0153 158.147 63.0422 157.832 63.0326C157.517 63.0182 157.219 62.9683 156.952 62.9025C156.685 62.8305 156.449 62.746 156.256 62.6558C155.87 62.4787 155.647 62.3198 155.638 62.339Z" fill="#455A64"/>
<path d="M159.049 69.531C159.132 69.6318 159.614 69.169 160.313 69.1465C161.011 69.1119 161.533 69.5334 161.607 69.4258C161.643 69.3778 161.557 69.194 161.329 69.003C161.105 68.8129 160.725 68.6334 160.29 68.6511C159.855 68.6694 159.493 68.8782 159.288 69.0865C159.077 69.2962 159.009 69.4863 159.049 69.531Z" fill="#263238"/>
<path d="M159.761 71.8916C159.773 72.2483 160.035 72.5305 160.347 72.5233C160.658 72.5161 160.902 72.2219 160.891 71.8657C160.879 71.5095 160.617 71.2263 160.306 71.2335C159.994 71.2403 159.75 71.535 159.761 71.8916Z" fill="#263238"/>
<path d="M171.876 71.4826C171.945 71.4394 174.679 70.2211 174.796 73.6325C174.913 77.0438 172.021 76.4808 172.012 76.3829C172.004 76.2854 171.876 71.4826 171.876 71.4826Z" fill="#FFBF9D"/>
<path d="M172.841 75.0479C172.853 75.0364 172.892 75.0873 172.978 75.129C173.062 75.1698 173.204 75.1938 173.35 75.1199C173.647 74.9726 173.882 74.3884 173.875 73.7726C173.872 73.4615 173.807 73.1687 173.706 72.9287C173.611 72.6834 173.47 72.5154 173.317 72.491C173.164 72.4569 173.06 72.5706 173.028 72.6681C172.993 72.7655 173.014 72.8327 172.999 72.839C172.991 72.8481 172.936 72.7847 172.954 72.6426C172.963 72.5745 172.994 72.4924 173.059 72.4233C173.125 72.3537 173.225 72.3143 173.331 72.323C173.552 72.3306 173.759 72.563 173.869 72.8265C173.992 73.091 174.071 73.4198 174.075 73.7687C174.08 74.457 173.807 75.1146 173.399 75.2778C173.2 75.3503 173.03 75.286 172.941 75.2097C172.849 75.13 172.831 75.0542 172.841 75.0479Z" fill="#FF9A6C"/>
<path d="M165.706 76.0426C165.73 76.0479 165.73 76.2428 165.631 76.5317C165.532 76.8159 165.315 77.1855 164.974 77.4423C164.635 77.7034 164.26 77.786 164 77.7548C163.737 77.7269 163.595 77.6233 163.604 77.5969C163.614 77.5585 163.765 77.5969 164.001 77.5777C164.237 77.5623 164.559 77.4639 164.861 77.2316C165.165 77.0021 165.375 76.693 165.499 76.4516C165.623 76.2073 165.673 76.033 165.706 76.0426Z" fill="#263238"/>
<path d="M180.1 211.001L180.954 222.539L183.973 231.445C184.191 232.087 183.879 232.802 183.293 233.002C182.966 233.114 182.612 233.043 182.341 232.808C180.617 231.309 174.4 225.802 174.331 225.084C174.241 224.155 172.656 212.81 172.656 212.81L180.1 211.001Z" fill="#455A64"/>
<path d="M183.293 233.003L174.16 223.77L174.249 224.625C174.311 225.093 174.317 225.347 174.591 225.638C175.324 226.42 177.464 228.813 182.244 233.004C182.523 233.247 182.959 233.128 183.293 233.003Z" fill="#263238"/>
<path d="M175.957 220.172C176.233 220.341 176.358 220.767 176.22 221.084C176.08 221.4 175.695 221.546 175.417 221.383C175.139 221.22 174.975 220.713 175.144 220.416C175.313 220.12 175.774 219.975 176.009 220.209" fill="white"/>
<path d="M180.473 228.252C180.534 228.277 180.708 227.646 181.288 227.249C181.857 226.833 182.439 226.927 182.445 226.855C182.452 226.825 182.313 226.752 182.069 226.742C181.828 226.731 181.484 226.81 181.167 227.034C180.851 227.259 180.639 227.573 180.544 227.822C180.447 228.073 180.447 228.245 180.473 228.252Z" fill="#263238"/>
<path d="M181.35 229.706C181.403 229.75 181.697 229.337 182.212 229.103C182.721 228.856 183.19 228.912 183.199 228.839C183.223 228.776 182.706 228.591 182.124 228.868C181.539 229.139 181.293 229.681 181.35 229.706Z" fill="#263238"/>
<path d="M178.926 226.437C178.98 226.486 179.429 225.848 180.2 225.405C180.966 224.949 181.689 224.903 181.684 224.826C181.695 224.763 180.918 224.694 180.096 225.18C179.27 225.657 178.874 226.411 178.926 226.437Z" fill="#263238"/>
<path d="M178.406 222.955C178.44 223.02 178.981 222.687 179.716 222.569C180.449 222.44 181.054 222.581 181.069 222.507C181.092 222.447 180.471 222.181 179.683 222.318C178.893 222.447 178.369 222.905 178.406 222.955Z" fill="#263238"/>
<path d="M178.079 219.575C178.117 219.638 178.651 219.186 179.433 219.133C180.214 219.061 180.799 219.423 180.829 219.355C180.844 219.329 180.718 219.197 180.467 219.073C180.218 218.947 179.838 218.847 179.416 218.88C178.996 218.915 178.632 219.074 178.401 219.238C178.169 219.402 178.061 219.552 178.079 219.575Z" fill="#263238"/>
<path d="M179.354 218.492C179.367 218.491 179.376 218.333 179.327 218.055C179.278 217.779 179.167 217.377 178.91 216.951C178.779 216.75 178.638 216.489 178.337 216.371C178.188 216.312 177.978 216.367 177.871 216.534C177.764 216.696 177.744 216.89 177.758 217.073C177.838 217.802 178.463 218.443 179.206 218.46C179.949 218.463 180.571 217.913 180.802 217.247C180.851 217.076 180.876 216.87 180.778 216.685C180.681 216.499 180.465 216.445 180.321 216.491C180.021 216.578 179.848 216.798 179.682 216.966C179.359 217.327 179.172 217.688 179.067 217.943C178.962 218.201 178.935 218.355 178.947 218.36C178.986 218.386 179.153 217.763 179.792 217.096C179.955 216.941 180.141 216.747 180.358 216.698C180.464 216.673 180.56 216.71 180.608 216.802C180.656 216.89 180.648 217.037 180.605 217.172C180.407 217.718 179.838 218.219 179.209 218.206C178.584 218.198 178.034 217.634 177.965 217.048C177.95 216.907 177.97 216.76 178.03 216.668C178.088 216.577 178.187 216.543 178.286 216.574C178.494 216.641 178.651 216.867 178.779 217.055C179.292 217.849 179.31 218.509 179.354 218.492Z" fill="#263238"/>
<path d="M155.757 211.597L156.138 221.367C156.138 221.367 147.418 225.083 147.332 226.896L164.236 226.748L164.199 211.498L155.757 211.597Z" fill="#455A64"/>
<path d="M161.359 220.5C161.688 220.597 161.916 221.008 161.843 221.379C161.77 221.751 161.4 222.016 161.07 221.925C160.741 221.834 160.453 221.35 160.562 220.99C160.672 220.63 161.122 220.345 161.423 220.522" fill="#E0E0E0"/>
<path d="M164.236 226.748L164.179 225.211L147.993 225.928C147.993 225.928 147.243 226.302 147.332 226.896L164.236 226.748Z" fill="#263238"/>
<path d="M155.863 221.273C155.867 221.365 156.28 221.404 156.688 221.698C157.103 221.98 157.315 222.38 157.391 222.343C157.467 222.324 157.34 221.771 156.84 221.424C156.343 221.073 155.845 221.188 155.863 221.273Z" fill="#263238"/>
<path d="M154.096 222.112C154.078 222.202 154.437 222.356 154.72 222.745C155.013 223.126 155.087 223.548 155.169 223.544C155.246 223.558 155.3 223.014 154.94 222.538C154.583 222.058 154.097 222.023 154.096 222.112Z" fill="#263238"/>
<path d="M153.106 224.502C153.181 224.521 153.293 224.057 153.077 223.552C152.865 223.044 152.474 222.848 152.44 222.925C152.394 223.002 152.646 223.272 152.817 223.69C152.997 224.103 153.024 224.494 153.106 224.502Z" fill="#263238"/>
<path d="M155.997 219.036C156.032 219.12 156.41 218.989 156.876 219.02C157.344 219.041 157.708 219.214 157.75 219.134C157.798 219.067 157.441 218.727 156.891 218.698C156.341 218.665 155.956 218.963 155.997 219.036Z" fill="#263238"/>
<path d="M152.815 141.444C152.825 142.01 154.779 220.092 154.779 220.092H165.228L167.344 153.299C167.344 153.299 169.816 188.222 169.816 188.976C169.816 189.731 171.997 220.468 171.997 220.468L181.684 219.581L181.049 149.257L179.865 138.947L152.815 141.444Z" fill="#263238"/>
<path d="M168.431 150.828C168.436 150.843 168.284 150.914 168.007 151.028C167.73 151.142 167.326 151.299 166.827 151.488L166.732 151.524L166.725 151.414C166.667 150.474 166.601 149.218 166.54 147.841C166.474 146.349 166.425 144.997 166.4 144.019C166.388 143.529 166.381 143.133 166.382 142.859C166.382 142.585 166.388 142.433 166.403 142.432C166.417 142.431 166.437 142.582 166.462 142.855C166.487 143.127 166.515 143.523 166.546 144.011C166.609 144.988 166.68 146.339 166.747 147.831C166.809 149.208 166.854 150.465 166.88 151.406L166.778 151.332C167.283 151.162 167.694 151.028 167.98 150.94C168.265 150.853 168.426 150.812 168.431 150.828Z" fill="#455A64"/>
<path d="M167.638 142.707C167.631 142.697 167.672 142.645 167.777 142.605C167.88 142.566 168.054 142.555 168.238 142.65C168.418 142.734 168.618 142.981 168.588 143.292C168.567 143.585 168.366 143.904 168.032 143.983C167.697 144.048 167.398 143.843 167.262 143.591C167.114 143.328 167.167 143.026 167.27 142.85C167.373 142.664 167.515 142.566 167.615 142.525C167.718 142.485 167.78 142.491 167.782 142.504C167.798 142.536 167.546 142.593 167.4 142.922C167.33 143.079 167.309 143.301 167.424 143.486C167.532 143.67 167.767 143.814 167.991 143.766C168.214 143.719 168.377 143.484 168.398 143.272C168.428 143.054 168.306 142.875 168.167 142.786C167.874 142.598 167.645 142.741 167.638 142.707Z" fill="#455A64"/>
<path d="M172.434 143.508C172.377 143.514 172.298 143.176 172.257 142.752C172.216 142.328 172.23 141.98 172.286 141.973C172.343 141.967 172.422 142.306 172.463 142.729C172.504 143.153 172.491 143.502 172.434 143.508Z" fill="#455A64"/>
<path d="M173.159 143.43C173.102 143.43 173.054 143.069 173.052 142.624C173.05 142.179 173.095 141.818 173.152 141.818C173.209 141.817 173.257 142.178 173.259 142.623C173.261 143.068 173.216 143.429 173.159 143.43Z" fill="#455A64"/>
<path d="M160.564 143.969C160.507 143.976 160.419 143.57 160.366 143.063C160.314 142.555 160.318 142.139 160.375 142.132C160.432 142.126 160.52 142.531 160.572 143.039C160.624 143.546 160.621 143.962 160.564 143.969Z" fill="#455A64"/>
<path d="M161.442 144.044C161.391 144.065 161.206 143.65 161.187 143.094C161.164 142.537 161.316 142.108 161.369 142.124C161.427 142.139 161.371 142.565 161.393 143.084C161.411 143.604 161.499 144.023 161.442 144.044Z" fill="#455A64"/>
<path d="M158.137 143C158.149 143.002 158.137 143.125 158.102 143.344C158.071 143.564 158 143.878 157.892 144.26C157.677 145.022 157.26 146.046 156.598 147.042C155.932 148.037 155.162 148.792 154.557 149.259C154.255 149.493 154 149.667 153.815 149.77C153.632 149.877 153.528 149.93 153.521 149.918C153.504 149.888 153.9 149.638 154.476 149.147C155.053 148.659 155.793 147.903 156.446 146.927C157.095 145.95 157.523 144.957 157.766 144.215C158.013 143.474 158.105 142.993 158.137 143Z" fill="#455A64"/>
<path d="M180.729 148.262C180.731 148.274 180.618 148.299 180.413 148.317C180.207 148.337 179.906 148.341 179.538 148.299C178.805 148.222 177.782 147.912 176.861 147.188C175.941 146.463 175.362 145.511 175.078 144.786C174.933 144.422 174.847 144.115 174.804 143.9C174.76 143.684 174.749 143.563 174.76 143.56C174.793 143.551 174.882 144.03 175.197 144.728C175.506 145.422 176.083 146.328 176.971 147.028C177.86 147.728 178.842 148.05 179.554 148.16C180.273 148.276 180.728 148.225 180.729 148.262Z" fill="#455A64"/>
<path d="M163.707 187.803C163.693 187.856 161.962 187.409 159.839 186.805C157.716 186.2 156.006 185.667 156.019 185.615C156.032 185.562 157.764 186.009 159.887 186.613C162.009 187.217 163.72 187.75 163.707 187.803Z" fill="#455A64"/>
<path d="M180.542 184.961C180.567 185.009 179.06 185.949 177.176 187.06C175.292 188.172 173.745 189.034 173.72 188.986C173.695 188.938 175.202 187.998 177.086 186.887C178.97 185.775 180.517 184.913 180.542 184.961Z" fill="#455A64"/>
<path d="M147.742 115.005L149.171 117.137V113.468H153.671C153.671 113.468 154.171 121.872 154.064 123.663C154.027 124.29 153.797 125.324 153.513 126.404C152.926 128.643 150.56 129.343 149.151 127.708C148.678 127.159 148.196 126.535 147.742 125.838C145.741 122.767 142.418 115.287 142.418 115.287L145.885 112.787L147.742 115.005Z" fill="#FFBF9D"/>
<path d="M147.458 114.611C147.435 114.635 147.667 114.985 148.046 115.548C148.425 116.11 148.951 116.884 149.552 117.722C150.155 118.559 150.721 119.297 151.162 119.797C151.601 120.3 151.91 120.562 151.927 120.536C151.947 120.507 151.676 120.202 151.269 119.671C150.86 119.144 150.314 118.392 149.713 117.557C148.522 115.878 147.509 114.554 147.458 114.611Z" fill="#FF9A6C"/>
<path d="M158.01 89.1822L162.756 86.9593L171.499 86.3684L175.608 88.2342L169.977 91.9681L165.122 91.7554L158.01 89.1822Z" fill="#FFBF9D"/>
<path d="M152.411 142.513C152.841 142.601 181.488 144.054 181.488 144.054L180.481 113.298L180.399 107.259L178.771 88.9662C178.771 88.9662 174.49 87.2084 172.305 86.3689C172.305 86.3689 170.005 89.2302 165.633 89.1529C161.359 89.0771 160.466 87.9265 160.466 87.9265L154.49 90.662C154.49 90.662 150.241 92.4812 149.51 94.7262C148.798 96.9111 147.494 109.392 147.494 109.392H153.688L153.571 131.438L152.411 142.513Z" fill="#455A64"/>
<g opacity="0.2">
<path d="M170.423 101.465L171.311 109.218L175.608 111.51L178.784 108.277V101.08L170.423 101.465Z" fill="black"/>
</g>
<path d="M178.672 103.664C178.672 103.729 176.886 103.781 174.684 103.781C172.48 103.781 170.695 103.729 170.695 103.664C170.695 103.6 172.48 103.548 174.684 103.548C176.886 103.548 178.672 103.6 178.672 103.664Z" fill="#263238"/>
<path d="M150.481 97.9302C150.486 97.9292 150.502 97.9993 150.527 98.1342C150.557 98.2868 150.594 98.4836 150.642 98.7284C150.749 99.2444 150.923 99.9942 151.212 100.911C151.497 101.829 151.9 102.906 152.393 104.117C152.86 105.351 153.282 106.77 153.723 108.309L153.727 108.325V108.342C153.717 110.185 153.705 112.202 153.694 114.308C153.652 119.011 153.615 123.267 153.587 126.375C153.564 127.902 153.546 129.145 153.533 130.031C153.523 130.446 153.515 130.777 153.509 131.024C153.502 131.251 153.495 131.37 153.488 131.37C153.482 131.37 153.476 131.25 153.472 131.023C153.469 130.775 153.465 130.443 153.461 130.028C153.46 129.142 153.458 127.898 153.455 126.37C153.469 123.263 153.487 119.007 153.508 114.304C153.524 112.198 153.539 110.182 153.553 108.34L153.557 108.374C153.124 106.839 152.71 105.414 152.259 104.19C151.778 102.977 151.383 101.883 151.111 100.954C150.834 100.026 150.676 99.266 150.585 98.7428C150.543 98.4803 150.512 98.2782 150.498 98.1399C150.482 98.0031 150.476 97.9316 150.481 97.9302Z" fill="#263238"/>
<path d="M180.852 94.332C180.865 94.3335 180.861 94.5672 180.847 94.9887C180.832 95.4504 180.814 96.0509 180.791 96.7743C180.74 98.3213 180.672 100.384 180.596 102.665C180.51 104.946 180.431 107.01 180.373 108.556C180.338 109.279 180.309 109.879 180.287 110.341C180.263 110.762 180.243 110.995 180.231 110.994C180.218 110.994 180.213 110.76 180.215 110.338C180.222 109.875 180.231 109.274 180.242 108.551C180.273 107.042 180.331 104.958 180.411 102.656C180.491 100.356 180.579 98.2728 180.66 96.7666C180.701 96.0135 180.741 95.4039 180.775 94.9834C180.811 94.562 180.84 94.3306 180.852 94.332Z" fill="#263238"/>
<g opacity="0.3">
<path d="M150.497 99.0476C150.358 102.422 151.423 105.692 153.31 108.21C152.727 105.038 151.271 102.084 150.497 99.0476Z" fill="black"/>
</g>
<g opacity="0.3">
<path d="M163.079 129.495C164.418 129.36 165.625 128.412 166.517 127.211C167.408 126.011 168.215 124.648 168.826 123.219C169.657 121.275 170.069 119.159 170.18 116.943C168.511 122.284 166.064 126.511 163.079 129.495Z" fill="black"/>
</g>
<path d="M170.708 114.614C170.714 114.616 170.706 114.684 170.684 114.811C170.655 114.963 170.622 115.146 170.581 115.366C170.537 115.608 170.474 115.901 170.388 116.236C170.304 116.573 170.215 116.959 170.086 117.374C169.855 118.214 169.515 119.187 169.098 120.246C168.666 121.296 168.144 122.423 167.522 123.552C166.892 124.674 166.224 125.687 165.578 126.567C164.92 127.434 164.296 128.182 163.732 128.755C163.459 129.055 163.193 129.298 162.963 129.517C162.735 129.739 162.53 129.917 162.358 130.055C162.203 130.182 162.073 130.287 161.965 130.375C161.874 130.446 161.824 130.481 161.821 130.475C161.817 130.468 161.859 130.422 161.943 130.339C162.045 130.242 162.168 130.125 162.315 129.986C162.48 129.838 162.677 129.651 162.897 129.42C163.12 129.194 163.379 128.944 163.644 128.639C164.194 128.054 164.803 127.299 165.45 126.433C166.084 125.551 166.742 124.543 167.367 123.429C167.984 122.309 168.507 121.194 168.944 120.157C169.366 119.111 169.716 118.15 169.963 117.321C170.099 116.912 170.195 116.532 170.288 116.2C170.384 115.87 170.456 115.582 170.511 115.344C170.565 115.129 170.61 114.95 170.647 114.801C170.681 114.676 170.701 114.612 170.708 114.614Z" fill="#263238"/>
<path d="M169.88 104.988C169.886 104.989 169.875 105.097 169.847 105.302C169.813 105.528 169.769 105.824 169.715 106.195C169.659 106.584 169.583 107.057 169.466 107.599C169.353 108.143 169.244 108.768 169.066 109.44C168.983 109.778 168.895 110.132 168.804 110.501C168.711 110.869 168.591 111.243 168.48 111.636C168.264 112.425 167.976 113.241 167.683 114.106C167.063 115.816 166.295 117.654 165.36 119.495C164.412 121.327 163.39 122.98 162.398 124.419C161.885 125.123 161.408 125.802 160.918 126.389C160.676 126.686 160.451 126.984 160.219 127.25C159.985 127.515 159.761 127.769 159.547 128.012C159.126 128.508 158.71 128.908 158.356 129.275C158.005 129.645 157.686 129.942 157.422 130.177C157.17 130.404 156.969 130.586 156.816 130.724C156.676 130.847 156.601 130.908 156.597 130.902C156.593 130.896 156.661 130.822 156.793 130.688C156.941 130.542 157.135 130.35 157.377 130.11C157.634 129.864 157.945 129.559 158.288 129.18C158.634 128.805 159.043 128.398 159.456 127.897C159.667 127.652 159.887 127.395 160.117 127.129C160.346 126.86 160.567 126.561 160.805 126.262C161.288 125.671 161.759 124.992 162.265 124.287C163.246 122.848 164.258 121.201 165.201 119.378C166.131 117.547 166.9 115.722 167.526 114.024C167.82 113.166 168.114 112.356 168.334 111.573C168.448 111.184 168.571 110.812 168.667 110.447C168.762 110.082 168.853 109.73 168.94 109.394C169.125 108.728 169.243 108.108 169.365 107.569C169.491 107.031 169.578 106.562 169.644 106.177C169.713 105.81 169.768 105.517 169.81 105.293C169.85 105.092 169.874 104.987 169.88 104.988Z" fill="#263238"/>
<path d="M147.246 95.421C149.012 98.6255 156.161 111.606 158.275 115.445C158.508 115.868 158.217 116.421 157.796 116.358L145.095 114.45C144.96 114.43 144.837 114.344 144.756 114.212L132.624 94.4279C132.374 94.0194 132.639 93.4477 133.062 93.4851L146.13 94.6395C146.584 94.6794 146.996 94.9674 147.246 95.421Z" fill="#E0E0E0"/>
<path d="M147.246 95.4209C147.246 95.4209 147.22 95.3527 147.144 95.239C147.068 95.1276 146.942 94.9663 146.734 94.8257C146.531 94.6759 146.228 94.5948 145.887 94.5804C145.543 94.5468 145.148 94.5079 144.705 94.4643C142.916 94.2967 140.345 94.0558 137.172 93.7587C136.376 93.6857 135.543 93.6094 134.675 93.5302C134.241 93.4903 133.798 93.45 133.347 93.4092C133.23 93.4011 133.131 93.3833 132.997 93.3833C132.863 93.3867 132.73 93.4553 132.631 93.5643C132.428 93.7774 132.376 94.1787 132.535 94.4551C133.641 96.2671 134.823 98.202 136.066 100.238C138.557 104.305 141.294 108.774 144.167 113.465C144.352 113.762 144.516 114.042 144.716 114.351C144.778 114.431 144.855 114.494 144.941 114.533C145.031 114.575 145.119 114.58 145.188 114.591L145.636 114.658C146.233 114.748 146.825 114.836 147.413 114.925C148.589 115.101 149.748 115.274 150.887 115.445C153.165 115.784 155.362 116.112 157.456 116.424C157.592 116.441 157.705 116.467 157.859 116.478C158.015 116.48 158.173 116.402 158.28 116.268C158.39 116.137 158.452 115.955 158.454 115.77C158.46 115.588 158.371 115.393 158.301 115.284C158.018 114.772 157.739 114.267 157.464 113.768C156.913 112.773 156.379 111.806 155.862 110.872C154.827 109.004 153.864 107.264 152.983 105.674C151.223 102.508 149.796 99.943 148.803 98.1579C148.31 97.2814 147.925 96.5974 147.658 96.1212C147.529 95.8975 147.429 95.7228 147.355 95.5951C147.286 95.4775 147.249 95.4185 147.246 95.4209C147.242 95.4233 147.273 95.4871 147.337 95.6095C147.406 95.7406 147.5 95.9196 147.621 96.1495C147.881 96.6315 148.255 97.3246 148.734 98.2121C149.713 100.008 151.121 102.588 152.858 105.773C153.731 107.368 154.688 109.113 155.714 110.987C156.228 111.924 156.76 112.893 157.307 113.891C157.582 114.39 157.859 114.896 158.141 115.41C158.222 115.545 158.258 115.638 158.261 115.77C158.26 115.893 158.217 116.019 158.142 116.107C158.069 116.198 157.965 116.248 157.86 116.247C157.752 116.239 157.606 116.211 157.48 116.194C155.387 115.877 153.19 115.544 150.913 115.2C149.774 115.028 148.615 114.853 147.439 114.676C146.851 114.588 146.258 114.498 145.662 114.409L145.214 114.342C145.134 114.329 145.068 114.324 145.017 114.298C144.961 114.273 144.911 114.232 144.87 114.18C144.693 113.893 144.516 113.605 144.338 113.317C141.46 108.63 138.718 104.165 136.224 100.101C134.977 98.0734 133.792 96.1462 132.682 94.3419C132.569 94.1494 132.604 93.87 132.748 93.7159C132.818 93.6391 132.909 93.5902 133.004 93.5878C133.098 93.5863 133.226 93.6041 133.334 93.6113C133.786 93.6497 134.229 93.6876 134.663 93.7251C135.531 93.799 136.364 93.8695 137.16 93.9377C140.335 94.2012 142.909 94.4148 144.699 94.5631C145.143 94.5982 145.538 94.6289 145.882 94.6563C146.228 94.6644 146.507 94.7326 146.713 94.8713C147.123 95.142 147.233 95.4396 147.246 95.4209Z" fill="#263238"/>
<path d="M132.624 94.4278C132.624 94.4355 132.715 94.4513 132.89 94.4749C133.084 94.4984 133.34 94.5291 133.661 94.568C134.354 94.6414 135.326 94.7446 136.532 94.8723C138.994 95.1123 142.405 95.4449 146.292 95.8237L146.215 95.7699C146.826 96.8537 147.456 97.9789 148.089 99.1414C150.664 103.869 152.914 108.214 154.614 111.306C155.458 112.855 156.161 114.095 156.65 114.948C156.89 115.357 157.081 115.682 157.223 115.923C157.356 116.144 157.429 116.258 157.435 116.252C157.441 116.248 157.38 116.124 157.258 115.894C157.125 115.646 156.945 115.313 156.719 114.893C156.24 114.002 155.567 112.749 154.739 111.209C153.073 108.094 150.844 103.735 148.266 99.0027C147.633 97.8392 147 96.7136 146.386 95.6302L146.358 95.5808L146.308 95.5765C142.418 95.2318 139.006 94.9294 136.542 94.711C135.335 94.6141 134.361 94.5363 133.667 94.4806C133.345 94.4595 133.088 94.4427 132.894 94.4297C132.717 94.4211 132.625 94.4201 132.624 94.4278Z" fill="#263238"/>
<path d="M140.498 97.2567H140.498C140.496 97.2563 140.495 97.2553 140.494 97.2549L140.498 97.2567Z" fill="white"/>
<path d="M140.185 97.483C140.216 97.303 140.359 97.2276 140.499 97.2569C140.649 97.3102 140.726 97.3524 140.839 97.4854C140.954 97.6202 141.002 97.8554 140.901 98.0047C140.774 98.1919 140.513 98.1233 140.36 97.9658C140.244 97.8454 140.153 97.6634 140.185 97.483Z" fill="white"/>
<path d="M146.117 108.705C146.117 108.705 146.619 107.278 145.346 107.094C144.074 106.911 140.734 107.094 140.734 107.094C140.734 107.094 138.909 107.324 139.294 108.89C139.294 108.89 138.215 110.04 138.793 111.283C139.371 112.526 139.602 112.157 139.602 112.157C139.602 112.157 139.448 113.676 140.412 113.907C140.412 113.907 141.457 115.379 142.419 115.288C143.38 115.195 147.467 112.848 147.737 112.388C148.006 111.928 148.392 111.666 148.161 111.152C148.161 111.152 148.662 109.805 147.583 109.6C147.583 109.6 147.505 108.475 146.117 108.705Z" fill="#FFBF9D"/>
<path d="M140.321 109.221C140.322 109.256 140.65 109.281 141.181 109.294C141.711 109.307 142.444 109.308 143.253 109.294C144.061 109.262 144.795 109.299 145.335 109.146C145.883 108.994 146.098 108.61 146.073 108.602C146.05 108.569 145.819 108.876 145.304 108.971C144.799 109.073 144.058 109.01 143.25 109.041C142.441 109.056 141.709 109.084 141.178 109.116C140.649 109.148 140.321 109.186 140.321 109.221Z" fill="#FF9A6C"/>
<path d="M141.232 111.521C141.229 111.535 141.324 111.589 141.509 111.635C141.693 111.683 141.967 111.719 142.304 111.694C142.64 111.67 143.037 111.585 143.463 111.443C143.89 111.302 144.343 111.106 144.823 110.931C145.301 110.754 145.764 110.627 146.191 110.594C146.607 110.571 147.057 110.584 147.356 110.312C147.503 110.187 147.605 110.015 147.634 109.838C147.662 109.665 147.633 109.513 147.586 109.407C147.485 109.188 147.349 109.175 147.352 109.187C147.342 109.207 147.451 109.253 147.511 109.447C147.577 109.633 147.542 109.974 147.272 110.164C147.012 110.376 146.627 110.352 146.18 110.361C145.73 110.382 145.247 110.509 144.76 110.689C144.285 110.875 143.832 111.052 143.408 111.219C142.993 111.371 142.613 111.47 142.29 111.515C141.641 111.612 141.239 111.478 141.232 111.521Z" fill="#FF9A6C"/>
<path d="M142.598 113.468C142.606 113.501 142.934 113.427 143.457 113.27C143.979 113.112 144.695 112.868 145.476 112.563C146.257 112.257 146.956 111.949 147.454 111.707C147.954 111.465 148.255 111.293 148.245 111.261C148.223 111.194 146.968 111.716 145.41 112.323C143.854 112.932 142.583 113.398 142.598 113.468Z" fill="#FF9A6C"/>
<path d="M142.271 115.274C142.274 115.304 142.55 115.292 142.982 115.176C143.416 115.063 143.998 114.826 144.61 114.492C145.222 114.159 145.757 113.819 146.144 113.574C146.531 113.327 146.767 113.166 146.754 113.133C146.727 113.058 145.727 113.584 144.523 114.261C143.32 114.95 142.263 115.208 142.271 115.274Z" fill="#FF9A6C"/>
<path d="M182.882 101.548C182.882 101.548 180.285 113.972 177.04 118.557C173.898 122.998 168.973 120.957 167.268 115.211C165.562 109.466 162.524 96.3419 162.524 96.3419L166.255 92.9348L172.703 107.855L175.608 97.6839L182.882 101.548Z" fill="#FFBF9D"/>
<path d="M162.697 96.6864L159.96 91.9508C159.96 91.9508 159.052 91.6988 158.794 91.5188C158.484 91.3023 158.179 89.4212 158.185 89.054C158.192 88.6868 157.655 87.8285 157.872 87.5866C158.09 87.3452 158.823 87.3269 158.784 86.9741C158.775 86.8988 158.24 86.114 158.664 85.538C158.818 85.3301 159.436 85.1468 159.436 85.1468L159.391 83.3396C159.391 83.3396 160.209 81.206 161.044 81.9783C161.044 81.9783 164.194 84.8669 164.511 85.3287C164.828 85.7905 166.04 91.8063 166.255 92.9348" fill="#FFBF9D"/>
<path d="M166.255 92.9353C166.261 92.9334 166.247 92.824 166.213 92.6161C166.172 92.3877 166.118 92.0872 166.051 91.7113C165.903 90.927 165.683 89.7933 165.385 88.396C165.234 87.6976 165.068 86.9329 164.858 86.1179C164.802 85.9144 164.748 85.708 164.676 85.4982C164.608 85.2601 164.44 85.1013 164.304 84.9529C164.018 84.6515 163.716 84.3558 163.404 84.0544C162.781 83.452 162.119 82.8304 161.429 82.1901C161.251 82.0398 161.105 81.8454 160.853 81.7355C160.598 81.6361 160.328 81.7638 160.142 81.9371C159.763 82.2981 159.517 82.7824 159.303 83.2907L159.294 83.3133L159.294 83.3425C159.298 83.5173 159.303 83.7059 159.308 83.8955C159.318 84.3184 159.329 84.7374 159.339 85.1497L159.412 85.0345C159.222 85.0945 159.039 85.1617 158.857 85.2577C158.767 85.3096 158.675 85.3566 158.589 85.467C158.523 85.5664 158.462 85.6758 158.436 85.8011C158.373 86.0497 158.416 86.3051 158.484 86.5201C158.518 86.6301 158.562 86.7323 158.608 86.8307L158.677 86.9728L158.691 87.0025C158.688 86.9968 158.69 86.9838 158.689 86.9958C158.689 87.0069 158.69 87.0179 158.684 87.0265C158.676 87.0678 158.603 87.123 158.529 87.1585C158.453 87.1965 158.369 87.2262 158.284 87.2574C158.199 87.2886 158.113 87.3184 158.025 87.3597C157.938 87.4091 157.847 87.4331 157.763 87.58C157.7 87.7345 157.735 87.8584 157.756 87.9645C157.781 88.0725 157.813 88.1723 157.848 88.2678C157.916 88.4593 157.993 88.6408 158.049 88.8193C158.076 88.911 158.096 88.9902 158.096 89.0733C158.098 89.1861 158.11 89.2816 158.121 89.3819C158.144 89.5792 158.175 89.7712 158.208 89.9608C158.277 90.3381 158.353 90.7043 158.465 91.0528C158.526 91.2261 158.572 91.3989 158.705 91.5563C158.857 91.6926 158.992 91.7171 159.132 91.78C159.409 91.8832 159.679 91.9638 159.942 92.0368L159.899 92.0013C160.743 93.4345 161.433 94.6053 161.925 95.4405C162.16 95.8297 162.347 96.1398 162.487 96.3717C162.618 96.5833 162.689 96.6918 162.695 96.687C162.701 96.6822 162.641 96.5637 162.522 96.3429C162.391 96.1043 162.214 95.7851 161.993 95.3848C161.514 94.539 160.842 93.3534 160.02 91.9019L160.004 91.8745L159.976 91.8664C159.718 91.7905 159.449 91.7065 159.18 91.6024C159.054 91.5486 158.893 91.4944 158.811 91.4118C158.731 91.3197 158.671 91.143 158.619 90.9832C158.516 90.651 158.443 90.2891 158.377 89.919C158.346 89.7333 158.317 89.5441 158.295 89.3536C158.285 89.26 158.274 89.1597 158.274 89.0742C158.275 88.9576 158.246 88.8438 158.217 88.7469C158.157 88.5501 158.081 88.3686 158.016 88.1838C157.983 88.0917 157.954 87.999 157.933 87.9088C157.911 87.8209 157.903 87.7216 157.925 87.6865C157.937 87.6553 158.021 87.5977 158.093 87.567C158.17 87.5315 158.253 87.5027 158.338 87.472C158.424 87.4408 158.511 87.411 158.601 87.3669C158.686 87.3179 158.795 87.2766 158.859 87.1129C158.876 87.0726 158.878 87.0299 158.878 86.9862C158.88 86.9704 158.873 86.932 158.86 86.9017L158.841 86.8609L158.773 86.7217C158.731 86.6305 158.692 86.5374 158.662 86.4419C158.603 86.2523 158.573 86.0469 158.621 85.8673C158.639 85.7752 158.685 85.696 158.734 85.6197C158.775 85.5649 158.857 85.5126 158.937 85.4699C159.1 85.384 159.281 85.3168 159.459 85.2611L159.535 85.2376L159.532 85.1459C159.522 84.7336 159.512 84.3145 159.502 83.8917C159.497 83.7021 159.493 83.5139 159.489 83.3387L159.48 83.3901C159.678 82.9129 159.927 82.4358 160.258 82.1238C160.423 81.9717 160.62 81.8872 160.797 81.9568C160.966 82.0221 161.14 82.2198 161.313 82.3715C162.004 83.0085 162.668 83.6253 163.293 84.2219C163.605 84.52 163.908 84.8133 164.192 85.107C164.335 85.2601 164.473 85.3888 164.525 85.5784C164.594 85.7737 164.65 85.9792 164.706 86.1779C164.921 86.9829 165.095 87.7451 165.254 88.4392C165.556 89.8144 165.802 90.9328 165.978 91.7339C166.06 92.1054 166.126 92.4025 166.175 92.6281C166.222 92.8307 166.249 92.9368 166.255 92.9353Z" fill="#FF9A6C"/>
<path d="M159.436 85.1468C159.437 85.1866 159.756 85.1564 160.253 85.2135C160.504 85.2361 160.774 85.3479 161.114 85.4487C161.463 85.5404 161.846 85.4934 162.228 85.4602C162.993 85.3359 163.639 85.7223 163.982 86.1394C164.334 86.5575 164.369 86.9583 164.405 86.9439C164.422 86.954 164.438 86.5162 164.082 86.0281C163.908 85.791 163.653 85.5558 163.329 85.3964C163.008 85.2226 162.6 85.1886 162.214 85.2289C161.824 85.2634 161.463 85.3114 161.149 85.2394C160.835 85.1583 160.523 85.0513 160.263 85.0503C159.744 85.034 159.434 85.1233 159.436 85.1468Z" fill="#FF9A6C"/>
<path d="M160.55 85.0486C160.597 85.0769 160.724 84.857 160.707 84.545C160.693 84.2326 160.544 84.0324 160.501 84.0674C160.453 84.1001 160.503 84.307 160.513 84.559C160.529 84.81 160.5 85.0226 160.55 85.0486Z" fill="#FF9A6C"/>
<path d="M158.686 87.0428C158.683 87.1018 159.764 87.1575 161.058 86.821C161.382 86.7375 161.678 86.6295 161.931 86.689C162.182 86.7433 162.375 86.9444 162.496 87.134C162.734 87.5324 162.773 87.866 162.807 87.8526C162.823 87.853 162.841 87.5103 162.609 87.0404C162.488 86.8167 162.279 86.5633 161.967 86.4798C161.653 86.3967 161.329 86.5167 161.018 86.5945C159.746 86.9252 158.684 86.9737 158.686 87.0428Z" fill="#FF9A6C"/>
<path d="M158.268 88.7516C158.268 88.7813 158.493 88.8082 158.851 88.7549C159.21 88.7074 159.69 88.5601 160.215 88.4372C160.478 88.3796 160.729 88.3311 160.949 88.3498C161.17 88.3647 161.354 88.4506 161.477 88.5778C161.737 88.8385 161.706 89.1346 161.735 89.1303C161.746 89.1327 161.773 89.0674 161.768 88.9388C161.761 88.8121 161.707 88.6244 161.571 88.4583C161.438 88.2884 161.212 88.1641 160.964 88.1372C160.714 88.1045 160.448 88.1516 160.179 88.2097C159.639 88.3364 159.172 88.5068 158.827 88.5937C158.485 88.6863 158.267 88.7175 158.268 88.7516Z" fill="#FF9A6C"/>
<path d="M159.206 90.1072C159.173 90.1365 159.44 90.471 159.931 90.4696L159.834 90.3697C159.844 90.4729 159.854 90.5713 159.863 90.6726C159.935 91.3413 160.035 91.876 160.088 91.8664C160.141 91.8568 160.127 91.3105 160.056 90.6462C160.045 90.5454 160.033 90.448 160.021 90.3457L160.009 90.2397L159.924 90.2459C159.513 90.2757 159.231 90.0568 159.206 90.1072Z" fill="#FF9A6C"/>
<path d="M178.772 88.9663C178.772 88.9663 184.091 90.5052 184.08 98.9273C184.069 107.317 182.473 111.51 182.473 111.51L172.668 105.138L174.856 98.5788L178.772 88.9663Z" fill="#455A64"/>
<path d="M182.473 111.51C182.47 111.517 182.4 111.48 182.269 111.404C182.121 111.314 181.933 111.2 181.7 111.059C181.187 110.735 180.48 110.291 179.61 109.744C177.825 108.595 175.377 107.02 172.619 105.246L172.54 105.195L172.571 105.095C172.739 104.571 172.917 104.016 173.097 103.454C173.724 101.51 174.32 99.6597 174.865 97.972C175.138 97.132 175.398 96.3323 175.641 95.5826C175.877 94.829 176.135 94.1368 176.418 93.5387C176.969 92.333 177.622 91.4814 178.187 91.0936C178.465 90.893 178.71 90.8027 178.877 90.7638C178.961 90.7456 179.025 90.735 179.068 90.7346C179.112 90.7317 179.134 90.7326 179.134 90.737C179.143 90.7677 178.764 90.761 178.23 91.1757C177.694 91.5774 177.075 92.4218 176.546 93.6227C176.275 94.2198 176.03 94.9005 175.803 95.6546C175.564 96.4072 175.311 97.2088 175.044 98.0522C174.504 99.7422 173.913 101.595 173.291 103.54C173.111 104.103 172.933 104.657 172.764 105.182L172.717 105.031C175.462 106.833 177.899 108.433 179.676 109.6C180.533 110.174 181.23 110.641 181.736 110.981C181.961 111.137 182.144 111.264 182.288 111.364C182.413 111.453 182.476 111.503 182.473 111.51Z" fill="#263238"/>
</svg>
