<svg width="217" height="181" viewBox="0 0 217 181" fill="none" xmlns="http://www.w3.org/2000/svg">
<path d="M217 138.428H0V138.519H217V138.428Z" fill="#E6E6E6"/>
<path d="M203.288 141.622H195.141V141.713H203.288V141.622Z" fill="#E6E6E6"/>
<path d="M165.683 144.106H161.91V144.196H165.683V144.106Z" fill="#E6E6E6"/>
<path d="M129.906 142.854H121.504V142.945H129.906V142.854Z" fill="#E6E6E6"/>
<path d="M53.8698 142.809H35.124V142.9H53.8698V142.809Z" fill="#E6E6E6"/>
<path d="M31.2602 142.809H28.5117V142.9H31.2602V142.809Z" fill="#E6E6E6"/>
<path d="M122.81 140.667H82.1543V140.757H122.81V140.667Z" fill="#E6E6E6"/>
<path d="M102.864 122.284H19.0593C17.6935 122.284 16.582 121.356 16.582 120.217V21.9589C16.582 20.8197 17.6935 19.8926 19.0593 19.8926H102.864C104.23 19.8926 105.341 20.8197 105.341 21.9589V120.217C105.341 121.356 104.23 122.284 102.864 122.284ZM19.0593 19.9834C17.753 19.9834 16.6905 20.8696 16.6905 21.9592V120.218C16.6905 121.307 17.753 122.193 19.0593 122.193H102.864C104.17 122.193 105.233 121.307 105.233 120.218V21.9589C105.233 20.8696 104.17 19.9831 102.864 19.9831L19.0593 19.9834Z" fill="#E6E6E6"/>
<path d="M196.736 122.284H112.932C111.567 122.284 110.455 121.356 110.455 120.217V21.9589C110.455 20.8197 111.567 19.8926 112.932 19.8926H196.736C198.103 19.8926 199.214 20.8197 199.214 21.9589V120.217C199.214 121.356 198.103 122.284 196.736 122.284ZM112.932 19.9834C111.626 19.9834 110.564 20.8696 110.564 21.9592V120.218C110.564 121.307 111.626 122.193 112.932 122.193H196.736C198.043 122.193 199.105 121.307 199.105 120.218V21.9589C199.105 20.8696 198.043 19.9831 196.736 19.9831L112.932 19.9834Z" fill="#E6E6E6"/>
<path d="M113.254 26.6704H25.4795V78.8455H113.254V26.6704Z" fill="#FAFAFA"/>
<path d="M114.878 26.6704H26.2383V78.8455H114.878V26.6704Z" fill="#F5F5F5"/>
<path d="M112.605 76.7153L112.605 28.8003L28.5123 28.8003L28.5123 76.7153L112.605 76.7153Z" fill="#FAFAFA"/>
<path d="M43.8232 76.7153L57.1666 28.8003H74.6581L61.3147 76.7153H43.8232Z" fill="white"/>
<path d="M64.1455 76.7153L77.4888 28.8003H85.3881L72.0452 76.7153H64.1455Z" fill="white"/>
<path d="M112.604 76.7153L112.604 28.8003H112.316L112.316 76.7153H112.604Z" fill="#FAFAFA"/>
<path d="M23.7734 26.5867V47.2612H30.3316C30.3316 47.2612 42.1147 40.8502 44.7925 27.6626C45.0646 26.3235 43.8351 25.0981 42.2067 25.0981H25.558C24.5724 25.0981 23.7734 25.7646 23.7734 26.5867Z" fill="#E0E0E0"/>
<path d="M23.7734 85.2304V48.9302H30.3316C30.3316 48.9302 43.6411 70.3088 45.184 85.2308H23.7734V85.2304Z" fill="#E0E0E0"/>
<path d="M30.1387 48.9304H24.0145C23.6517 48.9304 23.3574 48.685 23.3574 48.3823V47.8093C23.3574 47.5067 23.6517 47.2612 24.0145 47.2612H30.1387C30.5015 47.2612 30.7957 47.5067 30.7957 47.8093V48.3823C30.7957 48.685 30.5015 48.9304 30.1387 48.9304Z" fill="#F5F5F5"/>
<path d="M116.736 26.5867V47.2612H110.177C110.177 47.2612 98.3942 40.8502 95.7165 27.6626C95.4448 26.3235 96.6739 25.0981 98.3022 25.0981H114.951C115.937 25.0981 116.736 25.7646 116.736 26.5867Z" fill="#E0E0E0"/>
<path d="M116.736 85.2304V48.9302H110.178C110.178 48.9302 96.8681 70.3088 95.3252 85.2308H116.736V85.2304Z" fill="#E0E0E0"/>
<path d="M110.37 48.9304H116.494C116.857 48.9304 117.151 48.685 117.151 48.3823V47.8093C117.151 47.5067 116.857 47.2612 116.494 47.2612H110.37C110.007 47.2612 109.713 47.5067 109.713 47.8093V48.3823C109.713 48.685 110.007 48.9304 110.37 48.9304Z" fill="#F5F5F5"/>
<path d="M114.764 91.8257H100.341V138.428H114.764V91.8257Z" fill="#FAFAFA"/>
<path d="M110.913 138.428H114.764V133.045H106.875L110.913 138.428Z" fill="#F4F8FF"/>
<path d="M45.7669 91.8257H31.3438V138.428H45.7669V91.8257Z" fill="#E0E0E0"/>
<path d="M114.765 91.8257H42.4062V136.575H114.765V91.8257Z" fill="#FAFAFA"/>
<path d="M64.1455 83.9116C64.1455 88.2643 69.1643 91.8257 75.298 91.8257H80.8345C86.9683 91.8257 91.987 88.2643 91.987 83.9116H64.1455Z" fill="#EBEBEB"/>
<path d="M60.9347 73.9688H71.3507C71.3507 73.9688 69.5422 77.9511 69.5422 80.2951C69.5422 82.6387 77.4645 91.8259 66.1423 91.8259C54.8205 91.8259 62.7428 82.6387 62.7428 80.2951C62.7428 77.9515 60.9347 73.9688 60.9347 73.9688Z" fill="#E0E0E0"/>
<path d="M111.776 94.5513H45.3936V105.834H111.776V94.5513Z" fill="#EBEBEB"/>
<path d="M46.2576 138.428H42.4062V133.045H50.2955L46.2576 138.428Z" fill="#FAFAFA"/>
<path d="M76.5459 100.192C76.5459 101.132 77.459 101.893 78.5853 101.893C79.7115 101.893 80.6246 101.132 80.6246 100.192C80.6246 99.2529 79.7115 98.4912 78.5853 98.4912C77.459 98.4912 76.5459 99.2529 76.5459 100.192Z" fill="#FAFAFA"/>
<path d="M111.776 108.559H45.3936V119.842H111.776V108.559Z" fill="#EBEBEB"/>
<path d="M76.5459 114.201C76.5459 115.14 77.459 115.902 78.5853 115.902C79.7115 115.902 80.6246 115.14 80.6246 114.201C80.6246 113.262 79.7115 112.5 78.5853 112.5C77.459 112.5 76.5459 113.261 76.5459 114.201Z" fill="#FAFAFA"/>
<path d="M111.776 122.567H45.3936V133.85H111.776V122.567Z" fill="#EBEBEB"/>
<path d="M78.5853 129.91C79.7116 129.91 80.6246 129.148 80.6246 128.209C80.6246 127.269 79.7116 126.508 78.5853 126.508C77.459 126.508 76.5459 127.269 76.5459 128.209C76.5459 129.148 77.459 129.91 78.5853 129.91Z" fill="#FAFAFA"/>
<path d="M160.524 26.041H128.311V45.1691H160.524V26.041Z" fill="#E0E0E0"/>
<path d="M163.159 26.041H130.145V45.1691H163.159V26.041Z" fill="#F5F5F5"/>
<path d="M161.054 43.4132V27.7969L132.249 27.7969V43.4132H161.054Z" fill="white"/>
<path d="M155.984 38.864V32.3462H137.32V38.864H155.984Z" fill="#F5F5F5"/>
<path d="M186.665 35.605H167.056V52.758H186.665V35.605Z" fill="#E0E0E0"/>
<path d="M189.3 35.605H168.89V52.758H189.3V35.605Z" fill="#F5F5F5"/>
<path d="M187.194 51.0021V37.3608H170.994V51.0021H187.194Z" fill="white"/>
<path d="M176.064 44.1813C176.064 42.927 177.284 41.9102 178.787 41.9102H179.401C180.905 41.9102 182.124 42.927 182.124 44.1813C182.124 45.4357 180.905 46.4525 179.401 46.4525H178.787C177.284 46.4529 176.064 45.4357 176.064 44.1813Z" fill="#F5F5F5"/>
<path d="M217 58.5898H165.225H155.812V68.5695H146.398V78.5494H136.985V88.5291H127.571V98.509H118.158V108.489H108.744V118.469H99.3305V128.448H99.3309H99.3305H89.917V138.428H99.3305H217V58.5898Z" fill="#FAFAFA"/>
<path d="M142.606 128.448H88.9492V131.442H142.606V128.448Z" fill="#EBEBEB"/>
<path d="M152.019 118.469H98.3623V121.463H152.019V118.469Z" fill="#EBEBEB"/>
<path d="M161.434 108.489H107.776V111.483H161.434V108.489Z" fill="#EBEBEB"/>
<path d="M170.848 98.5088H117.19V101.503H170.848V98.5088Z" fill="#EBEBEB"/>
<path d="M180.261 88.5293H126.604V91.5234H180.261V88.5293Z" fill="#EBEBEB"/>
<path d="M189.674 78.5493H136.017V81.5434H189.674V78.5493Z" fill="#EBEBEB"/>
<path d="M199.088 68.5693H145.431V71.5634H199.088V68.5693Z" fill="#EBEBEB"/>
<path d="M208.501 58.5898H154.844V61.5839H208.501V58.5898Z" fill="#EBEBEB"/>
<path d="M207.586 58.5898V68.5695H198.173V78.5494H188.759V88.5291H179.346V98.509H179.345H169.932V108.489H160.518V118.469H151.105V128.448H141.691V138.428H151.105H217V68.5695V58.5898H207.586Z" fill="white"/>
<path d="M108.5 154.777C154.974 154.777 192.648 152.942 192.648 150.678C192.648 148.414 154.974 146.579 108.5 146.579C62.0268 146.579 24.3525 148.414 24.3525 150.678C24.3525 152.942 62.0268 154.777 108.5 154.777Z" fill="#F5F5F5"/>
<path d="M158.474 58.6521C159.081 60.3484 162.216 63.5264 162.462 65.8418C162.708 68.1575 157.367 71.8528 157.367 71.8528C157.367 71.8528 153.374 60.7198 155.874 59.4177C158.374 58.1152 158.474 58.6521 158.474 58.6521Z" fill="#263238"/>
<path d="M147.501 70.6724C146.555 71.3313 145.628 71.8873 144.66 72.4542C143.694 73.0099 142.695 73.5272 141.68 74.026C140.668 74.5292 139.611 74.9813 138.53 75.398C137.986 75.6022 137.44 75.8049 136.877 75.9841C136.599 76.0782 136.319 76.1698 136.03 76.2494L135.146 76.5017C134.265 76.7142 133.535 76.6936 132.861 76.6382C132.189 76.577 131.57 76.4652 130.97 76.3348C129.775 76.0706 128.665 75.7137 127.582 75.3303C125.426 74.5393 123.394 73.6437 121.423 72.5968L122.237 71.3356C123.258 71.6904 124.307 72.0495 125.352 72.3749C126.393 72.7119 127.443 73.0244 128.494 73.2959C129.541 73.5742 130.595 73.815 131.616 73.9764C132.125 74.0557 132.628 74.1111 133.089 74.1238C133.544 74.1371 133.975 74.1017 134.182 74.0278C135.123 73.7216 136.135 73.3487 137.083 72.9306C137.561 72.7181 138.039 72.5042 138.508 72.2725C138.983 72.0502 139.453 71.8178 139.919 71.5782C140.851 71.0989 141.764 70.5863 142.665 70.061C143.563 69.5448 144.47 68.9768 145.292 68.4443L147.501 70.6724Z" fill="#E58A7B"/>
<path d="M149.795 66.8194C148.717 66.1167 144.265 68.4158 142.913 69.3747L143.9 74.345C143.9 74.345 150.3 72.1082 150.685 70.5777C151.087 68.9838 150.614 67.353 149.795 66.8194Z" fill="#407BFF"/>
<path opacity="0.2" d="M149.795 66.8194C148.717 66.1167 144.265 68.4158 142.913 69.3747L143.9 74.345C143.9 74.345 150.3 72.1082 150.685 70.5777C151.087 68.9838 150.614 67.353 149.795 66.8194Z" fill="black"/>
<path d="M164.77 81.8591C162.157 82.2826 156.615 83.184 151.255 84.0564C144.272 68.2841 145.791 67.7736 145.791 67.7736C145.791 67.7736 147.132 67.1401 148.833 66.579C148.898 66.5573 148.959 66.5392 149.016 66.5211C149.875 66.2569 150.057 66.217 151.212 65.9347C153.199 65.5401 155.053 65.2179 157.348 64.9392C157.496 64.9211 157.644 64.903 157.787 64.8885C158.203 64.8451 158.616 64.8089 159.015 64.7763C159.284 64.7509 159.553 64.7365 159.809 64.722C160.113 64.7075 160.408 64.693 160.686 64.6822C162.17 64.6206 163.233 64.6387 163.233 64.6387C162.804 74.4815 163.472 77.3087 164.77 81.8591Z" fill="#407BFF"/>
<path opacity="0.2" d="M164.77 81.8591C162.157 82.2826 156.615 83.184 151.255 84.0564C144.272 68.2841 145.791 67.7736 145.791 67.7736C145.791 67.7736 147.132 67.1401 148.833 66.579C148.898 66.5573 148.959 66.5392 149.016 66.5211C149.875 66.2569 150.057 66.217 151.212 65.9347C153.199 65.5401 155.053 65.2179 157.348 64.9392C157.496 64.9211 157.644 64.903 157.787 64.8885C158.203 64.8451 158.616 64.8089 159.015 64.7763C159.284 64.7509 159.553 64.7365 159.809 64.722C160.113 64.7075 160.408 64.693 160.686 64.6822C162.17 64.6206 163.233 64.6387 163.233 64.6387C162.804 74.4815 163.472 77.3087 164.77 81.8591Z" fill="black"/>
<path d="M154.186 59.7772C153.306 60.9773 156.464 61.5308 158.325 60.3021C159.817 59.3171 159.463 57.0452 158.19 56.5171C156.961 56.0077 154.186 59.7772 154.186 59.7772Z" fill="#407BFF"/>
<path opacity="0.4" d="M154.186 59.7772C153.306 60.9773 156.464 61.5308 158.325 60.3021C159.817 59.3171 159.463 57.0452 158.19 56.5171C156.961 56.0077 154.186 59.7772 154.186 59.7772Z" fill="black"/>
<path d="M167.342 147.143L163.961 147.351L162.724 140.86L166.105 140.652L167.342 147.143Z" fill="#E58A7B"/>
<path d="M191.256 138.07L188.388 139.578L183.278 134.523L186.146 133.015L191.256 138.07Z" fill="#E58A7B"/>
<path d="M162.725 140.861L163.411 144.469L166.745 144.001L166.107 140.653L162.725 140.861Z" fill="#CF6F64"/>
<path d="M186.148 133.016L183.279 134.524L185.394 136.615L188.329 135.171L186.148 133.016Z" fill="#CF6F64"/>
<path d="M151.459 84.0558C151.459 84.0558 151.407 106.435 153.602 114.864C155.885 123.632 162.598 143.577 162.598 143.577L167.467 143.051C167.467 143.051 163.661 122.903 162.04 114.191C160.272 104.694 161.356 82.4478 161.356 82.4478L151.459 84.0558Z" fill="#407BFF"/>
<path opacity="0.7" d="M151.459 84.0558C151.459 84.0558 151.407 106.435 153.602 114.864C155.885 123.632 162.598 143.577 162.598 143.577L167.467 143.051C167.467 143.051 163.661 122.903 162.04 114.191C160.272 104.694 161.356 82.4478 161.356 82.4478L151.459 84.0558Z" fill="black"/>
<path opacity="0.5" d="M161.064 92.368L158.677 90.3843C158.768 98.9818 159.345 103.228 161.329 107.854C161.011 102.964 160.99 97.179 161.064 92.368Z" fill="black"/>
<path d="M154.822 83.4758C154.822 83.4758 162.101 101.973 165.714 112.625C169.526 123.865 184.133 136.296 184.133 136.296L188.324 134.277C188.324 134.277 178.35 122.477 174.671 111.989C167.204 90.6977 170.273 86.1879 164.768 81.8599L154.822 83.4758Z" fill="#407BFF"/>
<path opacity="0.7" d="M154.822 83.4758C154.822 83.4758 162.101 101.973 165.714 112.625C169.526 123.865 184.133 136.296 184.133 136.296L188.324 134.277C188.324 134.277 178.35 122.477 174.671 111.989C167.204 90.6977 170.273 86.1879 164.768 81.8599L154.822 83.4758Z" fill="black"/>
<path d="M149.106 53.2451C151.041 53.7859 152.798 57.7951 152.871 59.3723C152.945 60.9496 147.267 63.1263 147.267 63.1263C147.267 63.1263 144.761 58.0452 145.459 54.8061C145.765 53.3848 149.106 53.2451 149.106 53.2451Z" fill="#263238"/>
<path d="M122.538 71.4704L120.243 69.3838L119.492 71.9985C119.492 71.9985 121.125 73.1996 122.446 72.7895L122.538 71.4704Z" fill="#E58A7B"/>
<path d="M117.919 68.7861L116.312 69.8511L119.492 71.9985L120.243 69.3838L117.919 68.7861Z" fill="#E58A7B"/>
<path d="M187.483 139.038L190.167 136.783C190.265 136.701 190.412 136.691 190.522 136.759L192.967 138.274C193.22 138.431 193.241 138.764 193.011 138.95C192.06 139.722 191.553 140.055 190.373 141.047C189.647 141.657 188.662 142.611 187.66 143.454C186.679 144.277 185.605 143.514 185.932 143.088C187.398 141.18 187.135 140.468 187.232 139.497C187.25 139.321 187.341 139.158 187.483 139.038Z" fill="#263238"/>
<path d="M163.734 146.948H167.543C167.682 146.948 167.8 147.029 167.826 147.142L168.427 149.655C168.489 149.916 168.237 150.163 167.917 150.158C166.587 150.139 165.943 150.074 164.268 150.074C163.238 150.074 161.112 150.164 159.689 150.164C158.297 150.164 158.112 148.99 158.698 148.883C161.323 148.407 162.325 147.749 163.179 147.122C163.333 147.009 163.531 146.948 163.734 146.948Z" fill="#263238"/>
<path opacity="0.27" d="M163.658 70.3389L161.574 71.3746L163.979 78.9016C163.454 76.6319 163.689 74.1218 163.658 70.3389Z" fill="#407BFF"/>
<path d="M151.815 58.5673C153.295 59.6019 155.444 61.1118 157.974 59.3485C160.146 57.8342 161.665 53.8631 157.773 53.7172C155.734 53.6405 151.815 58.5673 151.815 58.5673Z" fill="#263238"/>
<path d="M155.393 59.2734C155.391 60.9835 155.709 64.0641 157.348 64.9387C157.348 64.9387 157.198 66.6973 153.529 67.2935C149.494 67.9491 151.21 65.9364 151.21 65.9364C153.31 65.14 152.935 63.7865 152.252 62.5691L155.393 59.2734Z" fill="#E58A7B"/>
<path d="M154.112 60.6177L152.253 62.567C152.416 62.8548 152.559 63.1506 152.654 63.4449C153.472 63.2067 154.448 62.2488 154.365 61.4995C154.324 61.1259 154.224 60.777 154.112 60.6177Z" fill="#CF6F64"/>
<path d="M155.588 55.3515C156.027 58.1341 156.285 59.3041 154.949 60.9856C152.941 63.5153 148.747 63.3574 147.32 60.7405C146.035 58.385 145.532 54.2303 148.503 52.6118C151.43 51.0172 155.148 52.5688 155.588 55.3515Z" fill="#E58A7B"/>
<path d="M149.791 50.4742C147.533 51.81 152.061 52.2035 152.066 54.1409C152.069 54.9402 153.641 57.4771 155.881 57.3352L158.054 54.1177C160.332 51.0356 154.951 47.4229 149.791 50.4742Z" fill="#263238"/>
<path d="M149.791 50.474C145.82 50.2996 144.089 52.9371 144.542 55.3017C144.542 55.3017 148.596 54.3659 153.025 54.7431C158.464 55.2057 149.791 50.474 149.791 50.474Z" fill="#263238"/>
<path d="M156.679 57.7491C156.745 58.3283 156.483 58.8789 156.111 59.2419C155.55 59.7886 154.792 59.4667 154.547 58.8166C154.327 58.2312 154.353 57.2419 155.108 56.9331C155.852 56.6287 156.605 57.0866 156.679 57.7491Z" fill="#E58A7B"/>
<path d="M150.767 56.9322C150.819 57.1559 150.72 57.3608 150.544 57.389C150.369 57.4176 150.184 57.2591 150.132 57.0354C150.08 56.8117 150.18 56.6068 150.355 56.5785C150.53 56.5499 150.715 56.7085 150.767 56.9322Z" fill="#263238"/>
<path d="M147.733 57.4254C147.785 57.6491 147.686 57.854 147.51 57.8822C147.335 57.9108 147.15 57.7523 147.098 57.5285C147.045 57.3048 147.146 57.0999 147.321 57.0717C147.496 57.0431 147.681 57.2013 147.733 57.4254Z" fill="#263238"/>
<path d="M147.402 57.0713L146.721 57.021C146.721 57.021 147.149 57.3873 147.402 57.0713Z" fill="#263238"/>
<path d="M148.625 57.6797C148.625 57.6797 148.395 58.7175 148.002 59.2642C148.421 59.4824 148.994 59.2584 148.994 59.2584L148.625 57.6797Z" fill="#DF5753"/>
<path d="M150.129 59.9881C150.092 59.9881 150.058 59.966 150.05 59.9338C150.042 59.8976 150.07 59.8625 150.114 59.8552C151.292 59.6637 151.681 58.8883 151.685 58.8804C151.702 58.8456 151.749 58.8293 151.79 58.8435C151.831 58.8572 151.851 58.8963 151.835 58.9307C151.818 58.9654 151.408 59.7818 150.144 59.9866C150.139 59.9877 150.135 59.9881 150.129 59.9881Z" fill="#263238"/>
<path d="M151.46 55.9703C151.422 55.9703 151.383 55.9591 151.353 55.9359C150.825 55.5417 150.264 55.6564 150.24 55.6611C150.157 55.6789 150.067 55.6369 150.045 55.5656C150.022 55.4942 150.072 55.4215 150.158 55.4019C150.187 55.3951 150.907 55.2412 151.568 55.7361C151.634 55.7853 151.64 55.87 151.58 55.925C151.548 55.9554 151.505 55.9703 151.46 55.9703Z" fill="#263238"/>
<path d="M146.053 56.4856C146.032 56.4856 146.012 56.4823 145.991 56.4755C145.909 56.4469 145.871 56.3687 145.905 56.3002C146.246 55.6161 146.975 55.497 147.005 55.4923C147.098 55.4778 147.177 55.5274 147.193 55.5998C147.208 55.6722 147.151 55.742 147.064 55.7558C147.037 55.7601 146.473 55.8593 146.202 56.4034C146.176 56.4545 146.116 56.4856 146.053 56.4856Z" fill="#263238"/>
<path d="M186.483 140.351C186.338 140.351 186.213 140.293 186.109 140.179C186.026 140.088 186.037 140.005 186.062 139.952C186.213 139.614 187.41 139.394 187.546 139.371C187.578 139.365 187.609 139.376 187.628 139.397C187.646 139.419 187.647 139.448 187.631 139.471C187.395 139.792 186.935 140.333 186.505 140.351C186.497 140.351 186.489 140.351 186.483 140.351ZM187.389 139.538C186.913 139.637 186.291 139.82 186.211 139.998C186.201 140.021 186.195 140.052 186.236 140.098C186.313 140.182 186.395 140.22 186.497 140.217C186.729 140.208 187.056 139.957 187.389 139.538Z" fill="#407BFF"/>
<path d="M187.193 139.535C186.768 139.535 186.214 139.447 186.055 139.25C186.013 139.198 185.962 139.091 186.086 138.958C186.165 138.873 186.271 138.827 186.402 138.82C186.413 138.819 186.424 138.819 186.435 138.819C186.924 138.819 187.59 139.365 187.618 139.389C187.639 139.405 187.646 139.43 187.64 139.453C187.632 139.476 187.611 139.494 187.584 139.5C187.488 139.523 187.349 139.535 187.193 139.535ZM186.437 138.953C186.428 138.953 186.42 138.953 186.412 138.954C186.328 138.958 186.263 138.986 186.213 139.04C186.15 139.108 186.166 139.148 186.188 139.175C186.321 139.339 186.982 139.435 187.391 139.395C187.153 139.22 186.729 138.953 186.437 138.953Z" fill="#407BFF"/>
<path d="M162.489 147.443C162.154 147.443 161.842 147.4 161.66 147.27C161.544 147.188 161.488 147.079 161.493 146.946C161.497 146.866 161.539 146.805 161.615 146.767C162.015 146.571 163.412 147.15 163.571 147.216C163.601 147.229 163.618 147.256 163.614 147.284C163.609 147.312 163.584 147.336 163.55 147.341C163.265 147.389 162.862 147.443 162.489 147.443ZM161.848 146.857C161.784 146.857 161.733 146.865 161.697 146.882C161.677 146.892 161.656 146.908 161.654 146.95C161.65 147.042 161.686 147.113 161.764 147.168C161.982 147.322 162.539 147.35 163.279 147.247C162.801 147.06 162.168 146.857 161.848 146.857Z" fill="#407BFF"/>
<path d="M163.535 147.342C163.524 147.342 163.512 147.34 163.502 147.336C163.078 147.18 162.234 146.565 162.295 146.247C162.309 146.174 162.371 146.083 162.587 146.064C162.609 146.062 162.631 146.062 162.652 146.062C163.409 146.062 163.606 147.216 163.614 147.266C163.618 147.289 163.606 147.314 163.583 147.328C163.569 147.338 163.552 147.342 163.535 147.342ZM162.649 146.196C162.634 146.196 162.618 146.197 162.603 146.198C162.465 146.21 162.456 146.253 162.454 146.268C162.417 146.458 162.992 146.94 163.427 147.153C163.355 146.864 163.137 146.196 162.649 146.196Z" fill="#407BFF"/>
<path d="M150.436 56.5781L149.755 56.5278C149.755 56.5278 150.184 56.8942 150.436 56.5781Z" fill="#263238"/>
<path d="M153.417 69.6996C146.156 71.0499 148.4 67.3865 148.834 66.5792C148.899 66.5575 148.96 66.5394 149.016 66.5213C149.875 66.257 150.058 66.2172 151.212 65.9349C153.174 65.457 155.053 65.2181 157.349 64.9394C157.496 64.9213 157.644 64.9032 157.787 64.8887C158.204 64.8416 158.616 64.8054 159.015 64.7765C159.284 64.7511 159.554 64.7366 159.81 64.7221C160.113 64.704 160.409 64.6896 160.686 64.6787V64.6823C160.821 65.2434 161.181 68.2625 153.417 69.6996Z" fill="#E58A7B"/>
<path d="M164.817 81.1655L165.662 82.0756C165.727 82.1462 165.635 82.2439 165.479 82.2696L151.304 84.5727C151.182 84.5926 151.07 84.5589 151.047 84.4963L150.69 83.507C150.665 83.4385 150.757 83.3622 150.89 83.3404L164.577 81.1167C164.678 81.1 164.775 81.1199 164.817 81.1655Z" fill="#26395A"/>
<path d="M163.277 82.7408L163.643 82.6811C163.716 82.6691 163.765 82.6289 163.751 82.5913L163.272 81.3084C163.259 81.2707 163.187 81.2497 163.114 81.2617L162.747 81.321C162.674 81.333 162.626 81.3732 162.64 81.4108L163.118 82.6941C163.133 82.7317 163.204 82.7527 163.277 82.7408Z" fill="#407BFF"/>
<path d="M154.97 87.01L152.146 86.1357L152.58 88.3758C152.58 88.3758 154.628 88.9901 155.675 88.2031L154.97 87.01Z" fill="#E58A7B"/>
<path d="M149.458 86.7291L148.782 88.1973L152.581 88.3758L152.146 86.1357L149.458 86.7291Z" fill="#E58A7B"/>
<path d="M152.36 84.5141L152.727 84.4544C152.8 84.4424 152.849 84.4022 152.834 84.3646L152.356 83.0813C152.342 83.0437 152.271 83.0227 152.198 83.0346L151.831 83.0943C151.758 83.1063 151.71 83.1468 151.724 83.1841L152.202 84.467C152.216 84.505 152.287 84.526 152.36 84.5141Z" fill="#407BFF"/>
<path d="M157.818 83.6275L158.185 83.5678C158.258 83.5558 158.306 83.5153 158.292 83.478L157.814 82.1951C157.8 82.1574 157.729 82.1364 157.656 82.1484L157.289 82.2081C157.216 82.22 157.168 82.2606 157.182 82.2979L157.66 83.5808C157.674 83.6181 157.745 83.6391 157.818 83.6275Z" fill="#407BFF"/>
<path d="M156.274 63.5037C156.584 63.4042 156.969 64.3113 156.873 64.4261C156.65 64.6914 152.596 65.6138 152.417 65.0958C152.415 64.8753 152.451 64.4438 152.567 64.2693C152.684 64.0952 153.583 64.4156 156.274 63.5037Z" fill="#407BFF"/>
<path d="M155.587 63.5229C155.746 63.2243 156.193 62.7421 156.582 63.0176C156.97 63.2931 157.137 63.8875 156.882 63.9823C156.628 64.0768 155.319 64.0258 155.587 63.5229Z" fill="#407BFF"/>
<path d="M156.418 63.6787C156.688 63.4416 157.303 63.1125 157.559 63.4803C157.814 63.8484 157.732 64.4552 157.454 64.4733C157.177 64.4914 155.964 64.0776 156.418 63.6787Z" fill="#407BFF"/>
<path d="M156.565 63.6265C156.505 63.3243 156.678 62.9279 157.169 62.6596C157.661 62.3914 158.143 62.2187 158.337 61.9429C158.337 61.9429 158.48 62.3758 158.383 62.7541C158.284 63.14 156.743 63.4358 156.847 63.7753L156.565 63.6265Z" fill="#407BFF"/>
<path d="M156.502 63.6072C156.254 63.3809 156.14 62.97 156.378 62.5219C156.615 62.0734 156.907 61.7099 156.889 61.3906C156.889 61.3906 157.292 61.6885 157.458 62.0502C157.627 62.4187 156.526 63.3664 156.835 63.6039L156.502 63.6072Z" fill="#407BFF"/>
<path d="M186.686 134.322C186.669 134.322 186.652 134.315 186.641 134.303C186.542 134.185 176.62 122.377 172.981 112.001C169.558 102.244 168.327 95.9004 167.513 91.703C166.762 87.8354 166.309 85.5012 164.813 83.5855C164.796 83.5645 164.803 83.5366 164.828 83.5229C164.854 83.5091 164.888 83.5156 164.903 83.5363C166.412 85.4683 166.866 87.8097 167.619 91.6889C168.434 95.8845 169.664 102.225 173.085 111.976C176.719 122.337 186.63 134.134 186.73 134.251C186.747 134.272 186.741 134.3 186.717 134.315C186.708 134.319 186.697 134.322 186.686 134.322Z" fill="#407BFF"/>
<path opacity="0.4" d="M186.686 134.322C186.669 134.322 186.652 134.315 186.641 134.303C186.542 134.185 176.62 122.377 172.981 112.001C169.558 102.244 168.327 95.9004 167.513 91.703C166.762 87.8354 166.309 85.5012 164.813 83.5855C164.796 83.5645 164.803 83.5366 164.828 83.5229C164.854 83.5091 164.888 83.5156 164.903 83.5363C166.412 85.4683 166.866 87.8097 167.619 91.6889C168.434 95.8845 169.664 102.225 173.085 111.976C176.719 122.337 186.63 134.134 186.73 134.251C186.747 134.272 186.741 134.3 186.717 134.315C186.708 134.319 186.697 134.322 186.686 134.322Z" fill="black"/>
<path d="M168.346 143.039L161.718 143.755L161.28 142.213L168.188 140.992L168.346 143.039Z" fill="#407BFF"/>
<path d="M188.675 134.154L183.784 136.51L182.136 135.332L187.488 132.316L188.675 134.154Z" fill="#407BFF"/>
<path d="M165.721 68.4634C165.956 69.473 166.093 70.4182 166.221 71.3992C166.339 72.373 166.4 73.3522 166.434 74.3347C166.475 75.3168 166.44 76.3068 166.356 77.2976C166.307 77.7943 166.257 78.2902 166.174 78.7883C166.138 79.0367 166.1 79.2854 166.044 79.5352L165.882 80.3022C165.68 81.049 165.306 81.5721 164.923 82.0373C164.535 82.4988 164.119 82.8974 163.692 83.2724C162.837 84.0182 161.928 84.6567 161.002 85.2631C159.131 86.4573 157.211 87.5096 155.16 88.4443L154.229 87.2414C155.094 86.6662 155.977 86.0732 156.823 85.4665C157.68 84.8681 158.514 84.252 159.306 83.6145C160.104 82.9843 160.865 82.3301 161.527 81.6623C161.856 81.3289 162.156 80.9882 162.392 80.657C162.626 80.3305 162.797 79.9989 162.819 79.8121C162.951 78.9769 163.048 78.0575 163.066 77.163C163.074 76.7112 163.08 76.2591 163.063 75.8044C163.058 75.3504 163.041 74.8947 163.014 74.4385C162.96 73.5259 162.862 72.6126 162.746 71.7C162.637 70.795 162.478 69.8589 162.315 69.0009L165.721 68.4634Z" fill="#E58A7B"/>
<path d="M165.196 65.3863C167.052 66.641 166.61 70.3602 166.61 70.3602L160.36 72.0768C160.36 72.0768 160.646 67.7882 160.956 66.2457C161.323 64.4121 163.371 64.1526 165.196 65.3863Z" fill="#407BFF"/>
<path opacity="0.2" d="M165.196 65.3863C167.052 66.641 166.61 70.3602 166.61 70.3602L160.36 72.0768C160.36 72.0768 160.646 67.7882 160.956 66.2457C161.323 64.4121 163.371 64.1526 165.196 65.3863Z" fill="black"/>
<path d="M82.6364 80.9182C82.1377 79.1107 80.209 77.8296 77.9852 77.8296H43.2444C40.6083 77.8296 38.4717 79.6121 38.4717 81.8105V146.182C38.4717 148.38 40.6087 150.163 43.2444 150.163H153.49C156.126 150.163 158.263 148.38 158.263 146.182V92.1123C158.263 89.9135 156.126 88.1314 153.49 88.1314H93.4998C88.3062 88.131 83.8008 85.1398 82.6364 80.9182Z" fill="#407BFF"/>
<path opacity="0.6" d="M82.6364 80.9182C82.1377 79.1107 80.209 77.8296 77.9852 77.8296H43.2444C40.6083 77.8296 38.4717 79.6121 38.4717 81.8105V146.182C38.4717 148.38 40.6087 150.163 43.2444 150.163H153.49C156.126 150.163 158.263 148.38 158.263 146.182V92.1123C158.263 89.9135 156.126 88.1314 153.49 88.1314H93.4998C88.3062 88.131 83.8008 85.1398 82.6364 80.9182Z" fill="black"/>
<path opacity="0.22" d="M70.3809 60.8721L73.4761 69.2303C74.2968 71.4464 77.117 72.6863 79.7744 72.0018L89.7915 69.4207L70.3809 60.8721Z" fill="#407BFF"/>
<path d="M70.3807 60.8721L34.5757 70.0976C31.9187 70.7822 30.4314 73.1319 31.2521 75.3484L51.6939 130.545C52.5146 132.761 55.3317 134.002 57.9891 133.317L103.815 121.51C106.472 120.825 107.959 118.475 107.138 116.259L89.7918 69.4207L70.3807 60.8721Z" fill="#407BFF"/>
<path opacity="0.8" d="M70.3807 60.8721L34.5757 70.0976C31.9187 70.7822 30.4314 73.1319 31.2521 75.3484L51.6939 130.545C52.5146 132.761 55.3317 134.002 57.9891 133.317L103.815 121.51C106.472 120.825 107.959 118.475 107.138 116.259L89.7918 69.4207L70.3807 60.8721Z" fill="white"/>
<g opacity="0.28">
<path d="M89.6482 119.109L59.8567 126.785C58.7014 127.083 57.4645 126.538 57.1073 125.574C56.7505 124.611 57.4037 123.579 58.5586 123.281L88.3501 115.605C89.5054 115.307 90.7423 115.852 91.099 116.816C91.4562 117.779 90.8031 118.811 89.6482 119.109Z" fill="#407BFF"/>
</g>
<g opacity="0.28">
<path d="M57.5895 74.0568L41.8323 78.1166C40.677 78.4142 39.4401 77.8694 39.0829 76.9058C38.7261 75.9421 39.3793 74.9104 40.5346 74.6128L56.2918 70.553C57.4471 70.2555 58.684 70.8003 59.0412 71.7639C59.3975 72.7272 58.7444 73.7589 57.5895 74.0568Z" fill="#407BFF"/>
</g>
<g opacity="0.28">
<path d="M70.4431 78.3605L44.407 85.0691C43.2517 85.3667 42.0148 84.8219 41.6581 83.8586C41.3013 82.8949 41.9545 81.8632 43.1098 81.5653L69.1459 74.8567C70.3012 74.5592 71.5381 75.104 71.8948 76.0676C72.2516 77.0313 71.5984 78.063 70.4431 78.3605Z" fill="#407BFF"/>
</g>
<g opacity="0.28">
<path d="M84.9815 82.2311L46.9822 92.0218C45.8269 92.3194 44.59 91.7745 44.2333 90.8113C43.8765 89.8476 44.5297 88.8159 45.6846 88.5183L83.6839 78.7273C84.8392 78.4298 86.0761 78.9746 86.4333 79.9382C86.7896 80.9015 86.1364 81.9336 84.9815 82.2311Z" fill="#407BFF"/>
</g>
<g opacity="0.28">
<path d="M87.5557 89.1838L65.4651 94.8755C64.3098 95.1731 63.0729 94.6282 62.7157 93.6646C62.3589 92.701 63.0121 91.6693 64.1674 91.3717L86.258 85.68C87.4133 85.3824 88.6502 85.9272 89.0074 86.8905C89.3641 87.8541 88.711 88.8862 87.5557 89.1838Z" fill="#407BFF"/>
</g>
<g opacity="0.28">
<path d="M55.3347 97.4859L49.5564 98.9748C48.4011 99.2724 47.1642 98.7275 46.8075 97.7639C46.4507 96.8003 47.1039 95.7686 48.2592 95.4706L54.0375 93.9817C55.1928 93.6842 56.4297 94.229 56.7869 95.1926C57.1428 96.1563 56.4896 97.1883 55.3347 97.4859Z" fill="#407BFF"/>
</g>
<g opacity="0.28">
<path d="M90.1309 96.1363L52.1316 105.927C50.9763 106.225 49.7394 105.68 49.3827 104.716C49.0259 103.753 49.6791 102.721 50.8344 102.423L88.8337 92.6321C89.989 92.3346 91.2259 92.8794 91.5831 93.843C91.9394 94.807 91.2862 95.8387 90.1309 96.1363Z" fill="#407BFF"/>
</g>
<g opacity="0.28">
<path d="M78.0425 106.867L54.7058 112.88C53.5505 113.177 52.3136 112.632 51.9569 111.669C51.6001 110.705 52.2533 109.673 53.4086 109.376L76.7452 103.363C77.9005 103.066 79.1374 103.61 79.4946 104.574C79.8509 105.537 79.1978 106.569 78.0425 106.867Z" fill="#407BFF"/>
</g>
<g opacity="0.28">
<path d="M92.7057 103.089L86.4778 104.694C85.3225 104.991 84.0856 104.447 83.7284 103.483C83.3716 102.52 84.0248 101.488 85.1801 101.19L91.408 99.5852C92.5633 99.2877 93.8002 99.8325 94.1574 100.796C94.5141 101.76 93.861 102.791 92.7057 103.089Z" fill="#407BFF"/>
</g>
<g opacity="0.28">
<path d="M95.2803 110.042L57.281 119.833C56.1257 120.13 54.8888 119.585 54.5321 118.622C54.1753 117.658 54.8285 116.626 55.9834 116.329L93.9827 106.538C95.138 106.24 96.3749 106.785 96.7321 107.749C97.0888 108.712 96.4357 109.744 95.2803 110.042Z" fill="#407BFF"/>
</g>
<path d="M96.0944 40.1118L107.46 61.2309C108.075 62.3745 107.457 63.7305 106.086 64.2438L57.8859 82.291C56.5145 82.8043 54.8891 82.2888 54.2737 81.1449L42.9081 60.0258C42.5865 59.4278 42.6022 58.7704 42.8851 58.2064C43.1464 57.6942 43.6277 57.2579 44.2822 57.0129L92.4822 38.9661C93.1367 38.721 93.8476 38.7109 94.4799 38.8886C95.1735 39.0866 95.7728 39.5142 96.0944 40.1118Z" fill="#407BFF"/>
<path opacity="0.3" d="M96.0944 40.1118L107.46 61.2309C108.075 62.3745 107.457 63.7305 106.086 64.2438L57.8859 82.291C56.5145 82.8043 54.8891 82.2888 54.2737 81.1449L42.9081 60.0258C42.5865 59.4278 42.6022 58.7704 42.8851 58.2064C43.1464 57.6942 43.6277 57.2579 44.2822 57.0129L92.4822 38.9661C93.1367 38.721 93.8476 38.7109 94.4799 38.8886C95.1735 39.0866 95.7728 39.5142 96.0944 40.1118Z" fill="black"/>
<path d="M88.4976 39.0694L86.958 39.6455L87.1356 39.9758L88.6752 39.3997L88.4976 39.0694Z" fill="#407BFF"/>
<path d="M84.7944 40.4573L79.9932 42.2534L80.1708 42.5837L84.972 40.7876L84.7944 40.4573Z" fill="#407BFF"/>
<path d="M42.8715 62.1603L42.4756 62.3086L43.7911 64.7525L44.187 64.6042L42.8715 62.1603Z" fill="#407BFF"/>
<path opacity="0.6" d="M94.4805 38.8883L82.0529 59.1969C79.6794 63.0753 74.3898 65.0558 69.338 63.9575L42.8857 58.2064C43.147 57.6942 43.6283 57.258 44.2828 57.0129L92.4828 38.9661C93.1373 38.7211 93.8482 38.7109 94.4805 38.8883Z" fill="#407BFF"/>
<path d="M111.568 64.8833L74.1643 66.8077C71.3889 66.9503 69.2787 68.9417 69.4502 71.2567L73.7142 128.917C73.8857 131.232 76.2727 132.992 79.0481 132.849L126.919 130.386C129.695 130.243 131.804 128.252 131.633 125.937L128.015 77.0078L111.568 64.8833Z" fill="#407BFF"/>
<path opacity="0.8" d="M111.568 64.8833L74.1643 66.8077C71.3889 66.9503 69.2787 68.9417 69.4502 71.2567L73.7142 128.917C73.8857 131.232 76.2727 132.992 79.0481 132.849L126.919 130.386C129.695 130.243 131.804 128.252 131.633 125.937L128.015 77.0078L111.568 64.8833Z" fill="white"/>
<g opacity="0.22">
<path d="M113.83 125.268L82.7085 126.869C81.5015 126.931 80.4534 126.158 80.3792 125.151C80.3046 124.145 81.2312 123.271 82.4381 123.209L113.56 121.607C114.767 121.546 115.815 122.318 115.889 123.325C115.963 124.331 115.037 125.206 113.83 125.268Z" fill="#407BFF"/>
</g>
<g opacity="0.22">
<path d="M95.4095 75.1808L78.9487 76.0275C77.7418 76.0898 76.6937 75.3169 76.6194 74.3102C76.5448 73.3035 77.4714 72.4292 78.6783 72.3673L95.1391 71.5206C96.346 71.4583 97.3942 72.2312 97.4684 73.2379C97.5426 74.2443 96.6164 75.1185 95.4095 75.1808Z" fill="#407BFF"/>
</g>
<g opacity="0.22">
<path d="M106.685 81.8912L79.4868 83.2907C78.2798 83.353 77.2317 82.5801 77.1575 81.5734C77.0833 80.5666 78.0094 79.6924 79.2164 79.6305L106.415 78.231C107.622 78.1691 108.67 78.9416 108.744 79.9483C108.818 80.9547 107.892 81.8293 106.685 81.8912Z" fill="#407BFF"/>
</g>
<g opacity="0.22">
<path d="M119.719 88.5108L80.0239 90.5532C78.817 90.6155 77.7689 89.8426 77.6946 88.8359C77.62 87.8292 78.5466 86.9549 79.7535 86.893L119.449 84.8506C120.656 84.7887 121.704 85.5613 121.778 86.568C121.852 87.5747 120.926 88.4489 119.719 88.5108Z" fill="#407BFF"/>
</g>
<g opacity="0.22">
<path d="M120.257 95.774L97.1802 96.9614C95.9732 97.0233 94.9251 96.2508 94.8509 95.244C94.7762 94.2373 95.7028 93.3631 96.9098 93.3012L119.986 92.1138C121.193 92.0519 122.242 92.8244 122.316 93.8312C122.39 94.8375 121.463 95.7121 120.257 95.774Z" fill="#407BFF"/>
</g>
<g opacity="0.22">
<path d="M86.5971 97.5059L80.561 97.8165C79.354 97.8788 78.3059 97.1059 78.2317 96.0992C78.1575 95.0925 79.0836 94.2183 80.2906 94.1564L86.3267 93.8458C87.5336 93.7839 88.5817 94.5564 88.656 95.5631C88.7306 96.5694 87.804 97.4437 86.5971 97.5059Z" fill="#407BFF"/>
</g>
<g opacity="0.22">
<path d="M120.794 103.037L81.0981 105.08C79.8912 105.142 78.8431 104.369 78.7689 103.362C78.6942 102.356 79.6208 101.481 80.8278 101.419L120.523 99.377C121.73 99.3148 122.778 100.088 122.852 101.094C122.927 102.101 122 102.975 120.794 103.037Z" fill="#407BFF"/>
</g>
<g opacity="0.22">
<path d="M106.013 111.088L81.6352 112.343C80.4283 112.405 79.3801 111.632 79.3059 110.625C79.2317 109.619 80.1579 108.745 81.3648 108.683L105.743 107.428C106.95 107.366 107.998 108.139 108.072 109.146C108.147 110.152 107.22 111.027 106.013 111.088Z" fill="#407BFF"/>
</g>
<g opacity="0.22">
<path d="M121.331 110.3L114.825 110.635C113.618 110.697 112.57 109.925 112.495 108.918C112.421 107.911 113.347 107.037 114.554 106.975L121.06 106.64C122.267 106.578 123.315 107.351 123.389 108.358C123.464 109.364 122.537 110.239 121.331 110.3Z" fill="#407BFF"/>
</g>
<g opacity="0.22">
<path d="M121.868 117.563L82.1723 119.606C80.9654 119.668 79.9172 118.895 79.843 117.888C79.7688 116.881 80.695 116.007 81.9019 115.945L121.597 113.903C122.804 113.841 123.852 114.614 123.927 115.62C124.001 116.627 123.075 117.501 121.868 117.563Z" fill="#407BFF"/>
</g>
<path opacity="0.22" d="M111.567 64.8833L112.213 73.6144C112.385 75.9294 114.775 77.6891 117.551 77.5464L128.015 77.0081L111.567 64.8833Z" fill="#407BFF"/>
<path opacity="0.5" d="M99.3211 86.6613C99.2456 84.8539 97.6163 83.5728 95.3929 83.5728H60.6517C58.0155 83.5728 55.4615 85.3552 54.9467 87.5537L41.2219 146.182C40.7072 148.381 42.4267 150.163 45.0628 150.163H155.308C157.944 150.163 160.499 148.381 161.013 146.182L172.326 97.8555C172.841 95.6567 171.122 93.8746 168.485 93.8746H108.495C103.302 93.8746 99.4968 90.883 99.3211 86.6613Z" fill="#407BFF"/>
</svg>
