<svg width="173" height="177" viewBox="0 0 173 177" fill="none" xmlns="http://www.w3.org/2000/svg">
<path d="M52.7862 80.5775H38.7467V77.334L29.689 83.821L38.7467 91.2347V87.9912H53.2391V80.5775H52.7862Z" fill="#EECEAD"/>
<path d="M21.5373 94.9427H35.5769V91.6992L44.6346 98.1862L35.5769 105.6V102.356H21.0845V94.9427H21.5373Z" fill="#EECEAD"/>
<path d="M18.8198 102.356V94.4785H16.5554V102.356H18.8198Z" fill="#EECEAD"/>
<path d="M14.291 102.356L14.291 94.4785H12.9324L12.9324 102.356H14.291Z" fill="#EECEAD"/>
<path d="M27.321 119.374L25.9142 117.295C25.266 116.337 24.1997 115.766 23.0609 115.766H14.0234C10.7711 115.766 10.9671 119.374 10.9671 119.374V134.009H45.0614V119.374H27.321Z" fill="#E9E9F2"/>
<path d="M43.3656 141.026H13.5146V122.582H43.6901V140.694C43.6901 140.877 43.5448 141.026 43.3656 141.026Z" fill="#EECEAD"/>
<path d="M44.7371 143.432H10.9673V124.988H45.0616V143.1C45.0616 143.283 44.9163 143.432 44.7371 143.432Z" fill="#D8D8E7"/>
<path d="M80.33 40.5273V64.7594H56.6454V63.6337L56.0815 64.2739V140.918H136.534V40.5273H80.33Z" fill="#E9E9F2"/>
<path d="M136.639 141.025H55.9766V64.2328L56.7507 63.354V64.6521H80.2249V40.4199H136.639V141.025ZM56.1868 140.81H136.429V40.6349H80.4351V64.867H56.5404V63.9137L56.1867 64.3153L56.1868 140.81Z" fill="#EECEAD"/>
<path d="M56.6455 64.7594H80.33V40.5273H76.9961L56.6455 63.6337V64.7594Z" fill="#18217D"/>
<path d="M130.274 81.8758H88.2816C88.0428 81.8758 87.8491 81.6777 87.8491 81.4333V61.548C87.8491 61.3036 88.0428 61.1055 88.2816 61.1055H130.274C130.513 61.1055 130.707 61.3036 130.707 61.548V81.4333C130.707 81.6776 130.513 81.8758 130.274 81.8758Z" fill="#2698EF"/>
<path d="M123.188 67.4512H95.3682V75.5286H123.188V67.4512Z" fill="white"/>
<path d="M130.519 92.5156H65.8564V93.1606H130.519V92.5156Z" fill="#2698EF"/>
<path d="M130.519 98.8613H65.8564V99.5062H130.519V98.8613Z" fill="#2698EF"/>
<path d="M130.519 105.209H65.8564V105.854H130.519V105.209Z" fill="#2698EF"/>
<path d="M130.519 111.555H65.8564V112.2H130.519V111.555Z" fill="#2698EF"/>
<path d="M15.1228 55.5747H44.503C44.503 55.5747 50.6895 50.3684 40.8163 49.822C40.5452 49.807 40.3443 49.6497 40.3732 49.472C40.5871 48.1541 40.7847 43.3367 32.0019 44.1787C31.7814 44.1999 31.5618 44.1245 31.4783 43.9889C28.265 38.7738 16.2561 41.1573 16.0222 46.1883C8.62713 48.1575 9.82632 53.8024 15.1228 55.5747Z" fill="#D8D8E7"/>
<path d="M139.204 43.107H160.782C160.782 43.107 165.325 39.2834 158.074 38.8821C157.875 38.871 157.728 38.7555 157.749 38.625C157.906 37.657 158.051 34.119 151.6 34.7374C151.439 34.7529 151.277 34.6975 151.216 34.5979C148.856 30.7678 140.036 32.5184 139.864 36.2133C134.433 37.6596 135.314 41.8054 139.204 43.107Z" fill="#D8D8E7"/>
<path d="M144.456 83.9798C144.456 83.9798 145.592 86.5307 144.928 88.2781C144.928 88.2781 147.988 89.0308 149.486 88.4001C149.486 88.4001 148.916 85.2584 149.47 83.9414L144.456 83.9798Z" fill="#E89082"/>
<path d="M146.903 80.2472C145.518 80.654 145.028 77.3741 144.874 75.8066C144.85 75.8351 143.006 76.7774 143.022 79.1711C143.023 79.2869 143 79.402 142.955 79.5082C142.841 79.7767 142.551 80.2842 141.833 80.9163C141.809 80.9377 141.79 80.9661 141.783 80.998C141.756 81.1114 141.763 81.3798 142.313 81.6249C142.313 81.6249 142.37 82.0226 142.181 82.2195L142.519 82.5444L142.295 83.015L142.577 83.2359C142.612 83.2631 142.624 83.3117 142.605 83.352C142.463 83.6454 142.079 84.7952 144.865 84.5921C144.865 84.5921 148.159 84.5254 149.36 84.2533C148.129 82.7195 149.58 79.4275 146.903 80.2472Z" fill="#FBA996"/>
<path d="M152.879 78.0085C152.701 77.7543 152.352 77.5116 151.665 77.557C150.482 74.3302 146.239 74.2073 144.875 75.8075C145.028 77.3749 145.518 80.6549 146.903 80.2481C149.58 79.4284 148.129 82.7204 149.36 84.2542C149.405 84.2439 149.448 84.2333 149.487 84.2224C150.492 84.3683 150.889 83.0772 151.257 82.3476C154.082 84.0097 155.494 79.3549 153.652 78.6226C153.343 78.4995 153.072 78.2848 152.879 78.0085Z" fill="#100259"/>
<path d="M133.842 137.42L133.33 142.663L128.205 142.401L128.973 140.304L131.28 137.944L133.842 137.42Z" fill="#F9AEAC"/>
<path d="M156.135 137.158L155.879 141.877L160.235 138.993L158.632 136.221L156.135 137.158Z" fill="#F9AEAC"/>
<path d="M135.905 82.5996L133.453 77.217L132.872 76.3486C132.596 75.9369 132.01 75.9146 131.705 76.3043L130.712 77.574C130.465 77.8899 130.511 78.35 130.815 78.609L131.805 79.4536L133.99 85.7297L135.905 82.5996Z" fill="#FBA996"/>
<path d="M128.205 140.041C128.205 140.041 131.536 141.876 133.842 140.565L134.098 142.925H126.414C125.805 142.925 125.492 142.174 125.917 141.728C126.611 140.999 127.518 140.181 128.205 140.041Z" fill="#D79840"/>
<path d="M155.308 140.503C155.308 140.503 158.347 140.182 159.825 138.368C160.082 138.053 160.551 138.044 160.812 138.356L161.767 139.499L154.56 144.509C154.392 144.627 154.166 144.487 154.19 144.28C154.303 143.3 154.618 141.221 155.308 140.503Z" fill="#D79840"/>
<path d="M145.898 88.1055C145.898 88.1055 139.745 88.3573 136.123 81.704C136.026 81.5268 135.776 81.5291 135.68 81.7068L133.339 86.0614C133.188 86.3426 133.238 86.6925 133.462 86.9167C134.932 88.3849 140.402 93.5368 144.361 93.0867L145.898 88.1055Z" fill="#F3B34E"/>
<path d="M146.398 109.106C146.398 109.106 135.123 130.866 134.354 138.731H130.254C131.065 126.546 134.129 115.771 139.992 106.746L146.398 109.106Z" fill="#18217D"/>
<path d="M150.754 108.844C150.754 108.844 148.448 123.002 159.466 136.897L156.135 138.732C147.985 132.453 140.798 124.503 138.967 107.271L150.754 108.844Z" fill="#195ECB"/>
<path d="M145.168 87.69C145.332 88.2051 146.888 88.3995 147.762 88.1651C147.762 88.1651 154.114 99.1185 152.102 110.634C152.062 110.867 151.858 111.032 151.627 111.022C149.554 110.932 140.037 110.372 137.148 107.597C136.832 107.294 136.742 106.817 136.916 106.41L144.92 87.6778C144.969 87.5626 145.13 87.5705 145.168 87.69Z" fill="#D79840"/>
<path d="M140.191 84.824L131.588 90.0273L138.761 102.44L147.363 97.2362L140.191 84.824Z" fill="#D6786D"/>
<path d="M140.352 98.4343L135.464 95.2762L135.913 94.5491L139.702 96.9975L141.038 87.3555L141.87 87.4762L140.352 98.4343Z" fill="#E13268"/>
<path d="M143.579 98.619L138.967 96.7839C138.967 96.7839 138.454 92.5891 137.686 96.2595C137.686 96.2595 134.867 95.473 136.661 98.8812L143.836 100.716L143.579 98.619Z" fill="#FBA996"/>
<path d="M151.076 88.3308C152.198 91.0518 153.955 96.7273 153.065 104.086C153.062 104.109 153.045 104.126 153.023 104.128C152.464 104.165 145.745 104.562 142.554 102.552L143.067 97.8333L148.96 99.6685L146.78 89.7327C146.507 88.4875 147.27 87.2509 148.487 86.968C149.559 86.7187 150.648 87.2942 151.076 88.3308Z" fill="#F3B34E"/>
</svg>
