<svg width="232" height="190" viewBox="0 0 232 190" fill="none" xmlns="http://www.w3.org/2000/svg">
<path d="M157.391 139.773L156.341 176.941H154.338L154.466 139.867L157.391 139.773Z" fill="#E0E0E0"/>
<path d="M164.62 139.361L174.352 176.941H176.582L168.481 139.361H164.62Z" fill="#E0E0E0"/>
<path d="M146.376 139.773L135.606 176.941H133.376L143.149 139.621L146.376 139.773Z" fill="#E0E0E0"/>
<path d="M174.615 101.786C174.615 101.786 186.278 101.241 185.112 112.293C183.945 123.346 183.278 134.535 178.947 138.356C174.615 142.177 130.962 142.313 127.296 139.174C123.63 136.036 134.294 136.173 136.294 136.173C138.293 136.173 150.623 137.128 154.621 128.531C158.62 119.935 157.62 101.241 174.615 101.786Z" fill="#F5F5F5"/>
<path d="M175.363 101.792C175.363 101.792 184.279 103.287 183.445 110.929C182.612 118.57 180.279 131.942 175.948 135.353C171.616 138.765 154.642 139.508 145.457 139.038C134.794 138.492 128.063 136.829 128.063 136.829C128.063 136.829 126.117 137.854 126.707 138.514C127.296 139.174 132.494 141.83 157.699 141.387C182.902 140.945 181.15 137.899 182.197 134.573C183.243 131.246 185.438 113.51 185.133 109.61C184.829 105.71 182.431 102.476 175.363 101.792Z" fill="#E0E0E0"/>
<path d="M168.048 116.668C168.048 117.227 168.48 117.681 169.014 117.681C169.547 117.681 169.98 117.227 169.98 116.668C169.98 116.109 169.547 115.655 169.014 115.655C168.48 115.655 168.048 116.109 168.048 116.668Z" fill="#EBEBEB"/>
<path d="M168.707 112.194C168.768 112.211 168.395 112.741 168.379 113.667C168.374 114.124 168.482 114.675 168.805 115.217C168.966 115.483 169.178 115.763 169.44 115.992C169.576 116.109 169.743 116.223 169.885 116.387C170.034 116.547 170.104 116.789 170.05 116.994C169.945 117.397 169.681 117.685 169.556 117.985C169.444 118.274 169.409 118.61 169.412 118.904C169.422 119.507 169.639 120.036 169.898 120.441C170.435 121.256 171.068 121.581 171.024 121.62C171.013 121.633 170.849 121.569 170.593 121.4C170.34 121.232 169.995 120.953 169.691 120.536C169.391 120.121 169.132 119.56 169.104 118.911C169.095 118.584 169.115 118.255 169.246 117.896C169.391 117.554 169.646 117.255 169.721 116.946C169.81 116.644 169.508 116.43 169.203 116.176C168.902 115.907 168.696 115.618 168.527 115.325C168.195 114.736 168.106 114.142 168.142 113.66C168.178 113.176 168.321 112.797 168.451 112.552C168.581 112.307 168.689 112.186 168.707 112.194Z" fill="#EBEBEB"/>
<path d="M166.065 115.357C166.119 115.364 166.077 115.595 166.2 115.933C166.316 116.267 166.633 116.705 167.171 117.004C167.714 117.303 168.319 117.414 168.754 117.468C169.193 117.52 169.476 117.529 169.479 117.57C169.482 117.604 169.202 117.665 168.735 117.661C168.274 117.655 167.6 117.57 166.983 117.231C166.364 116.887 166.037 116.363 165.969 115.975C165.896 115.58 166.031 115.347 166.065 115.357Z" fill="#EBEBEB"/>
<path d="M194.782 177.269L196.521 177.268L193.769 122.782L192.034 122.856L194.782 177.269Z" fill="#E0E0E0"/>
<path d="M98.2202 177.33L99.9542 177.417L103.223 122.924L101.489 122.837L98.2202 177.33Z" fill="#E0E0E0"/>
<path d="M114.391 177.679L116.125 177.766L119.305 123.659L117.571 123.572L114.391 177.679Z" fill="#E0E0E0"/>
<path d="M205.656 177.268H207.395L204.606 122.832L202.871 122.906L205.656 177.268Z" fill="#E0E0E0"/>
<path d="M209.189 122.194H95.2671V125H209.189V122.194Z" fill="#E0E0E0"/>
<path d="M104.03 104.258L112.172 121.872H149.041L148.769 120.965L133.861 120.624L126.993 104.248L104.03 104.258Z" fill="#EBEBEB"/>
<path d="M120.367 113.047C120.611 113.769 120.193 114.476 119.435 114.626C118.676 114.777 117.864 114.313 117.621 113.592C117.377 112.87 117.795 112.163 118.553 112.013C119.312 111.863 120.124 112.325 120.367 113.047Z" fill="white"/>
<path d="M213.509 177.268C213.509 177.326 169.128 177.373 114.395 177.373C59.6434 177.373 15.2729 177.326 15.2729 177.268C15.2729 177.21 59.6434 177.163 114.395 177.163C169.128 177.163 213.509 177.21 213.509 177.268Z" fill="#263238"/>
<path d="M155.904 47.8203H168.89V33.1766H155.904V47.8203Z" fill="#EBEBEB"/>
<path d="M166.851 36.1245C166.851 36.1465 165.921 36.164 164.774 36.164C163.627 36.164 162.698 36.1461 162.698 36.1245C162.698 36.1028 163.627 36.085 164.774 36.085C165.921 36.085 166.851 36.1028 166.851 36.1245Z" fill="#263238"/>
<path d="M164.774 38.0464C164.774 38.0684 164.309 38.0859 163.736 38.0859C163.163 38.0859 162.698 38.068 162.698 38.0464C162.698 38.0247 163.163 38.0068 163.736 38.0068C164.309 38.0068 164.774 38.0247 164.774 38.0464Z" fill="#263238"/>
<path d="M159.779 38.603C159.779 38.625 159.314 38.6425 158.741 38.6425C158.167 38.6425 157.702 38.6247 157.702 38.603C157.702 38.5813 158.167 38.5635 158.741 38.5635C159.314 38.5635 159.779 38.5813 159.779 38.603Z" fill="#263238"/>
<path d="M160.847 39.4204C160.847 39.4424 160.143 39.4599 159.275 39.4599C158.406 39.4599 157.702 39.442 157.702 39.4204C157.702 39.3987 158.406 39.3809 159.275 39.3809C160.143 39.3809 160.847 39.3987 160.847 39.4204Z" fill="#263238"/>
<path d="M159.779 40.8139C159.779 40.836 159.314 40.8535 158.741 40.8535C158.167 40.8535 157.702 40.8356 157.702 40.8139C157.702 40.7919 158.167 40.7744 158.741 40.7744C159.314 40.7744 159.779 40.7923 159.779 40.8139Z" fill="#263238"/>
<path d="M160.847 41.6313C160.847 41.6534 160.143 41.6708 159.275 41.6708C158.406 41.6708 157.702 41.653 157.702 41.6313C157.702 41.6093 158.406 41.5918 159.275 41.5918C160.143 41.5914 160.847 41.6093 160.847 41.6313Z" fill="#263238"/>
<path d="M159.779 42.9233C159.779 42.9454 159.314 42.9628 158.741 42.9628C158.167 42.9628 157.702 42.945 157.702 42.9233C157.702 42.9017 158.167 42.8838 158.741 42.8838C159.314 42.8838 159.779 42.9017 159.779 42.9233Z" fill="#263238"/>
<path d="M160.847 43.7407C160.847 43.7627 160.143 43.7802 159.275 43.7802C158.406 43.7802 157.702 43.7624 157.702 43.7407C157.702 43.719 158.406 43.7012 159.275 43.7012C160.143 43.7012 160.847 43.719 160.847 43.7407Z" fill="#263238"/>
<path d="M167.43 39.4702C167.43 39.4918 166.371 39.5097 165.064 39.5097C163.757 39.5097 162.698 39.4918 162.698 39.4702C162.698 39.4481 163.757 39.4307 165.064 39.4307C166.371 39.4307 167.43 39.4485 167.43 39.4702Z" fill="#263238"/>
<path d="M164.573 40.893C164.573 40.9151 164.153 40.9326 163.635 40.9326C163.118 40.9326 162.698 40.9147 162.698 40.893C162.698 40.871 163.118 40.8535 163.635 40.8535C164.153 40.8535 164.573 40.8714 164.573 40.893Z" fill="#263238"/>
<path d="M167.43 42.3169C167.43 42.3389 166.371 42.3564 165.064 42.3564C163.757 42.3564 162.698 42.3385 162.698 42.3169C162.698 42.2952 163.757 42.2773 165.064 42.2773C166.371 42.2773 167.43 42.2948 167.43 42.3169Z" fill="#263238"/>
<path d="M167.43 43.7407C167.43 43.7627 166.371 43.7802 165.064 43.7802C163.757 43.7802 162.698 43.7624 162.698 43.7407C162.698 43.719 163.757 43.7012 165.064 43.7012C166.371 43.7012 167.43 43.719 167.43 43.7407Z" fill="#263238"/>
<path d="M167.183 45.2329C167.183 45.2549 166.123 45.2724 164.817 45.2724C163.51 45.2724 162.45 45.2545 162.45 45.2329C162.45 45.2112 163.51 45.1934 164.817 45.1934C166.123 45.1934 167.183 45.2108 167.183 45.2329Z" fill="#263238"/>
<path d="M161.172 37.5561C161.172 37.5561 161.166 37.4816 161.162 37.3494C161.159 37.1863 161.155 36.999 161.151 36.7813C161.145 36.2508 161.138 35.5729 161.129 34.779L161.171 34.8132C160.17 34.8148 159.014 34.8167 157.781 34.8186C157.769 34.8269 157.872 34.7437 157.828 34.7794V34.7802V34.7817V34.7847V34.7908V34.8026V34.8265V34.874V34.9687V35.1568C157.828 35.2818 157.828 35.4057 157.828 35.528C157.827 35.7727 157.827 36.0121 157.827 36.2458C157.825 36.7091 157.823 37.148 157.822 37.5557L157.78 37.5215C158.75 37.5283 159.578 37.5344 160.225 37.539C160.491 37.5424 160.72 37.5454 160.919 37.5477C161.081 37.5511 161.172 37.5561 161.172 37.5561C161.172 37.5561 161.093 37.561 160.936 37.5641C160.74 37.5667 160.515 37.5698 160.252 37.5728C159.598 37.5774 158.761 37.5834 157.781 37.5903L157.739 37.5907V37.5561C157.737 37.1483 157.736 36.7094 157.734 36.2462C157.734 36.0125 157.733 35.7731 157.733 35.5284C157.733 35.4057 157.733 35.2822 157.732 35.1571V34.969V34.8744V34.8269V34.803V34.7912V34.7851V34.7821V34.7806V34.7798C157.689 34.8148 157.791 34.7312 157.781 34.7399C159.015 34.7418 160.171 34.7437 161.172 34.7452H161.214L161.213 34.7794C161.205 35.582 161.198 36.2675 161.192 36.8033C161.188 37.018 161.184 37.2031 161.181 37.3638C161.178 37.4919 161.172 37.5561 161.172 37.5561Z" fill="#263238"/>
<path d="M161.171 36.027C161.167 36.032 161.104 36.0016 160.993 35.9431C160.836 35.856 160.683 35.7717 160.532 35.6885L160.578 35.6858C160.231 35.9602 159.896 36.2254 159.534 36.5115L159.509 36.5305L159.48 36.5533L159.448 36.5343C159.23 36.4055 159.021 36.282 158.814 36.1593L158.869 36.1574C158.613 36.331 158.359 36.5036 158.095 36.6829C157.903 36.8098 157.787 36.8809 157.781 36.8744C157.774 36.868 157.877 36.7851 158.059 36.6487C158.316 36.4618 158.563 36.282 158.811 36.1011L158.837 36.0821L158.866 36.0992C159.074 36.2205 159.284 36.3424 159.504 36.4697L159.443 36.4732L159.467 36.4542C159.835 36.1726 160.175 35.9119 160.527 35.6425L160.55 35.625L160.574 35.6398C160.719 35.7303 160.866 35.8218 161.017 35.9157C161.12 35.983 161.176 36.0225 161.171 36.027Z" fill="#263238"/>
<path d="M159.854 35.4286C159.836 35.4347 159.85 35.2926 159.671 35.1832C159.585 35.1319 159.448 35.1053 159.317 35.1467C159.188 35.1847 159.078 35.2975 159.079 35.4286C159.078 35.5597 159.188 35.6726 159.317 35.711C159.448 35.7524 159.585 35.7254 159.671 35.6745C159.85 35.5643 159.836 35.4222 159.854 35.4286C159.86 35.4191 159.91 35.5742 159.712 35.7186C159.617 35.7851 159.452 35.8265 159.287 35.7794C159.124 35.7368 158.981 35.5951 158.983 35.4286C158.981 35.2622 159.124 35.1208 159.287 35.0779C159.452 35.0308 159.617 35.0718 159.712 35.1387C159.91 35.2831 159.859 35.4381 159.854 35.4286Z" fill="#263238"/>
<path d="M57.4256 47.8203H70.4111V33.1766H57.4256V47.8203Z" fill="#EBEBEB"/>
<path d="M68.372 36.1245C68.372 36.1465 67.4422 36.164 66.2956 36.164C65.1486 36.164 64.2192 36.1461 64.2192 36.1245C64.2192 36.1028 65.1486 36.085 66.2956 36.085C67.4426 36.085 68.372 36.1028 68.372 36.1245Z" fill="#263238"/>
<path d="M66.2956 38.0464C66.2956 38.0684 65.8307 38.0859 65.2577 38.0859C64.6842 38.0859 64.2192 38.068 64.2192 38.0464C64.2192 38.0247 64.6842 38.0068 65.2577 38.0068C65.8307 38.0068 66.2956 38.0247 66.2956 38.0464Z" fill="#263238"/>
<path d="M61.3 38.603C61.3 38.625 60.8351 38.6425 60.2621 38.6425C59.6886 38.6425 59.2236 38.6247 59.2236 38.603C59.2236 38.5813 59.6886 38.5635 60.2621 38.5635C60.8351 38.5635 61.3 38.5813 61.3 38.603Z" fill="#263238"/>
<path d="M62.3681 39.4204C62.3681 39.4424 61.6642 39.4599 60.7956 39.4599C59.927 39.4599 59.2231 39.442 59.2231 39.4204C59.2231 39.3987 59.927 39.3809 60.7956 39.3809C61.6642 39.3809 62.3681 39.3987 62.3681 39.4204Z" fill="#263238"/>
<path d="M61.3 40.8139C61.3 40.836 60.8351 40.8535 60.2621 40.8535C59.6886 40.8535 59.2236 40.8356 59.2236 40.8139C59.2236 40.7919 59.6886 40.7744 60.2621 40.7744C60.8351 40.7744 61.3 40.7923 61.3 40.8139Z" fill="#263238"/>
<path d="M62.3681 41.6313C62.3681 41.6534 61.6642 41.6708 60.7956 41.6708C59.927 41.6708 59.2231 41.653 59.2231 41.6313C59.2231 41.6093 59.927 41.5918 60.7956 41.5918C61.6642 41.5914 62.3681 41.6093 62.3681 41.6313Z" fill="#263238"/>
<path d="M61.3 42.9233C61.3 42.9454 60.8351 42.9628 60.2621 42.9628C59.6886 42.9628 59.2236 42.945 59.2236 42.9233C59.2236 42.9017 59.6886 42.8838 60.2621 42.8838C60.8351 42.8838 61.3 42.9017 61.3 42.9233Z" fill="#263238"/>
<path d="M62.3681 43.7407C62.3681 43.7627 61.6642 43.7802 60.7956 43.7802C59.927 43.7802 59.2231 43.7624 59.2231 43.7407C59.2231 43.719 59.927 43.7012 60.7956 43.7012C61.6642 43.7012 62.3681 43.719 62.3681 43.7407Z" fill="#263238"/>
<path d="M68.9516 39.4702C68.9516 39.4918 67.8923 39.5097 66.5856 39.5097C65.2786 39.5097 64.2192 39.4918 64.2192 39.4702C64.2192 39.4481 65.2786 39.4307 66.5856 39.4307C67.8923 39.4307 68.9516 39.4485 68.9516 39.4702Z" fill="#263238"/>
<path d="M66.0947 40.893C66.0947 40.9151 65.6748 40.9326 65.157 40.9326C64.6392 40.9326 64.2192 40.9147 64.2192 40.893C64.2192 40.871 64.6392 40.8535 65.157 40.8535C65.6748 40.8535 66.0947 40.8714 66.0947 40.893Z" fill="#263238"/>
<path d="M68.9516 42.3169C68.9516 42.3389 67.8923 42.3564 66.5856 42.3564C65.2786 42.3564 64.2192 42.3385 64.2192 42.3169C64.2192 42.2952 65.2786 42.2773 66.5856 42.2773C67.8923 42.2773 68.9516 42.2948 68.9516 42.3169Z" fill="#263238"/>
<path d="M68.9516 43.7407C68.9516 43.7627 67.8923 43.7802 66.5856 43.7802C65.2786 43.7802 64.2192 43.7624 64.2192 43.7407C64.2192 43.719 65.2786 43.7012 66.5856 43.7012C67.8923 43.7012 68.9516 43.719 68.9516 43.7407Z" fill="#263238"/>
<path d="M68.704 45.2329C68.704 45.2549 67.6447 45.2724 66.3381 45.2724C65.031 45.2724 63.9717 45.2545 63.9717 45.2329C63.9717 45.2112 65.031 45.1934 66.3381 45.1934C67.6447 45.1934 68.704 45.2108 68.704 45.2329Z" fill="#263238"/>
<path d="M62.6935 37.5561C62.6935 37.5561 62.6875 37.4816 62.6838 37.3494C62.6805 37.1863 62.6768 36.999 62.6726 36.7813C62.6671 36.2508 62.6596 35.5729 62.6513 34.779L62.693 34.8132C61.6922 34.8148 60.5364 34.8167 59.3026 34.8186C59.2919 34.8269 59.394 34.7437 59.3509 34.7794V34.7802V34.7817V34.7847V34.7908V34.8026V34.8265V34.874V34.9687V35.1568C59.3509 35.2818 59.3504 35.4057 59.3504 35.528C59.3499 35.7727 59.3495 36.0121 59.349 36.2458C59.3471 36.7091 59.3458 37.148 59.3444 37.5557L59.3026 37.5215C60.2724 37.5283 61.1001 37.5344 61.7474 37.539C62.0133 37.5424 62.242 37.5454 62.4411 37.5477C62.6021 37.5511 62.6935 37.5561 62.6935 37.5561C62.6935 37.5561 62.6151 37.561 62.4583 37.5641C62.262 37.5667 62.0365 37.5698 61.7743 37.5728C61.1196 37.5774 60.283 37.5834 59.3026 37.5903L59.2608 37.5907V37.5561C59.2594 37.1483 59.2576 36.7094 59.2562 36.2462C59.2557 36.0125 59.2553 35.7731 59.2548 35.5284C59.2548 35.4057 59.2548 35.2822 59.2543 35.1571V34.969V34.8744V34.8269V34.803V34.7912V34.7851V34.7821V34.7806V34.7798C59.2112 34.8148 59.3133 34.7312 59.3031 34.7399C60.5368 34.7418 61.6927 34.7437 62.6935 34.7452H62.7357L62.7353 34.7794C62.7269 35.582 62.7195 36.2675 62.7139 36.8033C62.7097 37.018 62.706 37.2031 62.7028 37.3638C62.6995 37.4919 62.6935 37.5561 62.6935 37.5561Z" fill="#263238"/>
<path d="M62.6934 36.027C62.6893 36.032 62.6257 36.0016 62.5152 35.9431C62.358 35.856 62.2048 35.7717 62.0536 35.6885L62.0995 35.6858C61.7529 35.9602 61.4179 36.2254 61.056 36.5115L61.0314 36.5305L61.0021 36.5533L60.9697 36.5343C60.752 36.4055 60.5432 36.282 60.3358 36.1593L60.3911 36.1574C60.1354 36.331 59.8811 36.5036 59.6166 36.6829C59.4245 36.8098 59.3085 36.8809 59.302 36.8744C59.2956 36.868 59.3986 36.7851 59.5809 36.6487C59.837 36.4618 60.0844 36.282 60.3321 36.1011L60.3581 36.0821L60.3873 36.0992C60.5961 36.2205 60.8059 36.3424 61.0253 36.4697L60.9641 36.4732L60.9887 36.4542C61.3566 36.1726 61.6968 35.9119 62.0489 35.6425L62.0717 35.625L62.0953 35.6398C62.2406 35.7303 62.3872 35.8218 62.538 35.9157C62.6419 35.983 62.6976 36.0225 62.6934 36.027Z" fill="#263238"/>
<path d="M61.3753 35.4286C61.3572 35.4347 61.3716 35.2926 61.192 35.1832C61.1062 35.1319 60.9693 35.1053 60.8389 35.1467C60.7095 35.1847 60.5995 35.2975 60.6009 35.4286C60.5995 35.5597 60.7095 35.6726 60.8389 35.711C60.9693 35.7524 61.1062 35.7254 61.192 35.6745C61.3716 35.5643 61.3572 35.4222 61.3753 35.4286C61.3809 35.4191 61.4319 35.5742 61.2333 35.7186C61.1382 35.7851 60.9726 35.8265 60.8083 35.7794C60.6454 35.7368 60.5021 35.5951 60.5039 35.4286C60.5021 35.2622 60.6454 35.1208 60.8083 35.0779C60.9726 35.0308 61.1378 35.0718 61.2333 35.1387C61.4319 35.2831 61.3809 35.4381 61.3753 35.4286Z" fill="#263238"/>
<path d="M101.942 18.1143H100.634V19.1855H101.942V18.1143Z" fill="#E8505B"/>
<path d="M101.942 33.9229H100.634V34.9941H101.942V33.9229Z" fill="#E8505B"/>
<path d="M128.772 33.9229H127.464V34.9941H128.772V33.9229Z" fill="#E8505B"/>
<path d="M101.942 49.4707H100.634V50.5419H101.942V49.4707Z" fill="#E8505B"/>
<path d="M115.079 18.1143H113.771V19.1855H115.079V18.1143Z" fill="#E8505B"/>
<path d="M115.079 49.7314H113.771V50.8027H115.079V49.7314Z" fill="#E8505B"/>
<path d="M128.772 18.1143H127.464V19.1855H128.772V18.1143Z" fill="#E8505B"/>
<path d="M128.772 49.7314H127.464V50.8027H128.772V49.7314Z" fill="#E8505B"/>
<path d="M128.209 50.0737C128.209 50.0737 128.205 50.0198 128.202 49.9183C128.201 49.8115 128.199 49.6633 128.196 49.4703C128.193 49.0713 128.188 48.4914 128.182 47.739C128.175 46.2243 128.166 44.0207 128.153 41.2349C128.139 35.6653 128.121 27.7731 128.098 18.4566L128.208 18.5467C120.071 18.5493 110.967 18.5524 101.381 18.5554H101.378L101.499 18.4566C101.49 30.3274 101.482 41.2942 101.475 50.0741L101.378 49.9943C109.521 50.0118 116.216 50.0262 120.884 50.0361C123.217 50.0449 125.041 50.0517 126.292 50.0566C126.91 50.0604 127.386 50.0635 127.715 50.0654C128.038 50.068 128.209 50.0737 128.209 50.0737C128.209 50.0737 128.051 50.0794 127.735 50.0825C127.411 50.0844 126.942 50.0874 126.331 50.0916C125.086 50.0962 123.268 50.1034 120.944 50.1121C116.263 50.122 109.547 50.1364 101.378 50.1539L101.281 50.1543V50.0741C101.274 41.2946 101.266 30.3274 101.257 18.4566V18.3574H101.378H101.382C110.967 18.3605 120.071 18.3635 128.209 18.3662H128.319V18.4566C128.297 27.797 128.278 35.7097 128.265 41.2938C128.252 44.0709 128.242 46.2677 128.235 47.7778C128.23 48.5226 128.225 49.0964 128.222 49.4912C128.219 49.6801 128.217 49.8248 128.215 49.9293C128.213 50.0266 128.209 50.0737 128.209 50.0737Z" fill="#E8505B"/>
<path d="M127.104 19.9072H102.429V48.9578H127.104V19.9072Z" fill="#E0E0E0"/>
<path d="M117.652 28.7502C117.652 28.8049 116.698 28.849 115.521 28.849C114.344 28.849 113.39 28.8045 113.39 28.7502C113.39 28.6954 114.344 28.6514 115.521 28.6514C116.698 28.651 117.652 28.6954 117.652 28.7502Z" fill="#263238"/>
<path d="M111.054 29.1838C111.054 29.2385 109.714 29.2826 108.062 29.2826C106.408 29.2826 105.069 29.2381 105.069 29.1838C105.069 29.1294 106.408 29.085 108.062 29.085C109.714 29.0846 111.054 29.129 111.054 29.1838Z" fill="#263238"/>
<path d="M111.054 30.467C111.054 30.5217 109.714 30.5658 108.062 30.5658C106.408 30.5658 105.069 30.5213 105.069 30.467C105.069 30.4122 106.408 30.3682 108.062 30.3682C109.714 30.3682 111.054 30.4122 111.054 30.467Z" fill="#263238"/>
<path d="M111.054 31.7502C111.054 31.8049 109.714 31.8493 108.062 31.8493C106.408 31.8493 105.069 31.8049 105.069 31.7502C105.069 31.6954 106.408 31.6514 108.062 31.6514C109.714 31.6514 111.054 31.6958 111.054 31.7502Z" fill="#263238"/>
<path d="M111.054 33.0344C111.054 33.0891 109.714 33.1332 108.062 33.1332C106.408 33.1332 105.069 33.0887 105.069 33.0344C105.069 32.9796 106.408 32.9355 108.062 32.9355C109.714 32.9352 111.054 32.9796 111.054 33.0344Z" fill="#263238"/>
<path d="M111.054 34.3176C111.054 34.3723 109.714 34.4164 108.062 34.4164C106.408 34.4164 105.069 34.3719 105.069 34.3176C105.069 34.2632 106.408 34.2188 108.062 34.2188C109.714 34.2188 111.054 34.2628 111.054 34.3176Z" fill="#263238"/>
<path d="M111.054 36.6301C111.054 36.6848 109.714 36.7289 108.062 36.7289C106.408 36.7289 105.069 36.6844 105.069 36.6301C105.069 36.5757 106.408 36.5313 108.062 36.5313C109.714 36.5309 111.054 36.5753 111.054 36.6301Z" fill="#263238"/>
<path d="M111.054 37.9133C111.054 37.968 109.714 38.0121 108.062 38.0121C106.408 38.0121 105.069 37.9676 105.069 37.9133C105.069 37.8585 106.408 37.8145 108.062 37.8145C109.714 37.8141 111.054 37.8585 111.054 37.9133Z" fill="#263238"/>
<path d="M111.054 39.1965C111.054 39.2512 109.714 39.2953 108.062 39.2953C106.408 39.2953 105.069 39.2508 105.069 39.1965C105.069 39.1417 106.408 39.0977 108.062 39.0977C109.714 39.0977 111.054 39.1421 111.054 39.1965Z" fill="#263238"/>
<path d="M108.396 40.4806C108.396 40.5354 107.651 40.5794 106.732 40.5794C105.814 40.5794 105.069 40.535 105.069 40.4806C105.069 40.4259 105.814 40.3818 106.732 40.3818C107.651 40.3815 108.396 40.4259 108.396 40.4806Z" fill="#263238"/>
<path d="M123.006 30.8332C123.006 30.8879 120.853 30.932 118.198 30.932C115.542 30.932 113.39 30.8875 113.39 30.8332C113.39 30.7785 115.543 30.7344 118.198 30.7344C120.853 30.734 123.006 30.7785 123.006 30.8332Z" fill="#263238"/>
<path d="M123.143 32.0851C123.143 32.1398 120.99 32.1839 118.335 32.1839C115.679 32.1839 113.527 32.1395 113.527 32.0851C113.527 32.0304 115.68 31.9863 118.335 31.9863C120.99 31.9863 123.143 32.0304 123.143 32.0851Z" fill="#263238"/>
<path d="M117.652 34.9445C117.652 34.9992 116.698 35.0433 115.521 35.0433C114.344 35.0433 113.39 34.9988 113.39 34.9445C113.39 34.8902 114.344 34.8457 115.521 34.8457C116.698 34.8457 117.652 34.8898 117.652 34.9445Z" fill="#263238"/>
<path d="M123.006 37.0285C123.006 37.0832 120.853 37.1273 118.198 37.1273C115.542 37.1273 113.39 37.0828 113.39 37.0285C113.39 36.9741 115.543 36.9297 118.198 36.9297C120.853 36.9297 123.006 36.9738 123.006 37.0285Z" fill="#263238"/>
<path d="M123.143 38.2804C123.143 38.3352 120.99 38.3792 118.335 38.3792C115.679 38.3792 113.527 38.3348 113.527 38.2804C113.527 38.2257 115.68 38.1816 118.335 38.1816C120.99 38.1816 123.143 38.2257 123.143 38.2804Z" fill="#263238"/>
<path d="M117.652 41.382C117.652 41.4367 116.698 41.4808 115.521 41.4808C114.344 41.4808 113.39 41.4363 113.39 41.382C113.39 41.3273 114.344 41.2832 115.521 41.2832C116.698 41.2828 117.652 41.3273 117.652 41.382Z" fill="#263238"/>
<path d="M123.006 43.465C123.006 43.5197 120.853 43.5638 118.198 43.5638C115.542 43.5638 113.39 43.5194 113.39 43.465C113.39 43.4103 115.543 43.3662 118.198 43.3662C120.853 43.3658 123.006 43.4103 123.006 43.465Z" fill="#263238"/>
<path d="M123.143 44.717C123.143 44.7717 120.99 44.8158 118.335 44.8158C115.679 44.8158 113.527 44.7713 113.527 44.717C113.527 44.6622 115.68 44.6182 118.335 44.6182C120.99 44.6182 123.143 44.6626 123.143 44.717Z" fill="#263238"/>
<path d="M111.233 27.2789C111.226 27.2725 111.218 27.1364 111.209 26.8875C111.202 26.6158 111.193 26.2609 111.182 25.8224C111.168 24.8914 111.15 23.61 111.129 22.0828L111.233 22.1683C109.381 22.1721 107.208 22.1767 104.889 22.1816C104.862 22.2029 105.117 21.9946 105.009 22.0836V22.0851V22.0877V22.0934V22.1045V22.1269V22.1713V22.2603V22.4377L105.009 22.79C105.008 23.0237 105.008 23.2555 105.008 23.4846C105.007 23.9429 105.006 24.3913 105.005 24.8279C105.001 25.6989 104.996 26.5216 104.993 27.2789L104.888 27.1934C106.753 27.2113 108.318 27.2261 109.454 27.2371C109.99 27.2462 110.424 27.2538 110.755 27.2595C111.059 27.266 111.226 27.2725 111.233 27.2789C111.241 27.2854 111.09 27.2915 110.799 27.2987C110.473 27.3044 110.047 27.312 109.521 27.3211C108.368 27.3321 106.78 27.3469 104.888 27.3648L104.784 27.3659L104.784 27.2793C104.78 26.522 104.776 25.6993 104.772 24.8283C104.771 24.3917 104.769 23.9433 104.769 23.485C104.768 23.2559 104.768 23.0241 104.768 22.7904V22.4381V22.2606V22.1717V22.1273V22.1048V22.0938V22.0881V22.0855V22.0839C104.659 22.1717 104.914 21.9623 104.889 21.984C107.208 21.9889 109.381 21.9935 111.233 21.9973H111.339L111.337 22.0828C111.316 23.6321 111.297 24.9324 111.284 25.8767C111.273 26.3073 111.264 26.6561 111.257 26.9229C111.249 27.1615 111.241 27.2854 111.233 27.2789Z" fill="#263238"/>
<path d="M124.332 24.2902C124.332 24.3449 122.055 24.389 119.248 24.389C116.439 24.389 114.163 24.3445 114.163 24.2902C114.163 24.2355 116.439 24.1914 119.248 24.1914C122.055 24.1914 124.332 24.2355 124.332 24.2902Z" fill="#263238"/>
<path d="M119.358 25.4884C119.358 25.5432 118.22 25.5872 116.816 25.5872C115.412 25.5872 114.273 25.5428 114.273 25.4884C114.273 25.4341 115.412 25.3896 116.816 25.3896C118.22 25.3896 119.358 25.4337 119.358 25.4884Z" fill="#263238"/>
<path d="M115.743 23.229C115.75 23.2499 115.59 23.3422 115.263 23.397C115.102 23.4209 114.873 23.416 114.669 23.3096C114.469 23.2081 114.299 23.0208 114.269 22.7912C114.24 22.5629 114.351 22.352 114.511 22.2133C114.673 22.0704 114.883 22.0077 115.051 21.9936C115.399 21.9685 115.577 22.0905 115.56 22.1076C115.548 22.1373 115.359 22.0765 115.08 22.1316C114.943 22.1601 114.79 22.2216 114.677 22.3345C114.563 22.4454 114.488 22.6077 114.509 22.7703C114.53 22.9315 114.648 23.0755 114.791 23.1576C114.934 23.2423 115.1 23.2617 115.245 23.2579C115.538 23.2438 115.734 23.1978 115.743 23.229Z" fill="#263238"/>
<path d="M117.481 21.9345C117.54 21.9599 117.252 22.5394 116.838 23.228L116.835 23.2325L116.732 23.4032L116.619 23.2451C116.143 22.5801 115.804 22.0196 115.862 21.9922C115.919 21.9645 116.351 22.4801 116.827 23.1451L116.612 23.1573L116.614 23.1527C117.034 22.4539 117.422 21.909 117.481 21.9345Z" fill="#263238"/>
<path d="M111.031 27.2788C111.011 27.2887 110.843 27.0094 110.388 26.6917C109.954 26.3626 109.185 26.051 108.279 26.0214C107.369 25.9864 106.608 26.3444 106.18 26.6689C105.741 26.998 105.577 27.2814 105.553 27.2685C105.547 27.2659 105.577 27.1921 105.664 27.0721C105.75 26.9527 105.89 26.7833 106.109 26.6077C106.53 26.2574 107.326 25.8659 108.284 25.9028C109.228 25.9317 110.029 26.2748 110.458 26.6294C110.68 26.8007 110.832 26.963 110.921 27.0823C111.008 27.2016 111.038 27.2761 111.031 27.2788Z" fill="#263238"/>
<path d="M107.525 23.0269C107.525 23.0269 107.637 22.9422 107.901 22.9038C108.156 22.867 108.573 22.8962 108.959 23.136C109.344 23.3735 109.615 23.8329 109.617 24.3474C109.619 24.6032 109.57 24.8779 109.412 25.1337C109.261 25.3917 108.952 25.6026 108.592 25.6763C108.236 25.758 107.855 25.7257 107.54 25.6075C107.223 25.489 106.969 25.294 106.806 25.0706C106.64 24.8487 106.567 24.5952 106.578 24.3668C106.582 24.1411 106.615 23.9294 106.686 23.744C106.823 23.3667 107.13 23.1333 107.364 23.0402C107.601 22.9441 107.749 22.9392 107.749 22.9392C107.753 22.9509 107.611 22.976 107.392 23.0805C107.175 23.1835 106.902 23.4081 106.785 23.7679C106.686 24.1172 106.602 24.602 106.92 25.0136C107.216 25.4236 107.893 25.7189 108.554 25.5615C108.881 25.4928 109.146 25.3126 109.287 25.0797C109.432 24.849 109.483 24.5895 109.484 24.3478C109.489 23.861 109.244 23.4294 108.896 23.2017C108.545 22.9703 108.154 22.9278 107.908 22.9498C107.656 22.9718 107.531 23.0383 107.525 23.0269Z" fill="#263238"/>
<path d="M108.829 23.9883C108.869 23.9891 108.901 24.0206 108.9 24.0586C108.899 24.097 108.865 24.1274 108.825 24.1266C108.786 24.1259 108.754 24.0943 108.755 24.0563C108.756 24.0179 108.789 23.9875 108.829 23.9883Z" fill="#263238"/>
<path d="M107.416 24.1524C107.456 24.1531 107.488 24.1847 107.487 24.2227C107.486 24.261 107.452 24.2914 107.412 24.2907C107.372 24.2899 107.34 24.2584 107.342 24.2204C107.343 24.182 107.376 24.1516 107.416 24.1524Z" fill="#263238"/>
<path d="M106.662 23.8226C106.663 23.8055 106.808 23.7998 107.038 23.7956C107.268 23.7895 107.586 23.7872 107.917 23.7154C108.25 23.6444 108.522 23.5178 108.647 23.3696C108.775 23.2241 108.801 23.1032 108.825 23.1086C108.839 23.1089 108.853 23.237 108.732 23.416C108.613 23.5991 108.304 23.7576 107.954 23.8302C107.598 23.9073 107.266 23.8948 107.035 23.8796C106.802 23.8621 106.661 23.8382 106.662 23.8226Z" fill="#263238"/>
<path d="M106.666 24.7523C106.667 24.7675 106.617 24.7884 106.527 24.7793C106.444 24.774 106.295 24.7121 106.266 24.5798C106.252 24.5171 106.271 24.4491 106.322 24.4039C106.373 24.359 106.437 24.345 106.487 24.3457C106.595 24.3492 106.626 24.41 106.61 24.4168C106.595 24.4286 106.553 24.4122 106.498 24.429C106.44 24.4449 106.393 24.4882 106.409 24.5582C106.443 24.7037 106.676 24.7204 106.666 24.7523Z" fill="#263238"/>
<path d="M109.611 24.6343C109.605 24.6096 109.74 24.5401 109.713 24.4314C109.679 24.3239 109.52 24.3098 109.513 24.2855C109.506 24.2718 109.545 24.2407 109.626 24.2445C109.701 24.2471 109.819 24.2946 109.854 24.4048C109.882 24.5162 109.801 24.6013 109.735 24.6309C109.665 24.6632 109.613 24.6492 109.611 24.6343Z" fill="#263238"/>
<path d="M108.72 24.7847C108.736 24.7915 108.722 24.8504 108.647 24.9223C108.575 24.9929 108.432 25.0708 108.251 25.0815C108.069 25.0914 107.915 25.0298 107.831 24.9679C107.745 24.9052 107.722 24.8485 107.737 24.8398C107.764 24.817 107.951 24.9789 108.241 24.9629C108.53 24.9462 108.689 24.7649 108.72 24.7847Z" fill="#263238"/>
<path d="M108.247 24.7025C108.234 24.6793 108.398 24.6227 108.445 24.4654L108.517 24.5361C108.433 24.5467 108.339 24.5194 108.273 24.4715C108.113 24.3586 108.117 24.1933 108.134 24.1082C108.154 24.0159 108.183 23.9649 108.202 23.9668C108.223 23.9687 108.229 24.0265 108.237 24.112C108.246 24.1964 108.263 24.3111 108.367 24.3818C108.411 24.4126 108.46 24.4274 108.504 24.4259L108.61 24.4217L108.576 24.4962C108.474 24.7162 108.241 24.7276 108.247 24.7025Z" fill="#263238"/>
<path d="M107.902 25.9763C107.862 25.9785 107.824 25.9071 107.817 25.8167C107.81 25.7262 107.836 25.6517 107.876 25.6495C107.916 25.6472 107.954 25.7186 107.961 25.8091C107.969 25.8991 107.942 25.974 107.902 25.9763Z" fill="#263238"/>
<path d="M108.619 25.9304C108.579 25.9326 108.541 25.8612 108.533 25.7708C108.526 25.6807 108.553 25.6058 108.593 25.6036C108.633 25.6013 108.671 25.6727 108.678 25.7632C108.685 25.8536 108.659 25.9285 108.619 25.9304Z" fill="#263238"/>
<path d="M150.211 29.1318H134.407V47.7382H150.211V29.1318Z" fill="#EBEBEB"/>
<path d="M144.12 34.8337C144.12 34.8664 143.509 34.893 142.755 34.893C142.001 34.893 141.39 34.8664 141.39 34.8337C141.39 34.801 142.001 34.7744 142.755 34.7744C143.509 34.7744 144.12 34.801 144.12 34.8337Z" fill="#263238"/>
<path d="M139.791 35.3034C139.791 35.3361 138.933 35.3627 137.874 35.3627C136.815 35.3627 135.958 35.3361 135.958 35.3034C135.958 35.2707 136.815 35.2441 137.874 35.2441C138.933 35.2441 139.791 35.2707 139.791 35.3034Z" fill="#263238"/>
<path d="M139.791 36.1257C139.791 36.1584 138.933 36.185 137.874 36.185C136.815 36.185 135.958 36.1584 135.958 36.1257C135.958 36.093 136.815 36.0664 137.874 36.0664C138.933 36.0664 139.791 36.093 139.791 36.1257Z" fill="#263238"/>
<path d="M139.791 36.948C139.791 36.9806 138.933 37.0072 137.874 37.0072C136.815 37.0072 135.958 36.9806 135.958 36.948C135.958 36.9153 136.815 36.8887 137.874 36.8887C138.933 36.8883 139.791 36.9149 139.791 36.948Z" fill="#263238"/>
<path d="M138.089 37.7692C138.089 37.8019 137.612 37.8285 137.023 37.8285C136.435 37.8285 135.958 37.8019 135.958 37.7692C135.958 37.7366 136.435 37.71 137.023 37.71C137.612 37.71 138.089 37.7362 138.089 37.7692Z" fill="#263238"/>
<path d="M147.549 36.1677C147.549 36.2004 146.17 36.227 144.47 36.227C142.769 36.227 141.39 36.2004 141.39 36.1677C141.39 36.135 142.769 36.1084 144.47 36.1084C146.17 36.1084 147.549 36.135 147.549 36.1677Z" fill="#263238"/>
<path d="M147.636 36.9694C147.636 37.0021 146.257 37.0287 144.557 37.0287C142.856 37.0287 141.478 37.0021 141.478 36.9694C141.478 36.9368 142.856 36.9102 144.557 36.9102C146.257 36.9102 147.636 36.9368 147.636 36.9694Z" fill="#263238"/>
<path d="M144.12 38.8015C144.12 38.8341 143.509 38.8607 142.755 38.8607C142.001 38.8607 141.39 38.8341 141.39 38.8015C141.39 38.7688 142.001 38.7422 142.755 38.7422C143.509 38.7422 144.12 38.7688 144.12 38.8015Z" fill="#263238"/>
<path d="M147.549 40.1355C147.549 40.1681 146.17 40.1947 144.47 40.1947C142.769 40.1947 141.39 40.1681 141.39 40.1355C141.39 40.1028 142.769 40.0762 144.47 40.0762C146.17 40.0762 147.549 40.1028 147.549 40.1355Z" fill="#263238"/>
<path d="M147.636 40.9372C147.636 40.9699 146.257 40.9965 144.557 40.9965C142.856 40.9965 141.478 40.9699 141.478 40.9372C141.478 40.9045 142.856 40.8779 144.557 40.8779C146.257 40.8776 147.636 40.9042 147.636 40.9372Z" fill="#263238"/>
<path d="M144.12 42.9235C144.12 42.9562 143.509 42.9828 142.755 42.9828C142.001 42.9828 141.39 42.9562 141.39 42.9235C141.39 42.8909 142.001 42.8643 142.755 42.8643C143.509 42.8643 144.12 42.8909 144.12 42.9235Z" fill="#263238"/>
<path d="M147.549 44.2585C147.549 44.2912 146.17 44.3178 144.47 44.3178C142.769 44.3178 141.39 44.2912 141.39 44.2585C141.39 44.2258 142.769 44.1992 144.47 44.1992C146.17 44.1992 147.549 44.2258 147.549 44.2585Z" fill="#263238"/>
<path d="M147.636 45.0603C147.636 45.0929 146.257 45.1195 144.557 45.1195C142.856 45.1195 141.478 45.0929 141.478 45.0603C141.478 45.0276 142.856 45.001 144.557 45.001C146.257 45.001 147.636 45.0276 147.636 45.0603Z" fill="#263238"/>
<path d="M148.398 32.7468C148.398 32.7795 146.94 32.8061 145.142 32.8061C143.343 32.8061 141.885 32.7795 141.885 32.7468C141.885 32.7141 143.343 32.6875 145.142 32.6875C146.94 32.6875 148.398 32.7141 148.398 32.7468Z" fill="#263238"/>
<path d="M145.212 33.5144C145.212 33.547 144.483 33.5736 143.584 33.5736C142.684 33.5736 141.955 33.547 141.955 33.5144C141.955 33.4817 142.684 33.4551 143.584 33.4551C144.483 33.4551 145.212 33.4817 145.212 33.5144Z" fill="#263238"/>
<path d="M142.897 32.0672C142.901 32.0794 142.798 32.1375 142.589 32.1721C142.487 32.1869 142.341 32.1835 142.211 32.1159C142.084 32.0513 141.977 31.932 141.958 31.7864C141.921 31.4847 142.24 31.2822 142.455 31.2787C142.676 31.262 142.791 31.3388 142.78 31.349C142.773 31.3673 142.652 31.3266 142.472 31.3616C142.296 31.3855 142.076 31.5516 142.102 31.7739C142.115 31.8784 142.193 31.9715 142.285 32.0247C142.378 32.0794 142.486 32.0916 142.579 32.0885C142.766 32.0786 142.891 32.0482 142.897 32.0672Z" fill="#263238"/>
<path d="M144.01 31.2378C144.046 31.253 143.859 31.6235 143.594 32.0647L143.592 32.0677L143.53 32.1699L143.462 32.0749C143.158 31.6489 142.939 31.291 142.973 31.2746C143.008 31.2579 143.282 31.5893 143.588 32.0149L143.458 32.0221L143.46 32.0191C143.728 31.5726 143.975 31.2226 144.01 31.2378Z" fill="#263238"/>
<path d="M140.12 33.8912C140.116 33.8874 140.111 33.8004 140.106 33.6411C140.101 33.4527 140.096 33.2273 140.09 32.959C140.082 32.3396 140.071 31.5245 140.058 30.5628L140.12 30.6141C138.927 30.6163 137.538 30.619 136.057 30.622C136.041 30.635 136.194 30.5099 136.129 30.5631V30.5639V30.5658V30.5692V30.5764V30.5905V30.619V30.676V30.7896V31.0153C136.129 31.1651 136.129 31.3133 136.129 31.4603C136.128 31.7537 136.127 32.041 136.127 32.3206C136.125 32.877 136.122 33.4033 136.119 33.8904L136.057 33.8391C137.231 33.8498 138.226 33.8585 138.983 33.8653C139.31 33.8707 139.585 33.8752 139.815 33.8786C140.01 33.8836 140.115 33.8874 140.12 33.8912C140.125 33.895 140.028 33.8988 139.841 33.903C139.615 33.9068 139.345 33.9109 139.023 33.9163C138.256 33.9231 137.247 33.9318 136.057 33.9425L135.994 33.9429V33.8908C135.992 33.4036 135.99 32.8773 135.987 32.321C135.986 32.0413 135.985 31.7541 135.985 31.4607C135.985 31.314 135.984 31.1654 135.984 31.0157V30.79V30.6764V30.6194V30.5909V30.5768V30.5696V30.5666V30.5647V30.5639C135.919 30.6167 136.073 30.4909 136.057 30.5039C137.538 30.5069 138.927 30.5096 140.12 30.5118H140.184L140.184 30.5631C140.171 31.5378 140.16 32.364 140.152 32.9921C140.145 33.2558 140.14 33.4774 140.135 33.6624C140.13 33.8156 140.125 33.895 140.12 33.8912Z" fill="#263238"/>
<path d="M137.702 31.3107C137.702 31.3107 137.774 31.256 137.942 31.2313C138.106 31.2074 138.374 31.226 138.621 31.3799C138.868 31.5323 139.042 31.8268 139.043 32.1566C139.045 32.3208 139.013 32.4967 138.912 32.6609C138.815 32.8265 138.616 32.9618 138.386 33.0093C137.917 33.1207 137.439 32.9082 137.239 32.6206C137.133 32.4781 137.086 32.3154 137.094 32.1691C137.096 32.0244 137.117 31.8887 137.163 31.7701C137.251 31.5285 137.448 31.3787 137.598 31.3191C137.75 31.2575 137.845 31.2549 137.845 31.2549C137.848 31.2625 137.756 31.2788 137.616 31.3461C137.478 31.4122 137.304 31.5558 137.229 31.7861C137.166 32.0095 137.113 32.32 137.315 32.583C137.505 32.8452 137.937 33.0336 138.36 32.9333C138.802 32.8486 138.963 32.4583 138.955 32.1574C138.958 31.8458 138.802 31.5699 138.579 31.424C138.355 31.2758 138.104 31.2484 137.947 31.2621C137.786 31.2761 137.706 31.3183 137.702 31.3107Z" fill="#263238"/>
<path d="M138.984 32.3534C138.979 32.3386 139.127 32.296 139.12 32.1809C139.099 32.0665 138.944 32.0486 138.946 32.0334C138.942 32.0243 138.981 32.0042 139.048 32.0167C139.111 32.0273 139.202 32.0794 139.216 32.1733C139.224 32.2675 139.148 32.3332 139.088 32.3538C139.026 32.3762 138.984 32.3629 138.984 32.3534Z" fill="#263238"/>
<path d="M137.135 32.1655C137.144 32.1788 137.01 32.2461 137.047 32.3578C137.096 32.4661 137.253 32.457 137.255 32.4722C137.261 32.4806 137.228 32.5068 137.16 32.5064C137.095 32.5068 136.992 32.4714 136.955 32.3821C136.922 32.2917 136.98 32.2142 137.033 32.1838C137.088 32.1503 137.133 32.156 137.135 32.1655Z" fill="#263238"/>
<path d="M138.534 32.3963C138.565 32.3963 138.469 32.6053 138.172 32.6407C137.873 32.6665 137.718 32.4833 137.747 32.4773C137.763 32.4602 137.923 32.5859 138.16 32.5624C138.397 32.5373 138.514 32.383 138.534 32.3963Z" fill="#263238"/>
<path d="M138.72 31.6084C138.724 31.6164 138.652 31.6635 138.508 31.7087C138.436 31.7289 138.339 31.7486 138.231 31.7254C138.129 31.7045 138.005 31.6396 137.982 31.5218L138.064 31.5434L138.053 31.5525C137.879 31.6947 137.658 31.7524 137.503 31.7612C137.346 31.771 137.253 31.7425 137.255 31.7338C137.248 31.7114 137.661 31.7585 137.984 31.4967L137.994 31.4883L138.063 31.4336L138.077 31.5104C138.089 31.5826 138.173 31.6358 138.255 31.6555C138.337 31.6772 138.421 31.6677 138.489 31.6551C138.627 31.627 138.714 31.597 138.72 31.6084Z" fill="#263238"/>
<path d="M139.59 33.8911C139.573 33.9003 139.481 33.7498 139.237 33.5852C138.999 33.4177 138.578 33.2748 138.094 33.2896C137.612 33.2976 137.194 33.4469 136.958 33.6156C136.716 33.7828 136.634 33.9379 136.618 33.9295C136.613 33.9272 136.629 33.8885 136.672 33.822C136.716 33.7566 136.793 33.6662 136.913 33.5734C137.148 33.385 137.587 33.2182 138.092 33.2102C138.597 33.1935 139.045 33.3557 139.282 33.5423C139.404 33.6327 139.482 33.722 139.529 33.7859C139.577 33.8501 139.594 33.8889 139.59 33.8911Z" fill="#263238"/>
<path d="M138.114 32.3533C138.106 32.3397 138.154 32.3104 138.194 32.2545L138.196 32.2967C138.162 32.2694 138.127 32.2329 138.099 32.1896C138.013 32.0581 138.031 31.9331 138.057 31.9346C138.085 31.9334 138.11 32.0398 138.184 32.1523C138.209 32.1903 138.236 32.2241 138.259 32.2526L138.28 32.2777L138.261 32.2948C138.191 32.3583 138.12 32.3655 138.114 32.3533Z" fill="#263238"/>
<path d="M138.664 32.0587C138.643 32.0705 138.589 32.0454 138.533 32.053C138.476 32.058 138.432 32.0941 138.408 32.0872C138.379 32.0857 138.397 31.9922 138.52 31.9744C138.644 31.9649 138.691 32.0511 138.664 32.0587Z" fill="#263238"/>
<path d="M137.705 32.1345C137.688 32.152 137.635 32.1414 137.575 32.1425C137.515 32.1414 137.463 32.1524 137.445 32.1349C137.427 32.1193 137.479 32.0635 137.575 32.0635C137.671 32.0635 137.724 32.119 137.705 32.1345Z" fill="#263238"/>
<path d="M137.446 33.3487C137.447 33.354 137.394 33.3742 137.301 33.4183C137.253 33.4392 137.195 33.4684 137.113 33.4829C137.031 33.4992 136.928 33.4775 136.844 33.4297C136.759 33.3822 136.679 33.3069 136.651 33.2047C136.635 33.1545 136.641 33.0956 136.664 33.0447C136.686 32.993 136.698 32.9649 136.67 32.9277C136.594 32.8555 136.53 32.7042 136.607 32.5864C136.679 32.4679 136.819 32.4082 136.835 32.3049C136.857 32.2019 136.811 32.0791 136.821 31.9602C136.825 31.842 136.855 31.7284 136.906 31.6277C137.006 31.424 137.201 31.2815 137.388 31.2226C137.778 31.0995 138.025 31.2435 138.008 31.2439C138.01 31.2606 137.767 31.1462 137.415 31.2739C137.246 31.3351 137.077 31.4666 136.989 31.6551C136.944 31.7482 136.918 31.853 136.916 31.9621C136.905 32.0708 136.956 32.1817 136.93 32.3197C136.896 32.4667 136.737 32.5325 136.692 32.6199C136.64 32.7137 136.667 32.8038 136.749 32.8927C136.795 32.9482 136.767 33.031 136.744 33.0683C136.725 33.1101 136.72 33.1507 136.73 33.1918C136.749 33.2731 136.814 33.3411 136.885 33.3841C137.033 33.4855 137.19 33.4259 137.285 33.3905C137.383 33.3548 137.444 33.3438 137.446 33.3487Z" fill="#263238"/>
<path d="M138.999 33.4317C139.001 33.4248 139.059 33.4381 139.16 33.4461C139.261 33.4647 139.4 33.3994 139.447 33.2565C139.474 33.185 139.46 33.1178 139.43 33.0235C139.414 32.9753 139.433 32.9095 139.465 32.8681C139.496 32.8244 139.519 32.7876 139.532 32.7416C139.558 32.6515 139.543 32.5504 139.479 32.4634C139.418 32.3741 139.314 32.2955 139.236 32.1887C139.086 31.9683 139.092 31.7338 138.994 31.5583C138.906 31.3774 138.702 31.2881 138.529 31.2543C138.173 31.1973 137.934 31.2402 137.935 31.2197C137.935 31.2197 138.161 31.1543 138.544 31.1995C138.728 31.2261 138.97 31.3242 139.075 31.5282C139.184 31.722 139.185 31.9565 139.318 32.148C139.386 32.2423 139.49 32.3221 139.561 32.4247C139.635 32.5276 139.652 32.653 139.617 32.7587C139.586 32.8731 139.479 32.938 139.508 33.0129C139.533 33.0916 139.55 33.1968 139.512 33.2724C139.48 33.3511 139.422 33.4115 139.354 33.4495C139.282 33.4875 139.206 33.4841 139.154 33.4761C139.049 33.4586 138.998 33.4355 138.999 33.4317Z" fill="#263238"/>
<path d="M137.792 33.3025C137.765 33.3059 137.734 33.2261 137.722 33.1251C137.709 33.0236 137.721 32.9392 137.747 32.9366C137.774 32.9339 137.805 33.0133 137.817 33.1144C137.83 33.2147 137.818 33.2991 137.792 33.3025Z" fill="#263238"/>
<path d="M138.559 32.9132C138.585 32.9166 138.592 32.9987 138.573 33.0971C138.554 33.1952 138.518 33.2723 138.492 33.2689C138.465 33.2655 138.459 33.1834 138.477 33.085C138.496 32.9869 138.532 32.9098 138.559 32.9132Z" fill="#263238"/>
<path d="M92.8556 29.1318H77.0518V47.7382H92.8556V29.1318Z" fill="#EBEBEB"/>
<path d="M86.7644 34.8337C86.7644 34.8664 86.1533 34.893 85.3993 34.893C84.6453 34.893 84.0342 34.8664 84.0342 34.8337C84.0342 34.801 84.6453 34.7744 85.3993 34.7744C86.1533 34.7744 86.7644 34.801 86.7644 34.8337Z" fill="#263238"/>
<path d="M82.4356 35.3034C82.4356 35.3361 81.5772 35.3627 80.5188 35.3627C79.46 35.3627 78.6021 35.3361 78.6021 35.3034C78.6021 35.2707 79.46 35.2441 80.5188 35.2441C81.5772 35.2441 82.4356 35.2707 82.4356 35.3034Z" fill="#263238"/>
<path d="M82.4356 36.1257C82.4356 36.1584 81.5772 36.185 80.5188 36.185C79.46 36.185 78.6021 36.1584 78.6021 36.1257C78.6021 36.093 79.46 36.0664 80.5188 36.0664C81.5772 36.0664 82.4356 36.093 82.4356 36.1257Z" fill="#263238"/>
<path d="M82.4356 36.948C82.4356 36.9806 81.5772 37.0072 80.5188 37.0072C79.46 37.0072 78.6021 36.9806 78.6021 36.948C78.6021 36.9153 79.46 36.8887 80.5188 36.8887C81.5772 36.8883 82.4356 36.9149 82.4356 36.948Z" fill="#263238"/>
<path d="M80.7332 37.7692C80.7332 37.8019 80.2562 37.8285 79.6679 37.8285C79.0795 37.8285 78.6025 37.8019 78.6025 37.7692C78.6025 37.7366 79.0795 37.71 79.6679 37.71C80.2558 37.71 80.7332 37.7362 80.7332 37.7692Z" fill="#263238"/>
<path d="M90.1933 36.1677C90.1933 36.2004 88.8148 36.227 87.1142 36.227C85.4132 36.227 84.0347 36.2004 84.0347 36.1677C84.0347 36.135 85.4132 36.1084 87.1142 36.1084C88.8143 36.1084 90.1933 36.135 90.1933 36.1677Z" fill="#263238"/>
<path d="M90.2807 36.9694C90.2807 37.0021 88.9017 37.0287 87.2016 37.0287C85.5006 37.0287 84.1221 37.0021 84.1221 36.9694C84.1221 36.9368 85.5006 36.9102 87.2016 36.9102C88.9017 36.9102 90.2807 36.9368 90.2807 36.9694Z" fill="#263238"/>
<path d="M86.7644 38.8015C86.7644 38.8341 86.1533 38.8607 85.3993 38.8607C84.6453 38.8607 84.0342 38.8341 84.0342 38.8015C84.0342 38.7688 84.6453 38.7422 85.3993 38.7422C86.1533 38.7422 86.7644 38.7688 86.7644 38.8015Z" fill="#263238"/>
<path d="M90.1933 40.1355C90.1933 40.1681 88.8148 40.1947 87.1142 40.1947C85.4132 40.1947 84.0347 40.1681 84.0347 40.1355C84.0347 40.1028 85.4132 40.0762 87.1142 40.0762C88.8143 40.0762 90.1933 40.1028 90.1933 40.1355Z" fill="#263238"/>
<path d="M90.2807 40.9372C90.2807 40.9699 88.9017 40.9965 87.2016 40.9965C85.5006 40.9965 84.1221 40.9699 84.1221 40.9372C84.1221 40.9045 85.5006 40.8779 87.2016 40.8779C88.9017 40.8776 90.2807 40.9042 90.2807 40.9372Z" fill="#263238"/>
<path d="M86.7644 42.9235C86.7644 42.9562 86.1533 42.9828 85.3993 42.9828C84.6453 42.9828 84.0342 42.9562 84.0342 42.9235C84.0342 42.8909 84.6453 42.8643 85.3993 42.8643C86.1533 42.8643 86.7644 42.8909 86.7644 42.9235Z" fill="#263238"/>
<path d="M90.1933 44.2585C90.1933 44.2912 88.8148 44.3178 87.1142 44.3178C85.4132 44.3178 84.0347 44.2912 84.0347 44.2585C84.0347 44.2258 85.4132 44.1992 87.1142 44.1992C88.8143 44.1992 90.1933 44.2258 90.1933 44.2585Z" fill="#263238"/>
<path d="M90.2807 45.0603C90.2807 45.0929 88.9017 45.1195 87.2016 45.1195C85.5006 45.1195 84.1221 45.0929 84.1221 45.0603C84.1221 45.0276 85.5006 45.001 87.2016 45.001C88.9017 45.001 90.2807 45.0276 90.2807 45.0603Z" fill="#263238"/>
<path d="M91.0425 32.7468C91.0425 32.7795 89.5841 32.8061 87.7861 32.8061C85.9872 32.8061 84.5293 32.7795 84.5293 32.7468C84.5293 32.7141 85.9872 32.6875 87.7861 32.6875C89.5846 32.6875 91.0425 32.7141 91.0425 32.7468Z" fill="#263238"/>
<path d="M87.8564 33.5144C87.8564 33.547 87.1275 33.5736 86.2283 33.5736C85.3286 33.5736 84.5996 33.547 84.5996 33.5144C84.5996 33.4817 85.3286 33.4551 86.2283 33.4551C87.1275 33.4551 87.8564 33.4817 87.8564 33.5144Z" fill="#263238"/>
<path d="M82.6996 33.8724C82.6949 33.8686 82.6903 33.7816 82.6852 33.6224C82.6806 33.4339 82.675 33.2086 82.669 32.9403C82.6606 32.3209 82.6499 31.5058 82.6369 30.544L82.6996 30.5953C81.5057 30.5976 80.1174 30.6002 78.6363 30.6033C78.6201 30.6162 78.7732 30.4912 78.7082 30.5444V30.5451V30.547V30.5505V30.5577V30.5721V30.6006V30.6576V30.7712V30.997C78.7082 31.1467 78.7078 31.2949 78.7078 31.4419C78.7073 31.7353 78.7064 32.0222 78.7059 32.3023C78.7031 32.8586 78.7008 33.3849 78.6985 33.872L78.6359 33.8207C79.8102 33.8314 80.8055 33.8401 81.5618 33.847C81.889 33.8523 82.1646 33.8568 82.3943 33.8603C82.5887 33.8648 82.6949 33.8686 82.6996 33.8724C82.7042 33.8762 82.6072 33.88 82.4202 33.8842C82.1943 33.888 81.9238 33.8922 81.6017 33.8975C80.8352 33.9043 79.8265 33.9131 78.6359 33.9237L78.5732 33.9241L78.5728 33.872C78.5704 33.3849 78.5681 32.8586 78.5653 32.3023C78.5649 32.0226 78.5639 31.7353 78.5635 31.4419C78.5635 31.2953 78.563 31.1467 78.563 30.997V30.7712V30.6576V30.6006V30.5721V30.5577V30.5505V30.547V30.5451V30.5444C78.4981 30.5972 78.6512 30.4714 78.6359 30.4843C80.117 30.4874 81.5052 30.49 82.6991 30.4923H82.7627L82.7622 30.5436C82.7492 31.5183 82.7386 32.3444 82.7302 32.9726C82.7237 33.2363 82.7181 33.4578 82.714 33.6429C82.7089 33.7968 82.7042 33.8766 82.6996 33.8724Z" fill="#263238"/>
<path d="M80.2809 31.2922C80.2809 31.2922 80.3528 31.2374 80.5213 31.2127C80.6851 31.1888 80.9528 31.2074 81.2001 31.3613C81.4474 31.5137 81.6209 31.8082 81.6223 32.138C81.6237 32.3022 81.5922 32.4781 81.491 32.6423C81.394 32.808 81.1955 32.9433 80.9644 32.9908C80.4957 33.1021 80.0178 32.8897 79.8178 32.6024C79.7116 32.4599 79.6647 32.2973 79.6721 32.151C79.6749 32.0062 79.6958 31.8705 79.7417 31.7516C79.8294 31.5099 80.0266 31.3602 80.1765 31.3005C80.3282 31.239 80.4234 31.2363 80.4234 31.2363C80.4261 31.2439 80.3347 31.2602 80.1946 31.3275C80.0559 31.3936 79.8819 31.5373 79.8067 31.7675C79.7441 31.991 79.6902 32.3014 79.8935 32.5644C80.0828 32.8266 80.5152 33.0151 80.9384 32.9148C81.3801 32.8296 81.5411 32.4394 81.5328 32.1388C81.536 31.8272 81.3797 31.5513 81.1569 31.4054C80.9328 31.2572 80.6823 31.2298 80.5254 31.2435C80.3649 31.2572 80.2846 31.2998 80.2809 31.2922Z" fill="#263238"/>
<path d="M81.5636 32.335C81.5585 32.3202 81.7065 32.2776 81.6986 32.1625C81.6782 32.0481 81.5232 32.0302 81.5246 32.015C81.5214 32.0059 81.5599 31.9858 81.6267 31.9979C81.6898 32.0086 81.7807 32.0606 81.7947 32.1545C81.8035 32.2487 81.7269 32.3145 81.6675 32.335C81.6053 32.3578 81.5627 32.3445 81.5636 32.335Z" fill="#263238"/>
<path d="M79.714 32.146C79.7228 32.1593 79.5892 32.2266 79.6263 32.3383C79.6755 32.4466 79.8319 32.4375 79.8342 32.4527C79.8398 32.461 79.8068 32.4873 79.7386 32.4869C79.6741 32.4873 79.5716 32.4519 79.534 32.3626C79.501 32.2722 79.5595 32.1947 79.6119 32.1643C79.6672 32.1308 79.7126 32.1365 79.714 32.146Z" fill="#263238"/>
<path d="M81.1133 32.3778C81.1439 32.3778 81.0483 32.5868 80.7509 32.6221C80.4521 32.6479 80.2967 32.4648 80.3263 32.4587C80.3426 32.4416 80.5022 32.5674 80.7388 32.5438C80.9759 32.5187 81.0929 32.3645 81.1133 32.3778Z" fill="#263238"/>
<path d="M81.299 31.5898C81.3031 31.5978 81.2312 31.6449 81.0874 31.6902C81.0155 31.7103 80.9185 31.7301 80.8099 31.7069C80.7078 31.686 80.5844 31.621 80.5603 31.5032L80.6429 31.5249L80.6313 31.534C80.4573 31.6761 80.2369 31.7339 80.0824 31.7426C79.9251 31.7525 79.8323 31.724 79.8346 31.7152C79.8267 31.6928 80.2397 31.7399 80.5631 31.4781L80.5733 31.4698L80.6424 31.415L80.6559 31.4918C80.6684 31.564 80.7524 31.6172 80.8336 31.637C80.9152 31.6586 80.9997 31.6487 81.0679 31.6366C81.2066 31.6085 81.2934 31.5781 81.299 31.5898Z" fill="#263238"/>
<path d="M82.1686 33.8722C82.1524 33.8817 82.0605 33.7312 81.8165 33.5663C81.578 33.3987 81.1571 33.2558 80.6732 33.2707C80.1911 33.2786 79.773 33.428 79.5368 33.5971C79.2956 33.7643 79.2134 33.9193 79.1972 33.911C79.1921 33.9091 79.2083 33.8699 79.251 33.8034C79.2951 33.7381 79.3712 33.6476 79.4918 33.5549C79.7275 33.3664 80.1665 33.1996 80.6709 33.1916C81.1762 33.1749 81.6244 33.3372 81.861 33.5237C81.9835 33.6142 82.0615 33.7035 82.1083 33.7673C82.1557 33.8312 82.1733 33.8703 82.1686 33.8722Z" fill="#263238"/>
<path d="M80.6935 32.3348C80.6852 32.3211 80.7334 32.2919 80.7729 32.236L80.7747 32.2782C80.7413 32.2508 80.706 32.2143 80.6782 32.171C80.5919 32.0395 80.6105 31.9145 80.6364 31.916C80.6638 31.9149 80.6889 32.0213 80.7636 32.1338C80.7882 32.1718 80.8146 32.2056 80.8383 32.2341L80.8587 32.2592L80.8401 32.2763C80.771 32.3401 80.6991 32.3473 80.6935 32.3348Z" fill="#263238"/>
<path d="M81.2435 32.0399C81.2222 32.0521 81.1688 32.0266 81.1122 32.0342C81.0551 32.0391 81.012 32.0752 80.9874 32.0684C80.9591 32.0669 80.9762 31.9734 81.0992 31.9559C81.2231 31.9457 81.27 32.0319 81.2435 32.0399Z" fill="#263238"/>
<path d="M80.2841 32.116C80.2669 32.1335 80.2145 32.1228 80.1546 32.124C80.0948 32.1228 80.0419 32.1338 80.0247 32.1164C80.0061 32.1008 80.0586 32.0449 80.1542 32.0449C80.2497 32.0445 80.3026 32.1004 80.2841 32.116Z" fill="#263238"/>
<path d="M80.3705 33.285C80.3441 33.2884 80.313 33.2086 80.3005 33.1075C80.2879 33.006 80.2995 32.9217 80.326 32.919C80.3524 32.9164 80.384 32.9958 80.3961 33.0965C80.4086 33.1972 80.397 33.2815 80.3705 33.285Z" fill="#263238"/>
<path d="M81.1377 32.8946C81.1641 32.8981 81.1706 32.9801 81.1521 33.0786C81.1335 33.1766 81.0973 33.2537 81.0709 33.2503C81.0444 33.2469 81.0379 33.1648 81.0565 33.0664C81.075 32.9684 81.1112 32.8912 81.1377 32.8946Z" fill="#263238"/>
<path d="M79.6318 33.5083C79.6044 33.5014 79.674 33.2757 79.693 32.9926C79.7148 32.7095 79.6782 32.4789 79.706 32.4747C79.7302 32.4697 79.8118 32.7023 79.7896 32.9972C79.7696 33.2924 79.655 33.5159 79.6318 33.5083Z" fill="#263238"/>
<path d="M81.7775 33.4472C81.7511 33.4514 81.6857 33.1987 81.6309 32.8829C81.5762 32.5672 81.5534 32.3095 81.5799 32.3076C81.6063 32.3057 81.6722 32.5584 81.7265 32.8719C81.7808 33.1854 81.8035 33.4431 81.7775 33.4472Z" fill="#263238"/>
<path d="M99.148 59.0163L100.105 71.7167C100.14 72.1689 100.598 72.5215 101.151 72.5215H129.069C129.648 72.5215 130.117 72.1373 130.117 71.6639V61.7732C130.117 61.2975 129.643 60.9125 129.063 60.9156L111.893 61.006C111.616 61.0075 111.349 60.9186 111.151 60.7594L108.167 58.3521C107.971 58.194 107.707 58.1055 107.432 58.1055H100.194C99.5897 58.1055 99.1109 58.5227 99.148 59.0163Z" fill="#E8505B"/>
<path opacity="0.4" d="M99.148 59.0163L100.105 71.7167C100.14 72.1689 100.598 72.5215 101.151 72.5215H129.069C129.648 72.5215 130.117 72.1373 130.117 71.6639V61.7732C130.117 61.2975 129.643 60.9125 129.063 60.9156L111.893 61.006C111.616 61.0075 111.349 60.9186 111.151 60.7594L108.167 58.3521C107.971 58.194 107.707 58.1055 107.432 58.1055H100.194C99.5897 58.1055 99.1109 58.5227 99.148 59.0163Z" fill="black"/>
<path d="M97.384 64.3261L99.7128 79.8931C99.7541 80.1698 100.041 80.3776 100.381 80.3776H130.11C130.462 80.3776 130.754 80.1561 130.781 79.8692L132.278 64.3021C132.309 63.9814 131.999 63.707 131.607 63.707H98.0526C97.648 63.7074 97.3348 63.9974 97.384 64.3261Z" fill="#E8505B"/>
<path d="M60.6769 65.9853L61.6787 76.7913C61.7144 77.1763 62.1098 77.4719 62.5807 77.4666L86.3556 77.1911C86.8484 77.1854 87.2419 76.8537 87.2349 76.4501L87.0892 68.0274C87.0822 67.6219 86.6735 67.2989 86.1788 67.3073L71.5587 67.5539C71.3225 67.5577 71.0937 67.4851 70.9234 67.3514L68.3469 65.3309C68.1775 65.1983 67.9515 65.1253 67.7172 65.128L61.5534 65.1994C61.0393 65.2051 60.638 65.565 60.6769 65.9853Z" fill="#E8505B"/>
<path d="M87.051 66.0223L61.0742 66.3223L61.2931 79.0347L87.2699 78.7347L87.051 66.0223Z" fill="#F5F5F5"/>
<path d="M59.0313 67.4841L61.2437 80.7179C61.2831 80.9532 61.5304 81.1272 61.8199 81.1238L87.1362 80.8304C87.4355 80.827 87.6814 80.6355 87.7005 80.3908L88.7459 67.1193C88.7672 66.8457 88.4999 66.6154 88.1654 66.6192L59.5913 66.9502C59.2471 66.9547 58.9844 67.2048 59.0313 67.4841Z" fill="#E8505B"/>
<path d="M144.994 65.0663L145.973 75.6227C146.008 75.9989 146.394 76.2877 146.854 76.2824L170.079 76.0134C170.561 76.0077 170.945 75.6839 170.939 75.2895L170.797 67.0617C170.79 66.6657 170.391 66.35 169.907 66.3583L155.625 66.5992C155.395 66.603 155.172 66.532 155.005 66.4013L152.487 64.4275C152.322 64.298 152.101 64.2269 151.872 64.2296L145.851 64.2995C145.349 64.3044 144.956 64.6563 144.994 65.0663Z" fill="#E8505B"/>
<path opacity="0.4" d="M144.994 65.0663L145.973 75.6227C146.008 75.9989 146.394 76.2877 146.854 76.2824L170.079 76.0134C170.561 76.0077 170.945 75.6839 170.939 75.2895L170.797 67.0617C170.79 66.6657 170.391 66.35 169.907 66.3583L155.625 66.5992C155.395 66.603 155.172 66.532 155.005 66.4013L152.487 64.4275C152.322 64.298 152.101 64.2269 151.872 64.2296L145.851 64.2995C145.349 64.3044 144.956 64.6563 144.994 65.0663Z" fill="black"/>
<path d="M170.759 65.1064L145.383 65.3994L145.597 77.8181L170.973 77.525L170.759 65.1064Z" fill="#EBEBEB"/>
<path d="M143.387 66.5309L145.548 79.4589C145.587 79.6888 145.829 79.8591 146.112 79.8556L170.842 79.5691C171.135 79.5657 171.375 79.3787 171.394 79.1397L172.415 66.1749C172.436 65.9077 172.175 65.6828 171.848 65.6866L143.935 66.01C143.598 66.0134 143.342 66.2577 143.387 66.5309Z" fill="#E8505B"/>
<path d="M107.362 82.7208L104.874 83.692L102.585 80.7512L103.924 78.4807C104.051 78.2702 104.187 78.0335 104.329 77.7621C104.495 77.4456 104.594 77.107 104.624 76.7635C104.661 76.347 104.684 75.7922 104.584 75.4856C104.461 75.1067 104.95 74.7962 105.284 75.017C105.616 75.2382 105.987 76.2752 105.741 77.5262C105.493 78.7767 107.272 77.4498 107.931 76.9759C108.589 76.5021 110.708 75.1154 111.04 75.1694C111.528 75.2484 111.515 75.7025 110.844 76.1631C110.165 76.6294 108.278 78.1228 108.591 78.4017C108.591 78.4017 108.596 78.4021 108.605 78.4028C109.4 78.4708 110.053 78.9527 110.228 79.5911C110.397 80.2074 110.534 81.0579 110.111 81.3383C109.314 81.8677 107.362 82.7208 107.362 82.7208Z" fill="#FFBE9D"/>
<path d="M58.6078 56.5154L58.5493 72.201L66.7663 72.5221L67.0039 68.7069C67.0039 68.7069 69.9224 69.1815 70.6755 66.9616C71.1567 65.5434 71.0365 54.585 71.0365 54.585L58.6078 56.5154Z" fill="#FFBE9D"/>
<path d="M72.891 56.1317C72.3374 57.0692 69.7019 58.7841 69.7019 58.7841L68.5113 61.397C67.477 60.7339 66.0883 60.7719 65.8257 62.2604C65.6359 63.3358 67.2687 63.5531 67.2687 63.5531C66.318 64.8778 65.6735 65.9494 64.2894 67.2095C62.7916 68.5733 61.9522 68.7109 60.3277 68.7329H58.5367C58.5367 68.7329 54.8711 66.2245 55.5959 59.6175C56.3202 53.0108 63.5729 54.9381 65.3041 53.2874C68.1234 50.5997 74.7386 53.0028 72.891 56.1317Z" fill="#263238"/>
<path d="M56.0034 65.1424C56.0034 65.1424 56.0828 65.1389 56.2326 65.1405C56.382 65.1336 56.6043 65.1287 56.8822 65.0778C57.4363 64.9866 58.2218 64.7198 58.9828 64.1639C59.7516 63.6136 60.4295 62.7765 61.1135 61.8261C61.8076 60.8909 62.5709 59.7897 63.8807 59.0483C64.5331 58.6831 65.2672 58.4688 65.9785 58.3164C66.6931 58.1644 67.3951 58.0709 68.0567 57.9657C69.3782 57.7666 70.5642 57.4656 71.3725 56.9526C72.1831 56.4457 72.5877 55.8156 72.7162 55.3672C72.8489 54.912 72.7724 54.6483 72.7905 54.6494C72.7905 54.6494 72.8025 54.7133 72.816 54.8368C72.8151 54.9599 72.8206 55.1449 72.7529 55.3745C72.6341 55.8312 72.2323 56.4765 71.4143 56.9971C70.5976 57.5245 69.3982 57.8338 68.0739 58.0371C66.7626 58.2568 65.2352 58.4019 63.935 59.1137C62.6498 59.8402 61.8874 60.9301 61.1895 61.8637C60.5014 62.8126 59.8119 63.6547 59.0278 64.206C58.2524 64.7631 57.4516 65.0253 56.8892 65.1082C56.3222 65.1944 56.0034 65.1424 56.0034 65.1424Z" fill="#455A64"/>
<path d="M63.3179 133.425L66.6577 175.273L74.4121 174.571C74.4121 174.571 74.6024 133.774 74.2381 133.797C73.8743 133.82 63.3179 133.425 63.3179 133.425Z" fill="#FFBE9D"/>
<path d="M47.0611 133.176L38.3379 174.665L45.2311 175.523L57.3076 135.148L47.0611 133.176Z" fill="#FFBE9D"/>
<path d="M49.6325 107.102L37.7388 163.036L51.527 165.482L61.9948 118.862L64.3394 164.223H77.1454L74.8439 105.389L49.6325 107.102Z" fill="#263238"/>
<path d="M51.7123 165.709L37.4722 163.183L37.5102 163.003L49.435 106.924L49.6137 106.912L75.0687 105.183L75.0766 105.382L77.3859 164.412H64.1178L64.1085 164.231L61.8512 120.556L51.7123 165.709ZM38.0053 162.889L51.3425 165.255L62.1398 117.167L64.5623 164.032H76.9066L74.6205 105.595L49.8308 107.279L38.0053 162.889Z" fill="#263238"/>
<path d="M65.6344 118.803C65.6349 118.816 65.4683 118.835 65.1662 118.857C64.8099 118.879 64.3835 118.905 63.8865 118.935C62.8059 118.996 61.3118 119.058 59.6711 119.189C58.0304 119.323 56.5502 119.502 55.4756 119.615C54.981 119.666 54.5569 119.709 54.2019 119.745C53.9003 119.771 53.7323 119.779 53.73 119.766C53.7272 119.752 53.8906 119.718 54.1875 119.669C54.4845 119.618 54.916 119.553 55.4496 119.477C56.5177 119.328 57.9965 119.127 59.6469 118.992C61.2969 118.86 62.7952 118.82 63.8782 118.795C64.4201 118.784 64.8586 118.779 65.162 118.781C65.4655 118.782 65.6339 118.789 65.6344 118.803Z" fill="#455A64"/>
<path d="M75.1101 114.495C75.1124 114.507 75.0006 114.537 74.7922 114.565C74.5839 114.594 74.2767 114.615 73.8972 114.601C73.1436 114.578 72.0746 114.371 71.1197 113.809C70.1648 113.247 69.5838 112.483 69.317 111.905C69.1802 111.615 69.1064 111.37 69.0734 111.199C69.04 111.028 69.0377 110.932 69.053 110.93C69.0948 110.923 69.169 111.301 69.4743 111.851C69.7732 112.397 70.3513 113.112 71.2607 113.648C72.1706 114.183 73.1826 114.404 73.9106 114.462C74.6442 114.523 75.1054 114.461 75.1101 114.495Z" fill="#455A64"/>
<path d="M77.3274 161.876C77.3241 161.931 74.4311 161.854 70.8666 161.706C67.3012 161.557 64.4142 161.393 64.4175 161.338C64.4207 161.284 67.3133 161.36 70.8787 161.508C74.4431 161.657 77.3306 161.821 77.3274 161.876Z" fill="#455A64"/>
<path d="M52.3846 162.158C52.379 162.171 52.1846 162.131 51.8376 162.047C51.4432 161.95 50.9527 161.829 50.3713 161.686C49.1338 161.382 47.4193 160.978 45.5091 160.583C43.5978 160.189 41.8537 159.88 40.5883 159.667C39.9939 159.567 39.4924 159.483 39.0892 159.415C38.7351 159.354 38.5407 159.314 38.5435 159.301C38.5463 159.288 38.7458 159.302 39.1049 159.339C39.4641 159.376 39.9819 159.44 40.6203 159.53C41.8963 159.707 43.6517 159.996 45.5684 160.391C47.4843 160.787 49.1969 161.214 50.4233 161.553C51.0367 161.722 51.5299 161.866 51.8677 161.973C52.2055 162.08 52.3897 162.145 52.3846 162.158Z" fill="#455A64"/>
<path d="M48.4087 110.855H75.3908L74.3458 92.9933C74.1741 89.4844 74.2001 89.0656 74.0939 85.8261C74.0939 85.8261 78.1219 89.8146 81.2896 92.6114C83.2036 94.3016 86.2377 94.774 88.7827 93.7882L105.361 84.3167L102.256 77.8134L87.1912 85.3655C86.5012 85.0144 80.6353 78.1626 76.5823 74.8167C73.9885 72.6754 70.4905 71.4431 66.8091 71.3553C64.0228 71.2888 60.6597 71.3945 57.6571 71.6559C53.0914 72.0534 49.5195 75.0565 49.1358 78.8037C48.8421 81.6712 49.0782 85 49.0782 90.6578L48.4087 110.855Z" fill="#455A64"/>
<path d="M52.7497 73.2939C50.2038 74.2189 39.5791 85.3662 38.8279 92.6078C38.2678 98.0053 51.0896 97.4179 51.0896 97.4179C51.0896 97.4179 51.9642 75.2715 51.5819 75.585" fill="#455A64"/>
<path d="M50.1497 75.1826C50.1497 75.1826 50.1473 75.2628 50.1334 75.414C50.1167 75.5869 50.0949 75.8062 50.0685 76.0768C50.0142 76.6521 49.9418 77.4854 49.874 78.516C49.7307 80.5767 49.6086 83.4267 49.4889 86.5746C49.3697 89.7241 49.2611 92.5748 49.1335 94.6371C49.0723 95.6684 49.0073 96.5021 48.9544 97.0778C48.927 97.3484 48.9048 97.5677 48.8871 97.7406C48.8709 97.8918 48.8574 97.9712 48.8574 97.9712C48.8574 97.9712 48.8579 97.891 48.8681 97.7394C48.8806 97.5665 48.8969 97.3469 48.9168 97.0759C48.9535 96.4736 49.0036 95.646 49.0648 94.6348C49.1753 92.5726 49.2727 89.7218 49.392 86.5724C49.5112 83.4241 49.6444 80.5737 49.8054 78.5129C49.8819 77.4824 49.9645 76.6494 50.0309 76.0745C50.0647 75.8047 50.0921 75.5854 50.1135 75.4129C50.1344 75.2613 50.1497 75.1826 50.1497 75.1826Z" fill="#263238"/>
<path d="M49.0999 89.3909C49.1101 89.3973 48.9737 89.5573 48.7361 89.8055C48.499 90.054 48.1594 90.3891 47.7654 90.746C47.371 91.1028 46.997 91.4129 46.7191 91.631C46.4412 91.8491 46.2602 91.976 46.2514 91.9688C46.2416 91.9604 46.4054 91.8191 46.6708 91.5915C46.9358 91.3638 47.3005 91.0484 47.694 90.6928C48.087 90.3371 48.4336 90.0084 48.6837 89.7697C48.9338 89.5311 49.0892 89.3837 49.0999 89.3909Z" fill="#263238"/>
<path d="M86.5691 87.5613C86.5561 87.5594 86.5784 87.437 86.6252 87.2413C86.6721 87.0452 86.7435 86.7754 86.8285 86.4783C86.9134 86.1811 86.995 85.9132 87.0591 85.7206C87.1231 85.5279 87.169 85.4101 87.1816 85.4131C87.1946 85.4162 87.1718 85.5389 87.125 85.735C87.0781 85.9311 87.0066 86.2001 86.9222 86.4965C86.8377 86.7925 86.7561 87.0597 86.692 87.2523C86.6285 87.4446 86.5825 87.5632 86.5691 87.5613Z" fill="#263238"/>
<path d="M88.0802 87.7508C88.0542 87.7557 87.8797 87.2089 87.6904 86.5298C87.5011 85.8504 87.3689 85.296 87.3949 85.291C87.4208 85.2861 87.5953 85.8329 87.7846 86.5124C87.9739 87.1914 88.1062 87.7462 88.0802 87.7508Z" fill="#263238"/>
<path d="M74.7933 86.4007C74.7933 86.4007 74.7371 86.3627 74.6374 86.2848C74.5177 86.1898 74.3747 86.0765 74.2035 85.9409C73.8295 85.6403 73.289 85.2041 72.6454 84.6455C72.0046 84.0853 71.2571 83.4021 70.5277 82.5783C69.8011 81.7556 69.0935 80.7846 68.6017 79.6785C68.1033 78.5753 67.8908 77.4445 67.9674 76.4257C68.0244 75.4103 68.2606 74.4934 68.6824 73.8003C69.0958 73.1022 69.661 72.6519 70.0786 72.3962C70.2915 72.2692 70.4614 72.1769 70.5843 72.1245C70.704 72.0682 70.7695 72.042 70.7695 72.042C70.7783 72.0538 70.5143 72.1571 70.1018 72.4205C69.6939 72.6819 69.1445 73.1326 68.7441 73.8246C68.3358 74.512 68.1084 75.4194 68.0565 76.4291C67.9859 77.4384 68.1984 78.5563 68.6926 79.6511C69.686 81.8559 71.446 83.4834 72.6951 84.6071C73.3312 85.1698 73.8643 85.6118 74.23 85.9188C74.3961 86.0587 74.5348 86.1753 74.6508 86.273C74.7464 86.3551 74.7933 86.4007 74.7933 86.4007Z" fill="#263238"/>
<path d="M76.7197 75.0529C76.7197 75.1076 70.8895 75.1517 63.6989 75.1517C56.506 75.1517 50.6772 75.1072 50.6772 75.0529C50.6772 74.9986 56.5065 74.9541 63.6989 74.9541C70.8895 74.9537 76.7197 74.9982 76.7197 75.0529Z" fill="#263238"/>
<path d="M79.9231 78.1466C79.9231 78.2014 72.6754 78.2455 63.7374 78.2455C54.7961 78.2455 47.5503 78.201 47.5503 78.1466C47.5503 78.0923 54.7961 78.0479 63.7374 78.0479C72.6759 78.0479 79.9231 78.0923 79.9231 78.1466Z" fill="#263238"/>
<path d="M83.8986 81.3478C83.8986 81.4025 75.1777 81.4466 64.4226 81.4466C53.6638 81.4466 44.9448 81.4022 44.9448 81.3478C44.9448 81.2931 53.6638 81.249 64.4226 81.249C75.1777 81.2486 83.8986 81.2931 83.8986 81.3478Z" fill="#263238"/>
<path d="M86.6342 84.7619C86.6342 84.8166 76.6591 84.8607 64.3576 84.8607C52.0514 84.8607 42.0786 84.8162 42.0786 84.7619C42.0786 84.7072 52.0514 84.6631 64.3576 84.6631C76.6596 84.6631 86.6342 84.7075 86.6342 84.7619Z" fill="#263238"/>
<path d="M74.1775 88.7092C74.1775 88.716 74.0574 88.7225 73.8291 88.7289C73.5771 88.7335 73.2449 88.7399 72.8291 88.7475C71.9346 88.7551 70.685 88.7658 69.1524 88.7791C66.0246 88.7867 61.747 88.7969 57.0216 88.808C52.2944 88.7966 48.0163 88.7863 44.8889 88.7791C43.3563 88.7658 42.1068 88.7551 41.2122 88.7475C40.7969 88.7399 40.4647 88.7335 40.2127 88.7289C39.984 88.7225 39.8643 88.7156 39.8643 88.7092C39.8643 88.7023 39.9844 88.6955 40.2127 88.6894C40.4647 88.6848 40.7969 88.6784 41.2122 88.6708C42.1068 88.6632 43.3563 88.6525 44.8889 88.6392C48.0167 88.6316 52.2948 88.6218 57.0216 88.6104C61.747 88.6218 66.0246 88.632 69.1524 88.6392C70.685 88.6525 71.9346 88.6632 72.8291 88.6708C73.2444 88.6784 73.5771 88.6845 73.8291 88.6894C74.0578 88.6959 74.1775 88.7023 74.1775 88.7092Z" fill="#263238"/>
<path d="M97.708 88.923C97.708 88.9777 93.0995 89.0218 87.4165 89.0218C81.7311 89.0218 77.124 88.9774 77.124 88.923C77.124 88.8683 81.7315 88.8242 87.4165 88.8242C93.0995 88.8238 97.708 88.8683 97.708 88.923Z" fill="#263238"/>
<path d="M91.1376 92.4435C91.1376 92.4983 88.9044 92.5423 86.1501 92.5423C83.3949 92.5423 81.1621 92.4979 81.1621 92.4435C81.1621 92.3888 83.3949 92.3447 86.1501 92.3447C88.9044 92.3447 91.1376 92.3888 91.1376 92.4435Z" fill="#263238"/>
<path d="M103.962 85.0822C103.962 85.1369 100.549 85.181 96.3404 85.181C92.1305 85.181 88.7188 85.1365 88.7188 85.0822C88.7188 85.0279 92.1305 84.9834 96.3404 84.9834C100.549 84.983 103.962 85.0275 103.962 85.0822Z" fill="#263238"/>
<path d="M74.4951 92.8459C74.4951 92.9006 66.4651 92.945 56.5615 92.945C46.6546 92.945 38.6265 92.9006 38.6265 92.8459C38.6265 92.7911 46.6551 92.7471 56.5615 92.7471C66.4651 92.7471 74.4951 92.7915 74.4951 92.8459Z" fill="#263238"/>
<path d="M74.7934 97.4367C74.7934 97.4914 68.9382 97.5355 61.7165 97.5355C54.4925 97.5355 48.6387 97.491 48.6387 97.4367C48.6387 97.382 54.493 97.3379 61.7165 97.3379C68.9377 97.3375 74.7934 97.382 74.7934 97.4367Z" fill="#263238"/>
<path d="M74.7934 101.138C74.7934 101.193 68.9382 101.237 61.7165 101.237C54.4925 101.237 48.6387 101.192 48.6387 101.138C48.6387 101.083 54.493 101.039 61.7165 101.039C68.9377 101.039 74.7934 101.084 74.7934 101.138Z" fill="#263238"/>
<path d="M74.7934 105.389C74.7934 105.444 68.9382 105.488 61.7165 105.488C54.4925 105.488 48.6387 105.443 48.6387 105.389C48.6387 105.335 54.493 105.29 61.7165 105.29C68.9377 105.29 74.7934 105.334 74.7934 105.389Z" fill="#263238"/>
<path d="M104.029 82.4269C104.029 82.4816 101.638 82.5257 98.6882 82.5257C95.7377 82.5257 93.3467 82.4813 93.3467 82.4269C93.3467 82.3726 95.7377 82.3281 98.6882 82.3281C101.637 82.3277 104.029 82.3722 104.029 82.4269Z" fill="#263238"/>
<path d="M38.4705 173.438L37.2998 177.32L45.3669 178.063L45.656 174.216L38.4705 173.438Z" fill="#E8505B"/>
<path d="M42.1123 173.628C42.1787 173.636 42.0599 174.434 41.8469 175.411C41.6339 176.387 41.4075 177.172 41.3412 177.164C41.2748 177.156 41.3936 176.358 41.6066 175.382C41.82 174.405 42.0464 173.62 42.1123 173.628Z" fill="#263238"/>
<path d="M45.3985 177.64C45.3911 177.666 44.9466 177.616 44.2302 177.531C43.4275 177.434 42.479 177.319 41.4318 177.192C40.3386 177.057 39.3508 176.92 38.6408 176.801C37.9305 176.684 37.498 176.59 37.505 176.566C37.5124 176.541 37.9569 176.591 38.6733 176.676C39.476 176.773 40.4245 176.887 41.4722 177.014C42.5649 177.15 43.5527 177.287 44.2627 177.405C44.9726 177.522 45.4055 177.617 45.3985 177.64Z" fill="#263238"/>
<path d="M75.3529 175.155L75.326 174.391L66.5332 174.569L66.5898 177.09L67.1332 177.109C69.5515 177.174 79.4357 177.301 81.0392 176.87C82.828 176.389 75.3529 175.155 75.3529 175.155Z" fill="#E8505B"/>
<g opacity="0.4">
<path d="M69.7617 176.975C69.6206 176.378 69.1984 175.829 68.6026 175.467C68.0068 175.105 67.2802 174.922 66.542 174.984L66.5953 176.987L69.7617 176.975Z" fill="white"/>
</g>
<g opacity="0.4">
<path d="M79.0079 175.864C79.0079 175.864 81.6313 176.432 81.3163 176.79C81.0008 177.147 71.0067 177.327 66.5898 177.09L66.5996 176.93L78.2594 176.802C78.2594 176.802 78.4989 175.891 79.0079 175.864Z" fill="white"/>
</g>
<path d="M66.4619 176.928C66.4619 176.931 66.5139 176.934 66.6127 176.939C66.7426 176.943 66.8851 176.947 67.0456 176.952C67.4785 176.96 68.0103 176.969 68.6381 176.98C69.9827 176.996 71.8411 176.997 73.8929 176.961C75.9451 176.926 77.8021 176.86 79.1449 176.798C79.7713 176.765 80.3026 176.738 80.7346 176.715C80.8946 176.704 81.0366 176.695 81.1661 176.687C81.2644 176.679 81.3164 176.674 81.3159 176.671C81.3155 176.668 81.2635 176.667 81.1647 176.669C81.0348 176.673 80.8923 176.677 80.7318 176.682C80.2993 176.696 79.768 176.715 79.1412 176.737C77.7979 176.783 75.9419 176.839 73.8906 176.875C71.8401 176.91 69.9827 176.919 68.6385 176.919C68.0107 176.919 67.479 176.919 67.0461 176.919C66.8855 176.92 66.7431 176.921 66.6132 176.922C66.5139 176.923 66.4619 176.925 66.4619 176.928Z" fill="#263238"/>
<path d="M78.26 176.912C78.2924 176.915 78.3091 176.603 78.5407 176.285C78.7653 175.963 79.0887 175.798 79.0696 175.777C79.0627 175.755 78.691 175.897 78.4488 176.241C78.2015 176.583 78.2335 176.918 78.26 176.912Z" fill="#263238"/>
<path d="M75.6482 175.886C75.6732 175.899 75.7934 175.773 75.9168 175.606C76.0402 175.439 76.1196 175.294 76.0945 175.281C76.0695 175.269 75.9493 175.394 75.8259 175.561C75.7029 175.728 75.6231 175.874 75.6482 175.886Z" fill="#263238"/>
<path d="M74.9312 175.592C74.9511 175.609 75.0875 175.531 75.2351 175.418C75.3831 175.304 75.4866 175.198 75.4666 175.18C75.4467 175.163 75.3103 175.241 75.1627 175.354C75.0147 175.468 74.9112 175.574 74.9312 175.592Z" fill="#263238"/>
<path d="M74.4648 174.924C74.4653 174.948 74.6704 174.965 74.9228 174.963C75.1757 174.961 75.3799 174.94 75.3799 174.916C75.3794 174.892 75.1743 174.874 74.9219 174.876C74.669 174.878 74.4648 174.9 74.4648 174.924Z" fill="#263238"/>
<path d="M74.2986 174.449C74.2893 174.471 74.5144 174.549 74.8113 174.561C75.1088 174.575 75.3426 174.517 75.3361 174.495C75.3305 174.47 75.0995 174.488 74.8174 174.475C74.5348 174.463 74.3074 174.425 74.2986 174.449Z" fill="#263238"/>
<path d="M75.9282 175.255C75.9278 175.265 76.1444 175.283 76.4906 175.243C76.6632 175.222 76.8674 175.185 77.0864 175.124C77.1949 175.09 77.3091 175.064 77.426 175.002C77.4808 174.97 77.5415 174.926 77.5615 174.856C77.5828 174.787 77.536 174.71 77.4715 174.674C76.9277 174.455 76.3959 174.712 76.2024 174.944C76.0957 175.062 76.0484 175.176 76.0271 175.255C76.0066 175.334 76.0094 175.379 76.0159 175.379C76.0359 175.385 76.0489 175.197 76.2614 174.982C76.3662 174.876 76.5263 174.772 76.7351 174.717C76.9323 174.666 77.2149 174.647 77.4065 174.743C77.4975 174.795 77.465 174.882 77.3666 174.932C77.2752 174.983 77.1564 175.015 77.0534 175.049C76.8423 175.113 76.6451 175.155 76.4776 175.182C76.1421 175.237 75.9278 175.241 75.9282 175.255Z" fill="#263238"/>
<path d="M76.0744 175.276C76.0828 175.281 76.1626 175.161 76.1306 174.954C76.1143 174.853 76.0651 174.733 75.9682 174.621C75.8661 174.521 75.7348 174.382 75.4935 174.394C75.3636 174.41 75.3033 174.533 75.326 174.61C75.3385 174.691 75.3845 174.759 75.4271 174.814C75.5139 174.928 75.6109 175.019 75.7004 175.088C75.8805 175.226 76.0215 175.278 76.0271 175.269C76.0368 175.257 75.913 175.188 75.7538 175.045C75.6749 174.973 75.5886 174.882 75.5111 174.773C75.4313 174.677 75.3738 174.503 75.5144 174.479C75.655 174.466 75.8016 174.578 75.8902 174.668C75.9812 174.766 76.0331 174.873 76.0573 174.965C76.1051 175.152 76.0559 175.273 76.0744 175.276Z" fill="#263238"/>
<path d="M66.5879 174.963C66.5902 174.979 66.838 174.939 67.2347 174.97C67.6277 174.999 68.1762 175.121 68.6583 175.421C69.1404 175.722 69.4294 176.123 69.5673 176.426C69.7092 176.731 69.7278 176.937 69.7473 176.935C69.7538 176.934 69.7556 176.883 69.7436 176.79C69.732 176.697 69.7014 176.564 69.6378 176.405C69.5144 176.089 69.2248 175.666 68.7223 175.352C68.2193 175.039 67.6444 174.922 67.2398 174.909C67.0357 174.901 66.8705 174.912 66.7587 174.928C66.6468 174.943 66.5865 174.958 66.5879 174.963Z" fill="#263238"/>
<path d="M70.8447 176.256C70.8415 176.279 71.4141 176.345 72.1254 176.337C72.8372 176.331 73.407 176.253 73.4032 176.23C73.3995 176.205 72.8288 176.244 72.124 176.25C71.4192 176.258 70.8475 176.231 70.8447 176.256Z" fill="#263238"/>
<path d="M69.1287 176.285C69.1079 176.303 69.1784 176.384 69.2392 176.49C69.3023 176.596 69.3348 176.691 69.3649 176.689C69.3932 176.688 69.4071 176.575 69.3348 176.452C69.2638 176.33 69.1473 176.267 69.1287 176.285Z" fill="#263238"/>
<path d="M68.465 175.637C68.4446 175.655 68.503 175.728 68.5958 175.802C68.6886 175.875 68.7801 175.921 68.8005 175.904C68.8209 175.887 68.7624 175.813 68.6696 175.739C68.5768 175.666 68.4854 175.62 68.465 175.637Z" fill="#263238"/>
<path d="M67.5318 175.353C67.5387 175.378 67.6547 175.375 67.7842 175.409C67.9146 175.441 68.0078 175.498 68.0306 175.482C68.0538 175.468 67.9772 175.367 67.8162 175.326C67.6552 175.285 67.522 175.331 67.5318 175.353Z" fill="#263238"/>
<path d="M66.8694 175.224C66.8596 175.246 66.9106 175.282 66.984 175.304C67.0573 175.325 67.1246 175.325 67.1348 175.302C67.1445 175.28 67.0935 175.244 67.0202 175.222C66.9468 175.2 66.8796 175.201 66.8694 175.224Z" fill="#263238"/>
</svg>
