<svg width="188" height="164" viewBox="0 0 188 164" fill="none" xmlns="http://www.w3.org/2000/svg">
<path d="M120.2 113.481C142.328 92.5901 142.328 58.7185 120.2 37.8271C98.0717 16.9358 62.1948 16.9358 40.0666 37.8271C17.9384 58.7185 17.9384 92.5901 40.0666 113.481C62.1948 134.373 98.0717 134.373 120.2 113.481Z" fill="#C9EAF7"/>
<path d="M144.247 124.605C164.903 124.605 181.648 108.796 181.648 89.2945C181.648 69.7932 164.903 53.9844 144.247 53.9844C123.591 53.9844 106.847 69.7932 106.847 89.2945C106.847 108.796 123.591 124.605 144.247 124.605Z" fill="#C9EAF7"/>
<path d="M61.4858 163.999C74.6316 163.999 85.2885 161.326 85.2885 158.03C85.2885 154.733 74.6316 152.061 61.4858 152.061C48.3399 152.061 37.6831 154.733 37.6831 158.03C37.6831 161.326 48.3399 163.999 61.4858 163.999Z" fill="#C9EAF7"/>
<path d="M147.027 163.999C160.173 163.999 170.83 161.326 170.83 158.03C170.83 154.733 160.173 152.061 147.027 152.061C133.881 152.061 123.225 154.733 123.225 158.03C123.225 161.326 133.881 163.999 147.027 163.999Z" fill="#C9EAF7"/>
<path d="M125.694 38.6278H82.3989C83.0102 35.1966 88.3649 32.8503 91.7795 34.1586C91.8306 32.1883 92.5221 30.4737 94.2549 29.3747C95.9878 28.2756 98.292 28.0258 100.244 28.7258C100.863 24.6912 105.505 21.4562 109.806 21.8165C114.107 22.1768 117.737 26.0486 117.594 30.123C119.899 29.5601 122.716 30.6155 124.455 32.152C126.193 33.6885 126.138 36.419 125.694 38.6278Z" fill="#EEF8FD"/>
<path d="M144.697 45.8009H175.485C175.05 43.3611 171.243 41.6924 168.814 42.6227C168.778 41.2215 168.286 40.0024 167.054 39.2206C165.822 38.4389 164.183 38.2612 162.795 38.759C162.355 35.89 159.054 33.5895 155.995 33.8457C152.937 34.1019 150.355 36.8551 150.457 39.7526C148.818 39.3521 146.814 40.1029 145.578 41.1956C144.342 42.2883 144.382 44.2302 144.697 45.8009Z" fill="#EEF8FD"/>
<path d="M13.4146 75.879H44.2025C43.7678 73.4392 39.9599 71.7705 37.5315 72.7008C37.495 71.2997 37.0034 70.0805 35.7712 69.2987C34.5389 68.517 32.9001 68.3393 31.5124 68.8371C31.0724 65.9681 27.7708 63.6676 24.7124 63.9238C21.6539 64.18 19.0727 66.9332 19.1747 69.8307C17.5352 69.4302 15.5317 70.1807 14.2957 71.2737C13.0593 72.3664 13.0992 74.3084 13.4146 75.879Z" fill="#EEF8FD"/>
<path d="M162.67 110.508H188C187.643 108.501 184.51 107.128 182.512 107.894C182.482 106.741 182.077 105.738 181.064 105.095C180.05 104.451 178.701 104.305 177.56 104.715C177.198 102.354 174.482 100.462 171.965 100.672C169.449 100.883 167.325 103.148 167.409 105.532C166.06 105.203 164.412 105.82 163.395 106.719C162.378 107.618 162.411 109.216 162.67 110.508Z" fill="#EEF8FD"/>
<path d="M85.3047 119.579C81.6361 112.218 73.3934 106.224 64.8891 107.532C57.9102 108.606 52.0169 114.026 50.0172 120.429C48.5963 119.828 46.9143 119.952 45.4746 120.512C44.035 121.072 42.808 122.031 41.715 123.078C40.6378 124.11 39.6483 125.27 39.1371 126.635C38.626 128.001 37.9444 130.423 38.7973 131.627C35.9176 132.369 33.3947 134.271 31.9912 136.758C30.5877 139.245 30.3234 142.283 31.2779 144.953L89.5032 144.966C89.4257 136.832 88.9733 126.939 85.3047 119.579Z" fill="#F7B15E"/>
<path d="M124.937 119.579C128.605 112.218 136.848 106.224 145.352 107.532C152.331 108.606 158.225 114.026 160.224 120.429C161.645 119.828 163.327 119.952 164.767 120.512C166.207 121.072 167.434 122.031 168.527 123.078C169.604 124.11 170.593 125.27 171.104 126.635C171.616 128.001 172.297 130.423 171.444 131.627C174.324 132.369 176.847 134.271 178.25 136.758C179.654 139.245 179.918 142.283 178.964 144.953L120.832 144.561C120.91 136.427 121.268 126.939 124.937 119.579Z" fill="#F7B15E"/>
<path d="M36.6792 138.373C37.3153 140.032 38.3982 142.539 39.6485 144.954H46.2991C45.7101 141.77 44.6224 139.106 43.8248 136.992C41.8778 131.8 38.918 126.316 36.295 122.241C33.6765 118.159 31.4299 115.465 31.0614 115.624C30.627 115.811 31.1224 118.985 32.157 123.361C33.2034 127.738 34.7601 133.316 36.6792 138.373Z" fill="#0F6868"/>
<path d="M34.757 124.696C35.5316 126.474 36.2809 128.262 37.019 130.054C38.4989 133.636 39.8976 137.248 41.2269 140.882C41.7204 142.237 42.2006 143.595 42.6783 144.955H43.1171C42.0907 141.949 40.991 138.965 39.8411 135.999C38.4455 132.381 36.9603 128.794 35.4028 125.236C34.5225 123.234 33.6478 121.223 32.6417 119.274C32.5683 119.133 32.3707 119.215 32.4313 119.361C33.1656 121.154 33.9876 122.916 34.757 124.696Z" fill="#30A9A0"/>
<path d="M48.3663 144.951C48.9817 141.404 49.0878 138.226 49.2527 135.688C50.1138 122.441 48.6373 106.1 47.8153 106.053C46.8762 105.999 42.9818 120.84 42.1206 134.087C41.9497 136.714 41.8876 141.05 42.2166 144.951H48.3663Z" fill="#0F6868"/>
<path d="M45.248 144.95C45.5311 140.907 45.7814 136.862 46.0414 132.818C46.3429 128.133 46.6425 123.448 46.9342 118.762C47.0987 116.124 47.2986 113.481 47.3738 110.84C47.3795 110.648 47.1642 110.635 47.1446 110.827C46.9071 113.161 46.7735 115.508 46.615 117.85C46.4566 120.192 46.2936 122.534 46.1401 124.876C45.8326 129.561 45.5235 134.245 45.2202 138.93C45.0903 140.937 44.9601 142.943 44.8374 144.95H45.248V144.95Z" fill="#30A9A0"/>
<path d="M54.4667 136.509C55.131 138.633 56.4253 141.963 57.9866 144.955H63.3387L64.3237 144.642C63.6236 141.025 62.4843 137.99 61.7124 135.573C59.8948 129.919 57.4992 123.728 55.5363 118.91C53.5667 114.098 51.9897 110.678 51.5791 110.757C51.1263 110.845 50.8756 114.352 51.2486 119.32C51.6084 124.285 52.6292 130.711 54.4667 136.509Z" fill="#0F6868"/>
<path d="M53.6465 121.254C54.1708 123.311 54.7165 125.364 55.2947 127.408C56.4464 131.498 57.6937 135.564 59.0332 139.602C59.6294 141.391 60.2373 143.177 60.8745 144.953H61.3107C60.0698 141.379 58.8571 137.795 57.7374 134.185C56.4716 130.131 55.3075 126.049 54.2148 121.951C53.604 119.641 53.0559 117.313 52.4138 115.012C52.3679 114.845 52.1575 114.888 52.1899 115.059C52.5956 117.138 53.1165 119.199 53.6465 121.254Z" fill="#30A9A0"/>
<path d="M67.4163 144.951C68.6087 141.813 69.2718 138.941 69.9 136.664C71.5188 130.762 72.8937 124.088 73.8449 118.848C74.7892 113.609 75.2747 109.802 74.8788 109.677C74.4388 109.537 72.3303 112.546 69.9361 117.129C67.5345 121.706 64.8716 127.872 63.2053 133.875C62.4868 136.434 61.5685 140.852 61.3208 144.708L62.4225 144.952H67.4163V144.951Z" fill="#0F6868"/>
<path d="M64.2245 144.949C65.2098 141.11 66.2095 137.273 67.2874 133.457C68.4682 129.254 69.7287 125.071 71.043 120.904C71.7863 118.557 72.588 116.223 73.2881 113.866C73.3393 113.695 73.1341 113.632 73.0694 113.799C72.2862 115.844 71.6094 117.928 70.9365 120.009C70.2586 122.089 69.5969 124.174 68.9616 126.265C67.6879 130.448 66.488 134.651 65.3626 138.872C64.8259 140.894 64.3001 142.918 63.8052 144.949H64.2245Z" fill="#30A9A0"/>
<path d="M149.828 144.957C151.352 142.625 152.558 140.483 153.656 138.776C155.276 136.25 156.987 133.581 158.706 131.014C160.421 128.445 162.144 125.98 163.691 123.826C165.228 121.664 166.619 119.844 167.554 118.492C168.512 117.162 169.02 116.306 168.879 116.162C168.581 115.853 165.157 117.471 160.905 120.722C158.779 122.339 156.451 124.358 154.224 126.672C151.996 128.982 149.871 131.583 148.101 134.274C147.73 134.852 147.308 135.538 146.861 136.3C146.43 137.071 145.972 137.916 145.53 138.809C145.106 139.711 144.656 140.641 144.285 141.603C144.094 142.081 143.91 142.561 143.734 143.037C143.566 143.517 143.414 143.997 143.27 144.466L144.359 144.957H149.828V144.957Z" fill="#0F6868"/>
<path d="M146.222 144.961C148.008 141.555 149.958 138.226 152.137 135.029C154.592 131.384 157.334 127.914 160.267 124.6C161.931 122.74 163.697 120.962 165.429 119.16C165.556 119.031 165.404 118.888 165.265 119.008C163.606 120.503 162.042 122.099 160.55 123.746C159.786 124.555 159.071 125.403 158.333 126.234L157.265 127.51L156.732 128.149L156.216 128.8C154.821 130.523 153.524 132.314 152.252 134.119C151.004 135.939 149.802 137.788 148.678 139.68C147.654 141.413 146.675 143.171 145.765 144.96H146.222V144.961Z" fill="#30A9A0"/>
<path d="M163.234 136.725C163.586 138.75 164.272 141.957 165.155 144.954H171.439C171.441 141.721 170.908 138.901 170.534 136.66C169.594 130.935 167.645 124.728 165.741 120.057C163.844 115.378 162.044 112.214 161.655 112.313C161.192 112.43 161.177 115.785 161.455 120.469C161.747 125.157 162.294 131.171 163.234 136.725Z" fill="#0F6868"/>
<path d="M163.797 122.309C164.257 124.279 164.684 126.256 165.092 128.236C165.914 132.195 166.624 136.175 167.237 140.168C167.479 141.761 167.701 143.357 167.917 144.953H168.335C167.91 141.584 167.39 138.226 166.793 134.881C166.091 130.894 165.266 126.927 164.344 122.981C163.82 120.76 163.294 118.533 162.622 116.349C162.572 116.19 162.363 116.239 162.399 116.401C162.828 118.378 163.345 120.338 163.797 122.309Z" fill="#30A9A0"/>
<path d="M176.291 144.952C177.264 142.691 177.797 140.586 178.296 138.897C181.108 129.382 182.1 117.127 181.304 116.926C180.396 116.696 174.397 126.719 171.594 136.2C170.996 138.225 170.225 141.724 170.022 144.82L170.51 144.951H176.291V144.952Z" fill="#0F6868"/>
<path d="M172.979 144.955C173.87 142.013 174.729 139.062 175.597 136.115L178.556 126.031C179.108 124.138 179.696 122.249 180.162 120.335C180.196 120.196 179.988 120.142 179.941 120.278C179.362 121.934 178.883 123.62 178.381 125.298L176.874 130.331L173.889 140.407C173.442 141.922 172.994 143.437 172.555 144.955H172.979Z" fill="#30A9A0"/>
<path d="M129.937 38.2422H81.9614C78.7441 38.2422 76.1357 40.7044 76.1357 43.7422V145.58C76.1357 148.617 78.7441 151.08 81.9614 151.08H129.937C133.154 151.08 135.763 148.617 135.763 145.58V43.7418C135.762 40.7044 133.154 38.2422 129.937 38.2422Z" fill="#264456"/>
<path d="M128.671 146.695H84.2402C81.7561 146.695 79.7236 144.776 79.7236 142.431V46.3188C79.7236 43.9735 81.7561 42.0547 84.2402 42.0547H128.671C131.155 42.0547 133.188 43.9735 133.188 46.3188V142.431C133.188 144.776 131.155 146.695 128.671 146.695Z" fill="#83B4E0"/>
<path d="M110.944 40.2301H100.275C100.08 40.2301 99.9209 40.0794 99.9209 39.8957V39.7973C99.9209 39.6132 100.08 39.4629 100.275 39.4629H110.944C111.139 39.4629 111.299 39.6136 111.299 39.7973V39.8957C111.299 40.0798 111.139 40.2301 110.944 40.2301Z" fill="#83B4E0"/>
<path d="M98.4758 39.9742C98.4758 40.3978 98.1118 40.7414 97.6632 40.7414C97.2142 40.7414 96.8506 40.3978 96.8506 39.9742C96.8506 39.5503 97.2145 39.207 97.6632 39.207C98.1122 39.207 98.4758 39.5506 98.4758 39.9742Z" fill="#83B4E0"/>
<path d="M114.007 40.7414C114.456 40.7414 114.82 40.3979 114.82 39.9742C114.82 39.5505 114.456 39.207 114.007 39.207C113.558 39.207 113.194 39.5505 113.194 39.9742C113.194 40.3979 113.558 40.7414 114.007 40.7414Z" fill="#83B4E0"/>
<path d="M124.347 140.256H89.1054C86.6213 140.256 84.5889 138.337 84.5889 135.991V54.4907C84.5889 52.1454 86.6213 50.2266 89.1054 50.2266H124.347C126.831 50.2266 128.864 52.1454 128.864 54.4907V135.991C128.864 138.337 126.831 140.256 124.347 140.256Z" fill="#4186C6"/>
<path d="M118.661 74.9414H93.4438V98.7494H118.661V74.9414Z" fill="#EEF8FD"/>
<path d="M121.96 101.865H113.579V100.126H120.118V94.7188H121.96V101.865Z" fill="#EEF8FD"/>
<path d="M121.96 80.1106H120.119V73.5688H112.516V71.8301H121.96V80.1106Z" fill="#EEF8FD"/>
<path d="M91.9857 79.928H90.144V71.8301H99.4576V73.5688H91.9857V79.928Z" fill="#EEF8FD"/>
<path d="M100.038 101.864H90.144V94.627H91.9857V100.126H100.038V101.864Z" fill="#EEF8FD"/>
<path d="M120.05 110.518H94.3412C93.9084 110.518 93.5576 110.716 93.5576 110.961V115.919C93.5576 116.164 93.9084 116.362 94.3412 116.362H120.05C120.483 116.362 120.834 116.164 120.834 115.919V110.961C120.834 110.716 120.483 110.518 120.05 110.518Z" fill="#EEF8FD"/>
<path d="M98.7487 121.448C98.2006 121.448 97.6754 121.376 97.1731 121.232C96.6707 121.082 96.2662 120.89 95.9596 120.655L96.4978 119.461C96.7914 119.67 97.1372 119.843 97.5352 119.98C97.9397 120.11 98.3474 120.175 98.7584 120.175C99.0716 120.175 99.3228 120.146 99.512 120.087C99.7077 120.022 99.8512 119.934 99.9426 119.823C100.034 119.712 100.08 119.585 100.08 119.441C100.08 119.259 100.008 119.115 99.8643 119.011C99.7208 118.9 99.5316 118.812 99.2967 118.746C99.0618 118.675 98.8009 118.609 98.5138 118.551C98.2332 118.486 97.9494 118.407 97.6624 118.316C97.3818 118.225 97.1241 118.107 96.8893 117.964C96.6544 117.82 96.4619 117.631 96.3119 117.396C96.1683 117.161 96.0966 116.861 96.0966 116.496C96.0966 116.104 96.201 115.749 96.4097 115.429C96.625 115.103 96.9447 114.845 97.3688 114.656C97.7994 114.46 98.3376 114.362 98.9835 114.362C99.4141 114.362 99.8382 114.414 100.256 114.519C100.673 114.617 101.042 114.767 101.362 114.969L100.872 116.173C100.553 115.99 100.233 115.856 99.9132 115.771C99.5935 115.68 99.2804 115.634 98.9737 115.634C98.6671 115.634 98.4159 115.67 98.2202 115.742C98.0245 115.814 97.8842 115.908 97.7994 116.026C97.7146 116.137 97.6722 116.267 97.6722 116.417C97.6722 116.594 97.7439 116.737 97.8875 116.848C98.031 116.952 98.2202 117.037 98.4551 117.102C98.6899 117.168 98.9476 117.233 99.2282 117.298C99.5153 117.363 99.7991 117.438 100.08 117.523C100.367 117.608 100.628 117.722 100.862 117.866C101.097 118.009 101.287 118.198 101.43 118.433C101.58 118.668 101.655 118.965 101.655 119.324C101.655 119.709 101.548 120.061 101.332 120.381C101.117 120.7 100.794 120.958 100.363 121.154C99.9393 121.35 99.4011 121.448 98.7487 121.448ZM106.017 121.448C105.488 121.448 104.996 121.363 104.539 121.193C104.089 121.017 103.698 120.769 103.365 120.449C103.032 120.13 102.771 119.754 102.582 119.324C102.399 118.893 102.308 118.42 102.308 117.905C102.308 117.389 102.399 116.916 102.582 116.486C102.771 116.055 103.032 115.68 103.365 115.36C103.704 115.041 104.099 114.796 104.549 114.626C104.999 114.45 105.492 114.362 106.027 114.362C106.62 114.362 107.155 114.467 107.632 114.675C108.114 114.878 108.519 115.178 108.845 115.576L107.827 116.515C107.592 116.248 107.332 116.049 107.044 115.918C106.757 115.781 106.444 115.713 106.105 115.713C105.785 115.713 105.492 115.765 105.224 115.869C104.957 115.974 104.725 116.124 104.529 116.319C104.334 116.515 104.18 116.747 104.069 117.014C103.965 117.282 103.913 117.579 103.913 117.905C103.913 118.231 103.965 118.528 104.069 118.795C104.18 119.063 104.334 119.295 104.529 119.49C104.725 119.686 104.957 119.836 105.224 119.94C105.492 120.045 105.785 120.097 106.105 120.097C106.444 120.097 106.757 120.032 107.044 119.901C107.332 119.764 107.592 119.559 107.827 119.285L108.845 120.224C108.519 120.622 108.114 120.926 107.632 121.134C107.155 121.343 106.617 121.448 106.017 121.448ZM108.891 121.33L111.944 114.48H113.51L116.573 121.33H114.91L112.404 115.282H113.031L110.516 121.33H108.891ZM110.418 119.862L110.839 118.658H114.362L114.792 119.862H110.418ZM117.284 121.33V114.48H118.596L122.637 119.412H122.001V114.48H123.567V121.33H122.265L118.214 116.398H118.85V121.33H117.284ZM125.188 121.33V114.48H126.499L130.541 119.412H129.905V114.48H131.471V121.33H130.169L126.117 116.398H126.754V121.33H125.188ZM96.4978 133.33V126.48H98.0832V133.33H96.4978ZM99.7089 133.33V126.48H101.02L105.062 131.412H104.426V126.48H105.992V133.33H104.69L100.639 128.398H101.275V133.33H99.7089ZM110.92 133.448C110.379 133.448 109.88 133.363 109.423 133.193C108.973 133.017 108.578 132.769 108.239 132.449C107.906 132.13 107.645 131.754 107.456 131.324C107.273 130.893 107.182 130.42 107.182 129.905C107.182 129.389 107.273 128.916 107.456 128.486C107.645 128.055 107.909 127.68 108.249 127.36C108.588 127.041 108.986 126.796 109.443 126.626C109.899 126.45 110.402 126.362 110.95 126.362C111.556 126.362 112.101 126.463 112.584 126.666C113.073 126.868 113.484 127.161 113.817 127.546L112.799 128.486C112.551 128.225 112.281 128.032 111.987 127.908C111.693 127.778 111.374 127.713 111.028 127.713C110.695 127.713 110.392 127.765 110.118 127.869C109.844 127.974 109.606 128.124 109.403 128.319C109.208 128.515 109.054 128.747 108.943 129.014C108.839 129.282 108.787 129.579 108.787 129.905C108.787 130.225 108.839 130.518 108.943 130.786C109.054 131.053 109.208 131.288 109.403 131.49C109.606 131.686 109.841 131.836 110.108 131.94C110.382 132.045 110.682 132.097 111.008 132.097C111.322 132.097 111.625 132.048 111.918 131.95C112.219 131.846 112.509 131.673 112.789 131.432L113.69 132.577C113.318 132.857 112.884 133.072 112.388 133.222C111.899 133.372 111.41 133.448 110.92 133.448ZM112.241 132.371V129.797H113.69V132.577L112.241 132.371Z" fill="#4186C6"/>
<path d="M90.4536 41.3066V42.3787C90.4536 43.5865 91.4909 44.5658 92.7702 44.5658H119.126C120.406 44.5658 121.443 43.5865 121.443 42.3787V41.3066H90.4536Z" fill="#264456"/>
<g opacity="0.33">
<path d="M83.0035 99.7579C82.7694 99.7579 82.533 99.695 82.3237 99.5632C81.7595 99.2082 81.6071 98.4883 81.9831 97.9556L117.56 47.5729C117.936 47.0403 118.699 46.8964 119.263 47.2514C119.827 47.6063 119.979 48.3263 119.603 48.8589L84.0265 99.2416C83.7897 99.5767 83.4006 99.7579 83.0035 99.7579Z" fill="#EEF8FD"/>
</g>
<g opacity="0.33">
<path d="M81.6955 131.128C81.4595 131.128 81.2213 131.064 81.0109 130.93C80.4482 130.573 80.2995 129.852 80.6785 129.321L112.301 84.998C112.68 84.4672 113.443 84.3264 114.006 84.6843C114.568 85.0418 114.717 85.762 114.338 86.2933L82.7151 130.616C82.4776 130.949 82.0899 131.128 81.6955 131.128Z" fill="#EEF8FD"/>
</g>
<g opacity="0.33">
<path d="M103.942 130.868C103.707 130.868 103.47 130.805 103.261 130.673C102.697 130.317 102.546 129.598 102.922 129.065L129.041 92.1618C129.418 91.6295 130.18 91.4863 130.744 91.842C131.308 92.1977 131.459 92.9176 131.083 93.4496L104.964 130.353C104.727 130.687 104.338 130.868 103.942 130.868Z" fill="#EEF8FD"/>
</g>
<path d="M134.327 143.573C134.327 143.573 133.218 151.902 132.161 153.4C131.278 154.65 130.262 155.484 131.145 156.651C131.679 157.357 136.586 158.659 138.122 159.035C138.436 159.112 138.758 158.947 138.859 158.656C138.996 158.263 139.045 157.711 138.525 157.282C137.618 156.532 135.605 154.275 135.605 154.275L139.887 142.77L134.327 143.573Z" fill="#F49B91"/>
<path d="M135.605 154.275L135.607 154.27C134.742 155.091 133.457 155.463 132.311 155.143C131.934 155.038 131.55 154.825 131.328 154.514C130.819 155.228 130.549 155.864 131.145 156.652C131.679 157.358 136.586 158.659 138.122 159.036C138.436 159.113 138.758 158.947 138.86 158.656C138.996 158.264 139.045 157.712 138.525 157.282C137.617 156.532 135.605 154.275 135.605 154.275Z" fill="#666DB2"/>
<path d="M138.549 146.363L139.886 142.77L134.328 143.573C134.328 143.573 134.2 144.528 133.991 145.848C135.447 146.327 137.014 146.502 138.549 146.363Z" fill="#DE706B"/>
<path d="M145.609 144.109C145.609 144.109 147.184 152.371 146.648 154.099C146.201 155.541 145.496 156.623 146.708 157.488C147.441 158.012 152.535 157.871 154.12 157.797C154.444 157.782 154.699 157.533 154.704 157.227C154.711 156.814 154.583 156.273 153.951 156.01C152.847 155.55 150.213 153.963 150.213 153.963L150.661 141.775L145.609 144.109Z" fill="#F49B91"/>
<path d="M150.213 153.965L150.213 153.959C149.647 154.987 148.539 155.704 147.343 155.721C146.95 155.727 146.517 155.633 146.206 155.398C145.947 156.223 145.89 156.906 146.708 157.49C147.441 158.013 152.536 157.872 154.121 157.798C154.445 157.784 154.7 157.534 154.705 157.228C154.711 156.815 154.584 156.275 153.951 156.011C152.847 155.552 150.213 153.965 150.213 153.965Z" fill="#666DB2"/>
<path d="M150.497 146.21L150.66 141.775L145.609 144.109C145.609 144.109 145.79 145.057 146.007 146.377C147.502 146.536 149.02 146.479 150.497 146.21Z" fill="#DE706B"/>
<path d="M154.662 100.539L139.527 101.471C137.25 104.085 136.311 107.539 136.097 110.917C135.884 114.296 136.33 117.677 136.503 121.057C136.903 128.894 135.817 136.796 133.313 144.278C139.86 145.185 146.627 144.962 153.185 144.131C154.925 137.495 155.73 130.613 156.478 123.814C157.351 115.875 157.302 107.395 154.662 100.539Z" fill="#666DB2"/>
<path d="M139.915 103.601C136.89 108.896 138.966 115.101 139.494 120.703C139.963 125.677 139.719 130.767 138.841 135.689C138.587 137.111 138.271 138.525 137.884 139.921C137.513 141.261 137.048 142.567 136.645 143.897C136.631 143.941 136.701 143.97 136.725 143.929C137.31 142.908 137.695 141.775 138.063 140.672C138.467 139.465 138.752 138.216 139.004 136.974C139.523 134.423 139.837 131.834 139.993 129.241C140.138 126.814 140.147 124.376 139.983 121.95C139.797 119.202 139.251 116.498 138.926 113.764C138.524 110.376 138.569 106.859 140.103 103.705C140.16 103.587 139.982 103.483 139.915 103.601Z" fill="#747DBB"/>
<path d="M140.039 105.151C141.085 104.927 142.133 104.56 143.199 104.678C144.501 104.823 145.595 105.668 146.858 106.002C148.548 106.448 150.334 105.942 152.026 105.504C153.314 105.171 154.704 104.884 155.996 105.076C155.653 103.506 155.218 101.985 154.661 100.539L139.526 101.471C138.598 102.536 137.896 103.742 137.371 105.024C138.159 105.398 139.154 105.339 140.039 105.151Z" fill="#5964AA"/>
<path d="M156.816 88.1393L157.136 95.1452L155.325 95.2124C155.325 95.2124 152.777 90.1217 153.621 88.6421C154.186 87.6524 156.816 88.1393 156.816 88.1393Z" fill="#F49089"/>
<path d="M156.816 88.1355C156.816 88.1355 154.185 87.6483 153.621 88.6383C153.369 89.08 153.421 89.844 153.615 90.6975C154.62 90.1439 155.734 89.7683 156.883 89.5952L156.816 88.1355Z" fill="#DE706B"/>
<path d="M155.282 68.2668C154.903 67.1432 153.653 66.4439 152.413 66.2978C151.809 66.2268 151.2 66.214 150.595 66.2769C149.976 66.3412 149.313 66.4986 148.675 66.4847C147.994 66.4698 147.358 66.3597 146.684 66.5356C145.915 66.7363 145.211 67.2192 144.863 67.8972C144.381 68.8364 144.596 70.0506 143.905 70.8654C143.505 71.3359 142.881 71.5718 142.358 71.9187C141.485 72.4972 140.875 73.4513 140.848 74.4576C140.821 75.4639 141.425 76.4873 142.394 76.908C143.516 77.3956 144.834 77.0452 146.058 77.2012C147.22 77.3494 148.303 77.9566 149.475 77.9328C150.383 77.9144 151.251 77.5146 152.159 77.532C152.682 77.5423 153.268 77.6763 153.686 77.3782C154.05 77.118 154.123 76.6209 154.038 76.1973C153.951 75.7741 153.74 75.3815 153.643 74.96C153.379 73.8137 153.986 72.6681 154.549 71.6223C155.111 70.5765 155.66 69.3843 155.282 68.2668Z" fill="#5683C2"/>
<path d="M136.113 87.4727C136.113 87.4727 136.733 88.9932 139.188 89.5941L140.084 87.8117L136.113 87.4727Z" fill="#E98E31"/>
<path d="M144.209 77.0989C142.544 76.5918 140.653 77.1738 139.363 78.2889C138.073 79.404 137.317 80.9767 136.892 82.5782C136.467 84.1801 136.341 85.8364 136.113 87.4738C137.509 87.6995 138.993 87.6657 140.344 87.8117C141.433 92.751 140.363 98.0822 137.073 102.059C137.545 102.928 138.826 103.314 139.855 103.205C140.883 103.095 141.9 102.749 142.927 102.869C144.543 103.056 145.92 104.369 147.542 104.234C148.468 104.157 149.277 103.612 150.185 103.426C150.962 103.267 151.77 103.378 152.553 103.512C153.335 103.646 154.126 103.804 154.918 103.737C155.71 103.67 156.522 103.338 156.937 102.697C156.799 99.8557 156.128 97.0972 155.085 94.4286C154.701 93.4489 154.259 92.487 153.975 91.4778C153.691 90.4686 153.57 89.3937 153.841 88.3814C155.082 88.2467 156.276 88.1873 157.516 88.053C157.346 85.8183 156.631 83.7967 155.428 81.8654C154.735 80.7532 153.875 79.7085 152.754 78.9712C151.54 78.1731 150.084 77.774 148.637 77.4855C147.133 77.1845 145.672 77.5445 144.209 77.0989Z" fill="#FAAD58"/>
<path d="M151.601 75.4618C152.21 75.2542 152.676 74.8232 152.986 74.2941C153.403 73.5809 153.091 72.8354 153.279 72.0793C153.413 71.5395 153.788 71.0619 153.845 70.5101C153.915 69.836 153.466 69.1725 152.842 68.8389C152.218 68.5052 151.378 68.5198 150.677 68.6608C150.848 68.8424 150.888 69.39 150.762 69.6018C150.635 69.8136 150.437 69.9781 150.283 70.1735C150.027 70.4997 149.906 70.9002 149.79 71.2907C149.404 72.5867 149.062 73.9555 148.679 75.2553C149.667 75.3548 150.62 75.7965 151.601 75.4618Z" fill="#3D6EA2"/>
<path d="M152.376 70.1942C152.779 70.7716 152.94 71.6831 152.885 72.3724C152.83 73.0618 152.603 73.6851 152.291 74.3105C152.009 74.8769 151.552 75.4383 150.989 75.7692C150.427 76.1 149.507 76.1593 149.033 75.7219C148.915 76.3484 148.785 77.0335 148.668 77.6596C148.945 77.7157 149.279 77.8504 149.556 77.9062C150.016 79.9238 149.812 82.5612 149.095 84.5109C147.733 81.9976 146.104 79.1812 144.07 77.1109C145.134 77.1127 146.493 76.9503 147.17 76.0499C147.847 75.1494 148.142 73.6016 147.262 72.8745C147.027 72.6802 146.773 72.4517 146.761 72.1571C146.752 71.9243 146.912 71.7001 147.134 71.5974C147.356 71.4951 147.693 71.5381 147.916 71.6369C148.659 71.5125 149.353 71.1433 149.85 70.6081C150.348 70.073 150.646 69.3755 150.68 68.6641C151.698 69.3129 151.904 69.5165 152.376 70.1942Z" fill="#F49B91"/>
<path d="M148.084 74.0762C148.084 74.0762 147.662 76.8372 148.667 77.6644C148.785 77.038 148.915 76.3529 149.032 75.7267C149.032 75.7267 148.393 75.2268 148.084 74.0762Z" fill="#DE706B"/>
<path d="M152.454 82.0417C152.821 83.0086 153.139 84.0448 153.239 85.0692C153.288 85.5699 153.326 86.0699 153.34 86.5723C153.355 87.0947 153.307 87.6174 153.328 88.139C153.34 88.4606 153.883 88.5658 153.951 88.2186C154.154 87.1885 154.019 86.0151 153.769 85.0014C153.508 83.9407 153.185 82.9325 152.672 81.955C152.613 81.842 152.408 81.9209 152.454 82.0417Z" fill="#E98E31"/>
<path d="M143.609 84.3473C143.629 85.1169 143.711 85.8976 143.898 86.6481C144.08 87.3798 144.317 88.1804 144.758 88.8143C144.95 89.09 145.358 88.8523 145.219 88.5599C144.9 87.8861 144.601 87.2341 144.402 86.517C144.204 85.802 144.043 85.0807 143.944 84.3473C143.918 84.1518 143.604 84.1376 143.609 84.3473Z" fill="#E98E31"/>
<path d="M138.355 87.9275C139.496 88.1819 140.692 88.1557 141.853 88.2637C142.445 88.3188 143.039 88.3728 143.618 88.5085C143.911 88.5774 144.199 88.6641 144.469 88.7942C144.544 88.8301 144.732 88.8873 144.71 88.9847C144.699 89.0309 144.458 89.1232 144.412 89.1552C144.207 89.2977 144.237 89.7032 144.56 89.6712C145.109 89.6168 145.642 89.033 145.165 88.5693C144.947 88.3575 144.603 88.2576 144.315 88.1642C143.931 88.0398 143.537 87.9577 143.136 87.9016C141.576 87.682 139.954 87.6553 138.381 87.7395C138.272 87.7452 138.238 87.9016 138.355 87.9275Z" fill="#E98E31"/>
<path d="M144.149 77.3554C145.901 78.8166 146.918 80.4899 147.742 82.5395C147.938 83.0289 148.153 83.5132 148.454 83.9545C148.788 84.4453 149.2 84.8852 149.571 85.3507C150.29 86.2518 150.917 87.2176 151.466 88.219C151.767 88.7666 152.059 89.3191 152.35 89.8713C152.66 90.4602 152.89 91.0838 153.197 91.6719C153.24 91.7543 153.367 91.6946 153.348 91.6118C153.218 91.0589 152.982 90.5088 152.781 89.9755C152.586 89.4563 152.38 88.9425 152.127 88.4457C151.598 87.412 150.972 86.416 150.266 85.4821C149.908 85.0088 149.511 84.565 149.143 84.0984C148.762 83.6141 148.488 83.0946 148.247 82.5371C147.821 81.5506 147.352 80.6019 146.728 79.7107C146.03 78.7143 145.178 77.8057 144.181 77.069C144.057 76.9774 143.811 76.9553 143.935 77.0587L144.149 77.3554Z" fill="#E98E31"/>
<path d="M149.558 78.0029C149.619 79.1006 149.718 80.0259 149.547 81.1179C149.389 82.1263 149.089 83.1217 148.856 84.1166C148.799 84.3572 149.192 84.4599 149.247 84.2186C149.482 83.2062 149.747 82.1903 149.88 81.1605C150.024 80.0447 149.789 79.0871 149.658 77.9759C149.645 77.8658 149.523 77.7659 149.53 77.8818L149.558 78.0029Z" fill="#E98E31"/>
<path d="M144.123 88.4004C144.217 88.7568 144.256 89.1118 144.351 89.4686C144.534 89.4455 144.784 89.3886 144.922 89.271C145.059 89.1534 145.128 88.9501 145.038 88.797C144.957 88.6601 144.783 88.6026 144.622 88.5685C144.461 88.5344 144.245 88.5059 144.123 88.4004Z" fill="#E98E31"/>
<path d="M149.699 71.0701C149.704 71.123 150.622 71.0605 151.007 71.2883C151.085 71.3348 151.164 71.3888 151.256 71.402C151.473 71.4332 151.531 71.1824 151.351 71.0932C151.218 71.0274 151.102 70.9862 150.977 70.955C150.532 70.8455 149.761 70.8306 149.699 71.0701Z" fill="#675161"/>
<path d="M152.876 71.2942C152.866 71.3464 152.849 71.1428 152.445 71.3379C152.363 71.3781 152.267 71.4299 152.175 71.4356C151.955 71.4488 151.921 71.194 152.109 71.1201C152.247 71.0657 152.357 71.0408 152.487 71.0455C152.747 71.0543 152.863 71.1872 152.876 71.2942Z" fill="#675161"/>
<path d="M151.027 72.0415C150.996 72.2501 150.835 72.4015 150.667 72.3791C150.5 72.3567 150.39 72.1698 150.421 71.9609C150.452 71.7523 150.613 71.6009 150.78 71.6233C150.948 71.6453 151.058 71.8326 151.027 72.0415Z" fill="#675161"/>
<path d="M152.824 72.1157C152.792 72.3243 152.632 72.4757 152.464 72.4533C152.297 72.4309 152.186 72.2437 152.218 72.0351C152.249 71.8265 152.41 71.6751 152.577 71.6975C152.744 71.7195 152.855 71.9068 152.824 72.1157Z" fill="#675161"/>
<path d="M152.007 73.1884C152.05 73.3341 152.1 73.4876 152.059 73.6337C152.019 73.7733 151.89 73.8863 151.74 73.9148C151.59 73.9428 151.425 73.8849 151.332 73.7705C151.469 73.8064 151.621 73.7318 151.699 73.6188C151.778 73.5058 151.793 73.3633 151.781 73.2286C151.767 73.0943 151.728 72.9631 151.704 72.8302C151.665 72.616 151.612 72.181 151.781 72.0137C151.866 72.4035 151.89 72.8 152.007 73.1884Z" fill="#DE706B"/>
<path opacity="0.21" d="M151.576 78.6543C154.575 80.6044 156.579 83.8587 156.89 87.2838C156.308 87.4036 155.628 87.502 155.046 87.6217C154.798 84.4272 153.478 81.3069 151.576 78.6543Z" fill="#FFF9F4"/>
<path d="M151.859 74.6961C151.325 74.8262 150.772 74.7846 150.339 74.582C150.284 74.8173 150.248 75.0486 150.357 75.244C150.466 75.4395 150.702 75.5773 150.974 75.5546C151.207 75.5351 151.437 75.4018 151.596 75.2327C151.755 75.0635 151.797 74.8962 151.859 74.6961Z" fill="#EE8780"/>
<path opacity="0.58" d="M152.523 90.0789C148.699 89.9013 144.709 89.0602 140.63 87.7148C140.98 89.7641 140.832 92.7788 140.445 94.8064C144.908 95.0708 149.579 93.2561 152.523 90.0789Z" fill="#E98E31"/>
<path d="M150.308 75.1106C150.319 75.1557 150.333 75.2001 150.357 75.2421C150.466 75.4375 150.701 75.5754 150.973 75.5526C151.171 75.5359 151.364 75.4357 151.515 75.3028C151.364 75.1753 151.18 75.0825 150.981 75.0441C150.756 75.0008 150.519 75.0267 150.308 75.1106Z" fill="#DE706B"/>
<path d="M151.859 74.6961C151.324 74.8262 150.771 74.7846 150.338 74.582C150.295 74.7668 150.266 74.948 150.308 75.1126C150.519 75.0287 150.756 75.0028 150.981 75.0461C151.18 75.0845 151.364 75.1772 151.516 75.3048C151.543 75.281 151.571 75.2582 151.595 75.2327C151.754 75.0635 151.796 74.8962 151.859 74.6961Z" fill="#675161"/>
<path d="M170.258 84.7188H156.995C156.628 84.7188 156.313 84.9657 156.247 85.3061L154.529 94.081H148.629C148.433 94.081 148.274 94.2309 148.274 94.4161V95.0706C148.274 95.2557 148.433 95.4057 148.629 95.4057H161.891L167.74 95.459C168.09 95.4622 168.397 95.239 168.484 94.9185L170.995 85.6139C171.118 85.1601 170.754 84.7188 170.258 84.7188Z" fill="#A5DDEC"/>
<path d="M144.231 88.1952C144.671 90.0842 145.241 92.5531 146.014 94.344C151.14 94.5814 156.078 94.8191 161.096 95.2171C159.965 96.4146 158.248 97.0862 156.55 97.0162C156.281 97.1509 155.822 97.347 155.543 97.4615C152.7 98.6288 149.773 99.1646 146.68 98.9518C145.546 98.8736 144.389 98.6906 143.406 98.1494C142.175 97.4714 141.341 96.3002 140.694 95.1006C139.479 92.8445 138.367 90.2231 138.244 87.6945C140.177 87.6064 142.402 87.6746 144.231 88.1952Z" fill="#F49B91"/>
<path d="M157.663 94.957L158.973 95.0612C158.973 95.0612 157.952 95.764 157.58 95.7249C157.208 95.6858 157.869 95.4126 157.911 95.2694C157.952 95.1265 157.952 94.9833 157.663 94.957Z" fill="#E2756D"/>
<path d="M163.676 87.6094C162.428 87.6094 161.245 88.5695 161.035 89.7539C160.825 90.9382 161.667 91.8984 162.916 91.8984C164.165 91.8984 165.348 90.9382 165.558 89.7539C165.768 88.5695 164.925 87.6094 163.676 87.6094Z" fill="#F5FBFD"/>
<path d="M161.318 90.0595C161.528 88.8751 162.711 87.915 163.96 87.915C164.483 87.915 164.933 88.0852 165.266 88.368C164.933 87.9043 164.368 87.6094 163.676 87.6094C162.427 87.6094 161.245 88.5695 161.035 89.7539C160.913 90.4422 161.148 91.053 161.61 91.4453C161.342 91.0711 161.225 90.5882 161.318 90.0595Z" fill="#7ACFE6"/>
<path d="M143.342 94.5011C144.182 94.2808 145.068 94.2292 145.93 94.3554C146.074 94.3764 146.103 94.187 145.957 94.1685C145.067 94.0555 144.164 94.1301 143.307 94.3831C143.228 94.4066 143.261 94.5221 143.342 94.5011Z" fill="#DE706B"/>
<path d="M144.747 90.3459C144.557 89.594 144.385 88.8581 144.231 88.195C142.402 87.6744 140.177 87.6062 138.244 87.6947C138.268 88.1872 138.33 88.6833 138.423 89.1797C140.587 89.1335 142.759 89.5372 144.747 90.3459Z" fill="#DE706B"/>
<path d="M157.663 94.957L158.973 95.0612C158.973 95.0612 157.952 95.764 157.58 95.7249C157.208 95.6858 157.869 95.4126 157.911 95.2694C157.952 95.1265 157.952 94.9833 157.663 94.957Z" fill="#E2756D"/>
<path opacity="0.61" d="M146.362 67.1659C146.003 67.2906 145.705 67.5383 145.492 67.8379C145.18 68.2764 145.045 68.7689 144.973 69.2742C144.935 69.5339 145.279 69.6832 145.468 69.4913C145.765 69.1892 146.005 68.621 146.168 68.7191L146.295 69.002C146.26 69.1914 146.44 69.3502 146.639 69.3097C146.884 69.2603 147.148 69.2923 147.365 69.4124C147.514 69.4952 147.642 69.6146 147.803 69.6743C148.209 69.8239 148.638 69.5524 149.003 69.3271C149.368 69.1018 149.888 68.9224 150.204 69.2059C150.275 68.9846 150.06 68.7579 149.823 68.701C149.585 68.6441 149.337 68.7031 149.095 68.7401C148.853 68.777 148.584 68.7859 148.387 68.6481C148.109 68.4537 148.102 68.0713 147.97 67.7693C147.704 67.1609 147.06 66.9236 146.362 67.1659Z" fill="#6297D0"/>
<path opacity="0.61" d="M141.512 74.8091C141.522 74.8813 141.536 74.9566 141.584 75.0138C141.715 75.1709 141.99 75.0849 142.14 74.9427C142.29 74.8006 142.407 74.608 142.609 74.5483C142.899 74.4634 143.179 74.6965 143.361 74.9257C143.543 75.1549 143.739 75.4253 144.041 75.4555C144.516 75.5031 144.806 74.9346 145.268 74.8191C145.673 74.7178 146.095 74.9914 146.508 74.9257C146.921 74.8599 147.21 74.4047 147.076 74.0302C147.037 74.2832 146.659 74.3468 146.414 74.2377C146.169 74.1283 145.984 73.919 145.732 73.8255C145.404 73.7044 145.038 73.8014 144.693 73.8618C144.347 73.9222 143.939 73.925 143.704 73.6777C143.506 73.4695 143.505 73.1603 143.423 72.8917C143.152 72.0094 142.365 72.5499 142.011 73.0182C141.623 73.531 141.431 74.1809 141.512 74.8091Z" fill="#6297D0"/>
<path opacity="0.21" d="M146.028 87.3837C146.028 87.6438 146.009 87.9213 146.15 88.1448C146.374 88.5005 146.909 88.5584 147.329 88.4401C147.75 88.3218 148.119 88.0748 148.538 87.9543C149.709 87.6175 151.108 88.2965 152.143 87.6789C152.596 87.4082 152.874 86.9274 152.981 86.4313C153.087 85.9353 153.039 85.4214 152.956 84.9211C152.913 84.6628 152.841 84.376 152.607 84.2357C152.311 84.0573 151.908 84.2122 151.656 84.4446C151.405 84.677 151.231 84.9808 150.954 85.1859C150.372 85.6165 149.539 85.4886 148.816 85.3394C148.048 85.1805 147.28 85.0217 146.512 84.8628C145.929 84.7424 145.298 84.7029 145.535 85.4168C145.758 86.0891 146.025 86.6584 146.028 87.3837Z" fill="#FFF9F4"/>
<path opacity="0.21" d="M140.12 87.0422C139.094 87.1016 138.098 86.9676 137.091 86.7725C137.038 84.8178 137.247 82.8158 138.109 81.038C138.971 79.2602 140.562 77.7265 142.565 77.2266C140.577 80.086 139.694 83.6458 140.12 87.0422Z" fill="#FFF9F4"/>
<path opacity="0.21" d="M135.501 142.842C136.882 137.501 138.27 132.097 138.25 126.599C138.225 119.625 135.947 112.508 137.929 105.789C137.742 111.653 141.266 116.783 142.445 122.543C143.944 129.868 141.087 137.566 135.501 142.842Z" fill="#E0E2F2"/>
<path d="M156.603 85.3496L155.147 94.6727L149.363 94.3014H154.753L156.603 85.3496Z" fill="#F5FBFD"/>
<path opacity="0.54" d="M134.318 155.554L137.989 157.335C138.094 157.385 138.194 157.261 138.115 157.18L135.628 154.619C135.628 154.619 135.075 155.526 134.318 155.554Z" fill="#8089C3"/>
<path opacity="0.54" d="M149.29 155.484L153.326 156.303C153.44 156.326 153.502 156.182 153.404 156.123L150.298 154.26C150.298 154.26 150.013 155.271 149.29 155.484Z" fill="#8089C3"/>
<path d="M49.9237 119.255C48.1682 129.786 49.8051 140.81 46.4512 150.99C47.1569 151.536 47.041 152.633 47.6778 153.251C48.1893 153.747 48.9462 153.922 49.6613 154.076C49.6888 154.043 49.7163 154.011 49.7437 153.978C49.4404 153.875 49.6109 153.795 49.6828 153.499C50.268 151.073 51.1266 148.715 51.8202 146.315C52.7081 143.245 53.3246 140.111 53.9743 136.988C55.3146 130.542 56.7982 124.122 58.4235 117.734C56.9665 117.751 55.473 117.759 54.0371 117.994C52.6005 118.229 51.0844 118.423 49.9237 119.255Z" fill="#F49B91"/>
<path d="M48.0576 143.959C47.7124 146.334 47.2107 148.682 46.4512 150.987C47.1569 151.534 47.041 152.631 47.6778 153.248C48.1893 153.744 48.9462 153.92 49.6613 154.074C49.6888 154.041 49.7163 154.008 49.7437 153.976C49.4404 153.873 49.6109 153.793 49.6828 153.496C50.268 151.071 51.1266 148.713 51.8202 146.313C52.0288 145.591 52.2215 144.866 52.4044 144.138C50.964 143.961 49.5085 143.901 48.0576 143.959Z" fill="#E4E7E9"/>
<path d="M45.411 150.605C45.411 150.605 48.0874 150.694 48.2752 151.093C48.463 151.492 47.7118 153.354 48.1815 153.531C48.6509 153.708 49.1466 153.586 49.7439 153.979C50.3412 154.373 49.637 157.166 49.637 157.166C49.637 157.166 40.716 157.21 38.3215 153.93C38.3215 153.93 37.8517 152.955 39.3543 152.733C40.8568 152.511 43.3921 153.353 44.2374 152.556C45.0824 151.758 45.411 150.605 45.411 150.605Z" fill="#6482AF"/>
<path d="M54.0367 117.993C52.6008 118.228 51.0847 118.423 49.924 119.254C49.8065 119.958 49.7053 120.665 49.6157 121.372C52.2109 120.898 54.9106 120.938 57.4877 121.496C57.7956 120.241 58.1042 118.987 58.4226 117.734C56.9661 117.75 55.4726 117.759 54.0367 117.993Z" fill="#DE706B"/>
<path d="M64.9932 121.979C68.6791 132.056 75.6048 141.065 77.7039 151.54C78.5989 151.71 79.0416 152.73 79.911 152.993C80.6092 153.205 81.365 153.024 82.0726 152.843C82.0805 152.802 82.0887 152.761 82.0966 152.72C81.7779 152.764 81.8885 152.618 81.8042 152.324C81.115 149.923 80.7006 147.46 80.1203 145.034C79.3777 141.93 78.3645 138.89 77.3851 135.844C75.3639 129.558 73.4821 123.232 71.7417 116.871C70.4635 117.531 69.1488 118.2 67.9974 119.044C66.8468 119.887 65.6048 120.73 64.9932 121.979Z" fill="#F49B91"/>
<path d="M75.6284 144.623C76.505 146.874 77.2292 149.17 77.7045 151.541C78.5996 151.711 79.0422 152.731 79.9116 152.994C80.6098 153.206 81.3656 153.025 82.0732 152.844C82.0811 152.803 82.0894 152.762 82.0973 152.721C81.7785 152.765 81.8891 152.619 81.8048 152.325C81.1157 149.924 80.7016 147.461 80.1213 145.035C79.9466 144.305 79.7562 143.579 79.5556 142.855C78.1957 143.337 76.881 143.929 75.6284 144.623Z" fill="#E4E7E9"/>
<path d="M76.5938 151.662C76.5938 151.662 79.0012 150.554 79.3651 150.823C79.7295 151.092 79.9914 153.069 80.4943 153.018C80.9971 152.966 81.3739 152.638 82.0969 152.721C82.8199 152.804 83.5866 155.582 83.5866 155.582C83.5866 155.582 75.7316 159.574 71.9862 157.739C71.9862 157.739 71.0867 157.086 72.3031 156.225C73.5196 155.363 76.1772 154.983 76.5269 153.904C76.8769 152.825 76.5938 151.662 76.5938 151.662Z" fill="#6482AF"/>
<path d="M67.9982 119.044C66.8468 119.887 64.7967 118.832 64.1851 120.081C64.4316 120.755 65.5013 123.322 65.7741 123.986C67.8299 122.418 70.2339 121.256 72.7865 120.607C72.4342 119.363 72.0834 118.118 71.742 116.871C70.4638 117.532 69.1491 118.2 67.9982 119.044Z" fill="#DE706B"/>
<path d="M53.3992 98.9943C53.3992 98.9943 52.6344 100.701 52.6344 102.013C52.6344 103.325 52.0785 104.704 51.9392 106.213C51.8003 107.722 49.2285 120.125 49.2285 120.125H60.0717L61.7398 112.972L63.9642 120.256H75.5025L72.8611 98.666L53.3992 98.9943Z" fill="#CDD1E9"/>
<path opacity="0.51" d="M73.309 102.319L72.8622 98.666L53.4 98.994C53.4 98.994 52.7195 100.513 52.6431 101.788C59.4285 100.296 66.6188 100.486 73.309 102.319Z" fill="#CDD1E9"/>
<path d="M68.3109 100.633C69.1503 102.155 69.9587 104.083 71.8008 104.741C71.9818 104.806 72.1003 104.532 71.9321 104.448C71.5535 104.257 71.1857 104.073 70.8564 103.808C70.5132 103.533 70.2226 103.211 69.9727 102.858C69.7201 102.501 69.5082 102.122 69.2813 101.751C69.0295 101.339 68.7724 100.929 68.5176 100.518C68.4397 100.392 68.2398 100.504 68.3109 100.633Z" fill="#ACB7DD"/>
<path d="M69.598 100.909C69.9834 101.582 70.4324 102.219 70.939 102.816C71.1878 103.109 71.4528 103.388 71.7313 103.656C72.0087 103.923 72.3075 104.247 72.6519 104.435C72.8326 104.534 72.9865 104.315 72.8642 104.176C72.7385 104.033 72.5729 103.92 72.4283 103.794C72.2898 103.674 72.154 103.551 72.0207 103.425C71.7403 103.16 71.472 102.882 71.2153 102.597C70.7038 102.027 70.2521 101.413 69.8588 100.765C69.7617 100.606 69.5054 100.748 69.598 100.909Z" fill="#ACB7DD"/>
<path d="M55.3487 100.16C55.1594 100.9 54.8169 101.595 54.3407 102.21C54.1085 102.511 53.8424 102.788 53.5526 103.039C53.4032 103.169 53.2436 103.288 53.0784 103.399C52.9116 103.511 52.7219 103.6 52.5676 103.727C52.3813 103.879 52.6192 104.098 52.8089 104.022C53.0004 103.945 53.1755 103.792 53.3366 103.669C53.4909 103.551 53.6373 103.424 53.7803 103.294C54.0848 103.018 54.3596 102.713 54.6023 102.387C55.0841 101.738 55.4258 101 55.6031 100.226C55.6385 100.07 55.3886 100.003 55.3487 100.16Z" fill="#ACB7DD"/>
<path d="M56.655 100.664C56.3306 101.665 55.7679 102.586 55.0121 103.352C54.245 104.129 53.3639 104.671 52.35 105.117C52.0846 105.233 52.2743 105.669 52.5513 105.567C54.7151 104.774 56.369 102.831 56.9557 100.742C57.0073 100.559 56.7137 100.483 56.655 100.664Z" fill="#ACB7DD"/>
<path d="M61.4302 100.636C61.449 104.38 61.6466 108.115 61.6673 111.858C61.6684 112.036 61.9673 112.036 61.9597 111.858C61.8032 108.118 61.8239 104.377 61.665 100.636C61.659 100.494 61.4294 100.493 61.4302 100.636Z" fill="#ACB7DD"/>
<path d="M60.0016 100.708C60.0238 101.207 60.046 101.707 60.0679 102.207C60.0886 102.672 60.1014 103.14 60.1977 103.599C60.2786 103.985 60.4247 104.367 60.6686 104.689C60.8801 104.969 61.206 105.287 61.5764 105.362C61.7819 105.404 61.9046 105.148 61.7206 105.039C61.4036 104.851 61.1372 104.703 60.9283 104.395C60.7051 104.065 60.5925 103.687 60.5289 103.303C60.3874 102.45 60.3701 101.568 60.3035 100.708C60.2899 100.526 59.9937 100.523 60.0016 100.708Z" fill="#ACB7DD"/>
<path d="M60.6036 106.623C61.1377 106.541 61.6763 106.488 62.2168 106.466C62.4795 106.455 62.7426 106.452 63.0056 106.455C63.2763 106.459 63.5563 106.489 63.8258 106.468C64.0249 106.453 64.0994 106.162 63.8762 106.117C63.5951 106.061 63.2921 106.068 63.0056 106.069C62.732 106.071 62.4584 106.08 62.1855 106.097C61.6228 106.132 61.0628 106.199 60.5084 106.296C60.2792 106.336 60.3781 106.658 60.6036 106.623Z" fill="#ACB7DD"/>
<path d="M60.0687 108.12C60.756 108.07 61.4421 108.016 62.1283 107.956C62.8069 107.896 63.4889 107.853 64.163 107.757C64.3903 107.725 64.3361 107.369 64.1088 107.379C63.4339 107.409 62.7606 107.494 62.0888 107.56C61.4147 107.627 60.7417 107.699 60.0687 107.776C59.8418 107.802 59.8312 108.137 60.0687 108.12Z" fill="#ACB7DD"/>
<path d="M51.1122 88.8674C51.1122 88.8674 50.1487 88.3298 49.9149 87.1032C49.6812 85.8765 51.2436 85.4629 51.2436 85.4629L51.8567 85.7248C51.8567 85.7248 52.0611 88.2058 51.1122 88.8674Z" fill="#3A6CA0"/>
<path d="M52.5421 72.899H49.1042C48.843 72.899 48.6191 72.7228 48.5717 72.4801L47.2024 65.4194C47.1414 65.1057 47.397 64.8164 47.735 64.8164H51.1728C51.434 64.8164 51.6584 64.9927 51.7054 65.2354L53.0747 72.296C53.1357 72.6098 52.8801 72.899 52.5421 72.899Z" fill="#EEF7FC"/>
<path d="M49.1027 79.8961L47.8298 80.8264L48.569 72.3373C48.569 72.3373 49.9778 71.0523 50.0316 69.8712C50.0316 69.8712 50.5699 69.6299 50.7042 69.6551C50.8386 69.6807 51.74 69.9472 51.9015 69.7695C52.063 69.5919 51.2022 69.0709 51.1213 69.0201C51.0407 68.9693 49.8163 69.0962 49.8163 69.0962C49.8163 69.0962 50.7848 68.3343 50.9598 68.2959C51.1348 68.2579 51.7668 68.1815 51.8879 68.0675C52.0091 67.953 50.8521 67.7498 50.6504 67.7754C50.4487 67.8009 49.359 68.3215 49.359 68.3215C49.359 68.3215 50.1796 66.8483 50.4084 66.645C50.6372 66.4418 51.0272 65.9972 50.8254 65.9212C50.6237 65.8451 50.274 65.9212 50.0316 66.0736C49.8224 66.2055 50.2266 65.5964 50.3395 65.4294C50.3587 65.4006 50.3595 65.3661 50.3395 65.3377C50.268 65.2371 50.0486 65.0559 49.5341 65.5022C48.875 66.0736 47.2743 67.5089 47.1128 67.9914C46.9513 68.474 46.6852 69.7415 46.6852 71.5352C46.6852 71.5352 44.8779 74.029 43.9045 77.1792C42.9312 80.3293 42.2364 85.7984 42.6997 87.461C43.1631 89.1237 43.6268 89.2548 44.9242 89.1674C46.2215 89.08 52.4314 86.411 52.4314 86.411L51.4126 82.7239L49.1027 79.8961Z" fill="#F49B91"/>
<path d="M51.3043 82.5941L49.1024 79.8984L47.8295 80.8287L46.8521 84.068L51.3043 82.5941Z" fill="#DE706B"/>
<path d="M62.2946 75.9639L61.8998 75.8903C61.8998 75.8903 57.3859 75.2969 56.6199 75.4543C55.854 75.6114 54.3553 75.1715 48.7607 80.0134C48.7607 80.0134 52.8817 85.0781 51.1165 88.8507L54.222 86.2702L54.6421 95.043C54.6421 95.043 52.3047 97.0489 52.4323 99.5366C52.4323 99.5366 52.2622 99.978 58.3818 100.018H73.2134V89.1052L79.9281 88.4233C79.9281 88.4233 79.7158 87.3402 79.1207 86.7382C78.5257 86.1363 78.6958 84.3308 77.8459 83.689C76.996 83.0469 76.8259 78.4733 74.7438 77.4702C72.6617 76.467 68.8169 75.9351 68.8169 75.9351L62.2946 75.9639Z" fill="#5683C2"/>
<path d="M67.8093 68.4726C68.0928 68.5309 68.3325 68.748 68.4067 69.0127C68.4804 69.2775 68.3848 69.5781 68.1688 69.7607C68.4018 69.8755 68.6656 70.0447 68.8101 70.2515C68.9547 70.4586 69.0062 70.7365 68.8873 70.9575C68.8241 71.0752 68.7187 71.169 68.6543 71.2862C68.5339 71.5051 68.5726 71.772 68.494 72.0072C68.3378 72.4734 67.7243 72.703 67.2233 72.5793C66.7224 72.4557 66.3396 72.0623 66.1006 71.6288C65.638 70.7902 65.4679 69.7835 65.5142 68.839C65.5255 68.6055 65.5623 68.3525 65.7389 68.1884C65.9131 68.0263 66.1796 67.9936 66.4239 68.0036C66.9154 68.0242 67.3279 68.3735 67.8093 68.4726Z" fill="#675161"/>
<path d="M65.9118 68.4122C65.9269 68.8773 65.937 69.3464 65.9521 69.8112C66.1117 69.6637 66.2886 69.5265 66.4971 69.4509C66.7056 69.3748 66.951 69.3673 67.1452 69.4715C67.4531 69.6363 67.5446 70.0262 67.4851 70.3559C67.3884 70.8932 66.9352 71.4344 66.3868 71.6042C66.6476 73.0409 66.9326 74.4548 67.1934 75.8914H68.7008C68.7305 75.8914 68.7851 75.9355 68.8148 75.9355C67.6533 76.8242 66.3729 77.5747 65.0138 78.1628C64.5712 78.3543 64.112 78.5309 63.6272 78.5736C63.1424 78.6162 62.6234 78.5093 62.2681 78.1948C61.9602 77.9222 61.8063 77.5228 61.7634 77.1263C61.7208 76.7297 61.8398 76.2862 61.8977 75.8914C62.2259 75.9057 62.5733 75.8566 62.9015 75.8708C62.7864 75.3009 62.7005 74.7334 62.5854 74.1634C61.9655 74.0828 61.384 73.7637 61.0031 73.295C60.6079 72.8081 60.4374 72.193 60.329 71.5882C60.1028 70.3293 60.367 69.3443 60.9545 68.0195C62.7924 68.1823 64.0751 68.2494 65.9118 68.4122Z" fill="#F49B91"/>
<path d="M63.9858 69.1538C63.9726 69.2021 63.134 69.022 62.7452 69.1812C62.6655 69.2139 62.5849 69.2533 62.498 69.253C62.2925 69.2526 62.277 69.0135 62.4562 68.9552C62.5887 68.9122 62.702 68.8894 62.8228 68.8774C63.2496 68.8351 63.9643 68.9243 63.9858 69.1538Z" fill="#675161"/>
<path d="M60.4283 68.8427C60.4242 68.8985 60.539 68.6967 61.1578 69.0079C61.2846 69.0719 61.4276 69.1515 61.5865 69.1828C61.9625 69.2578 62.1288 69.009 61.8345 68.8814C61.6173 68.7873 61.4378 68.7318 61.2104 68.6995C60.7547 68.6355 60.4968 68.7379 60.4283 68.8427Z" fill="#675161"/>
<path d="M62.6143 69.8747C62.6117 70.0716 62.7378 70.2329 62.8958 70.2347C63.0535 70.2365 63.1838 70.0783 63.186 69.8811C63.1883 69.6839 63.0626 69.5229 62.9045 69.5215C62.7464 69.5194 62.6166 69.6779 62.6143 69.8747Z" fill="#675161"/>
<path d="M60.9439 69.6989C60.9413 69.8958 61.0673 70.0571 61.2254 70.0589C61.3831 70.0607 61.5134 69.9025 61.5156 69.7053C61.5182 69.5085 61.3922 69.3471 61.2341 69.3457C61.076 69.3436 60.9461 69.5017 60.9439 69.6989Z" fill="#675161"/>
<path d="M61.5379 70.8015C61.4758 70.9301 61.4066 71.0651 61.4235 71.2058C61.4397 71.3402 61.5413 71.4617 61.676 71.5079C61.8104 71.5541 61.9711 71.5221 62.075 71.429C61.9421 71.4439 61.8134 71.3547 61.7581 71.24C61.7028 71.1252 61.7092 70.9912 61.7415 70.8686C61.7735 70.746 61.8296 70.6305 61.8718 70.5108C61.9395 70.3182 62.0532 69.9231 61.9229 69.7461C61.7859 70.095 61.7043 70.4582 61.5379 70.8015Z" fill="#DE706B"/>
<path d="M61.2749 71.9512C61.8873 72.1981 62.5553 72.244 63.1109 72.0766C63.1312 72.3666 63.1293 72.6491 62.9615 72.8633C62.7932 73.0776 62.4861 73.2016 62.1658 73.1274C61.8922 73.0641 61.6434 72.8658 61.4864 72.6366C61.3291 72.4074 61.3114 72.2006 61.2749 71.9512Z" fill="#EE8780"/>
<path d="M63.0451 72.7161C63.0228 72.768 62.9976 72.8184 62.9615 72.8646C62.7933 73.0789 62.4861 73.2029 62.1658 73.1286C61.9336 73.075 61.7228 72.9218 61.5674 72.7374C61.7721 72.6113 62.0104 72.5324 62.2547 72.521C62.5313 72.5082 62.8091 72.58 63.0451 72.7161Z" fill="#DE706B"/>
<path d="M61.2749 71.9512C61.8873 72.1981 62.5553 72.244 63.1109 72.0766C63.1271 72.3044 63.1259 72.5258 63.045 72.7148C62.809 72.5787 62.5313 72.5069 62.2546 72.5197C62.0103 72.5311 61.7721 72.61 61.5673 72.7361C61.5395 72.7031 61.5101 72.6711 61.4861 72.6363C61.3291 72.4071 61.3114 72.2006 61.2749 71.9512Z" fill="#675161"/>
<path d="M63.6436 64.4703C63.6436 64.4703 66.3915 64.2628 67.3374 65.4905C68.4375 66.9189 67.9859 68.5695 67.9859 68.5695L66.0603 68.2913L63.6436 64.4703Z" fill="#D8D6EB"/>
<path d="M61.2074 66.9941C61.2074 66.9941 58.5942 66.9941 58.1817 67.3282C57.7691 67.6622 62.0128 68.9791 66.0604 68.2926L61.2074 66.9941Z" fill="#6A6EB2"/>
<path d="M61.208 66.9917C61.208 66.9917 62.2886 64.2094 64.0764 64.4503C65.8642 64.6916 66.0607 68.2902 66.0607 68.2902C66.0607 68.2902 61.66 67.8264 61.208 66.9917Z" fill="#B5B2D8"/>
<path d="M63.7077 75.8474C64.0179 75.7511 64.2512 75.512 64.4575 75.2732C65.2008 74.4133 65.8207 73.3899 66.2133 72.3438C65.3909 72.9201 64.5549 73.5036 63.5967 73.844C63.1864 73.9897 62.7479 74.0821 62.3091 74.1102C62.4005 74.1329 62.4931 74.1524 62.5872 74.1645C62.6998 74.7214 62.7848 75.276 62.8962 75.8325C63.1669 75.8979 63.4461 75.9292 63.7077 75.8474Z" fill="#DE706B"/>
<path d="M63.1704 79.3288C63.0436 81.4203 62.6326 83.4834 62.4116 85.5665C62.3063 86.5582 62.2404 87.5528 62.1779 88.5478C62.0925 89.9091 62.0161 91.2711 61.9453 92.6335C61.873 94.019 61.7688 95.4105 61.817 96.7978C61.8527 97.8311 61.8915 98.8666 61.963 99.8985C61.972 100.026 62.17 100.028 62.1749 99.8985C62.2084 99.0109 62.3194 98.1271 62.4154 97.2441C62.5629 95.887 62.6172 94.53 62.6804 93.1676C62.7941 90.7189 62.9224 88.2699 63.0846 85.8237C63.2284 83.6547 63.5566 81.5077 63.5412 79.3295C63.5393 79.1024 63.184 79.1053 63.1704 79.3288Z" fill="#386BA0"/>
<path d="M58.3259 95.583C58.9311 95.4032 59.5047 95.1228 60.0775 94.8688C60.3734 94.7377 60.67 94.6083 60.9616 94.4683C61.2631 94.324 61.5725 94.1936 61.8458 94.0053C62.0445 93.8681 61.9372 93.5124 61.6643 93.5995C61.3433 93.7018 61.0535 93.8592 60.7546 94.0085C60.4663 94.1524 60.1837 94.3045 59.9003 94.4566C59.3455 94.7547 58.802 95.0976 58.219 95.3446C58.0763 95.4053 58.1779 95.6271 58.3259 95.583Z" fill="#4380B5"/>
<path d="M63.3081 93.4722C64.5035 92.8336 65.7994 92.3663 67.0418 91.8166C67.6501 91.5476 68.2425 91.2509 68.8063 90.9055C69.3193 90.591 69.9757 90.2012 70.2358 89.6536C70.2893 89.5406 70.1955 89.3456 70.0367 89.4088C69.4571 89.6394 68.9685 90.0964 68.4416 90.4173C67.8785 90.7605 67.2842 91.059 66.6895 91.3497C65.4848 91.9389 64.2645 92.4747 63.1241 93.1747C62.9284 93.2952 63.1023 93.582 63.3081 93.4722Z" fill="#4380B5"/>
<path d="M71.1529 91.5724C70.4999 91.9932 69.9741 92.5422 69.4283 93.0762C69.1547 93.3438 68.883 93.6128 68.5762 93.8473C68.2066 94.1302 67.7933 94.3562 67.4045 94.6138C66.6879 95.0882 66.088 95.6887 65.4861 96.2839C64.8941 96.8695 64.1297 97.5155 63.7902 98.2728C63.7224 98.4238 63.9016 98.5869 64.0442 98.4579C64.3615 98.1704 64.6107 97.8187 64.8986 97.5052C65.1892 97.1886 65.4948 96.8841 65.803 96.5828C66.4278 95.9719 67.0477 95.3615 67.7997 94.8878C68.4622 94.4703 69.0915 94.0637 69.6425 93.5147C70.1999 92.9593 70.6937 92.3496 71.3528 91.8937C71.5523 91.7547 71.3652 91.4356 71.1529 91.5724Z" fill="#4380B5"/>
<path d="M70.362 83.0545C70.8133 84.1298 71.0632 85.2576 71.4264 86.3581C71.5984 86.8791 71.7889 87.3943 72.0384 87.8872C72.1671 88.1416 72.3098 88.39 72.4705 88.6277C72.6282 88.8615 72.7803 89.1145 73.0547 89.2329C73.2165 89.3025 73.4002 89.1881 73.3569 89.0133C73.294 88.7578 73.1085 88.5733 72.9613 88.3566C72.7998 88.1192 72.6564 87.8715 72.527 87.6175C72.2669 87.1075 72.0621 86.5781 71.8615 86.0458C71.4705 85.0089 71.1178 83.9439 70.5393 82.9841C70.4866 82.8964 70.3206 82.9557 70.362 83.0545Z" fill="#4380B5"/>
<path d="M65.7749 80.3634C65.7749 80.8037 65.397 81.1605 64.9307 81.1605C64.4643 81.1605 64.0864 80.8037 64.0864 80.3634C64.0864 79.9232 64.4643 79.5664 64.9307 79.5664C65.397 79.5664 65.7749 79.9232 65.7749 80.3634Z" fill="#C8DDED"/>
<path d="M65.5273 83.9025C65.5273 84.3428 65.1494 84.6995 64.6831 84.6995C64.2168 84.6995 63.8389 84.3428 63.8389 83.9025C63.8389 83.4622 64.2168 83.1055 64.6831 83.1055C65.1494 83.1051 65.5273 83.4622 65.5273 83.9025Z" fill="#C8DDED"/>
<path d="M55.9724 82.1699L60.5439 82.3256C60.5439 82.3256 60.7912 86.0972 58.3199 86.0194C56.2208 85.9533 55.8079 84.2309 55.9724 82.1699Z" fill="#C8DDED"/>
<path d="M53.5288 80.5059C53.4799 82.4432 53.6926 84.3606 54.1597 86.2447C54.198 86.3992 54.4389 86.3324 54.4092 86.1796C54.046 84.3119 53.8525 82.4052 53.8288 80.5059C53.8266 80.3236 53.5334 80.3236 53.5288 80.5059Z" fill="#386BA0"/>
<path d="M77.3073 112.257H75.0588C74.6512 110.482 73.9034 108.702 72.5202 107.42C71.7027 106.662 70.525 106.305 69.3943 106.493C67.9968 106.726 66.9825 107.74 66.2813 108.847C65.6207 109.89 65.1815 111.061 64.9451 112.258H62.4516L59.0156 132.103H80.3395L77.3073 112.257ZM66.2967 109.594C66.9505 108.55 67.8188 107.554 69.0985 107.205C71.2627 106.617 72.985 108.423 73.8333 110.079C74.1977 110.79 74.4946 111.506 74.7092 112.257H65.2026C65.4258 111.324 65.7803 110.418 66.2967 109.594Z" fill="#E95C80"/>
<path d="M62.8264 112.789L59.6689 131.518L61.2181 130.45L62.9457 131.518H63.601L62.8264 112.789Z" fill="#D74876"/>
<path d="M51.9564 82.224C52.0008 82.4546 52.0498 82.6859 52.1386 82.9055C52.2285 83.1283 52.3305 83.3468 52.4446 83.5597C52.5567 83.7693 52.6892 83.969 52.83 84.1624C52.9678 84.3518 53.1145 84.5717 53.2978 84.7245C53.3991 84.8087 53.5681 84.7014 53.4917 84.5831C53.3675 84.3905 53.1996 84.2199 53.0667 84.0316C52.9328 83.8418 52.8123 83.6446 52.6941 83.4456C52.4566 83.0462 52.2553 82.6177 52.0757 82.1923C52.0464 82.1238 51.9421 82.1493 51.9564 82.224Z" fill="#386BA0"/>
<path d="M73.1879 89.0357L73.2168 90.467L74.4371 92.6805L69.5057 103.43C69.5057 103.43 68.3318 104.839 67.9946 105.326C67.6573 105.813 67.3201 106.843 67.3596 107.199C67.3991 107.555 68.1135 107.012 68.1135 107.012C68.1135 107.012 68.1929 107.948 67.8756 108.248C67.5583 108.547 67.8956 108.716 68.1929 108.585C68.1929 108.585 68.3713 108.903 68.768 108.566C68.768 108.566 69.0063 108.922 69.5219 108.51C69.5219 108.51 69.8193 108.847 70.1369 108.454C70.4542 108.06 70.7719 108.042 70.8114 106.918C70.8509 105.794 70.8114 105.364 70.8114 105.364C70.8114 105.364 79.0297 95.5406 79.846 93.5596C80.3929 92.2324 79.9574 89.7606 79.5506 88.4746C77.4812 88.5382 75.2391 88.9234 73.1879 89.0357Z" fill="#F49B91"/>
<path d="M79.9194 90.0196C79.8159 89.4333 79.6816 88.8911 79.5498 88.4746C77.4809 88.5386 75.2388 88.9238 73.1875 89.036L73.2165 90.4674L73.2575 90.5416C75.2663 89.4941 77.7522 89.3171 79.9194 90.0196Z" fill="#DE706B"/>
<path d="M73.4953 77.3422C74.0681 77.4911 74.6504 77.7164 75.0226 78.1538C75.3245 78.5088 75.4543 78.9633 75.5766 79.4035C75.8149 80.2606 76.0528 81.1177 76.291 81.9748C76.4781 82.6482 76.6934 83.3653 77.2542 83.8176C77.3829 83.9214 77.527 84.0084 77.6441 84.1239C78.2508 84.7234 77.8763 85.7375 78.1985 86.5086C78.4499 87.1106 79.1297 87.5754 79.0939 88.2214C78.7507 88.2093 78.4074 88.1972 78.0645 88.1851C77.9723 88.1819 77.8763 88.1777 77.795 88.1364C77.6885 88.0824 77.6264 87.9751 77.5722 87.8728C77.3291 87.4119 77.13 86.9301 76.9779 86.4354C76.8338 85.9667 76.7299 85.4813 76.4958 85.046C76.2496 84.5876 75.8706 84.2064 75.5661 83.7803C74.7599 82.6524 74.5055 81.2662 74.0655 79.9707C73.6699 78.8062 73.0282 78.049 72.2295 77.1436C72.6258 77.0977 73.1072 77.2413 73.4953 77.3422Z" fill="#5B97CC"/>
<path d="M57.9611 75.8295C55.6392 75.514 53.1705 76.6546 52.0097 78.5792C51.8599 78.8275 51.7267 79.1139 51.7982 79.3918C52.7233 79.3165 53.4486 78.6481 54.2499 78.205C55.119 77.7242 56.1416 77.4946 57.1469 77.5543C57.9464 77.602 58.7413 77.8272 59.5362 77.7334C59.9988 77.6787 61.5337 77 60.9924 76.3625C60.7726 76.1035 59.9687 76.204 59.6518 76.1539C59.0842 76.0647 58.5313 75.907 57.9611 75.8295Z" fill="#5B97CC"/>
<path d="M64.4648 48.5859C64.4648 41.9154 58.737 36.5078 51.6716 36.5078C44.6062 36.5078 38.8784 41.9154 38.8784 48.5859C38.8784 55.2564 44.6062 60.664 51.6716 60.664C53.4108 60.664 55.0684 60.335 56.58 59.7416L60.57 64.1162L59.495 58.1397C62.5174 55.9298 64.4648 52.4737 64.4648 48.5859Z" fill="#EEF8FD"/>
<path d="M153.215 58.8704C153.215 53.0978 158.172 48.418 164.286 48.418C170.401 48.418 175.357 53.0978 175.357 58.8704C175.357 64.6429 170.4 69.3228 164.286 69.3228C162.781 69.3228 161.347 69.0378 160.038 68.5243L156.585 72.3102L157.516 67.1378C154.9 65.2257 153.215 62.2348 153.215 58.8704Z" fill="#EEF8FD"/>
<path d="M167.673 56.1562H161.415C160.986 56.1562 160.635 56.4878 160.635 56.8925V62.2763C160.635 62.6814 160.986 63.0126 161.415 63.0126H167.673C168.102 63.0126 168.453 62.6814 168.453 62.2763V56.8925C168.453 56.4878 168.102 56.1562 167.673 56.1562Z" fill="#EC876B"/>
<path d="M166.976 59.4838H162.113V55.1298C162.113 54.3754 162.763 53.7617 163.562 53.7617H165.527C166.326 53.7617 166.976 54.3754 166.976 55.1298V59.4838ZM162.922 58.7195H166.166V55.1298C166.166 54.7968 165.879 54.5261 165.526 54.5261H163.561C163.209 54.5261 162.922 54.7968 162.922 55.1298V58.7195H162.922Z" fill="#EC876B"/>
<path d="M165.788 58.551C165.788 57.9025 165.232 57.377 164.545 57.377C163.858 57.377 163.301 57.9025 163.301 58.551C163.301 59.0435 163.623 59.4642 164.078 59.6387V61.5501C164.078 61.7924 164.288 61.9911 164.545 61.9911C164.802 61.9911 165.012 61.7928 165.012 61.5501V59.6387C165.467 59.4642 165.788 59.0435 165.788 58.551Z" fill="#BB5B45"/>
<path d="M57.2506 46.6439V47.6734H54.3268V50.1529H53.0385V46.0359H54.2659V44.7727H53.0385V43.7948H54.2659V42.625H53.2368V43.6029H51.8988V42.625H50.3624V43.6498H48.826V45.4745H48.8757V46.2232H48.826V49.0304H47.835V46.2232H44.7378V48.0479H45.6543V49.1239H44.7378V50.3402H45.7536V51.7907H47.835V50.3871H48.9254V51.7907H50.3624V52.9136H48.9254V56.0428H50.7094V54.8787H52.2951V56.0428H54.6242V52.9136H51.9481L51.9447 51.51H50.5608V50.3402H53.1872L53.2011 51.6035H54.6246V50.2933H55.7149V51.6035H57.598V50.4806H58.9499V46.6443L57.2506 46.6439ZM50.362 50.1529H49.2224V49.077H50.362V50.1529ZM51.6011 48.9363H50.5604V46.3629H51.6011V48.9363ZM51.7994 44.7723H50.4614V43.7944H51.7994V44.7723ZM51.8984 45.0111H53.2365V45.989H51.8984V45.0111ZM57.2009 50.1995H55.9618V49.0297H57.2009V50.1995Z" fill="#264456"/>
<path d="M48.0933 52.9023H44.8613V55.9537H48.0933V52.9023Z" fill="#264456"/>
<path d="M58.8721 52.9023H55.6401V55.9537H58.8721V52.9023Z" fill="#264456"/>
<path d="M48.0933 42.4688H44.8613V45.5201H48.0933V42.4688Z" fill="#264456"/>
<path d="M58.8721 42.4688H55.6401V45.5201H58.8721V42.4688Z" fill="#264456"/>
</svg>
