<svg width="30" height="30" viewBox="0 0 30 30" fill="none" xmlns="http://www.w3.org/2000/svg">
<path d="M3.75 3.75H7.5V7.5H3.75V3.75Z" fill="#AF3221"/>
<path d="M11.25 0V11.25H0V0H11.25ZM9.375 1.875H1.875V9.375H9.375V1.875ZM7.5 22.5H3.75V26.25H7.5V22.5Z" fill="#AF3221"/>
<path d="M11.25 18.75V30H0V18.75H11.25ZM1.875 20.625V28.125H9.375V20.625H1.875ZM22.5 3.75H26.25V7.5H22.5V3.75Z" fill="#AF3221"/>
<path d="M18.75 0V11.25H30V0H18.75ZM28.125 1.875V9.375H20.625V1.875H28.125ZM15 1.875V0H16.875V3.75H15V7.5H13.125V1.875H15ZM15 11.25V7.5H16.875V11.25H15ZM11.25 15V13.125H13.125V11.25H15V15H16.875V13.125H26.25V15H18.75V16.875H13.125V15H11.25ZM11.25 15V16.875H3.75V15H1.875V16.875H0V13.125H5.625V15H11.25ZM30 16.875H28.125V13.125H30V16.875ZM28.125 16.875H26.25V20.625H30V18.75H28.125V16.875ZM20.625 16.875H24.375V18.75H22.5V20.625H20.625V16.875ZM24.375 22.5V20.625H22.5V22.5H20.625V24.375H16.875V26.25H22.5V22.5H24.375ZM24.375 22.5H30V24.375H26.25V26.25H24.375V22.5ZM16.875 20.625V22.5H18.75V18.75H13.125V20.625H16.875Z" fill="#AF3221"/>
<path d="M13.125 22.5H15V28.125H22.5V30H13.125V22.5ZM30 26.25V30H24.375V28.125H28.125V26.25H30Z" fill="#AF3221"/>
</svg>
