<svg width="224" height="198" viewBox="0 0 224 198" fill="none" xmlns="http://www.w3.org/2000/svg">
<path d="M201.555 157.804H186.717V157.903H201.555V157.804Z" fill="#EBEBEB"/>
<path d="M148.387 158.878H144.492V158.977H148.387V158.878Z" fill="#EBEBEB"/>
<path d="M186.268 154.126H177.67V154.225H186.268V154.126Z" fill="#EBEBEB"/>
<path d="M42.8519 154.791H23.5015V154.89H42.8519V154.791Z" fill="#EBEBEB"/>
<path d="M49.6785 154.791H46.8413V154.89H49.6785V154.791Z" fill="#EBEBEB"/>
<path d="M100.866 156.464H58.8989V156.563H100.866V156.464Z" fill="#EBEBEB"/>
<path d="M106.182 133.769H19.6739C18.264 133.769 17.1167 132.754 17.1167 131.508V24.0211C17.1167 22.7749 18.264 21.7607 19.6739 21.7607H106.182C107.592 21.7607 108.739 22.7749 108.739 24.0211V131.508C108.739 132.754 107.592 133.769 106.182 133.769ZM19.6739 21.8601C18.3254 21.8601 17.2287 22.8295 17.2287 24.0215V131.509C17.2287 132.701 18.3254 133.67 19.6739 133.67H106.182C107.53 133.67 108.627 132.701 108.627 131.509V24.0211C108.627 22.8295 107.53 21.8597 106.182 21.8597L19.6739 21.8601Z" fill="#EBEBEB"/>
<path d="M203.083 133.769H116.575C115.165 133.769 114.018 132.754 114.018 131.508V24.0211C114.018 22.7749 115.165 21.7607 116.575 21.7607H203.083C204.493 21.7607 205.64 22.7749 205.64 24.0211V131.508C205.64 132.754 204.493 133.769 203.083 133.769ZM116.575 21.8601C115.227 21.8601 114.13 22.8295 114.13 24.0215V131.509C114.13 132.701 115.227 133.67 116.575 133.67H203.083C204.431 133.67 205.528 132.701 205.528 131.509V24.0211C205.528 22.8295 204.431 21.8597 203.083 21.8597L116.575 21.8601Z" fill="#EBEBEB"/>
<path d="M224 151.43H0V151.529H224V151.43Z" fill="#EBEBEB"/>
<path d="M43.4187 107.426H30.2251V119.84H43.4187V107.426Z" fill="#E6E6E6"/>
<path d="M30.2249 107.426H26.8452V119.84H30.2249V107.426Z" fill="#F0F0F0"/>
<path d="M46.8779 105.511H36.9668V119.84H46.8779V105.511Z" fill="#E6E6E6"/>
<path d="M36.9714 105.511H34.106V119.84H36.9714V105.511Z" fill="#F0F0F0"/>
<path d="M48.2433 107.426H39.8872V119.84H48.2433V107.426Z" fill="#F0F0F0"/>
<path d="M39.8874 107.426H37.9785V119.84H39.8874V107.426Z" fill="#F5F5F5"/>
<path d="M22.3878 123.427L103.511 123.427V119.833L22.3878 119.833V123.427Z" fill="#EBEBEB"/>
<path d="M57.6869 109.526H46.7266V119.84H57.6869V109.526Z" fill="#E6E6E6"/>
<path d="M46.7266 109.526H43.9199V119.84H46.7266V109.526Z" fill="#F5F5F5"/>
<path d="M60.5605 107.936H52.3267V119.84H60.5605V107.936Z" fill="#E6E6E6"/>
<path d="M52.3304 107.936H49.9497V119.84H52.3304V107.936Z" fill="#F0F0F0"/>
<path d="M63.2057 109.526H55.2075V119.84H63.2057V109.526Z" fill="#F0F0F0"/>
<path d="M54.7496 109.526H53.165V119.84H54.7496V109.526Z" fill="#F5F5F5"/>
<path d="M175.847 36.5625H165.936V50.8918H175.847V36.5625Z" fill="#E6E6E6"/>
<path d="M165.94 36.5625H163.074V50.8918H165.94V36.5625Z" fill="#F0F0F0"/>
<path d="M179.452 38.4775H171.096V50.8921H179.452V38.4775Z" fill="#F0F0F0"/>
<path d="M171.096 38.4775H169.187V50.8921H171.096V38.4775Z" fill="#F5F5F5"/>
<path d="M119.1 54.4785L200.224 54.4785V50.8852L119.1 50.8852V54.4785Z" fill="#EBEBEB"/>
<path d="M189.791 40.5781H178.831V50.8919H189.791V40.5781Z" fill="#E6E6E6"/>
<path d="M178.832 40.5781H176.025V50.8919H178.832V40.5781Z" fill="#F5F5F5"/>
<path d="M192.665 38.9873H184.432V50.8919H192.665V38.9873Z" fill="#E6E6E6"/>
<path d="M184.435 38.9873H182.055V50.8919H184.435V38.9873Z" fill="#F0F0F0"/>
<path d="M195.311 40.5781H187.312V50.8919H195.311V40.5781Z" fill="#F0F0F0"/>
<path d="M186.855 40.5781H185.27V50.8919H186.855V40.5781Z" fill="#F5F5F5"/>
<path d="M156.008 69.4063L155.896 88.585L181.044 88.7006L181.157 69.5219L156.008 69.4063Z" fill="#E0E0E0"/>
<path d="M156.009 69.4176L181.158 69.5332L181.179 65.9447L156.03 65.8291L156.009 69.4176Z" fill="#E6E6E6"/>
<path d="M155.168 88.0489L180.317 88.1653L181.164 69.5276L156.015 69.4111L155.168 88.0489Z" fill="#F5F5F5"/>
<path d="M161.607 74.0168L174.057 74.0742L174.206 70.7941L161.757 70.7363L161.607 74.0168Z" fill="#EBEBEB"/>
<path d="M175.96 78.3211L179.285 78.3366L179.418 75.3979L176.093 75.3828L175.96 78.3211Z" fill="#E0E0E0"/>
<path d="M171.243 78.2991L174.568 78.3145L174.702 75.3758L171.377 75.3604L171.243 78.2991Z" fill="#E0E0E0"/>
<path d="M175.78 82.2844L179.104 82.2999L179.238 79.3611L175.913 79.3457L175.78 82.2844Z" fill="#E0E0E0"/>
<path d="M175.6 86.2483L178.925 86.2637L179.058 83.325L175.734 83.3096L175.6 86.2483Z" fill="#EBEBEB"/>
<path d="M171.063 82.2629L174.388 82.2784L174.522 79.3397L171.196 79.3242L171.063 82.2629Z" fill="#E0E0E0"/>
<path d="M166.346 82.2401L169.671 82.2555L169.805 79.3172L166.48 79.3018L166.346 82.2401Z" fill="#E0E0E0"/>
<path d="M161.629 82.2186L164.954 82.234L165.088 79.2957L161.763 79.2803L161.629 82.2186Z" fill="#E0E0E0"/>
<path d="M156.913 82.1971L160.238 82.2126L160.371 79.2738L157.046 79.2588L156.913 82.1971Z" fill="#E0E0E0"/>
<path d="M170.883 86.2254L174.208 86.2409L174.341 83.3025L171.016 83.2871L170.883 86.2254Z" fill="#EBEBEB"/>
<path d="M166.166 86.2039L169.491 86.2194L169.625 83.2811L166.3 83.2656L166.166 86.2039Z" fill="#EBEBEB"/>
<path d="M161.449 86.1825L164.774 86.1979L164.908 83.2596L161.583 83.2441L161.449 86.1825Z" fill="#E0E0E0"/>
<path d="M166.526 78.2772L169.851 78.2926L169.984 75.3543L166.66 75.3389L166.526 78.2772Z" fill="#EBEBEB"/>
<path d="M161.81 78.2547L165.135 78.2702L165.268 75.3319L161.943 75.3164L161.81 78.2547Z" fill="#EBEBEB"/>
<path d="M157.093 78.2332L160.418 78.2487L160.551 75.3104L157.227 75.2949L157.093 78.2332Z" fill="#EBEBEB"/>
<path d="M156.732 86.1604L160.057 86.1758L160.191 83.2371L156.866 83.2217L156.732 86.1604Z" fill="#E0E0E0"/>
<path d="M168.532 64.9023C167.73 64.9023 167.08 65.4769 167.08 66.1862C167.08 66.895 167.73 67.47 168.532 67.47C169.334 67.47 169.985 66.8954 169.985 66.1862C169.984 65.4773 169.334 64.9023 168.532 64.9023ZM168.532 67.1607C167.924 67.1607 167.43 66.7243 167.43 66.1862C167.43 65.648 167.924 65.2116 168.532 65.2116C169.141 65.2116 169.635 65.648 169.635 66.1862C169.635 66.7243 169.141 67.1607 168.532 67.1607Z" fill="#E6E6E6"/>
<path d="M99.8015 40.3613H26.4048V79.894H99.8015V40.3613Z" fill="#EBEBEB"/>
<path d="M100.347 40.3457H99.8091V79.8784H100.347V40.3457Z" fill="#E0E0E0"/>
<path d="M29.0705 42.0791H28.627V77.6518H29.0705V42.0791Z" fill="#E0E0E0"/>
<path d="M97.4101 42.0791H28.5825V77.6518H97.4101V42.0791Z" fill="white"/>
<path d="M75.1751 53.9336H69.5034V61.1349H75.1751V53.9336Z" fill="#F5F5F5"/>
<path d="M37.5696 65.3428H31.8979V72.544H37.5696V65.3428Z" fill="#F5F5F5"/>
<path d="M37.0164 50.3252H31.3447V55.3386H37.0164V50.3252Z" fill="#F5F5F5"/>
<path d="M65.2303 67.6377H59.5586V72.6511H65.2303V67.6377Z" fill="#F5F5F5"/>
<path d="M93.0857 54.5537H78.5615V72.5955H93.0857V54.5537Z" fill="#F5F5F5"/>
<path d="M90.9834 57.166H80.5508V57.364H90.9834V57.166Z" fill="#E0E0E0"/>
<path d="M85.8788 57.3594H85.6548V70.7216H85.8788V57.3594Z" fill="#E0E0E0"/>
<path d="M90.6698 57.3594H90.4458V70.7216H90.6698V57.3594Z" fill="#E0E0E0"/>
<path d="M81.6205 57.3594H81.3965V70.7216H81.6205V57.3594Z" fill="#E0E0E0"/>
<path d="M80.8754 57.3594H80.6514V70.7216H80.8754V57.3594Z" fill="#E0E0E0"/>
<path d="M90.4512 58.0635H80.7637V58.2615H90.4512V58.0635Z" fill="#E0E0E0"/>
<path d="M54.9302 49.109V50.8027H59.4012V49.109H54.9302Z" fill="#F5F5F5"/>
<path d="M55.8042 61.8632V63.1807H60.2752V61.8632H55.8042Z" fill="#F5F5F5"/>
<path d="M56.5295 48.5537H42.0054V66.5955H56.5295V48.5537Z" fill="#F0F0F0"/>
<path d="M54.8013 64.7802V66.0977H59.2723V64.7802H54.8013Z" fill="#F5F5F5"/>
<path d="M55.5469 52.7196V54.0371H60.0179V52.7196H55.5469Z" fill="#F5F5F5"/>
<path d="M54.5664 55.994V57.3115H59.0374V55.994H54.5664Z" fill="#F5F5F5"/>
<path d="M53.6171 50.7715H43.7168V52.3242H53.6171V50.7715Z" fill="#E6E6E6"/>
<path d="M53.7771 57.4059H43.8767L43.7168 56.7002H53.6171L53.7771 57.4059Z" fill="#E6E6E6"/>
<path d="M47.23 53.877H43.7168V55.4297H47.23V53.877Z" fill="#E6E6E6"/>
<path d="M109.84 167.791C157.812 167.791 196.702 165.784 196.702 163.307C196.702 160.831 157.812 158.823 109.84 158.823C61.8671 158.823 22.9775 160.831 22.9775 163.307C22.9775 165.784 61.8671 167.791 109.84 167.791Z" fill="#F5F5F5"/>
<path d="M113.477 67.3691L108.773 72.7924H89.6011L94.3073 67.3691H107.73H111.058H113.477Z" fill="#407BFF"/>
<g opacity="0.4">
<path d="M113.477 67.3691L108.773 72.7924H89.6011L94.3073 67.3691H107.73H111.058H113.477Z" fill="white"/>
</g>
<path d="M89.6663 72.7919H108.838L104.61 62.5244H85.4385L89.6663 72.7919Z" fill="#407BFF"/>
<g opacity="0.6">
<path d="M89.6663 72.7919H108.838L104.61 62.5244H85.4385L89.6663 72.7919Z" fill="white"/>
</g>
<path d="M96.9111 62.8786H102.027L100.553 61.6387H97.3645L96.9111 62.8786Z" fill="#407BFF"/>
<path opacity="0.6" d="M96.9111 62.8786H102.027L100.553 61.6387H97.3645L96.9111 62.8786Z" fill="white"/>
<path d="M154.213 107.53H154.06C153.875 107.53 153.748 107.398 153.778 107.234L155.119 99.7478C155.148 99.5842 155.322 99.4512 155.507 99.4512H155.66H176.247L174.8 107.53L154.213 107.53Z" fill="#263238"/>
<path opacity="0.5" d="M154.213 107.53H154.06C153.875 107.53 153.748 107.398 153.778 107.234L155.119 99.7478C155.148 99.5842 155.322 99.4512 155.507 99.4512H155.66H176.247L174.8 107.53L154.213 107.53Z" fill="white"/>
<path d="M174.723 107.53C174.951 107.53 175.164 107.367 175.2 107.166L176.518 99.8151C176.553 99.6139 176.398 99.4512 176.171 99.4512C175.944 99.4512 175.73 99.6139 175.695 99.8151L174.377 107.166C174.341 107.367 174.496 107.53 174.723 107.53Z" fill="#263238"/>
<path opacity="0.2" d="M174.723 107.53C174.951 107.53 175.164 107.367 175.2 107.166L176.518 99.8151C176.553 99.6139 176.398 99.4512 176.171 99.4512C175.944 99.4512 175.73 99.6139 175.695 99.8151L174.377 107.166C174.341 107.367 174.496 107.53 174.723 107.53Z" fill="white"/>
<path d="M146.047 117.553H172.695L171.173 105.645H146.349C145.377 105.645 144.62 106.393 144.73 107.247L146.047 117.553Z" fill="#407BFF"/>
<path opacity="0.2" d="M146.349 105.645H170.739V106.984H144.725C144.782 106.245 145.478 105.645 146.349 105.645Z" fill="white"/>
<path d="M169.808 117.553H177.104V106.85C177.104 106.184 176.493 105.645 175.74 105.645H170.11C169.137 105.645 168.381 106.393 168.491 107.247L169.808 117.553Z" fill="#407BFF"/>
<path opacity="0.4" d="M169.808 117.553H177.104V106.85C177.104 106.184 176.493 105.645 175.74 105.645H170.11C169.137 105.645 168.381 106.393 168.491 107.247L169.808 117.553Z" fill="black"/>
<path d="M147.732 117.138L147.25 113.37H167.27L167.751 117.138H147.732Z" fill="#263238"/>
<path d="M139.335 117.138H159.626V116.532H139.335C139.187 116.532 139.068 116.638 139.068 116.769V116.901C139.068 117.032 139.187 117.138 139.335 117.138Z" fill="#263238"/>
<path opacity="0.1" d="M139.335 117.138H159.626V116.532H139.335C139.187 116.532 139.068 116.638 139.068 116.769V116.901C139.068 117.032 139.187 117.138 139.335 117.138Z" fill="white"/>
<path d="M147.655 116.532H142.182C142.182 115.826 142.829 115.254 143.628 115.254H147.491L147.655 116.532Z" fill="#263238"/>
<path opacity="0.3" d="M147.655 116.532H142.182C142.182 115.826 142.829 115.254 143.628 115.254H147.491L147.655 116.532Z" fill="white"/>
<path opacity="0.1" d="M171.479 105.645H159.038L159.883 99.4512H172.324L171.479 105.645Z" fill="black"/>
<path d="M158.967 116.532H160.51C160.51 115.826 161.157 115.254 161.956 115.254H167.511L167.675 116.532L167.752 117.138H158.967C158.824 117.138 158.708 117.035 158.708 116.908V116.762C158.707 116.635 158.824 116.532 158.967 116.532Z" fill="#263238"/>
<path opacity="0.3" d="M158.967 116.532H160.51C160.51 115.826 161.157 115.254 161.956 115.254H167.511L167.675 116.532L167.752 117.138H158.967C158.824 117.138 158.708 117.035 158.708 116.908V116.762C158.707 116.635 158.824 116.532 158.967 116.532Z" fill="white"/>
<path d="M157.905 105.645H170.347L171.846 97.2783H159.404L157.905 105.645Z" fill="#407BFF"/>
<path opacity="0.9" d="M157.905 105.645H170.347L171.846 97.2783H159.404L157.905 105.645Z" fill="white"/>
<path d="M165.45 106.507H147.679C147.93 106.003 148.498 105.645 149.171 105.645H166.943C166.27 105.645 165.701 106.003 165.45 106.507Z" fill="#407BFF"/>
<path opacity="0.5" d="M165.45 106.507H147.679C147.93 106.003 148.498 105.645 149.171 105.645H166.943C166.27 105.645 165.701 106.003 165.45 106.507Z" fill="white"/>
<path d="M137.9 160.849V129.458H152.327V160.849C152.327 162.303 150.989 163.486 149.344 163.486H140.884C139.239 163.486 137.9 162.303 137.9 160.849Z" fill="#407BFF"/>
<g opacity="0.5">
<path d="M137.9 129.457V160.851C137.9 161.905 138.605 162.821 139.623 163.24C140.005 163.399 140.433 163.488 140.884 163.488H149.342C150.99 163.488 152.326 162.304 152.326 160.851V129.457H137.9Z" fill="white"/>
</g>
<path d="M172.356 163.447C170.455 163.447 168.913 162.085 168.913 160.404V131.966H172.356V163.447Z" fill="#407BFF"/>
<path opacity="0.8" d="M172.356 163.447C170.455 163.447 168.913 162.085 168.913 160.404V131.966H172.356V163.447Z" fill="white"/>
<path d="M139.622 131.964V163.24C138.605 162.821 137.9 161.905 137.9 160.851V131.964H139.622V131.964Z" fill="#407BFF"/>
<path opacity="0.8" d="M139.622 131.964V163.24C138.605 162.821 137.9 161.905 137.9 160.851V131.964H139.622V131.964Z" fill="white"/>
<path d="M170.723 160.849V129.458H185.15V160.849C185.15 162.303 183.811 163.486 182.166 163.486H173.707C172.062 163.486 170.723 162.303 170.723 160.849Z" fill="#407BFF"/>
<path d="M137.861 131.965H173.022V120.29H137.861V131.965Z" fill="#407BFF"/>
<path opacity="0.8" d="M137.861 131.965H173.022V120.29H137.861V131.965Z" fill="white"/>
<path d="M170.73 131.965H185.142V120.29H170.73V131.965Z" fill="#407BFF"/>
<path opacity="0.7" d="M185.148 129.456V160.85C185.148 162.303 183.813 163.487 182.164 163.487H173.706C172.063 163.487 170.723 162.303 170.723 160.85V129.456H170.727V120.291H185.143V129.456H185.148Z" fill="white"/>
<path d="M136.076 121.02H170.419V117.616H136.076V121.02Z" fill="#407BFF"/>
<path opacity="0.9" d="M136.076 121.02H170.419V117.616H136.076V121.02Z" fill="white"/>
<path d="M169.887 121.02H186.928V117.616H169.887V121.02Z" fill="#407BFF"/>
<path opacity="0.8" d="M169.887 121.02H186.928V117.616H169.887V121.02Z" fill="white"/>
<path d="M140.688 129.68H167.909V122.965H140.688V129.68Z" fill="#407BFF"/>
<path opacity="0.6" d="M140.688 129.68H167.909V122.965H140.688V129.68Z" fill="white"/>
<path d="M152.457 126.437C151.877 126.437 151.406 126.021 151.406 125.508C151.406 124.995 151.876 124.579 152.457 124.579H153.838C154.418 124.579 154.889 124.995 154.889 125.508C154.889 126.021 154.419 126.437 153.838 126.437H152.457Z" fill="#407BFF"/>
<path opacity="0.3" d="M152.457 126.437C151.877 126.437 151.406 126.021 151.406 125.508C151.406 124.995 151.876 124.579 152.457 124.579H153.838C154.418 124.579 154.889 124.995 154.889 125.508C154.889 126.021 154.419 126.437 153.838 126.437H152.457Z" fill="white"/>
<path d="M151.406 125.508C151.406 126.021 151.876 126.437 152.457 126.437C153.037 126.437 153.508 126.021 153.508 125.508C153.508 124.995 153.037 124.579 152.457 124.579C151.876 124.579 151.406 124.995 151.406 125.508Z" fill="#407BFF"/>
<path opacity="0.9" d="M151.406 125.508C151.406 126.021 151.876 126.437 152.457 126.437C153.037 126.437 153.508 126.021 153.508 125.508C153.508 124.995 153.037 124.579 152.457 124.579C151.876 124.579 151.406 124.995 151.406 125.508Z" fill="white"/>
<path d="M137.847 80.8145L136.181 97.9997C136.16 98.2211 135.94 98.4009 135.689 98.4013L117.709 98.4298C117.459 98.4302 117.273 98.2512 117.295 98.0298L119.462 75.6768C119.483 75.4554 119.704 75.2757 119.954 75.2753L132.069 75.2559L137.847 80.8145Z" fill="#407BFF"/>
<g opacity="0.6">
<path d="M137.847 80.8145L136.181 97.9997C136.16 98.2211 135.94 98.4009 135.689 98.4013L117.709 98.4298C117.459 98.4302 117.273 98.2512 117.295 98.0298L119.462 75.6768C119.483 75.4554 119.704 75.2757 119.954 75.2753L132.069 75.2559L137.847 80.8145Z" fill="white"/>
</g>
<path opacity="0.2" d="M134.177 85.3184L121.483 85.3722C121.286 85.373 121.112 85.5152 121.096 85.6898L121.086 85.7924C121.07 85.967 121.217 86.108 121.415 86.1068L134.108 86.0529C134.306 86.0521 134.479 85.91 134.496 85.7353L134.506 85.6328C134.521 85.4585 134.374 85.3176 134.177 85.3184Z" fill="black"/>
<path opacity="0.2" d="M133.896 88.3193L121.202 88.3732C121.005 88.374 120.831 88.5162 120.815 88.6908L120.805 88.7934C120.789 88.968 120.936 89.109 121.134 89.1082L133.827 89.0543C134.025 89.0535 134.198 88.9114 134.215 88.7367L134.224 88.6342C134.24 88.4595 134.094 88.3185 133.896 88.3193Z" fill="black"/>
<path opacity="0.2" d="M133.615 91.3213L120.921 91.3751C120.724 91.3759 120.55 91.5181 120.534 91.6927L120.524 91.7953C120.508 91.9699 120.655 92.1105 120.853 92.1097L133.546 92.0559C133.744 92.0551 133.917 91.9129 133.934 91.7383L133.943 91.6357C133.959 91.4611 133.812 91.3205 133.615 91.3213Z" fill="black"/>
<path d="M132.08 75.2441L131.577 80.4278C131.555 80.6491 131.741 80.8281 131.991 80.8277L137.839 80.8182L132.08 75.2441Z" fill="#407BFF"/>
<path opacity="0.8" d="M132.08 75.2441L131.577 80.4278C131.555 80.6491 131.741 80.8281 131.991 80.8277L137.839 80.8182L132.08 75.2441Z" fill="white"/>
<path d="M129.071 99.5165H115.811L116.355 94.0137H129.616L129.071 99.5165Z" fill="#407BFF"/>
<path d="M121.221 97.5384L120.867 97.0002L120.413 97.5384H119.779L120.581 96.6605L119.982 95.8027H120.607L120.95 96.3033L121.387 95.8027H121.987L121.22 96.6407L121.86 97.5384H121.221Z" fill="white"/>
<path d="M122.163 95.8027H122.718L122.585 97.1491H123.522L123.484 97.5384H121.992L122.163 95.8027Z" fill="white"/>
<path d="M123.576 97.3817L123.794 97.0197C123.958 97.1211 124.198 97.1908 124.425 97.1908C124.655 97.1908 124.75 97.1338 124.759 97.0494C124.786 96.7742 123.65 96.975 123.714 96.3303C123.745 96.0202 124.056 95.7676 124.639 95.7676C124.894 95.7676 125.153 95.8195 125.336 95.9185L125.129 96.2832C124.95 96.1941 124.769 96.1493 124.598 96.1493C124.366 96.1493 124.274 96.2186 124.266 96.3057C124.24 96.5711 125.372 96.3727 125.309 97.0122C125.279 97.3148 124.968 97.5729 124.384 97.5729C124.062 97.5725 123.75 97.4957 123.576 97.3817Z" fill="white"/>
<path d="M145.151 47.0528L143.485 64.238C143.464 64.4594 143.243 64.6392 142.993 64.6395L125.013 64.6681C124.762 64.6685 124.577 64.4895 124.598 64.2681L126.765 41.9151C126.787 41.6937 127.007 41.5139 127.258 41.5135L139.373 41.4941L145.151 47.0528Z" fill="#407BFF"/>
<g opacity="0.6">
<path d="M145.151 47.0528L143.485 64.238C143.464 64.4594 143.243 64.6392 142.993 64.6395L125.013 64.6681C124.762 64.6685 124.577 64.4895 124.598 64.2681L126.765 41.9151C126.787 41.6937 127.007 41.5139 127.258 41.5135L139.373 41.4941L145.151 47.0528Z" fill="white"/>
</g>
<path opacity="0.2" d="M141.481 51.5566L128.787 51.6105C128.59 51.6113 128.416 51.7535 128.4 51.9281L128.39 52.0307C128.374 52.2053 128.521 52.3463 128.719 52.3455L141.412 52.2916C141.61 52.2908 141.783 52.1487 141.8 51.974L141.81 51.8715C141.825 51.6968 141.679 51.5559 141.481 51.5566Z" fill="black"/>
<path opacity="0.2" d="M141.2 54.5576L128.506 54.6115C128.308 54.6123 128.135 54.7544 128.119 54.9291L128.109 55.0316C128.093 55.2063 128.24 55.3472 128.438 55.3461L141.131 55.2922C141.329 55.2914 141.502 55.1492 141.519 54.9746L141.528 54.872C141.544 54.6978 141.397 54.5568 141.2 54.5576Z" fill="black"/>
<path opacity="0.2" d="M140.919 57.5596L128.225 57.6134C128.028 57.6142 127.854 57.7564 127.838 57.931L127.828 58.0336C127.812 58.2082 127.959 58.3492 128.157 58.3484L140.85 58.2946C141.048 58.2938 141.221 58.1516 141.238 57.977L141.247 57.8744C141.264 57.6998 141.117 57.5588 140.919 57.5596Z" fill="black"/>
<path d="M139.384 41.4824L138.881 46.6661C138.86 46.8874 139.045 47.0664 139.295 47.066L145.143 47.0569L139.384 41.4824Z" fill="#407BFF"/>
<path opacity="0.8" d="M139.384 41.4824L138.881 46.6661C138.86 46.8874 139.045 47.0664 139.295 47.066L145.143 47.0569L139.384 41.4824Z" fill="white"/>
<path d="M136.376 65.7548H123.115L123.66 60.252H136.92L136.376 65.7548Z" fill="#407BFF"/>
<path d="M125.913 62.041H126.842C127.492 62.041 127.905 62.3756 127.852 62.9086C127.799 63.4417 127.32 63.7763 126.67 63.7763H125.742L125.913 62.041ZM126.686 63.385C127.019 63.385 127.261 63.2088 127.291 62.909C127.32 62.6089 127.113 62.4331 126.78 62.4331H126.429L126.335 63.385H126.686Z" fill="white"/>
<path d="M128.045 62.9083C128.096 62.3876 128.597 62.0059 129.225 62.0059C129.853 62.0059 130.278 62.3876 130.227 62.9083C130.175 63.4291 129.675 63.8108 129.046 63.8108C128.418 63.8108 127.993 63.4291 128.045 62.9083ZM129.665 62.9083C129.695 62.6082 129.482 62.4122 129.184 62.4122C128.887 62.4122 128.635 62.6082 128.605 62.9083C128.576 63.2085 128.789 63.4041 129.086 63.4041C129.384 63.4041 129.636 63.2085 129.665 62.9083Z" fill="white"/>
<path d="M130.42 62.9083C130.472 62.3801 130.966 62.0059 131.589 62.0059C131.95 62.0059 132.231 62.1223 132.401 62.333L132.019 62.6157C131.909 62.4842 131.764 62.4122 131.577 62.4122C131.254 62.4122 131.01 62.6105 130.981 62.9083C130.951 63.2057 131.156 63.4041 131.479 63.4041C131.666 63.4041 131.825 63.3325 131.962 63.201L132.287 63.4837C132.075 63.6944 131.772 63.8108 131.41 63.8108C130.788 63.8108 130.368 63.4366 130.42 62.9083Z" fill="white"/>
<path d="M133.712 63.7767L133.359 63.2385L132.904 63.7767H132.271L133.072 62.8988L132.473 62.041H133.098L133.442 62.5416L133.878 62.041H134.478L133.711 62.879L134.351 63.7767H133.712Z" fill="white"/>
<path d="M112.541 30.3985L110.875 47.5837C110.853 47.8051 110.633 47.9849 110.382 47.9853L92.4024 48.0138C92.152 48.0142 91.9665 47.8352 91.988 47.6138L94.155 25.2608C94.1765 25.0394 94.3969 24.8596 94.6474 24.8592L106.762 24.8398L112.541 30.3985Z" fill="#407BFF"/>
<g opacity="0.6">
<path d="M112.541 30.3985L110.875 47.5837C110.853 47.8051 110.633 47.9849 110.382 47.9853L92.4024 48.0138C92.152 48.0142 91.9665 47.8352 91.988 47.6138L94.155 25.2608C94.1765 25.0394 94.3969 24.8596 94.6474 24.8592L106.762 24.8398L112.541 30.3985Z" fill="white"/>
</g>
<path opacity="0.2" d="M108.871 34.9023L96.1769 34.9562C95.9794 34.957 95.806 35.0992 95.7894 35.2738L95.78 35.3764C95.7639 35.551 95.9108 35.692 96.1084 35.6912L108.802 35.6373C109 35.6365 109.173 35.4944 109.19 35.3197L109.199 35.2172C109.215 35.0421 109.068 34.9016 108.871 34.9023Z" fill="black"/>
<path opacity="0.2" d="M108.589 37.9033L95.8957 37.9572C95.6981 37.958 95.5248 38.1001 95.5082 38.2748L95.4988 38.3773C95.4826 38.552 95.6296 38.6929 95.8272 38.6918L108.521 38.6379C108.718 38.6371 108.892 38.4949 108.908 38.3203L108.918 38.2177C108.934 38.0435 108.787 37.9025 108.589 37.9033Z" fill="black"/>
<path opacity="0.2" d="M108.309 40.9053L95.6149 40.9591C95.4174 40.9599 95.244 41.1021 95.2274 41.2767L95.218 41.3793C95.2019 41.5539 95.3484 41.6949 95.5464 41.6937L108.24 41.6399C108.438 41.6391 108.611 41.4969 108.628 41.3223L108.637 41.2197C108.653 41.0455 108.506 40.9045 108.309 40.9053Z" fill="black"/>
<path d="M106.773 24.8281L106.271 30.0118C106.249 30.2331 106.435 30.4121 106.685 30.4117L112.532 30.4022L106.773 24.8281Z" fill="#407BFF"/>
<path opacity="0.8" d="M106.773 24.8281L106.271 30.0118C106.249 30.2331 106.435 30.4121 106.685 30.4117L112.532 30.4022L106.773 24.8281Z" fill="white"/>
<path d="M103.765 48.7591H90.5049L91.0492 43.2559H104.31L103.765 48.7591Z" fill="#407BFF"/>
<path d="M94.0749 45.0449H95.0032C95.6537 45.0449 96.0667 45.3795 96.0138 45.913C95.961 46.446 95.4821 46.7806 94.8316 46.7806H93.9033L94.0749 45.0449ZM94.8477 46.3889C95.1815 46.3889 95.4234 46.2127 95.453 45.913C95.4825 45.6128 95.2755 45.437 94.9422 45.437H94.5914L94.4974 46.3889H94.8477Z" fill="white"/>
<path d="M96.2069 45.9132C96.2584 45.3925 96.7589 45.0107 97.387 45.0107C98.0151 45.0107 98.4402 45.3925 98.3887 45.9132C98.3372 46.434 97.8367 46.8157 97.2087 46.8157C96.5801 46.8157 96.155 46.434 96.2069 45.9132ZM97.8273 45.9132C97.8569 45.6131 97.6437 45.417 97.3466 45.417C97.0492 45.417 96.7974 45.6131 96.7674 45.9132C96.7378 46.213 96.9511 46.409 97.2481 46.409C97.5456 46.409 97.7978 46.213 97.8273 45.9132Z" fill="white"/>
<path d="M98.5816 45.9132C98.634 45.385 99.1277 45.0107 99.7504 45.0107C100.112 45.0107 100.392 45.1272 100.562 45.3378L100.181 45.6206C100.07 45.4895 99.9265 45.417 99.7383 45.417C99.4157 45.417 99.172 45.6154 99.1425 45.9132C99.1133 46.2106 99.3176 46.409 99.6402 46.409C99.8279 46.409 99.9865 46.3373 100.123 46.2059L100.448 46.4886C100.237 46.6993 99.9336 46.8157 99.5721 46.8157C98.9489 46.8157 98.5291 46.4415 98.5816 45.9132Z" fill="white"/>
<path d="M75.6962 43.8731L74.0306 61.0583C74.0091 61.2797 73.7887 61.4595 73.5382 61.4599L55.5582 61.4884C55.3078 61.4888 55.1223 61.3098 55.1438 61.0884L57.3108 38.7354C57.3323 38.514 57.5527 38.3343 57.8031 38.3339L69.9179 38.3145L75.6962 43.8731Z" fill="#407BFF"/>
<g opacity="0.6">
<path d="M75.6962 43.8731L74.0306 61.0583C74.0091 61.2797 73.7887 61.4595 73.5382 61.4599L55.5582 61.4884C55.3078 61.4888 55.1223 61.3098 55.1438 61.0884L57.3108 38.7354C57.3323 38.514 57.5527 38.3343 57.8031 38.3339L69.9179 38.3145L75.6962 43.8731Z" fill="white"/>
</g>
<path opacity="0.2" d="M72.0903 49.0537L59.3967 49.1076C59.1991 49.1084 59.0257 49.2505 59.0092 49.4252L58.9997 49.5277C58.9836 49.7024 59.1306 49.8433 59.3281 49.8421L72.0218 49.7883C72.2193 49.7875 72.3927 49.6453 72.4093 49.4707L72.4187 49.3681C72.4348 49.1935 72.2883 49.0529 72.0903 49.0537Z" fill="black"/>
<path opacity="0.2" d="M71.8096 52.0557L59.116 52.1095C58.9184 52.1103 58.745 52.2525 58.7285 52.4271L58.719 52.5297C58.7025 52.7043 58.8499 52.8453 59.0474 52.8441L71.7411 52.7902C71.9386 52.7895 72.112 52.6473 72.1286 52.4727L72.138 52.3701C72.1541 52.1955 72.0072 52.0545 71.8096 52.0557Z" fill="black"/>
<path opacity="0.2" d="M71.5288 55.0566L58.8352 55.1105C58.6376 55.1113 58.4642 55.2535 58.4476 55.4281L58.4382 55.5307C58.4221 55.7053 58.5686 55.8459 58.7666 55.8451L71.4602 55.7912C71.6578 55.7904 71.8312 55.6483 71.8478 55.4736L71.8572 55.3711C71.8733 55.1968 71.7264 55.0559 71.5288 55.0566Z" fill="black"/>
<path d="M69.9282 38.3027L69.4255 43.4864C69.404 43.7077 69.5895 43.8867 69.8399 43.8863L75.6872 43.8772L69.9282 38.3027Z" fill="#407BFF"/>
<path opacity="0.8" d="M69.9282 38.3027L69.4255 43.4864C69.404 43.7077 69.5895 43.8867 69.8399 43.8863L75.6872 43.8772L69.9282 38.3027Z" fill="white"/>
<path d="M66.858 62.469H53.5972L54.1419 56.9658H67.4027L66.858 62.469Z" fill="#407BFF"/>
<path d="M58.3193 59.1442H57.7163L57.7548 58.7549H59.5128L59.4743 59.1442H58.8744L58.7409 60.4905H58.1858L58.3193 59.1442Z" fill="white"/>
<path d="M60.7058 60.4905L60.3524 59.9524L59.8981 60.4905H59.2642L60.0661 59.6126L59.4667 58.7549H60.0921L60.4352 59.2554L60.872 58.7549H61.4719L60.7049 59.5928L61.3451 60.4905H60.7058Z" fill="white"/>
<path d="M62.0024 59.1442H61.3994L61.4379 58.7549H63.1959L63.1574 59.1442H62.5575L62.424 60.4905H61.8689L62.0024 59.1442Z" fill="white"/>
<path d="M61.3358 78.9571L59.6697 96.1423C59.6482 96.3637 59.4278 96.5434 59.1774 96.5438L41.1973 96.5724C40.9469 96.5727 40.7614 96.3938 40.7829 96.1724L42.9499 73.8194C42.9714 73.598 43.1918 73.4182 43.4423 73.4178L55.5571 73.3984L61.3358 78.9571Z" fill="#407BFF"/>
<g opacity="0.6">
<path d="M61.3358 78.9571L59.6697 96.1423C59.6482 96.3637 59.4278 96.5434 59.1774 96.5438L41.1973 96.5724C40.9469 96.5727 40.7614 96.3938 40.7829 96.1724L42.9499 73.8194C42.9714 73.598 43.1918 73.4182 43.4423 73.4178L55.5571 73.3984L61.3358 78.9571Z" fill="white"/>
</g>
<path opacity="0.2" d="M57.7304 84.1377L45.0368 84.1916C44.8392 84.1923 44.6659 84.3345 44.6493 84.5091L44.6399 84.6117C44.6238 84.7863 44.7707 84.9273 44.9683 84.9261L57.6619 84.8723C57.8595 84.8715 58.0328 84.7293 58.0494 84.5547L58.0593 84.4521C58.075 84.2775 57.928 84.1369 57.7304 84.1377Z" fill="black"/>
<path opacity="0.2" d="M57.4493 87.1397L44.7556 87.1935C44.5581 87.1943 44.3847 87.3365 44.3681 87.5111L44.3587 87.6137C44.3421 87.7883 44.4895 87.9293 44.6871 87.9285L57.3807 87.8746C57.5783 87.8738 57.7517 87.7317 57.7682 87.557L57.7776 87.4545C57.7938 87.2794 57.6468 87.1389 57.4493 87.1397Z" fill="black"/>
<path opacity="0.2" d="M57.1685 90.1406L44.4749 90.1945C44.2773 90.1953 44.1039 90.3374 44.0873 90.5121L44.0779 90.6146C44.0614 90.7893 44.2083 90.9299 44.4063 90.9291L57.1 90.8752C57.2975 90.8744 57.4709 90.7322 57.4875 90.5576L57.4969 90.455C57.5135 90.2808 57.3661 90.1398 57.1685 90.1406Z" fill="black"/>
<path d="M55.5683 73.3867L55.0657 78.5704C55.0442 78.7917 55.2296 78.9707 55.4801 78.9703L61.3274 78.9612L55.5683 73.3867Z" fill="#407BFF"/>
<path opacity="0.8" d="M55.5683 73.3867L55.0657 78.5704C55.0442 78.7917 55.2296 78.9707 55.4801 78.9703L61.3274 78.9612L55.5683 73.3867Z" fill="white"/>
<path d="M52.4981 97.553H39.2373L39.7821 92.0498H53.0424L52.4981 97.553Z" fill="#407BFF"/>
<path d="M45.0399 94.4652C45.0018 94.8533 44.6488 95.0941 44.1233 95.0941H43.7273L43.6798 95.5732H43.2246L43.3966 93.834H44.2483C44.7738 93.834 45.0789 94.0751 45.0399 94.4652ZM44.5794 94.4652C44.5986 94.2739 44.4687 94.1623 44.1905 94.1623H43.8196L43.76 94.7662H44.1309C44.4091 94.7662 44.5605 94.6541 44.5794 94.4652Z" fill="white"/>
<path d="M47.0707 94.4652C47.0321 94.8533 46.6796 95.0941 46.1545 95.0941H45.758L45.7105 95.5732H45.2554L45.4279 93.834H46.2791C46.8046 93.834 47.1096 94.0751 47.0707 94.4652ZM46.6101 94.4652C46.6289 94.2739 46.4995 94.1623 46.2213 94.1623H45.8503L45.7907 94.7662H46.1617C46.4399 94.7662 46.5913 94.6541 46.6101 94.4652Z" fill="white"/>
<path d="M47.7803 94.1623H47.1509L47.1836 93.834H48.8976L48.8649 94.1623H48.2355L48.0957 95.5732H47.6405L47.7803 94.1623Z" fill="white"/>
<path d="M105.66 93.2281C106.077 93.2281 106.467 92.9727 106.533 92.6579L108.943 81.1347C109.009 80.8195 108.726 80.5645 108.31 80.5645C107.893 80.5645 107.503 80.8199 107.437 81.1347L105.027 92.6579C104.961 92.9727 105.245 93.2281 105.66 93.2281Z" fill="#263238"/>
<path opacity="0.5" d="M105.66 93.2281C106.077 93.2281 106.467 92.9727 106.533 92.6579L108.943 81.1347C109.009 80.8195 108.726 80.5645 108.31 80.5645C107.893 80.5645 107.503 80.8199 107.437 81.1347L105.027 92.6579C104.961 92.9727 105.245 93.2281 105.66 93.2281Z" fill="white"/>
<path d="M86.6784 93.2272H86.3988C86.0597 93.2272 85.8285 93.0193 85.8823 92.7627L88.3369 81.028C88.3906 80.7714 88.7087 80.5635 89.0478 80.5635H89.3274H108.575L105.926 93.2276H86.6784V93.2272Z" fill="#263238"/>
<path opacity="0.8" d="M86.6784 93.2272H86.3988C86.0597 93.2272 85.8285 93.0193 85.8823 92.7627L88.3369 81.028C88.3906 80.7714 88.7087 80.5635 89.0478 80.5635H89.3274H108.575L105.926 93.2276H86.6784V93.2272Z" fill="white"/>
<path d="M75.0417 94.5411H94.7421V93.2275H73.5562C73.5557 93.953 74.221 94.5411 75.0417 94.5411Z" fill="#263238"/>
<path opacity="0.7" d="M75.0417 94.5411H94.7421V93.2275H73.5562C73.5557 93.953 74.221 94.5411 75.0417 94.5411Z" fill="white"/>
<path d="M92.5251 94.5411H104.354C105.175 94.5411 105.84 93.953 105.84 93.2275H91.0396C91.0391 93.953 91.7044 94.5411 92.5251 94.5411Z" fill="#263238"/>
<path opacity="0.5" d="M92.5251 94.5411H104.354C105.175 94.5411 105.84 93.953 105.84 93.2275H91.0396C91.0391 93.953 91.7044 94.5411 92.5251 94.5411Z" fill="white"/>
<path opacity="0.2" d="M81.6662 93.2275C81.6586 93.4548 81.4144 93.6374 81.1125 93.6374H78.8223C78.5203 93.6374 78.2762 93.4548 78.2686 93.2275H81.6662Z" fill="black"/>
<path d="M87.3853 92.231H104.863L107.111 81.4863H89.6329L87.3853 92.231Z" fill="#263238"/>
<path d="M101.711 92.2312H90.8311L92.6311 84.0459H103.511L101.711 92.2312Z" fill="white"/>
<path d="M101.311 91.7842H91.4102L93.0243 84.4443H102.925L101.311 91.7842Z" fill="#263238"/>
<path opacity="0.9" d="M101.311 91.7842H91.4102L93.0243 84.4443H102.925L101.311 91.7842Z" fill="white"/>
<path d="M99.7936 91.7844H92.9473L94.3361 85.4678H101.182L99.7936 91.7844Z" fill="white"/>
<path d="M102.82 84.9207H92.9194L93.0243 84.4443H102.925L102.82 84.9207Z" fill="#263238"/>
<path opacity="0.8" d="M102.82 84.9207H92.9194L93.0243 84.4443H102.925L102.82 84.9207Z" fill="white"/>
<path d="M101.317 91.754H91.417L91.4694 91.5156H101.37L101.317 91.754Z" fill="#263238"/>
<path opacity="0.8" d="M101.317 91.754H91.417L91.4694 91.5156H101.37L101.317 91.754Z" fill="white"/>
<path d="M100.155 86.449H96.5762L96.6196 86.251H100.199L100.155 86.449Z" fill="#263238"/>
<path d="M99.9085 87.572H94.8945L94.938 87.374H99.952L99.9085 87.572Z" fill="#263238"/>
<path d="M99.661 88.6951H94.6475L94.6909 88.4971H99.7045L99.661 88.6951Z" fill="#263238"/>
<path d="M99.414 89.8191H94.4004L94.4438 89.6211H99.4574L99.414 89.8191Z" fill="#263238"/>
<path d="M98.089 90.9421H94.1533L94.1968 90.7441H98.1329L98.089 90.9421Z" fill="#263238"/>
<path d="M95.5203 86.7647L95.4074 87.0233H95.2578L95.8187 85.7402H96.053L96.0494 87.0233H95.8873L95.8881 86.7647H95.5203ZM95.5687 86.6419H95.8931L95.8917 85.9014L95.5687 86.6419Z" fill="white"/>
<path d="M97.7705 80.9391C97.7705 81.042 97.8807 81.1252 98.0165 81.1252C98.1522 81.1252 98.2624 81.042 98.2624 80.9391C98.2624 80.8365 98.1522 80.7529 98.0165 80.7529C97.8807 80.7529 97.7705 80.8365 97.7705 80.9391Z" fill="#263238"/>
<path d="M84.5623 74.8013C84.7509 74.835 84.8522 75.0611 84.7868 75.2999C84.7214 75.5391 84.5556 75.707 84.367 75.6698C84.1784 75.6329 84.0883 75.4096 84.1425 75.168C84.182 74.9277 84.3737 74.7677 84.5623 74.8013Z" fill="#263238"/>
<path d="M85.1932 74.8494L84.5181 74.7061C84.6413 75.1056 85.1932 74.8494 85.1932 74.8494Z" fill="#263238"/>
<path d="M83.8931 77.1587C84.2129 77.2897 84.5821 77.2901 84.9024 77.1599C84.583 76.6221 84.3473 76.0487 84.2017 75.4551L83.8931 77.1587Z" fill="#A02724"/>
<path d="M85.0269 73.567C85.0677 73.4977 85.0372 73.4126 84.9588 73.3765C84.5073 73.1282 83.9481 73.0863 83.4558 73.2641C83.3926 73.2997 83.3648 73.369 83.389 73.432C83.4177 73.5076 83.5104 73.5484 83.596 73.523C83.992 73.39 84.4356 73.4276 84.7958 73.6248C84.8182 73.6371 84.8437 73.6434 84.8701 73.643C84.9351 73.6482 84.9969 73.6181 85.0269 73.567Z" fill="#263238"/>
<path d="M79.1548 79.3441C78.5617 80.6782 78.2924 82.147 80.4921 82.9327C80.4921 82.9327 82.4001 85.0374 78.2454 84.4695C74.4553 83.9539 73.3174 82.0025 73.3174 82.0025C74.9096 81.0045 75.6734 78.0076 75.5314 76.167L79.1548 79.3441Z" fill="#B55B52"/>
<path d="M76.0097 70.7971C77.4943 68.9973 80.349 68.6017 82.3852 69.9144C85.3948 71.7495 84.8644 76.2144 83.545 78.7131C82.0828 81.4911 77.829 81.5251 75.7924 78.7488C74.4435 76.8971 74.7118 75.6536 75.1701 72.6658C75.2669 71.9898 75.5559 71.3471 76.0097 70.7971Z" fill="#B55B52"/>
<path d="M83.7188 69.8888C83.0723 69.8611 82.6584 69.3221 82.0298 69.1855C78.7213 68.464 76.5916 69.3102 75.8129 69.6821C74.6956 70.2163 73.8749 70.6143 73.0622 71.4775C72.3732 72.2093 71.9731 73.2243 72.2034 74.1327C72.2854 74.4566 72.1971 74.7948 71.9955 75.0752C71.8728 75.2455 71.7594 75.4209 71.6748 75.5548C71.5014 75.8284 71.4127 76.1587 71.513 76.4596C71.5892 76.6877 71.7648 76.8778 71.8902 77.0881C72.0157 77.2983 72.0878 77.5633 71.9507 77.768C71.3844 77.9407 70.9445 78.5929 70.9812 79.1211C71.0001 79.3944 71.1219 79.6541 71.1703 79.9246C71.2187 80.1951 71.173 80.5087 70.9302 80.6786C71.8876 81.1241 75.7887 81.4841 76.8653 80.972C77.096 80.8623 77.363 80.8148 77.609 80.8944C77.9597 81.0081 78.2053 81.2635 78.5072 81.4457C79.056 81.7763 79.7979 81.8401 80.409 81.6092C80.77 81.6908 81.188 81.4892 81.4044 81.2211C80.9291 80.9681 80.5926 80.4315 80.6437 79.9432C80.6952 79.455 81.0832 79.0067 81.6029 78.8356C82.2865 78.6107 82.3062 77.547 82.076 76.9352C81.9944 76.7178 81.865 76.5151 81.8188 76.2878C81.7816 76.1044 81.8735 75.8339 82.0101 75.6922C82.3542 75.3342 82.8429 75.0986 83.0902 74.6725C83.3039 74.305 83.2358 73.8385 82.9061 73.5455C82.4778 73.1649 82.4223 72.3428 83.502 72.6727C83.9061 72.7962 84.4338 72.9816 84.212 73.5957C83.816 74.6915 85.1578 74.3006 83.8272 75.6217C84.7214 75.5247 85.0753 75.196 85.0444 74.3996C85.0346 74.147 84.6797 73.9735 85.0444 73.5957C85.4351 73.1914 85.3396 72.6897 85.0444 72.3883C84.5964 71.9306 84.7676 71.6945 84.893 71.6205C85.1703 71.4566 85.3029 71.1005 85.2554 70.8087C85.2079 70.5168 84.9763 70.265 84.6887 70.1149C84.4011 69.9648 84.0637 69.9066 83.7304 69.89L83.7188 69.8888Z" fill="#263238"/>
<path d="M82.0297 74.4263C82.6784 75.0365 82.5826 76.1259 82.3133 76.6831C82.0181 77.3044 81.2869 77.3836 80.8434 76.5865C80.52 76.0178 80.403 75.3743 80.5083 74.7447C80.6575 74.0485 81.381 73.816 82.0297 74.4263Z" fill="#B55B52"/>
<path d="M68.2687 82.7366L67.8445 83.2704C67.6281 83.4498 65.6587 93.6765 65.6278 93.9307C65.6161 94.0154 65.6192 94.3889 65.6331 94.4894C65.6542 94.6079 65.6829 94.7255 65.7192 94.8407C65.8159 95.1033 65.9687 95.3468 66.1689 95.5587C66.4467 95.8351 66.8002 96.0438 67.1953 96.1645C67.4941 96.2663 67.81 96.3237 68.1298 96.3356C68.5263 96.3479 76.6427 96.4049 78.4728 95.3654L78.1117 93.6048C76.4066 93.503 70.119 92.93 70.119 92.93C69.6848 93.0306 69.2431 93.1034 68.7969 93.1478C68.667 93.1656 68.5344 93.1644 68.4045 93.1442C68.3847 93.1431 68.4215 93.1276 68.5635 93.1735C68.6701 93.2104 68.77 93.2615 68.8596 93.3244C69.0021 93.4238 69.119 93.5482 69.2037 93.6895C69.2476 93.7569 69.2825 93.8285 69.3067 93.903C69.3296 93.9624 69.3453 94.0238 69.3533 94.0859C69.3565 94.1287 69.3533 94.1715 69.3448 94.2138C69.3417 94.259 69.3412 94.2657 69.3394 94.2934C69.3332 94.3869 69.3332 94.3833 69.3354 94.3556L69.6427 93.7612C69.839 93.3589 70.9621 86.1422 71.1288 86.0016L71.3783 85.7929L71.5897 85.6238C71.5897 85.6238 68.3928 82.6423 68.2687 82.7366Z" fill="#B55B52"/>
<path d="M77.23 93.5226L79.7984 92.7144C80.2078 92.5857 80.6612 92.6245 81.0344 92.8209L82.2601 93.4652C82.7238 93.7087 82.9975 94.1586 82.972 94.6346C82.9388 95.2662 82.3923 95.7834 81.6818 95.8562L79.7334 96.0558L77.5337 95.2001L77.23 93.5226Z" fill="#B55B52"/>
<path d="M67.8791 83.0992C66.5239 84.2999 65.98 89.4756 65.98 89.4756L72.1955 90.3643C73.1233 88.8404 74.1049 85.1046 73.2927 82.7789C72.976 81.9037 69.939 81.2733 67.8791 83.0992Z" fill="#407BFF"/>
<path opacity="0.4" d="M67.8791 83.0992C66.5239 84.2999 65.98 89.4756 65.98 89.4756L72.1955 90.3643C73.1233 88.8404 74.1049 85.1046 73.2927 82.7789C72.976 81.9037 69.939 81.2733 67.8791 83.0992Z" fill="black"/>
<path d="M85.1933 90.3652C85.2077 90.9948 83.844 93.4159 82.9735 96.0569C82.1967 98.4139 81.6398 101.906 81.1394 103.268L66.7129 102.518C66.7129 102.518 67.3311 101.745 67.5144 100.601C68.1133 96.8568 68.5506 91.0867 67.6721 84.6537C67.6649 84.6022 67.6595 84.5507 67.6559 84.4992C67.5426 82.9691 68.8539 81.6468 70.585 81.5466C74.9301 81.3732 77.8166 81.5451 81.8598 82.9627C83.1075 83.4051 85.1033 86.4471 85.1933 90.3652Z" fill="#407BFF"/>
<path d="M52.7895 149.544L55.9304 150.963L51.1341 156.539L47.9937 155.12L52.7895 149.544Z" fill="#B55B52"/>
<path d="M51.3962 156.903C51.3769 157.938 50.9285 158.565 52.2088 160.712C52.492 161.19 51.3209 161.921 50.39 160.941C49.459 159.962 48.6562 158.967 47.9829 158.259C46.8862 157.105 46.4059 156.709 45.5193 155.806C45.5014 155.788 45.4853 155.768 45.4709 155.748C45.3155 155.526 45.3925 155.235 45.6434 155.097L48.3435 153.726C48.464 153.663 48.6181 153.688 48.7068 153.783L51.1977 156.404C51.3267 156.545 51.3971 156.722 51.3962 156.903Z" fill="#263238"/>
<path opacity="0.2" d="M52.7862 149.543L50.3105 152.421L53.2638 154.064L55.9267 150.962L52.7862 149.543Z" fill="black"/>
<path d="M49.8965 151.729L54.3971 153.423C54.3971 153.423 64.5488 143.988 70.315 135.288C71.8382 132.995 72.8229 129.35 73.4528 125.378C73.4528 125.375 73.4528 125.375 73.4532 125.372C74.1333 121.096 74.4048 116.44 74.4998 112.68C74.6091 108.359 74.4863 105.223 74.4863 105.223C74.4863 105.223 70.9762 103.754 67.5329 102.519C56.2993 113.323 69.3639 122.745 63.7276 132.231C58.5639 140.934 49.8965 151.729 49.8965 151.729Z" fill="#407BFF"/>
<path opacity="0.4" d="M49.8965 151.729L54.3971 153.423C54.3971 153.423 64.5488 143.988 70.315 135.288C71.8382 132.995 72.8229 129.35 73.4528 125.378C73.4528 125.375 73.4528 125.375 73.4532 125.372C74.1333 121.096 74.4048 116.44 74.4998 112.68C74.6091 108.359 74.4863 105.223 74.4863 105.223C74.4863 105.223 70.9762 103.754 67.5329 102.519C56.2993 113.323 69.3639 122.745 63.7276 132.231C58.5639 140.934 49.8965 151.729 49.8965 151.729Z" fill="black"/>
<path d="M56.1852 152.15L50.1363 150.358L49.4258 151.712L54.7565 153.855L56.1852 152.15Z" fill="#407BFF"/>
<path opacity="0.2" d="M72.1083 131.304C72.5123 129.122 72.9881 127.154 73.4527 125.378C73.4527 125.375 73.4527 125.375 73.4531 125.372C74.1332 121.096 74.4047 116.44 74.4997 112.68C74.493 112.677 74.4903 112.671 74.4871 112.668L74.3787 112.64C73.885 112.406 73.3058 112.582 72.6382 113.268C67.7335 115.315 70.8521 125.71 72.1083 131.304Z" fill="black"/>
<path d="M51.8381 158.219C51.61 157.966 51.4089 157.696 51.2373 157.411C51.2203 157.384 51.2248 157.351 51.2485 157.328C51.2713 157.305 51.3085 157.297 51.3403 157.309C51.5025 157.37 52.9433 157.921 53.0208 158.327C53.0374 158.405 53.0069 158.485 52.9406 158.538C52.8331 158.633 52.6817 158.676 52.5325 158.656C52.2534 158.58 52.0097 158.427 51.8381 158.219ZM51.5043 157.534C51.8941 158.122 52.2825 158.487 52.5638 158.527C52.6633 158.542 52.7645 158.512 52.834 158.447C52.8617 158.427 52.8752 158.396 52.8694 158.364C52.8143 158.142 52.076 157.774 51.498 157.537L51.5043 157.534Z" fill="#407BFF"/>
<path d="M51.2418 157.43C51.2292 157.419 51.2207 157.406 51.2171 157.39C51.2144 157.365 51.2288 157.341 51.2534 157.329C51.3076 157.303 52.4917 156.611 52.9894 157.133L53.0208 157.183C53.1484 157.349 53.1023 157.455 53.0414 157.518C52.7874 157.777 51.6696 157.632 51.257 157.455L51.2418 157.43ZM52.8716 157.223C52.5513 156.887 51.7941 157.217 51.4868 157.37C51.955 157.51 52.7744 157.574 52.9267 157.405C52.9267 157.405 52.9733 157.353 52.8904 157.247L52.8716 157.223Z" fill="#407BFF"/>
<path d="M81.4944 152.825L84.879 152.675L83.66 159.92L80.2754 160.067L81.4944 152.825Z" fill="#B55B52"/>
<path opacity="0.2" d="M81.4944 152.864L80.8672 156.6L84.2052 156.738L84.879 152.714L81.4944 152.864Z" fill="black"/>
<path d="M68.6298 104.681C65.8585 118.922 83.955 123.399 83.0473 133.681C82.2145 143.114 80.5484 155.693 80.5484 155.693L85.5606 155.825C85.5606 155.825 88.723 143.525 90.2212 134.003C91.6619 124.841 78.9056 105.424 78.9056 105.424C78.9056 105.424 72.4633 104.894 68.6298 104.681Z" fill="#407BFF"/>
<path opacity="0.4" d="M68.6298 104.681C65.8585 118.922 83.955 123.399 83.0473 133.681C82.2145 143.114 80.5484 155.693 80.5484 155.693L85.5606 155.825C85.5606 155.825 88.723 143.525 90.2212 134.003C91.6619 124.841 78.9056 105.424 78.9056 105.424C78.9056 105.424 72.4633 104.894 68.6298 104.681Z" fill="black"/>
<path d="M81.4756 102.145L80.8963 104.081C80.3847 105.792 80.468 107.599 81.1356 109.268L70.4624 112.348L69.1484 111.17C66.2351 108.559 65.4726 104.619 67.239 101.301L81.4756 102.145Z" fill="#407BFF"/>
<path opacity="0.4" d="M81.4756 102.145L80.8963 104.081C80.3847 105.792 80.468 107.599 81.1356 109.268L70.4624 112.348L69.1484 111.17C66.2351 108.559 65.4726 104.619 67.239 101.301L81.4756 102.145Z" fill="black"/>
<path d="M67.6093 102.401L79.566 103.044C79.7049 103.052 79.8303 103.119 79.8361 103.192L79.9181 104.254C79.9235 104.321 79.8312 104.355 79.7044 104.363L67.2393 103.693C67.078 103.683 66.9436 103.591 66.9741 103.512L67.3826 102.479C67.4315 102.413 67.5229 102.382 67.6093 102.401Z" fill="#263238"/>
<path d="M86.6409 153.972L79.8506 154.274L79.9765 155.749L86.2906 156L86.6409 153.972Z" fill="#407BFF"/>
<path opacity="0.2" d="M82.5426 90.218C82.8055 90.6603 84.4949 89.8675 84.5483 90.3645C84.6038 90.8845 84.4201 91.3985 84.2382 91.8951C84.1236 92.2083 82.5542 93.805 82.2142 93.9388C81.7281 94.1301 79.2507 93.9455 78.7252 89.0276C78.6759 88.5647 79.2399 86.2117 80.2067 86.4382C80.6292 86.5372 81.1457 87.8685 81.3495 88.2111C81.7469 88.8807 82.1447 89.5491 82.5426 90.218Z" fill="black"/>
<path d="M81.9097 84.4026L91.949 96.3745C91.07 97.2948 89.1257 97.8868 88.1817 97.018C85.3616 94.4214 80.2297 89.6567 79.2401 87.3223C77.8777 84.1072 81.9097 84.4026 81.9097 84.4026Z" fill="#B55B52"/>
<path d="M89.373 93.4512C90.9343 93.985 92.8621 93.136 93.3239 94.7754C93.7491 96.2834 91.8249 96.951 89.7812 97.5506C89.0424 97.7672 87.8194 97.1067 87.6025 96.1178C87.3857 95.1282 88.0479 93.5921 89.373 93.4512Z" fill="#B55B52"/>
<path d="M92.4492 93.839L94.9939 92.9745C95.3998 92.8367 95.8536 92.866 96.2326 93.0541L97.4758 93.6715C97.9457 93.9047 98.232 94.3482 98.2204 94.825C98.2047 95.457 97.6733 95.9861 96.9651 96.0748L95.501 96.2577L92.9111 96.0376L92.4492 93.839Z" fill="#B55B52"/>
<path d="M84.3649 84.5604L86.8199 88.2028C87.198 90.9633 81.495 90.9938 81.495 90.9938C81.495 90.9938 78.4531 88.6851 78.4732 85.3453C78.4813 83.9886 79.2931 83.3637 80.2536 83.0999C81.8252 82.6683 83.5231 83.311 84.3649 84.5604Z" fill="#407BFF"/>
<path opacity="0.4" d="M84.3649 84.5604L86.8199 88.2028C87.198 90.9633 81.495 90.9938 81.495 90.9938C81.495 90.9938 78.4531 88.6851 78.4732 85.3453C78.4813 83.9886 79.2931 83.3637 80.2536 83.0999C81.8252 82.6683 83.5231 83.311 84.3649 84.5604Z" fill="black"/>
<path d="M85.3006 159.699C84.9372 159.689 84.5761 159.65 84.2204 159.583C84.185 159.578 84.1582 159.553 84.1555 159.521C84.151 159.491 84.1685 159.462 84.1989 159.448C84.3589 159.377 85.7602 158.763 86.1719 158.974C86.2512 159.014 86.3005 159.087 86.3023 159.168C86.3162 159.299 86.2566 159.429 86.1424 159.515C85.8933 159.659 85.5962 159.723 85.3006 159.699ZM84.4915 159.482C85.2513 159.598 85.8176 159.571 86.0348 159.417C86.111 159.36 86.15 159.273 86.1388 159.185C86.1397 159.154 86.1218 159.125 86.0913 159.109C85.8628 158.983 85.069 159.245 84.4915 159.482Z" fill="#407BFF"/>
<path d="M84.2352 159.585C84.2182 159.584 84.2016 159.579 84.1873 159.571C84.1644 159.555 84.1523 159.53 84.1546 159.505C84.1514 159.45 84.3293 158.211 85.1012 158.211L85.1702 158.208C85.3897 158.228 85.4533 158.328 85.4686 158.408C85.5268 158.753 84.6881 159.406 84.2675 159.571L84.2352 159.585ZM85.1048 158.355C84.6057 158.351 84.4149 159.072 84.3405 159.381C84.7728 159.158 85.3422 158.645 85.3059 158.437C85.3059 158.437 85.3023 158.37 85.1523 158.357L85.1048 158.355Z" fill="#407BFF"/>
<path d="M84.7197 159.456C85.6457 160.096 86.7218 160.759 89.4335 161.161C90.0388 161.251 89.9935 162.518 88.5483 162.578C87.103 162.638 84.9365 162.632 83.8868 162.676C82.1871 162.747 81.5371 162.845 80.1908 162.92C80.1622 162.921 80.1335 162.921 80.1053 162.919C79.8114 162.894 79.5963 162.663 79.6246 162.403L79.9995 159.675C80.0161 159.553 80.1299 159.46 80.2679 159.455L84.1395 159.294C84.3483 159.286 84.5535 159.344 84.7197 159.456Z" fill="#263238"/>
</svg>
