<svg width="75" height="74" viewBox="0 0 75 74" fill="none" xmlns="http://www.w3.org/2000/svg">
<path d="M9.25117 9.51003C11.2812 7.34002 14.1612 5.97003 17.3612 5.97003H57.4512C60.6512 5.97003 63.5312 7.34002 65.5612 9.51003H71.8812C69.1512 4.33003 63.7112 0.780029 57.4612 0.780029H17.3712C11.1112 0.780029 5.68117 4.33003 2.95117 9.51003H9.27118H9.25117Z" fill="white"/>
<path d="M68.5508 25.2599V48.6399L73.7408 55.6699V18.4399L68.5508 25.2599Z" fill="white"/>
<path d="M65.5508 64.7299C63.5208 66.8999 60.6408 68.27 57.4408 68.27H17.3508C11.2308 68.27 6.24078 63.29 6.24078 57.16V24.95H1.05078V57.16C1.05078 66.15 8.36078 73.46 17.3508 73.46H57.4408C63.7008 73.46 69.1308 69.91 71.8608 64.7299H65.5408H65.5508Z" fill="white"/>
<path d="M49.5604 12.48H0.650391V21.99H15.3604V61.77H37.4204L49.5604 44.56L62.1204 61.77H74.1504L55.6804 36.74L74.1504 12.48H61.3804L32.4604 50.79H25.4904V21.99H42.2704L49.5604 12.48Z" fill="white"/>
</svg>
