<svg width="13" height="14" viewBox="0 0 13 14" fill="none" xmlns="http://www.w3.org/2000/svg">
<path d="M4.03123 6.10618L6.48727 3.55415L8.98169 6.11934C9.09685 6.23776 9.23758 6.29039 9.39102 6.29039C9.54455 6.29039 9.68519 6.23776 9.80034 6.11934C10.0306 5.88251 10.0306 5.51419 9.80034 5.27747L6.88397 2.29116C6.78162 2.18591 6.62809 2.12012 6.47465 2.12012C6.32112 2.12012 6.18047 2.1859 6.06533 2.29116L3.21269 5.27721C2.99518 5.51404 2.99518 5.88236 3.21269 6.11908C3.44299 6.34276 3.80114 6.34276 4.03133 6.10602L4.03123 6.10618Z" fill="#009A99" fill-opacity="0.72"/>
<path d="M3.21238 9.1843L6.11605 12.1573C6.2184 12.2626 6.37194 12.3283 6.52537 12.3283C6.67891 12.3283 6.81955 12.2626 6.93469 12.1573L9.80003 9.17125C10.0175 8.93441 10.0175 8.5661 9.80003 8.32938C9.56973 8.1057 9.21157 8.1057 8.98138 8.32938L6.51265 10.9077L4.03092 8.34254C3.80062 8.1057 3.44247 8.1057 3.21228 8.34254C2.98198 8.57927 2.98198 8.94758 3.21228 9.18441L3.21238 9.1843Z" fill="#009A99" fill-opacity="0.72"/>
</svg>
