<svg width="37" height="37" viewBox="0 0 37 37" fill="none" xmlns="http://www.w3.org/2000/svg">
<path d="M3.0835 11.5625C4.23975 13.1042 4.62516 16.1875 4.62516 18.5C4.62516 20.8125 4.23975 23.8958 3.0835 25.4375M6.876 6.71704C6.54839 5.69646 7.30458 4.625 8.37681 4.625H28.6235C29.6957 4.625 30.4519 5.69646 30.1243 6.71704C29.2147 9.55833 27.7502 14.7152 27.7502 18.5C27.7502 22.2848 29.2147 27.4417 30.1243 30.283C30.4519 31.3035 29.6957 32.375 28.6235 32.375H8.37681C7.30458 32.375 6.54839 31.3035 6.876 30.283C7.78558 27.4417 9.25016 22.2848 9.25016 18.5C9.25016 14.7152 7.78558 9.55833 6.876 6.71704Z" stroke="#12C2C8" stroke-width="1.8" stroke-linecap="round" stroke-linejoin="round"/>
<path d="M13.875 11.948H23.125M13.875 18.5001H23.125M13.875 24.6667H16.9583" stroke="#12C2C8" stroke-width="1.8" stroke-linecap="round"/>
<path d="M33.9167 11.5625C32.7604 13.1042 32.375 16.1875 32.375 18.5C32.375 20.8125 32.7604 23.125 33.9167 25.4375" stroke="#12C2C8" stroke-width="1.8" stroke-linecap="round" stroke-linejoin="round"/>
</svg>
