<svg width="3" height="3" viewBox="0 0 3 3" fill="none" xmlns="http://www.w3.org/2000/svg">
<g clip-path="url(#clip0_851_11230)">
<path d="M2.66227 1.96417C2.57573 1.89643 2.43674 1.80596 2.3792 1.77637C2.25674 1.71268 2.08624 1.7213 1.97374 1.79694L1.97245 1.79782C1.90114 1.84751 1.83506 1.90431 1.77522 1.96733L1.77364 1.96897C1.76196 1.98138 1.74625 1.98922 1.72931 1.99109C1.71238 1.99295 1.69534 1.98873 1.68124 1.97917C1.55184 1.891 1.4311 1.79075 1.32065 1.67975C1.20966 1.56934 1.10943 1.44862 1.02129 1.31923C1.01173 1.30517 1.00749 1.28816 1.00934 1.27126C1.01119 1.25435 1.019 1.23866 1.03137 1.227L1.03313 1.22524C1.09616 1.1654 1.15296 1.09932 1.20264 1.02801L1.20352 1.02673C1.27917 0.914225 1.28778 0.743718 1.2242 0.62155C1.19432 0.563776 1.10403 0.424792 1.03629 0.338249C0.969908 0.250358 0.860045 0.128952 0.813228 0.0870574C0.709459 -0.00645822 0.540416 -0.027552 0.419947 0.0380144L0.418482 0.0388348C0.343913 0.0813155 0.274001 0.131492 0.209888 0.188542L0.203326 0.194401C0.0785797 0.302565 0.00867737 0.466218 0.00117737 0.667956C-0.00708435 0.889967 0.059068 1.15094 0.192896 1.42264C0.329888 1.70108 0.532037 1.97782 0.777486 2.22286C1.02294 2.4679 1.29938 2.67057 1.57782 2.80757C1.83446 2.93383 2.08149 2.99999 2.29524 2.99999C2.30778 2.99999 2.3202 2.99975 2.33251 2.99928C2.53424 2.99178 2.6979 2.92194 2.80594 2.79714L2.8118 2.79057C2.86886 2.72647 2.91904 2.65655 2.96151 2.58198L2.96233 2.58051C3.02784 2.46016 3.00686 2.29124 2.91352 2.18747C2.87157 2.14042 2.75022 2.03055 2.66227 1.96417ZM2.76715 2.4734C2.73265 2.53396 2.6918 2.59067 2.64528 2.64257L2.63831 2.6503C2.57075 2.72882 2.4651 2.77124 2.32424 2.77651C2.14172 2.78319 1.91145 2.72348 1.67626 2.6077C1.41956 2.48143 1.16333 2.29393 0.935103 2.06536C0.70688 1.83678 0.519029 1.58102 0.393052 1.32421C0.276978 1.08901 0.217271 0.858854 0.223716 0.676218C0.22899 0.535593 0.271412 0.429714 0.349927 0.362155L0.357896 0.355182C0.409878 0.308664 0.466663 0.267809 0.527291 0.233307C0.566138 0.212624 0.629947 0.221589 0.664634 0.252702C0.699322 0.283815 0.798228 0.392565 0.859048 0.473132L0.860396 0.474772C0.922857 0.55446 1.00413 0.680788 1.02651 0.724089C1.05247 0.773952 1.04895 0.856862 1.01907 0.901862C0.978104 0.960768 0.931155 1.01528 0.87897 1.06452L0.87815 1.06534C0.827384 1.11329 0.795369 1.17776 0.787852 1.24719C0.780335 1.31661 0.797808 1.38644 0.837134 1.44415C0.933243 1.58521 1.04252 1.71684 1.1635 1.83725C1.28391 1.95825 1.41553 2.06753 1.55661 2.16362C1.61434 2.20291 1.6842 2.22033 1.75362 2.21276C1.82305 2.20519 1.8875 2.17312 1.93542 2.12231L1.93635 2.12137C1.98557 2.06925 2.04004 2.02234 2.09889 1.98139C2.14389 1.95151 2.2268 1.94799 2.27696 1.97413C2.31997 1.99633 2.44629 2.07766 2.52598 2.14012L2.52762 2.14141C2.60842 2.20229 2.71706 2.30143 2.74805 2.33606V2.33635C2.77899 2.37075 2.78784 2.43456 2.76715 2.4734Z" fill="black"/>
</g>
<defs>
<clipPath id="clip0_851_11230">
<rect width="3" height="3" fill="white"/>
</clipPath>
</defs>
</svg>
