<svg width="25" height="30" viewBox="0 0 25 30" fill="none" xmlns="http://www.w3.org/2000/svg">
    <g clip-path="url(#clip0_1281_11134)">
        <path d="M24.9998 8.82217V26.9177C24.9998 28.3443 24.0089 29.5004 22.7865 29.5004H5.41494C4.19263 29.5004 3.20166 28.3443 3.20166 26.9177V2.91672C3.20166 1.49006 4.19258 0.333984 5.41494 0.333984H17.7247C18.4581 0.333984 19.1618 0.674357 19.6809 1.27939L24.1895 6.53936C24.7086 7.14497 24.9998 7.96597 24.9998 8.82217Z" fill="#F1F4F6"/>
        <path d="M21.2589 15.182H14.2981C14.0898 15.182 13.9209 14.985 13.9209 14.7419C13.9209 14.4988 14.0898 14.3018 14.2981 14.3018H21.2589C21.4672 14.3018 21.6361 14.4988 21.6361 14.7419C21.6362 14.985 21.4672 15.182 21.2589 15.182Z" fill="#A3B8BF"/>
        <path d="M21.2589 18.0858H14.7972C14.5888 18.0858 14.4199 17.8888 14.4199 17.6457C14.4199 17.4026 14.5888 17.2056 14.7972 17.2056H21.2589C21.4673 17.2056 21.6362 17.4026 21.6362 17.6457C21.6362 17.8888 21.4672 18.0858 21.2589 18.0858Z" fill="#A3B8BF"/>
        <path d="M21.2589 20.9896H14.7972C14.5888 20.9896 14.4199 20.7926 14.4199 20.5495C14.4199 20.3064 14.5888 20.1094 14.7972 20.1094H21.2589C21.4673 20.1094 21.6362 20.3064 21.6362 20.5495C21.6362 20.7926 21.4672 20.9896 21.2589 20.9896Z" fill="#A3B8BF"/>
        <path d="M16.1321 18.0495V23.9697C16.1321 25.3364 15.1824 26.4444 14.0109 26.4444H3.20166V15.5742H14.0109C15.1824 15.5742 16.1321 16.6822 16.1321 18.0495Z" fill="#D4E1E6"/>
        <path d="M7.00444 29.4999H5.41543C4.19258 29.4999 3.20166 28.3439 3.20166 26.9172V2.91623C3.20166 1.48957 4.19258 0.333496 5.41543 0.333496H7.00444C5.78213 0.333496 4.79116 1.48957 4.79116 2.91623V26.9172C4.79116 28.3439 5.78213 29.4999 7.00444 29.4999Z" fill="#D4E1E6"/>
        <path d="M24.9999 8.82211V9.37315C24.9999 8.33032 24.275 7.48466 23.3812 7.48466H21.0839C19.8616 7.48466 18.8707 6.32859 18.8707 4.90256V2.22247C18.8707 1.17965 18.1458 0.333984 17.252 0.333984H17.7243C18.4582 0.333984 19.1619 0.674357 19.681 1.27939L24.1895 6.53931C24.7081 7.14491 24.9999 7.96591 24.9999 8.82211Z" fill="#D4E1E6"/>
        <path d="M14.6879 13.8618H2.12148C0.949805 13.8618 0 14.9699 0 16.3369V22.2571C0 23.6241 0.949805 24.7322 2.12148 24.7322H14.6879C15.8596 24.7322 16.8094 23.6241 16.8094 22.2571V16.3369C16.8094 14.97 15.8596 13.8618 14.6879 13.8618Z" fill="#DD636E"/>
        <path d="M4.29121 24.7321H2.12119C0.949658 24.7321 0 23.6241 0 22.2568V16.3367C0 14.9699 0.949707 13.8613 2.12119 13.8613H4.29121C3.11968 13.8613 2.16948 14.9699 2.16948 16.3367V22.2568C2.16948 23.6242 3.11968 24.7321 4.29121 24.7321Z" fill="#DA4A54"/>
        <path d="M13.5074 17.0492C13.7158 17.0492 13.8847 16.8521 13.8847 16.6091C13.8847 16.366 13.7158 16.1689 13.5074 16.1689H11.6258C11.4174 16.1689 11.2485 16.366 11.2485 16.6091V22.0254C11.2485 22.2685 11.4174 22.4655 11.6258 22.4655C11.8341 22.4655 12.003 22.2685 12.003 22.0254V19.7061H13.3579C13.5663 19.7061 13.7352 19.509 13.7352 19.266C13.7352 19.0229 13.5663 18.8258 13.3579 18.8258H12.003V17.0492H13.5074V17.0492Z" fill="#F1F4F6"/>
        <path d="M8.4019 16.2905H7.1165C7.01631 16.2905 6.92026 16.337 6.84951 16.4197C6.77871 16.5024 6.73906 16.6146 6.73926 16.7315C6.73926 16.7315 6.74253 18.7685 6.74253 19.3723C6.74253 20.1001 6.74839 22.0079 6.74844 22.0271C6.74883 22.1439 6.78887 22.2557 6.85991 22.3379C6.93062 22.4198 7.02612 22.4657 7.12568 22.4657H7.1271C7.16587 22.4655 8.08115 22.4614 8.44609 22.454C9.0856 22.4409 9.65503 22.103 10.0495 21.5024C10.4122 20.9501 10.6119 20.1957 10.6119 19.3781C10.612 17.5313 9.72378 16.2905 8.4019 16.2905ZM8.43291 21.5738C8.22085 21.5781 7.80737 21.5814 7.50166 21.5833C7.49995 20.9712 7.49707 19.8816 7.49707 19.3723C7.49707 18.9459 7.49541 17.8052 7.49448 17.1708H8.4019C9.10557 17.1708 9.85742 17.7507 9.85742 19.3781C9.85742 20.6538 9.27163 21.5567 8.43291 21.5738Z" fill="#F1F4F6"/>
        <path d="M4.60381 16.1289H3.30156C3.20132 16.1289 3.10513 16.1754 3.03438 16.2583C2.96358 16.3412 2.92398 16.4535 2.92432 16.5704V22.0253C2.92432 22.2684 3.09322 22.4654 3.30156 22.4654C3.50991 22.4654 3.67881 22.2684 3.67881 22.0253V20.093C3.98067 20.0911 4.39243 20.0887 4.60376 20.0887C5.55376 20.0887 6.32666 19.2006 6.32666 18.1088C6.32671 17.0171 5.55381 16.1289 4.60381 16.1289ZM4.60381 19.2084C4.39356 19.2084 3.9875 19.2108 3.68579 19.2127C3.68413 18.8511 3.68091 17.3854 3.67998 17.0092H4.60381C5.12876 17.0092 5.57222 17.5128 5.57222 18.1088C5.57217 18.7049 5.12871 19.2084 4.60381 19.2084Z" fill="#F1F4F6"/>
        <path d="M21.2587 12.2782H6.94268C6.73433 12.2782 6.56543 12.0811 6.56543 11.8381C6.56543 11.595 6.73433 11.3979 6.94268 11.3979H21.2587C21.467 11.3979 21.6359 11.595 21.6359 11.8381C21.6359 12.0811 21.4671 12.2782 21.2587 12.2782Z" fill="#A3B8BF"/>
        <path d="M17.252 9.37487H6.94268C6.73433 9.37487 6.56543 9.17782 6.56543 8.93475C6.56543 8.69167 6.73433 8.49463 6.94268 8.49463H17.252C17.4603 8.49463 17.6292 8.69167 17.6292 8.93475C17.6292 9.17782 17.4604 9.37487 17.252 9.37487Z" fill="#A3B8BF"/>
    </g>
    <defs>
        <clipPath id="clip0_1281_11134">
            <rect width="25" height="29.1667" fill="white" transform="translate(0 0.333496)"/>
        </clipPath>
    </defs>
</svg>
