<svg width="25" height="25" viewBox="0 0 25 25" fill="none" xmlns="http://www.w3.org/2000/svg">
<path d="M0 4.34028C0 3.18916 0.457278 2.0852 1.27124 1.27124C2.0852 0.457278 3.18916 0 4.34028 0H20.6597C21.8108 0 22.9148 0.457278 23.7288 1.27124C24.5427 2.0852 25 3.18916 25 4.34028V20.6597C25 21.8108 24.5427 22.9148 23.7288 23.7288C22.9148 24.5427 21.8108 25 20.6597 25H4.34028C3.18916 25 2.0852 24.5427 1.27124 23.7288C0.457278 22.9148 0 21.8108 0 20.6597V4.34028Z" fill="url(#paint0_radial_436_11412)"/>
<path d="M24.3057 22.9167C24.5177 22.4927 24.4256 21.6406 24.0925 21.3033L18.6885 15.8316C18.5142 15.656 18.3073 15.5168 18.0796 15.4217C17.8518 15.3267 17.6078 15.2778 17.3613 15.2778C17.1148 15.2778 16.8707 15.3267 16.643 15.4217C16.4153 15.5168 16.2083 15.656 16.0341 15.8316L8.3335 23.5876C8.64335 24.0249 9.0525 24.3813 9.52684 24.627C10.0012 24.8726 10.5269 25.0006 11.0603 25.0001L20.8335 25.0001C22.2224 25.0001 23.6113 24.3056 24.3057 22.9167Z" fill="url(#paint1_linear_436_11412)"/>
<path d="M14.5835 7.63862C14.5835 6.90191 14.8762 6.19537 15.3971 5.67443C15.918 5.1535 16.6246 4.86084 17.3613 4.86084C18.098 4.86084 18.8045 5.1535 19.3255 5.67443C19.8464 6.19537 20.1391 6.90191 20.1391 7.63862C20.1391 8.37533 19.8464 9.08187 19.3255 9.6028C18.8045 10.1237 18.098 10.4164 17.3613 10.4164C16.6246 10.4164 15.918 10.1237 15.3971 9.6028C14.8762 9.08187 14.5835 8.37533 14.5835 7.63862Z" fill="url(#paint2_linear_436_11412)"/>
<path d="M20.8333 24.9993L10.0518 11.9019C9.82612 11.6511 9.55817 11.4522 9.26326 11.3164C8.96836 11.1807 8.65228 11.1108 8.33307 11.1108C8.01387 11.1108 7.69779 11.1807 7.40288 11.3164C7.10798 11.4522 6.84002 11.6511 6.61432 11.9019L7.22075e-08 19.5982C-2.39864e-06 20.2168 -2.89005e-06 20.4635 0.0111661 20.6364C0.0662489 21.489 0.287244 22.3474 0.773316 23.0501C2.12184 24.9996 4.16667 24.9993 4.16667 24.9993L16.4928 24.9994C17.1835 25.0002 18.0556 24.9993 18.75 24.9993H20.8333Z" fill="url(#paint3_linear_436_11412)"/>
<defs>
<radialGradient id="paint0_radial_436_11412" cx="0" cy="0" r="1" gradientUnits="userSpaceOnUse" gradientTransform="translate(-9.82083 -14.0625) rotate(51.687) scale(69.1291 62.8776)">
<stop offset="0.338" stop-color="#F9CF4A"/>
<stop offset="0.529" stop-color="#EFBF42"/>
</radialGradient>
<linearGradient id="paint1_linear_436_11412" x1="14.7819" y1="15.278" x2="17.0104" y2="25.4984" gradientUnits="userSpaceOnUse">
<stop stop-color="#DD6734"/>
<stop offset="1" stop-color="#C14E2C"/>
</linearGradient>
<linearGradient id="paint2_linear_436_11412" x1="16.2502" y1="4.24348" x2="18.28" y2="11.5504" gradientUnits="userSpaceOnUse">
<stop stop-color="#FDFDFD"/>
<stop offset="1" stop-color="#B3E0FF"/>
</linearGradient>
<linearGradient id="paint3_linear_436_11412" x1="4.99308" y1="11.111" x2="8.47057" y2="25.5691" gradientUnits="userSpaceOnUse">
<stop stop-color="#CC4F29"/>
<stop offset="1" stop-color="#9E291E"/>
</linearGradient>
</defs>
</svg>
