<svg width="34" height="34" viewBox="0 0 34 34" fill="none" xmlns="http://www.w3.org/2000/svg">
<path d="M11.0502 21.25C10.8248 21.25 10.6086 21.1605 10.4492 21.0011C10.2897 20.8417 10.2002 20.6255 10.2002 20.4C10.2002 20.1746 10.2897 19.9584 10.4492 19.799C10.6086 19.6396 10.8248 19.55 11.0502 19.55H22.9502C23.1756 19.55 23.3918 19.6396 23.5512 19.799C23.7106 19.9584 23.8002 20.1746 23.8002 20.4C23.8002 20.6255 23.7106 20.8417 23.5512 21.0011C23.3918 21.1605 23.1756 21.25 22.9502 21.25H11.0502ZM11.0502 25.5C10.8248 25.5 10.6086 25.4105 10.4492 25.2511C10.2897 25.0917 10.2002 24.8755 10.2002 24.65C10.2002 24.4246 10.2897 24.2084 10.4492 24.049C10.6086 23.8896 10.8248 23.8 11.0502 23.8H22.9502C23.1756 23.8 23.3918 23.8896 23.5512 24.049C23.7106 24.2084 23.8002 24.4246 23.8002 24.65C23.8002 24.8755 23.7106 25.0917 23.5512 25.2511C23.3918 25.4105 23.1756 25.5 22.9502 25.5H11.0502Z" fill="#5855AE"/>
<path fill-rule="evenodd" clip-rule="evenodd" d="M19.0146 1.69995H7.6501C6.9738 1.69995 6.32519 1.96861 5.84698 2.44683C5.36876 2.92505 5.1001 3.57365 5.1001 4.24995V29.75C5.1001 30.4263 5.36876 31.0749 5.84698 31.5531C6.32519 32.0313 6.9738 32.3 7.6501 32.3H26.3501C27.0264 32.3 27.675 32.0313 28.1532 31.5531C28.6314 31.0749 28.9001 30.4263 28.9001 29.75V12.2434C28.8999 11.605 28.6603 10.9898 28.2286 10.5196L20.8948 2.52615C20.6558 2.26562 20.3652 2.05763 20.0415 1.9154C19.7179 1.77317 19.3681 1.6998 19.0146 1.69995ZM6.8001 4.24995C6.8001 4.02452 6.88965 3.80832 7.04906 3.64891C7.20846 3.4895 7.42466 3.39995 7.6501 3.39995H19.0146C19.1325 3.39982 19.2492 3.42424 19.3572 3.47165C19.4652 3.51907 19.5622 3.58844 19.6419 3.67535L26.9757 11.6688C27.1198 11.8254 27.1999 12.0305 27.2001 12.2434V29.75C27.2001 29.9754 27.1105 30.1916 26.9511 30.351C26.7917 30.5104 26.5755 30.6 26.3501 30.6H7.6501C7.42466 30.6 7.20846 30.5104 7.04906 30.351C6.88965 30.1916 6.8001 29.9754 6.8001 29.75V4.24995Z" fill="#5855AE"/>
<path d="M19.5503 3.57007V11.5601H27.5403" stroke="#5855AE" stroke-linecap="round" stroke-linejoin="round"/>
<path d="M13.8277 10.426C14.0705 10.4335 14.3123 10.3921 14.5387 10.3043C14.7652 10.2165 14.9717 10.0842 15.1461 9.91508C15.3204 9.74598 15.459 9.5436 15.5537 9.31993C15.6484 9.09626 15.6971 8.85585 15.6971 8.61297C15.6971 8.37009 15.6484 8.12969 15.5537 7.90602C15.459 7.68234 15.3204 7.47996 15.1461 7.31087C14.9717 7.14178 14.7652 7.00942 14.5387 6.92165C14.3123 6.83388 14.0705 6.79249 13.8277 6.79992C13.3565 6.81435 12.9094 7.0117 12.5811 7.35013C12.2529 7.68857 12.0693 8.14151 12.0693 8.61297C12.0693 9.08443 12.2529 9.53737 12.5811 9.87581C12.9094 10.2142 13.3565 10.4116 13.8277 10.426Z" fill="#5855AE"/>
<path fill-rule="evenodd" clip-rule="evenodd" d="M17.4524 14.3548C17.4524 12.427 15.8289 11.0312 13.8263 11.0312C11.8237 11.0312 10.2002 12.4253 10.2002 14.3548V15.2625C10.2006 15.4228 10.2646 15.5763 10.3781 15.6894C10.4915 15.8025 10.6452 15.8661 10.8054 15.8661H16.8489C17.0088 15.8656 17.1621 15.8019 17.2751 15.6888C17.3882 15.5757 17.4519 15.4225 17.4524 15.2625V14.3548Z" fill="#5855AE"/>
</svg>
