<svg width="31" height="31" viewBox="0 0 31 31" fill="none" xmlns="http://www.w3.org/2000/svg">
<path d="M15.5 3.875H6.45833C5.77319 3.875 5.11611 4.14717 4.63164 4.63164C4.14717 5.11611 3.875 5.77319 3.875 6.45833V24.5417C3.875 25.2268 4.14717 25.8839 4.63164 26.3684C5.11611 26.8528 5.77319 27.125 6.45833 27.125H24.5417C25.2268 27.125 25.8839 26.8528 26.3684 26.3684C26.8528 25.8839 27.125 25.2268 27.125 24.5417V15.5" stroke="#C5C51A" stroke-width="1.9" stroke-linecap="round" stroke-linejoin="round"/>
<path d="M23.7343 3.39067C24.2482 2.87682 24.9451 2.58813 25.6718 2.58813C26.3985 2.58813 27.0955 2.87682 27.6093 3.39067C28.1232 3.90453 28.4119 4.60147 28.4119 5.32817C28.4119 6.05488 28.1232 6.75182 27.6093 7.26567L15.9675 18.9088C15.6608 19.2152 15.2819 19.4395 14.8657 19.561L11.1548 20.646C11.0436 20.6785 10.9258 20.6804 10.8137 20.6517C10.7015 20.6229 10.5992 20.5646 10.5173 20.4827C10.4354 20.4009 10.3771 20.2985 10.3483 20.1863C10.3196 20.0742 10.3215 19.9564 10.354 19.8452L11.439 16.1343C11.5611 15.7184 11.7858 15.34 12.0925 15.0338L23.7343 3.39067Z" stroke="#C5C51A" stroke-width="1.9" stroke-linecap="round" stroke-linejoin="round"/>
</svg>
