<svg width="3" height="3" viewBox="0 0 3 3" fill="none" xmlns="http://www.w3.org/2000/svg">
<g clip-path="url(#clip0_851_11225)">
<path d="M2.67773 0.357422H0.322266C0.236824 0.357515 0.154909 0.391498 0.0944922 0.451914C0.0340758 0.51233 9.30568e-05 0.594246 0 0.679688V2.32031C9.30568e-05 2.40575 0.0340758 2.48767 0.0944922 2.54809C0.154909 2.6085 0.236824 2.64249 0.322266 2.64258H2.67773C2.76318 2.64249 2.84509 2.6085 2.90551 2.54809C2.96592 2.48767 2.99991 2.40575 3 2.32031V0.679688C2.99991 0.594246 2.96592 0.51233 2.90551 0.451914C2.84509 0.391498 2.76318 0.357515 2.67773 0.357422ZM2.82422 0.679688V2.32031C2.82423 2.32743 2.8237 2.33454 2.82264 2.34158L1.9776 1.5L2.82264 0.658418C2.8237 0.665458 2.82423 0.672568 2.82422 0.679688ZM2.67773 0.533203C2.68448 0.533225 2.69121 0.533695 2.69789 0.534609L1.5 1.72752L0.302109 0.534609C0.30879 0.533695 0.315523 0.533225 0.322266 0.533203H2.67773ZM0.177363 2.34158C0.176304 2.33454 0.175775 2.32743 0.175781 2.32031V0.679688C0.175775 0.672568 0.176304 0.665458 0.177363 0.658418L1.0224 1.5L0.177363 2.34158ZM0.322266 2.4668C0.315523 2.46677 0.30879 2.4663 0.302109 2.46539L1.14697 1.62404L1.43801 1.91385C1.45448 1.93024 1.47677 1.93943 1.5 1.93943C1.52323 1.93943 1.54552 1.93024 1.56199 1.91385L1.85303 1.62404L2.69789 2.46539C2.69121 2.4663 2.68448 2.46677 2.67773 2.4668H0.322266Z" fill="black"/>
</g>
<defs>
<clipPath id="clip0_851_11225">
<rect width="3" height="3" fill="white"/>
</clipPath>
</defs>
</svg>
