<svg width="34" height="34" viewBox="0 0 34 34" fill="none" xmlns="http://www.w3.org/2000/svg">
<path d="M20.8048 16.3102L9.04395 14.2383V29.5478C9.04381 29.7142 9.07651 29.879 9.14019 30.0328C9.20387 30.1865 9.29726 30.3261 9.41502 30.4437C9.53278 30.5613 9.67259 30.6544 9.82643 30.7179C9.98027 30.7813 10.1451 30.8137 10.3115 30.8133H30.6053C30.7718 30.814 30.9369 30.7818 31.091 30.7185C31.2451 30.6552 31.3851 30.5621 31.5031 30.4445C31.6211 30.3269 31.7147 30.1871 31.7785 30.0333C31.8423 29.8794 31.8751 29.7144 31.8749 29.5478V23.907L20.8048 16.3102Z" fill="#185C37"/>
<path d="M20.8048 3.1875H10.3115C10.1451 3.18708 9.98027 3.21951 9.82643 3.28293C9.67259 3.34635 9.53278 3.43951 9.41502 3.55708C9.29726 3.67464 9.20387 3.81429 9.14019 3.96802C9.07651 4.12175 9.04381 4.28654 9.04395 4.45294V10.0938L20.8048 17L27.0321 19.0719L31.8749 17V10.0938L20.8048 3.1875Z" fill="#21A366"/>
<path d="M9.04395 10.0938H20.8048V17H9.04395V10.0938Z" fill="#107C41"/>
<path opacity="0.1" d="M17.4611 8.71289H9.04395V25.9785H17.4611C17.7965 25.9768 18.1177 25.8431 18.3552 25.6062C18.5926 25.3694 18.7272 25.0485 18.7297 24.7131V9.97833C18.7272 9.64294 18.5926 9.32205 18.3552 9.08518C18.1177 8.84832 17.7965 8.71456 17.4611 8.71289Z" fill="black"/>
<path opacity="0.2" d="M16.7694 9.40234H9.04395V26.668H16.7694C17.1048 26.6663 17.426 26.5325 17.6635 26.2957C17.9009 26.0588 18.0355 25.7379 18.038 25.4025V10.6678C18.0355 10.3324 17.9009 10.0115 17.6635 9.77463C17.426 9.53777 17.1048 9.40401 16.7694 9.40234Z" fill="black"/>
<path opacity="0.2" d="M16.7694 9.40234H9.04395V25.2867H16.7694C17.1048 25.2851 17.426 25.1513 17.6635 24.9144C17.9009 24.6776 18.0355 24.3567 18.038 24.0213V10.6678C18.0355 10.3324 17.9009 10.0115 17.6635 9.77463C17.426 9.53777 17.1048 9.40401 16.7694 9.40234Z" fill="black"/>
<path opacity="0.2" d="M16.0777 9.40234H9.04395V25.2867H16.0777C16.4131 25.2851 16.7343 25.1513 16.9718 24.9144C17.2092 24.6776 17.3438 24.3567 17.3463 24.0213V10.6678C17.3438 10.3324 17.2092 10.0115 16.9718 9.77463C16.7343 9.53777 16.4131 9.40401 16.0777 9.40234Z" fill="black"/>
<path d="M3.39363 9.40235H16.0778C16.4137 9.40207 16.7361 9.5352 16.974 9.77248C17.2119 10.0098 17.3458 10.3318 17.3464 10.6678V23.3307C17.3458 23.6667 17.2119 23.9887 16.974 24.226C16.7361 24.4633 16.4137 24.5964 16.0778 24.5961H3.39363C3.22714 24.5967 3.06218 24.5643 2.90822 24.501C2.75426 24.4376 2.61432 24.3445 2.49645 24.2269C2.37858 24.1093 2.28509 23.9696 2.22134 23.8158C2.1576 23.662 2.12486 23.4972 2.125 23.3307V10.6678C2.12486 10.5013 2.1576 10.3364 2.22134 10.1826C2.28509 10.0288 2.37858 9.88912 2.49645 9.77155C2.61432 9.65397 2.75426 9.56083 2.90822 9.49747C3.06218 9.43412 3.22714 9.40179 3.39363 9.40235Z" fill="url(#paint0_linear_214_10540)"/>
<path d="M6.05615 21.1149L8.72409 16.9881L6.28034 12.8848H8.24278L9.57622 15.5123C9.69947 15.761 9.78872 15.9458 9.82909 16.0691H9.84715C9.93428 15.87 10.0264 15.6767 10.1234 15.489L11.5493 12.889H13.3555L10.8491 16.969L13.4193 21.1181H11.4972L9.95659 18.2376C9.88526 18.1137 9.82448 17.984 9.7749 17.8498H9.7494C9.70437 17.9806 9.64448 18.1057 9.5709 18.2228L7.98459 21.1149H6.05615Z" fill="white"/>
<path d="M30.6062 3.18751H20.8047V10.0938H31.8749V4.45294C31.875 4.28646 31.8423 4.12158 31.7785 3.96778C31.7148 3.81398 31.6213 3.67428 31.5034 3.5567C31.3855 3.43913 31.2456 3.34599 31.0917 3.28263C30.9377 3.21927 30.7727 3.18695 30.6062 3.18751Z" fill="#33C481"/>
<path d="M20.8047 17H31.8749V23.9062H20.8047V17Z" fill="#107C41"/>
<defs>
<linearGradient id="paint0_linear_214_10540" x1="4.77488" y1="8.40785" x2="14.6965" y2="25.5906" gradientUnits="userSpaceOnUse">
<stop stop-color="#18884F"/>
<stop offset="0.5" stop-color="#117E43"/>
<stop offset="1" stop-color="#0B6631"/>
</linearGradient>
</defs>
</svg>
