<svg width="197" height="227" viewBox="0 0 197 227" fill="none" xmlns="http://www.w3.org/2000/svg">
<path d="M5.875 36.3125V190.614" stroke="#009A99" stroke-width="10" stroke-linecap="round"/>
<path d="M191.125 82.625V190.688" stroke="#009A99" stroke-width="10" stroke-linecap="round" stroke-linejoin="round"/>
<path d="M36.75 5.4375H113.938" stroke="#009A99" stroke-width="10" stroke-linecap="round" stroke-linejoin="round"/>
<path d="M36.75 221.562H160.25" stroke="#009A99" stroke-width="10" stroke-linecap="round"/>
<path d="M191.125 190.688C191.209 206.107 175.688 221.562 160.25 221.562" stroke="#009A99" stroke-width="10" stroke-linecap="round" stroke-linejoin="round"/>
<path d="M5.875 190.688C5.875 206.125 21.3125 221.562 36.75 221.562" stroke="#009A99" stroke-width="10" stroke-linecap="round" stroke-linejoin="round"/>
<path d="M5.875 36.29C5.875 20.8749 21.3125 5.78124 36.75 5.43744" stroke="#009A99" stroke-width="10" stroke-linecap="round" stroke-linejoin="round"/>
<path d="M191.041 82.6943L113.938 5.4375" stroke="#009A99" stroke-width="10" stroke-linecap="round" stroke-linejoin="round"/>
<path d="M113.938 51.75C113.985 67.1035 129.437 82.625 144.812 82.625" stroke="#009A99" stroke-width="10" stroke-linecap="round" stroke-linejoin="round"/>
<path d="M113.938 51.75V5.4375" stroke="#009A99" stroke-width="10" stroke-linecap="round" stroke-linejoin="round"/>
<path d="M144.812 82.625H191.125" stroke="#009A99" stroke-width="10" stroke-linecap="round" stroke-linejoin="round"/>
<path d="M36.75 190.688H83.0625" stroke="#009A99" stroke-width="10" stroke-linecap="round" stroke-linejoin="round"/>
<path d="M36.75 159.812H113.938" stroke="#009A99" stroke-width="10" stroke-linecap="round" stroke-linejoin="round"/>
<path d="M36.75 128.938H83.0625" stroke="#009A99" stroke-width="10" stroke-linecap="round" stroke-linejoin="round"/>
</svg>
