<svg width="32" height="34" viewBox="0 0 32 34" fill="none" xmlns="http://www.w3.org/2000/svg">
<path d="M22.4429 26.907C22.1667 26.907 21.9429 27.1449 21.9429 27.4382V27.625H4.73486V5.84375H21.9429V6.56436C21.9429 6.85775 22.1667 7.09561 22.4429 7.09561C22.719 7.09561 22.9429 6.85775 22.9429 6.56436V3.71875C22.9429 2.25418 21.8213 1.0625 20.4429 1.0625H6.23486C4.85644 1.0625 3.73486 2.25418 3.73486 3.71875V30.2812C3.73486 31.7458 4.85644 32.9375 6.23486 32.9375H20.4429C21.8213 32.9375 22.9429 31.7458 22.9429 30.2812V27.4382C22.9429 27.1449 22.719 26.907 22.4429 26.907ZM6.23486 2.125H20.4429C21.27 2.125 21.9429 2.8399 21.9429 3.71875V4.78125H4.73486V3.71875C4.73486 2.8399 5.40771 2.125 6.23486 2.125ZM20.4429 31.875H6.23486C5.40771 31.875 4.73486 31.1601 4.73486 30.2812V28.6875H21.9429V30.2812C21.9429 31.1601 21.27 31.875 20.4429 31.875Z" fill="#117E43" stroke="#117E43" stroke-width="0.4"/>
<path d="M25.7647 8.27393H14.3389C12.9604 8.27393 11.8389 9.46561 11.8389 10.9302V23.0701C11.8389 24.5346 12.9604 25.7263 14.3389 25.7263H25.7646C27.1431 25.7263 28.2646 24.5346 28.2646 23.0701V10.9302C28.2646 9.46561 27.1431 8.27393 25.7647 8.27393ZM27.2647 23.0701C27.2647 23.9489 26.5918 24.6638 25.7647 24.6638H14.3389C13.5117 24.6638 12.8389 23.9489 12.8389 23.0701V10.9302C12.8389 10.0513 13.5117 9.33643 14.3389 9.33643H25.7646C26.5918 9.33643 27.2646 10.0513 27.2646 10.9302L27.2647 23.0701Z" fill="#117E43" stroke="#117E43" stroke-width="0.2"/>
<path d="M14.8389 14.6946C15.115 14.6946 15.3389 14.4567 15.3389 14.1633V11.9924H17.3821C17.6582 11.9924 17.8821 11.7546 17.8821 11.4612C17.8821 11.1678 17.6582 10.9299 17.3821 10.9299H14.8389C14.5627 10.9299 14.3389 11.1678 14.3389 11.4612V14.1633C14.3389 14.4567 14.5627 14.6946 14.8389 14.6946Z" fill="#117E43"/>
<path d="M25.2651 10.9302H22.7217C22.4456 10.9302 22.2217 11.168 22.2217 11.4614C22.2217 11.7548 22.4456 11.9927 22.7217 11.9927H24.7651V14.1636C24.7651 14.457 24.989 14.6948 25.2651 14.6948C25.5413 14.6948 25.7651 14.457 25.7651 14.1636V11.4614C25.7651 11.168 25.5413 10.9302 25.2651 10.9302Z" fill="#117E43"/>
<path d="M17.3821 22.0073H15.3389V19.8364C15.3389 19.543 15.115 19.3052 14.8389 19.3052C14.5627 19.3052 14.3389 19.543 14.3389 19.8364V22.5386C14.3389 22.832 14.5627 23.0698 14.8389 23.0698H17.3821C17.6582 23.0698 17.8821 22.832 17.8821 22.5386C17.8821 22.2452 17.6582 22.0073 17.3821 22.0073Z" fill="#117E43"/>
<path d="M25.2651 19.3052C24.989 19.3052 24.7651 19.543 24.7651 19.8364V22.0073H22.7217C22.4456 22.0073 22.2217 22.2452 22.2217 22.5386C22.2217 22.832 22.4456 23.0698 22.7217 23.0698H25.2651C25.5413 23.0698 25.7651 22.832 25.7651 22.5386V19.8364C25.7651 19.543 25.5413 19.3052 25.2651 19.3052Z" fill="#117E43"/>
<path d="M14.8389 18.0993C15.115 18.0993 15.3389 17.8614 15.3389 17.5681V16.4319C15.3389 16.1385 15.115 15.9006 14.8389 15.9006C14.5627 15.9006 14.3389 16.1385 14.3389 16.4319V17.5681C14.3389 17.8614 14.5627 18.0993 14.8389 18.0993Z" fill="#117E43"/>
<path d="M25.2651 15.9006C24.989 15.9006 24.7651 16.1385 24.7651 16.4319V17.5681C24.7651 17.8614 24.989 18.0993 25.2651 18.0993C25.5413 18.0993 25.7651 17.8614 25.7651 17.5681V16.4319C25.7651 16.1385 25.5413 15.9006 25.2651 15.9006Z" fill="#117E43"/>
<path d="M16.7563 17C16.7563 17.2934 16.9802 17.5312 17.2563 17.5312H22.8479C23.124 17.5312 23.3479 17.2934 23.3479 17C23.3479 16.7066 23.124 16.4688 22.8479 16.4688H17.2563C16.9802 16.4688 16.7563 16.7066 16.7563 17Z" fill="#117E43"/>
<path d="M18.2563 14.3438H21.8479C22.124 14.3438 22.3479 14.1059 22.3479 13.8125C22.3479 13.5191 22.124 13.2812 21.8479 13.2812H18.2563C17.9802 13.2812 17.7563 13.5191 17.7563 13.8125C17.7563 14.1059 17.9802 14.3438 18.2563 14.3438Z" fill="#117E43"/>
<path d="M21.8474 19.6562H18.2559C17.9797 19.6562 17.7559 19.8941 17.7559 20.1875C17.7559 20.4809 17.9797 20.7188 18.2559 20.7188H21.8474C22.1235 20.7188 22.3474 20.4809 22.3474 20.1875C22.3474 19.8941 22.1235 19.6562 21.8474 19.6562Z" fill="#117E43"/>
</svg>
