<svg width="26" height="26" viewBox="0 0 26 26" fill="none" xmlns="http://www.w3.org/2000/svg">
<path d="M7.40185 9.4254C7.35342 8.44925 7.58399 7.4795 8.06658 6.6296C8.54916 5.7797 9.26381 5.0848 10.1269 4.62622C10.99 4.16764 11.9658 3.96434 12.9402 4.0401C13.9146 4.11586 14.8473 4.46755 15.6292 5.05402L14.6 6.42624C14.2109 6.13576 13.7648 5.93075 13.291 5.82463C12.8172 5.71852 12.3262 5.71369 11.8504 5.81046C11.0562 5.97453 10.3458 6.41459 9.84515 7.05259C9.3445 7.69059 9.08601 8.48528 9.11551 9.29572C9.14501 10.1062 9.46059 10.88 10.0063 11.4799C10.552 12.0798 11.2925 12.467 12.0966 12.5729C12.8442 11.5456 13.9457 10.8314 15.1887 10.568C16.4317 10.3047 17.7282 10.5108 18.8282 11.1467C19.466 11.5154 20.0172 12.0168 20.4445 12.6169C20.8718 13.217 21.1652 13.9019 21.305 14.6253C21.4448 15.3486 21.4276 16.0935 21.2547 16.8096C21.0817 17.5258 20.757 18.1964 20.3025 18.7762C19.848 19.356 19.2743 19.8315 18.6202 20.1704C17.9661 20.5094 17.2469 20.704 16.5111 20.741C15.7753 20.7779 15.0402 20.6565 14.3554 20.3849C13.6705 20.1133 13.052 19.6978 12.5417 19.1665C11.9887 19.7417 11.3096 20.1805 10.558 20.4481C9.80631 20.7158 9.00271 20.805 8.21066 20.7087C7.41861 20.6123 6.6598 20.3332 5.99419 19.8932C5.32858 19.4532 4.77441 18.8645 4.37545 18.1735C3.97649 17.4825 3.74367 16.7082 3.6954 15.9118C3.64713 15.1153 3.78472 14.3186 4.0973 13.5845C4.40989 12.8504 4.8889 12.199 5.49649 11.6819C6.10409 11.1647 6.82362 10.7959 7.59824 10.6047C7.49096 10.2329 7.42594 9.8503 7.40442 9.464L7.40185 9.4254ZM8.38213 12.2007C7.67129 12.2939 7.00751 12.6075 6.48406 13.0974C5.9606 13.5872 5.60377 14.2288 5.46369 14.9319C5.32361 15.635 5.40733 16.3643 5.70308 17.0174C5.99883 17.6705 6.49176 18.2145 7.1126 18.573C7.73344 18.9315 8.451 19.0865 9.16447 19.0162C9.87793 18.9459 10.5515 18.6539 11.0904 18.1811C11.6293 17.7083 12.0066 17.0786 12.1693 16.3803C12.3319 15.6821 12.2717 14.9505 11.9971 14.2882C11.6319 14.2496 11.2719 14.1719 10.9233 14.0567C9.90323 13.7185 9.01461 13.0695 8.38213 12.2007ZM13.5314 17.6905C13.9676 18.2594 14.5711 18.6773 15.2571 18.8856C15.943 19.0938 16.677 19.082 17.3559 18.8517C18.0348 18.6213 18.6245 18.1841 19.0421 17.6014C19.4597 17.0187 19.6843 16.3199 19.6843 15.603C19.6843 14.8861 19.4597 14.1872 19.0421 13.6045C18.6245 13.0218 18.0348 12.5846 17.3559 12.3543C16.677 12.124 15.943 12.1121 15.2571 12.3204C14.5711 12.5287 13.9676 12.9466 13.5314 13.5155C13.6274 13.7305 13.7075 13.9483 13.7715 14.169C13.8247 14.3523 13.8677 14.5384 13.9002 14.7265C14.073 15.7292 13.9447 16.7607 13.5314 17.6905ZM18.1824 9.17069C18.4302 9.45714 18.6361 9.78304 18.7913 10.1381L19.0023 10.6235C19.1566 10.9786 19.6481 10.9786 19.8033 10.6235L20.0143 10.1381C20.3852 9.27937 21.0646 8.59085 21.9182 8.20842L22.5692 7.91768C22.6482 7.88135 22.7151 7.82314 22.762 7.74995C22.8089 7.67675 22.8338 7.59165 22.8338 7.50472C22.8338 7.4178 22.8089 7.33269 22.762 7.2595C22.7151 7.18631 22.6482 7.1281 22.5692 7.09177L21.9543 6.81818C21.0791 6.42485 20.3882 5.71087 20.0237 4.82331L19.8067 4.2993C19.7749 4.21813 19.7193 4.14844 19.6472 4.09932C19.5752 4.0502 19.49 4.02393 19.4028 4.02393C19.3156 4.02393 19.2304 4.0502 19.1583 4.09932C19.0863 4.14844 19.0307 4.21813 18.9988 4.2993L18.7819 4.82246C18.7132 4.98827 18.6343 5.14693 18.5451 5.29845C18.153 5.96943 17.5607 6.50086 16.8513 6.81818L16.2364 7.09263C16.1577 7.12906 16.091 7.18726 16.0443 7.26036C15.9975 7.33346 15.9727 7.4184 15.9727 7.50515C15.9727 7.5919 15.9975 7.67685 16.0443 7.74994C16.091 7.82304 16.1577 7.88124 16.2364 7.91768L16.8882 8.20756C17.3857 8.42905 17.8271 8.75796 18.1824 9.17069Z" fill="#009A99"/>
</svg>
