<svg width="30" height="29" viewBox="0 0 30 29" fill="none" xmlns="http://www.w3.org/2000/svg">
<path fill-rule="evenodd" clip-rule="evenodd" d="M9.03554 1.54123H9.18739C9.60705 1.54123 9.87726 1.54123 10.1415 1.56515C11.219 1.66591 12.2452 2.07244 13.0994 2.73685H20.6306C21.1197 2.73685 21.452 2.73685 21.7438 2.77511C22.7626 2.90959 23.7043 3.38999 24.4113 4.13589C25.1182 4.88179 25.5475 5.84791 25.6271 6.8725C25.9631 7.02445 26.2736 7.2273 26.5478 7.47389C26.6673 7.5799 26.7793 7.69149 26.8837 7.80867C27.5162 8.51169 27.7852 9.36656 27.912 10.3721C28.0339 11.3429 28.0339 12.5696 28.0339 14.0916V16.8535C28.0339 19.0499 28.0339 20.7907 27.851 22.1525C27.6621 23.5538 27.2651 24.6884 26.3708 25.5839C25.4753 26.4782 24.3407 26.8752 22.9394 27.0641C21.5764 27.247 19.8368 27.247 17.6392 27.247H12.7228C10.5253 27.247 8.78446 27.247 7.42265 27.0641C6.02139 26.8752 4.88675 26.4782 3.99123 25.5839C3.09691 24.6884 2.69996 23.5538 2.51105 22.1525C2.32812 20.7895 2.32812 19.0499 2.32812 16.8523V8.24865C2.32812 7.29574 2.32813 6.69076 2.42617 6.16828C2.6376 5.04514 3.18297 4.01193 3.99099 3.20369C4.79902 2.39546 5.83209 1.84981 6.95517 1.63808C7.47885 1.54004 8.08383 1.54004 9.03554 1.54004M23.7261 6.41577C23.573 5.92618 23.283 5.49057 22.8905 5.16032C22.498 4.83006 22.0192 4.61893 21.5106 4.5518C21.3504 4.53148 21.1448 4.52908 20.5613 4.52908H14.955C15.7238 5.29428 16.073 5.61231 16.4687 5.83231C16.7301 5.97738 17.0047 6.09136 17.2925 6.17425C17.7863 6.31414 18.3279 6.32251 19.7578 6.32251H20.266C21.6553 6.32251 22.7995 6.32251 23.7261 6.41577ZM9.14315 3.33466C8.04677 3.33466 7.62352 3.33825 7.28635 3.40162C6.51856 3.54676 5.81236 3.92001 5.25994 4.47264C4.70752 5.02527 4.33455 5.73161 4.1897 6.49946C4.12514 6.83663 4.12155 7.25988 4.12155 8.35626V16.7854C4.12155 19.0654 4.12394 20.6855 4.28894 21.9146C4.45035 23.1162 4.75403 23.8096 5.25978 24.3154C5.76553 24.8211 6.45899 25.1248 7.66178 25.2862C8.89087 25.4512 10.5097 25.4536 12.7898 25.4536H17.5723C19.8523 25.4536 21.4724 25.4512 22.7015 25.2862C23.9031 25.1248 24.5965 24.8211 25.1023 24.3154C25.608 23.8096 25.9117 23.1162 26.0731 21.9134C26.2381 20.6855 26.2405 19.0654 26.2405 16.7854V14.1526C26.2405 12.5553 26.2393 11.4421 26.1329 10.5957C26.0289 9.77187 25.8388 9.3283 25.5506 9.00787C25.4877 8.93699 25.4206 8.86992 25.3498 8.80701C25.0293 8.51886 24.5846 8.32876 23.762 8.22474C22.9167 8.11833 21.8024 8.11713 20.205 8.11713H19.6263C18.3733 8.11713 17.5651 8.11713 16.8011 7.89953C16.3826 7.77997 15.9773 7.61258 15.5959 7.40096C14.9024 7.01358 14.3309 6.44327 13.4438 5.55612L13.3517 5.46286L12.6941 4.80527C12.5021 4.60453 12.3015 4.41226 12.0927 4.22898C11.4912 3.73021 10.7533 3.42437 9.9753 3.3514C9.69829 3.33375 9.42064 3.32816 9.14315 3.33466ZM15.4799 12.0029C15.4799 11.7651 15.5744 11.537 15.7426 11.3688C15.9107 11.2007 16.1388 11.1062 16.3766 11.1062H22.3547C22.5926 11.1062 22.8206 11.2007 22.9888 11.3688C23.157 11.537 23.2514 11.7651 23.2514 12.0029C23.2514 12.2407 23.157 12.4688 22.9888 12.637C22.8206 12.8051 22.5926 12.8996 22.3547 12.8996H16.3766C16.1388 12.8996 15.9107 12.8051 15.7426 12.637C15.5744 12.4688 15.4799 12.2407 15.4799 12.0029Z" fill="black"/>
</svg>
