<svg width="28" height="26" viewBox="0 0 28 26" fill="none" xmlns="http://www.w3.org/2000/svg">
<path d="M1.5 14.5C1.5 9.78625 1.5 7.42875 2.965 5.965C4.43 4.50125 6.78625 4.5 11.5 4.5H16.5C21.2137 4.5 23.5712 4.5 25.035 5.965C26.4987 7.43 26.5 9.78625 26.5 14.5C26.5 19.2137 26.5 21.5712 25.035 23.035C23.57 24.4987 21.2137 24.5 16.5 24.5H11.5C6.78625 24.5 4.42875 24.5 2.965 23.035C1.50125 21.57 1.5 19.2137 1.5 14.5Z" stroke="#C4C4C4" stroke-width="1.5"/>
<path d="M3.99986 5.75L3.98486 4.5C4.12486 3.33625 4.41861 2.5325 5.03111 1.92125C6.20611 0.75 8.09861 0.75 11.8836 0.75H15.8974C19.6824 0.75 21.5736 0.75 22.7499 1.92125C23.3624 2.5325 23.6561 3.33625 23.7961 4.5V5.75" stroke="#C4C4C4" stroke-width="1.5"/>
<path d="M20.875 12C21.9105 12 22.75 11.1605 22.75 10.125C22.75 9.08947 21.9105 8.25 20.875 8.25C19.8395 8.25 19 9.08947 19 10.125C19 11.1605 19.8395 12 20.875 12Z" stroke="#C4C4C4" stroke-width="1.5"/>
<path d="M1.5 15.1249L3.69 13.2086C4.23892 12.7287 4.94968 12.4753 5.6784 12.4997C6.40712 12.524 7.09937 12.8244 7.615 13.3399L12.9775 18.7024C13.3936 19.1184 13.9432 19.3743 14.5294 19.4251C15.1157 19.4759 15.7011 19.3182 16.1825 18.9799L16.5563 18.7174C17.2507 18.2296 18.0902 17.9918 18.9373 18.0429C19.7844 18.094 20.5892 18.4309 21.22 18.9986L25.25 22.6249" stroke="#C4C4C4" stroke-width="1.5" stroke-linecap="round"/>
</svg>
