<svg width="25" height="25" viewBox="0 0 25 25" fill="none" xmlns="http://www.w3.org/2000/svg">
    <path d="M5.54053 15.1077L4.67031 18.3563L1.4897 18.4236C0.53916 16.6605 0 14.6434 0 12.4999C0 10.4271 0.504102 8.47236 1.39766 6.75122H1.39834L4.22998 7.27036L5.47041 10.085C5.21079 10.8419 5.06929 11.6544 5.06929 12.4999C5.06938 13.4174 5.2356 14.2966 5.54053 15.1077Z" fill="#FBBB00"/>
    <path d="M24.7817 10.1648C24.9252 10.9209 25.0001 11.7019 25.0001 12.5C25.0001 13.3949 24.906 14.2678 24.7268 15.1099C24.1183 17.9752 22.5283 20.4773 20.3257 22.2479L20.325 22.2472L16.7584 22.0652L16.2536 18.9141C17.7151 18.057 18.8573 16.7156 19.459 15.1099H12.7749V10.1648H19.5565H24.7817Z" fill="#518EF8"/>
    <path d="M20.3249 22.2473C18.1828 23.9691 15.4623 25 12.5 25C7.73974 25 3.60103 22.3394 1.48975 18.4238L5.54058 15.1079C6.59619 17.9252 9.31391 19.9307 12.5 19.9307C13.8695 19.9307 15.1525 19.5605 16.2535 18.9142L20.3249 22.2473Z" fill="#28B446"/>
    <path d="M20.4788 2.87773L16.4293 6.19297C15.2899 5.48076 13.9431 5.06934 12.5001 5.06934C9.24185 5.06934 6.47329 7.16685 5.47056 10.0852L1.39844 6.75137C3.47881 2.74038 7.66904 0 12.5001 0C15.5331 0 18.314 1.08037 20.4788 2.87773Z" fill="#F14336"/>
</svg>
