<svg width="23" height="23" viewBox="0 0 23 23" fill="none" xmlns="http://www.w3.org/2000/svg">
<path d="M20.125 13.6562H15.0938V9.34375H20.125C20.5203 9.34375 20.8438 9.02031 20.8438 8.625C20.8438 8.22969 20.5203 7.90625 20.125 7.90625H15.0938V2.875C15.0938 2.47969 14.7703 2.15625 14.375 2.15625C13.9797 2.15625 13.6562 2.47969 13.6562 2.875V7.90625H9.34375V2.875C9.34375 2.47969 9.02031 2.15625 8.625 2.15625C8.22969 2.15625 7.90625 2.47969 7.90625 2.875V7.90625H2.875C2.47969 7.90625 2.15625 8.22969 2.15625 8.625C2.15625 9.02031 2.47969 9.34375 2.875 9.34375H7.90625V13.6562H2.875C2.47969 13.6562 2.15625 13.9797 2.15625 14.375C2.15625 14.7703 2.47969 15.0938 2.875 15.0938H7.90625V20.125C7.90625 20.5203 8.22969 20.8438 8.625 20.8438C9.02031 20.8438 9.34375 20.5203 9.34375 20.125V15.0938H13.6562V20.125C13.6562 20.5203 13.9797 20.8438 14.375 20.8438C14.7703 20.8438 15.0938 20.5203 15.0938 20.125V15.0938H20.125C20.5203 15.0938 20.8438 14.7703 20.8438 14.375C20.8438 13.9797 20.5203 13.6562 20.125 13.6562ZM9.34375 13.6562V9.34375H13.6562V13.6562H9.34375Z" fill="#009A99"/>
<path d="M16.5312 20.8438H6.46875C4.08969 20.8438 2.15625 18.9103 2.15625 16.5312V6.46875C2.15625 4.08969 4.08969 2.15625 6.46875 2.15625H16.5312C18.9103 2.15625 20.8438 4.08969 20.8438 6.46875V16.5312C20.8438 18.9103 18.9103 20.8438 16.5312 20.8438ZM6.46875 3.59375C4.88031 3.59375 3.59375 4.88031 3.59375 6.46875V16.5312C3.59375 18.1197 4.88031 19.4062 6.46875 19.4062H16.5312C18.1197 19.4062 19.4062 18.1197 19.4062 16.5312V6.46875C19.4062 4.88031 18.1197 3.59375 16.5312 3.59375H6.46875Z" fill="#009A99"/>
</svg>
