<svg width="25" height="27" viewBox="0 0 25 27" fill="none" xmlns="http://www.w3.org/2000/svg">
<path d="M1.82246 24.5238H8.32025V15.8767C8.32025 15.4873 8.45694 15.1608 8.73032 14.8974C9.00253 14.6328 9.33986 14.5006 9.7423 14.5006H15.0222C15.4246 14.5006 15.7626 14.6328 16.0359 14.8974C16.3081 15.1608 16.4442 15.4873 16.4442 15.8767V24.5238H22.942V9.71971C22.942 9.54484 22.9027 9.38588 22.8241 9.24281C22.7455 9.09974 22.6381 8.97484 22.502 8.86811L13.0264 1.95656C12.8457 1.80441 12.631 1.72833 12.3822 1.72833C12.1335 1.72833 11.9194 1.80441 11.7399 1.95656L2.26246 8.86811C2.12752 8.97711 2.02017 9.10201 1.94038 9.24281C1.8606 9.38361 1.82129 9.54257 1.82246 9.71971V24.5238ZM0.0625 24.5238V9.71971C0.0625 9.28369 0.163404 8.87095 0.365214 8.48149C0.567023 8.09202 0.845097 7.77125 1.19944 7.51918L10.6768 0.573569C11.1732 0.206815 11.7399 0.0234375 12.377 0.0234375C13.0141 0.0234375 13.5843 0.206815 14.0877 0.573569L23.5651 7.51748C23.9206 7.76955 24.1986 8.09089 24.3993 8.48149C24.6011 8.87095 24.702 9.28369 24.702 9.71971V24.5238C24.702 24.9803 24.5266 25.3783 24.1758 25.7178C23.8249 26.0573 23.4137 26.227 22.942 26.227H16.1063C15.7027 26.227 15.3648 26.0953 15.0926 25.8319C14.8204 25.5673 14.6843 25.2403 14.6843 24.8509V16.2055H10.0802V24.8509C10.0802 25.2415 9.94411 25.5685 9.6719 25.8319C9.3997 26.0953 9.06237 26.227 8.65993 26.227H1.82246C1.35079 26.227 0.939548 26.0573 0.588729 25.7178C0.237909 25.3783 0.0625 24.9803 0.0625 24.5238Z" fill="#009A99"/>
</svg>
