<svg width="25" height="24" viewBox="0 0 25 24" fill="none" xmlns="http://www.w3.org/2000/svg">
<path d="M5.23096 21C4.68096 21 4.21029 20.8043 3.81896 20.413C3.42762 20.0217 3.23162 19.5507 3.23096 19V5C3.23096 4.45 3.42696 3.97933 3.81896 3.588C4.21096 3.19667 4.68162 3.00067 5.23096 3H11.231C11.5143 3 11.752 3.096 11.944 3.288C12.136 3.48 12.2316 3.71733 12.231 4C12.2303 4.28267 12.1343 4.52033 11.943 4.713C11.7516 4.90567 11.5143 5.00133 11.231 5H5.23096V19H11.231C11.5143 19 11.752 19.096 11.944 19.288C12.136 19.48 12.2316 19.7173 12.231 20C12.2303 20.2827 12.1343 20.5203 11.943 20.713C11.7516 20.9057 11.5143 21.0013 11.231 21H5.23096ZM17.406 13H10.231C9.94762 13 9.71029 12.904 9.51896 12.712C9.32762 12.52 9.23162 12.2827 9.23096 12C9.23029 11.7173 9.32629 11.48 9.51896 11.288C9.71162 11.096 9.94896 11 10.231 11H17.406L15.531 9.125C15.3476 8.94167 15.256 8.71667 15.256 8.45C15.256 8.18333 15.3476 7.95 15.531 7.75C15.7143 7.55 15.9476 7.44567 16.231 7.437C16.5143 7.42833 16.756 7.52433 16.956 7.725L20.531 11.3C20.731 11.5 20.831 11.7333 20.831 12C20.831 12.2667 20.731 12.5 20.531 12.7L16.956 16.275C16.756 16.475 16.5186 16.571 16.244 16.563C15.9693 16.555 15.7316 16.4507 15.531 16.25C15.3476 16.05 15.2603 15.8127 15.269 15.538C15.2776 15.2633 15.3733 15.034 15.556 14.85L17.406 13Z" fill="white"/>
</svg>
