<svg width="34" height="37" viewBox="0 0 34 37" fill="none" xmlns="http://www.w3.org/2000/svg">
<path d="M24.0832 34.6875H6.37484C5.62339 34.6875 4.90272 34.3626 4.37137 33.7844C3.84001 33.2062 3.5415 32.4219 3.5415 31.6042V10.0208C3.5415 9.20308 3.84001 8.41882 4.37137 7.84059C4.90272 7.26235 5.62339 6.9375 6.37484 6.9375H8.49984C8.6877 6.9375 8.86787 7.01871 9.0007 7.16327C9.13354 7.30783 9.20817 7.5039 9.20817 7.70833C9.20817 7.91277 9.13354 8.10884 9.0007 8.25339C8.86787 8.39795 8.6877 8.47917 8.49984 8.47917H6.37484C5.99911 8.47917 5.63878 8.64159 5.3731 8.93071C5.10743 9.21983 4.95817 9.61196 4.95817 10.0208V31.6042C4.95817 32.013 5.10743 32.4052 5.3731 32.6943C5.63878 32.9834 5.99911 33.1458 6.37484 33.1458H24.0832C24.4589 33.1458 24.8192 32.9834 25.0849 32.6943C25.3506 32.4052 25.4998 32.013 25.4998 31.6042V30.0625C25.4998 29.8581 25.5745 29.662 25.7073 29.5174C25.8401 29.3729 26.0203 29.2917 26.2082 29.2917C26.396 29.2917 26.5762 29.3729 26.709 29.5174C26.8419 29.662 26.9165 29.8581 26.9165 30.0625V31.6042C26.9165 32.4219 26.618 33.2062 26.0866 33.7844C25.5553 34.3626 24.8346 34.6875 24.0832 34.6875Z" fill="#1A94E7" stroke="#1A94E7" stroke-width="0.2"/>
<path d="M27.6248 30.8333H10.6248C9.87339 30.8333 9.15272 30.5085 8.62137 29.9302C8.09001 29.352 7.7915 28.5678 7.7915 27.75V5.39583C7.7915 4.57808 8.09001 3.79382 8.62137 3.21559C9.15272 2.63735 9.87339 2.3125 10.6248 2.3125H22.4951C23.2461 2.31453 23.9661 2.63921 24.4983 3.21592L29.628 8.79829C29.892 9.08399 30.1013 9.42384 30.2438 9.79815C30.3863 10.1725 30.4592 10.5738 30.4582 10.979V27.75C30.4582 28.5678 30.1597 29.352 29.6283 29.9302C29.097 30.5085 28.3763 30.8333 27.6248 30.8333ZM10.6248 3.85417C10.2491 3.85417 9.88878 4.01659 9.6231 4.30571C9.35743 4.59483 9.20817 4.98696 9.20817 5.39583V27.75C9.20817 28.1589 9.35743 28.551 9.6231 28.8401C9.88878 29.1292 10.2491 29.2917 10.6248 29.2917H27.6248C28.0006 29.2917 28.3609 29.1292 28.6266 28.8401C28.8923 28.551 29.0415 28.1589 29.0415 27.75V10.979C29.0419 10.7763 29.0055 10.5756 28.9342 10.3884C28.863 10.2012 28.7584 10.0312 28.6264 9.88825L23.4967 4.30588C23.2306 4.01752 22.8706 3.85518 22.4951 3.85417H10.6248Z" fill="#1A94E7" stroke="#1A94E7" stroke-width="0.2"/>
<path d="M29.5586 10.7917H24.7915C24.2279 10.7917 23.6874 10.548 23.2889 10.1143C22.8904 9.68066 22.6665 9.09247 22.6665 8.47915V3.29915C22.6665 3.09472 22.7411 2.89865 22.874 2.75409C23.0068 2.60953 23.187 2.52832 23.3748 2.52832C23.5627 2.52832 23.7429 2.60953 23.8757 2.75409C24.0085 2.89865 24.0832 3.09472 24.0832 3.29915V8.47915C24.0832 8.68359 24.1578 8.87966 24.2906 9.02422C24.4235 9.16877 24.6036 9.24999 24.7915 9.24999H29.5586C29.7464 9.24999 29.9266 9.3312 30.0595 9.47576C30.1923 9.62032 30.2669 9.81638 30.2669 10.0208C30.2669 10.2253 30.1923 10.4213 30.0595 10.5659C29.9266 10.7104 29.7464 10.7917 29.5586 10.7917Z" fill="#1A94E7"/>
<path d="M25.4998 15.4167H12.7498C12.562 15.4167 12.3818 15.3355 12.249 15.1909C12.1161 15.0463 12.0415 14.8503 12.0415 14.6458C12.0415 14.4414 12.1161 14.2453 12.249 14.1008C12.3818 13.9562 12.562 13.875 12.7498 13.875H25.4998C25.6877 13.875 25.8679 13.9562 26.0007 14.1008C26.1335 14.2453 26.2082 14.4414 26.2082 14.6458C26.2082 14.8503 26.1335 15.0463 26.0007 15.1909C25.8679 15.3355 25.6877 15.4167 25.4998 15.4167Z" fill="#1A94E7"/>
<path d="M25.4998 19.2709H12.7498C12.562 19.2709 12.3818 19.1897 12.249 19.0451C12.1161 18.9006 12.0415 18.7045 12.0415 18.5001C12.0415 18.2956 12.1161 18.0996 12.249 17.955C12.3818 17.8105 12.562 17.7292 12.7498 17.7292H25.4998C25.6877 17.7292 25.8679 17.8105 26.0007 17.955C26.1335 18.0996 26.2082 18.2956 26.2082 18.5001C26.2082 18.7045 26.1335 18.9006 26.0007 19.0451C25.8679 19.1897 25.6877 19.2709 25.4998 19.2709Z" fill="#1A94E7"/>
<path d="M25.4998 23.1249H12.7498C12.562 23.1249 12.3818 23.0437 12.249 22.8991C12.1161 22.7546 12.0415 22.5585 12.0415 22.3541C12.0415 22.1496 12.1161 21.9536 12.249 21.809C12.3818 21.6645 12.562 21.5833 12.7498 21.5833H25.4998C25.6877 21.5833 25.8679 21.6645 26.0007 21.809C26.1335 21.9536 26.2082 22.1496 26.2082 22.3541C26.2082 22.5585 26.1335 22.7546 26.0007 22.8991C25.8679 23.0437 25.6877 23.1249 25.4998 23.1249Z" fill="#1A94E7"/>
<path d="M25.5 26.9792H19.8333C19.6455 26.9792 19.4653 26.898 19.3325 26.7534C19.1996 26.6088 19.125 26.4128 19.125 26.2083C19.125 26.0039 19.1996 25.8078 19.3325 25.6633C19.4653 25.5187 19.6455 25.4375 19.8333 25.4375H25.5C25.6879 25.4375 25.868 25.5187 26.0009 25.6633C26.1337 25.8078 26.2083 26.0039 26.2083 26.2083C26.2083 26.4128 26.1337 26.6088 26.0009 26.7534C25.868 26.898 25.6879 26.9792 25.5 26.9792Z" fill="#1A94E7"/>
<path d="M19.8332 11.5624H12.7498C12.562 11.5624 12.3818 11.4812 12.249 11.3366C12.1161 11.1921 12.0415 10.996 12.0415 10.7916C12.0415 10.5871 12.1161 10.3911 12.249 10.2465C12.3818 10.102 12.562 10.0208 12.7498 10.0208H19.8332C20.021 10.0208 20.2012 10.102 20.334 10.2465C20.4669 10.3911 20.5415 10.5871 20.5415 10.7916C20.5415 10.996 20.4669 11.1921 20.334 11.3366C20.2012 11.4812 20.021 11.5624 19.8332 11.5624Z" fill="#1A94E7"/>
<path d="M16.9998 7.70841H12.7498C12.562 7.70841 12.3818 7.6272 12.249 7.48264C12.1161 7.33808 12.0415 7.14202 12.0415 6.93758C12.0415 6.73314 12.1161 6.53708 12.249 6.39252C12.3818 6.24796 12.562 6.16675 12.7498 6.16675H16.9998C17.1877 6.16675 17.3679 6.24796 17.5007 6.39252C17.6335 6.53708 17.7082 6.73314 17.7082 6.93758C17.7082 7.14202 17.6335 7.33808 17.5007 7.48264C17.3679 7.6272 17.1877 7.70841 16.9998 7.70841Z" fill="#1A94E7"/>
</svg>
