<svg width="18" height="17" viewBox="0 0 18 17" fill="none" xmlns="http://www.w3.org/2000/svg">
<path d="M9.00001 2.31543C8.43309 2.31543 7.96924 2.77928 7.96924 3.34621C7.96924 3.91313 8.43309 4.37698 9.00001 4.37698C9.56694 4.37698 10.0308 3.91313 10.0308 3.34621C10.0308 2.77928 9.56694 2.31543 9.00001 2.31543ZM9.00001 12.6232C8.43309 12.6232 7.96924 13.087 7.96924 13.654C7.96924 14.2209 8.43309 14.6847 9.00001 14.6847C9.56694 14.6847 10.0308 14.2209 10.0308 13.654C10.0308 13.087 9.56694 12.6232 9.00001 12.6232ZM9.00001 7.46931C8.43309 7.46931 7.96924 7.93316 7.96924 8.50009C7.96924 9.06701 8.43309 9.53086 9.00001 9.53086C9.56694 9.53086 10.0308 9.06701 10.0308 8.50009C10.0308 7.93316 9.56694 7.46931 9.00001 7.46931Z" fill="black"/>
</svg>
