<svg width="34" height="36" viewBox="0 0 34 36" fill="none" xmlns="http://www.w3.org/2000/svg">
<path d="M8.24199 6.66675C7.6044 6.66675 6.99292 6.91258 6.54208 7.35017C6.09123 7.78775 5.83795 8.38124 5.83795 9.00008V13.0001C5.83795 13.2653 5.7294 13.5197 5.53618 13.7072C5.34296 13.8947 5.0809 14.0001 4.80765 14.0001C4.53439 14.0001 4.27233 13.8947 4.07911 13.7072C3.88589 13.5197 3.77734 13.2653 3.77734 13.0001V9.00008C3.77734 7.85081 4.24772 6.74861 5.08501 5.93595C5.92229 5.12329 7.05789 4.66675 8.24199 4.66675H12.3632C12.6365 4.66675 12.8985 4.7721 13.0917 4.95964C13.285 5.14718 13.3935 5.40153 13.3935 5.66675C13.3935 5.93196 13.285 6.18632 13.0917 6.37385C12.8985 6.56139 12.6365 6.66675 12.3632 6.66675H8.24199ZM8.24199 29.3334C7.6044 29.3334 6.99292 29.0876 6.54208 28.65C6.09123 28.2124 5.83795 27.6189 5.83795 27.0001V23.0001C5.83795 22.7349 5.7294 22.4805 5.53618 22.293C5.34296 22.1054 5.0809 22.0001 4.80765 22.0001C4.53439 22.0001 4.27233 22.1054 4.07911 22.293C3.88589 22.4805 3.77734 22.7349 3.77734 23.0001V27.0001C3.77734 27.5691 3.89283 28.1326 4.11719 28.6584C4.34156 29.1841 4.67043 29.6618 5.08501 30.0642C5.49959 30.4666 5.99177 30.7858 6.53344 31.0036C7.07512 31.2213 7.65568 31.3334 8.24199 31.3334H12.3632C12.6365 31.3334 12.8985 31.2281 13.0917 31.0405C13.285 30.853 13.3935 30.5986 13.3935 30.3334C13.3935 30.0682 13.285 29.8138 13.0917 29.6263C12.8985 29.4388 12.6365 29.3334 12.3632 29.3334H8.24199ZM29.1915 9.00008C29.1915 8.38124 28.9382 7.78775 28.4874 7.35017C28.0365 6.91258 27.425 6.66675 26.7874 6.66675H22.6662C22.393 6.66675 22.1309 6.56139 21.9377 6.37385C21.7445 6.18632 21.6359 5.93196 21.6359 5.66675C21.6359 5.40153 21.7445 5.14718 21.9377 4.95964C22.1309 4.7721 22.393 4.66675 22.6662 4.66675H26.7874C27.3738 4.66675 27.9543 4.77883 28.496 4.9966C29.0377 5.21437 29.5298 5.53356 29.9444 5.93595C30.359 6.33834 30.6879 6.81604 30.9122 7.34179C31.1366 7.86753 31.2521 8.43102 31.2521 9.00008V13.0001C31.2521 13.2653 31.1435 13.5197 30.9503 13.7072C30.7571 13.8947 30.495 14.0001 30.2218 14.0001C29.9485 14.0001 29.6865 13.8947 29.4933 13.7072C29.3 13.5197 29.1915 13.2653 29.1915 13.0001V9.00008ZM26.7874 29.3334C27.425 29.3334 28.0365 29.0876 28.4874 28.65C28.9382 28.2124 29.1915 27.6189 29.1915 27.0001V23.0001C29.1915 22.7349 29.3 22.4805 29.4933 22.293C29.6865 22.1054 29.9485 22.0001 30.2218 22.0001C30.495 22.0001 30.7571 22.1054 30.9503 22.293C31.1435 22.4805 31.2521 22.7349 31.2521 23.0001V27.0001C31.2521 27.5691 31.1366 28.1326 30.9122 28.6584C30.6879 29.1841 30.359 29.6618 29.9444 30.0642C29.5298 30.4666 29.0377 30.7858 28.496 31.0036C27.9543 31.2213 27.3738 31.3334 26.7874 31.3334H22.6662C22.393 31.3334 22.1309 31.2281 21.9377 31.0405C21.7445 30.853 21.6359 30.5986 21.6359 30.3334C21.6359 30.0682 21.7445 29.8138 21.9377 29.6263C22.1309 29.4388 22.393 29.3334 22.6662 29.3334H26.7874ZM10.3026 18.0001C10.3026 17.7349 10.4111 17.4805 10.6044 17.293C10.7976 17.1054 11.0596 17.0001 11.3329 17.0001H23.6965C23.9698 17.0001 24.2319 17.1054 24.4251 17.293C24.6183 17.4805 24.7268 17.7349 24.7268 18.0001C24.7268 18.2653 24.6183 18.5197 24.4251 18.7072C24.2319 18.8947 23.9698 19.0001 23.6965 19.0001H11.3329C11.0596 19.0001 10.7976 18.8947 10.6044 18.7072C10.4111 18.5197 10.3026 18.2653 10.3026 18.0001Z" fill="#DF1A1A"/>
</svg>
