<svg width="15" height="9" viewBox="0 0 15 9" fill="none" xmlns="http://www.w3.org/2000/svg">
<path d="M14.1953 1.94532L7.94531 8.19532C7.82585 8.31083 7.66618 8.3754 7.5 8.3754C7.33382 8.3754 7.17415 8.31083 7.05469 8.19532L0.804688 1.94532C0.719901 1.85495 0.662431 1.74242 0.638927 1.62076C0.615424 1.49909 0.626847 1.37326 0.671875 1.25782C0.719689 1.14406 0.800103 1.04701 0.902985 0.978888C1.00587 0.910764 1.12661 0.874617 1.25 0.875003H13.75C13.8734 0.874617 13.9941 0.910764 14.097 0.978888C14.1999 1.04701 14.2803 1.14406 14.3281 1.25782C14.3732 1.37326 14.3846 1.49909 14.3611 1.62076C14.3376 1.74242 14.2801 1.85495 14.1953 1.94532Z" fill="black"/>
</svg>
