<svg width="27" height="27" viewBox="0 0 27 27" fill="none" xmlns="http://www.w3.org/2000/svg">
<path fill-rule="evenodd" clip-rule="evenodd" d="M9.1351 0.75C8.49908 0.749998 7.87351 0.911765 7.31722 1.22009C6.76093 1.52841 6.29219 1.97316 5.9551 2.5125L0.855103 10.675C0.606772 11.0723 0.475098 11.5314 0.475098 12C0.475098 12.4686 0.606772 12.9277 0.855103 13.325L5.9551 21.4875C6.29219 22.0268 6.76093 22.4716 7.31722 22.7799C7.87351 23.0882 8.49908 23.25 9.1351 23.25H22.7501C23.7447 23.25 24.6985 22.8549 25.4018 22.1517C26.105 21.4484 26.5001 20.4946 26.5001 19.5V4.5C26.5001 3.50544 26.105 2.55161 25.4018 1.84835C24.6985 1.14509 23.7447 0.75 22.7501 0.75H9.1351ZM19.6689 16.42C19.4344 16.6543 19.1166 16.786 18.7851 16.786C18.4536 16.786 18.1358 16.6543 17.9014 16.42L15.2501 13.7675L12.5989 16.42C12.3643 16.6546 12.0462 16.7863 11.7145 16.7863C11.3828 16.7863 11.0647 16.6546 10.8301 16.42C10.5956 16.1854 10.4638 15.8673 10.4638 15.5356C10.4638 15.2039 10.5956 14.8858 10.8301 14.6513L13.4826 12L10.8301 9.34875C10.5956 9.1142 10.4638 8.79608 10.4638 8.46438C10.4638 8.13267 10.5956 7.81455 10.8301 7.58C11.0647 7.34545 11.3828 7.21368 11.7145 7.21368C12.0462 7.21368 12.3643 7.34545 12.5989 7.58L15.2501 10.2325L17.9014 7.58C18.0175 7.46394 18.1553 7.3719 18.3071 7.30912C18.4588 7.24635 18.6214 7.21406 18.7855 7.21412C18.9497 7.21418 19.1123 7.24658 19.264 7.30946C19.4156 7.37235 19.5534 7.46449 19.6695 7.58063C19.7855 7.69676 19.8776 7.83462 19.9404 7.98633C20.0031 8.13804 20.0354 8.30063 20.0354 8.46482C20.0353 8.629 20.0029 8.79157 19.94 8.94323C19.8771 9.0949 19.785 9.23269 19.6689 9.34875L17.0189 12L19.6689 14.6513C19.7851 14.7673 19.8773 14.9052 19.9402 15.0569C20.0031 15.2087 20.0355 15.3714 20.0355 15.5356C20.0355 15.6999 20.0031 15.8626 19.9402 16.0143C19.8773 16.166 19.7851 16.3039 19.6689 16.42Z" fill="#009A99"/>
</svg>
