<svg width="30" height="30" viewBox="0 0 30 30" fill="none" xmlns="http://www.w3.org/2000/svg">
<path d="M9.75 18.75C9.55109 18.75 9.36032 18.671 9.21967 18.5303C9.07902 18.3897 9 18.1989 9 18C9 17.8011 9.07902 17.6103 9.21967 17.4697C9.36032 17.329 9.55109 17.25 9.75 17.25H20.25C20.4489 17.25 20.6397 17.329 20.7803 17.4697C20.921 17.6103 21 17.8011 21 18C21 18.1989 20.921 18.3897 20.7803 18.5303C20.6397 18.671 20.4489 18.75 20.25 18.75H9.75ZM9.75 22.5C9.55109 22.5 9.36032 22.421 9.21967 22.2803C9.07902 22.1397 9 21.9489 9 21.75C9 21.5511 9.07902 21.3603 9.21967 21.2197C9.36032 21.079 9.55109 21 9.75 21H20.25C20.4489 21 20.6397 21.079 20.7803 21.2197C20.921 21.3603 21 21.5511 21 21.75C21 21.9489 20.921 22.1397 20.7803 22.2803C20.6397 22.421 20.4489 22.5 20.25 22.5H9.75Z" fill="white"/>
<path fill-rule="evenodd" clip-rule="evenodd" d="M16.7775 1.5H6.75C6.15326 1.5 5.58097 1.73705 5.15901 2.15901C4.73705 2.58097 4.5 3.15326 4.5 3.75V26.25C4.5 26.8467 4.73705 27.419 5.15901 27.841C5.58097 28.2629 6.15326 28.5 6.75 28.5H23.25C23.8467 28.5 24.419 28.2629 24.841 27.841C25.2629 27.419 25.5 26.8467 25.5 26.25V10.803C25.4999 10.2397 25.2884 9.69696 24.9075 9.282L18.4365 2.229C18.2256 1.99912 17.9692 1.8156 17.6836 1.6901C17.398 1.5646 17.0895 1.49987 16.7775 1.5ZM6 3.75C6 3.55109 6.07902 3.36032 6.21967 3.21967C6.36032 3.07902 6.55109 3 6.75 3H16.7775C16.8816 2.99989 16.9845 3.02143 17.0798 3.06327C17.1751 3.1051 17.2606 3.16631 17.331 3.243L23.802 10.296C23.9292 10.4342 23.9998 10.6152 24 10.803V26.25C24 26.4489 23.921 26.6397 23.7803 26.7803C23.6397 26.921 23.4489 27 23.25 27H6.75C6.55109 27 6.36032 26.921 6.21967 26.7803C6.07902 26.6397 6 26.4489 6 26.25V3.75Z" fill="white"/>
<path d="M17.25 3.1499V10.1999H24.3" stroke="white" stroke-linecap="round" stroke-linejoin="round"/>
<path d="M12.2009 9.19952C12.4151 9.20608 12.6285 9.16955 12.8283 9.09211C13.0281 9.01467 13.2103 8.89788 13.3642 8.74868C13.518 8.59948 13.6403 8.42091 13.7239 8.22355C13.8074 8.02619 13.8504 7.81407 13.8504 7.59977C13.8504 7.38546 13.8074 7.17334 13.7239 6.97598C13.6403 6.77863 13.518 6.60005 13.3642 6.45085C13.2103 6.30165 13.0281 6.18487 12.8283 6.10743C12.6285 6.02998 12.4151 5.99346 12.2009 6.00002C11.7851 6.01275 11.3906 6.18688 11.101 6.4855C10.8114 6.78412 10.6494 7.18377 10.6494 7.59977C10.6494 8.01576 10.8114 8.41541 11.101 8.71404C11.3906 9.01266 11.7851 9.18678 12.2009 9.19952Z" fill="white"/>
<path fill-rule="evenodd" clip-rule="evenodd" d="M15.399 12.6659C15.399 10.9649 13.9665 9.7334 12.1995 9.7334C10.4325 9.7334 9 10.9634 9 12.6659V13.4669C9.0004 13.6083 9.05683 13.7437 9.15693 13.8435C9.25704 13.9433 9.39263 13.9994 9.534 13.9994H14.8665C15.0076 13.999 15.1428 13.9428 15.2426 13.843C15.3424 13.7432 15.3986 13.608 15.399 13.4669V12.6659Z" fill="white"/>
</svg>
