<svg width="38" height="38" viewBox="0 0 38 38" fill="none" xmlns="http://www.w3.org/2000/svg">
<path d="M22.4795 20.5437L20.1603 3.5625H19.987C15.9382 3.56938 12.0567 5.17886 9.1911 8.03914C6.32549 10.8994 4.70877 14.7778 4.69434 18.8266V19L22.4795 20.5437Z" fill="#ED6C47"/>
<path d="M20.3335 3.5625H20.1602V19L27.892 22.0875L35.625 19V18.8266C35.6105 14.778 33.994 10.8998 31.1286 8.03956C28.2633 5.17931 24.3821 3.56969 20.3335 3.5625Z" fill="#FF8F6B"/>
<path d="M35.6251 19V19.1698C35.6101 23.2191 33.993 27.0979 31.1271 29.9587C28.2612 32.8195 24.3795 34.4297 20.3301 34.4375H19.9893C15.9402 34.4291 12.0589 32.8187 9.1931 29.958C6.32735 27.0974 4.71001 23.219 4.69434 19.1698V19H35.6251Z" fill="#D35230"/>
<path opacity="0.1" d="M20.9334 11.1502V27.622C20.9313 27.9023 20.8465 28.1757 20.6898 28.408C20.5331 28.6404 20.3113 28.8213 20.0523 28.9283C19.8828 28.9984 19.7013 29.035 19.5179 29.0363H8.34472C8.12786 28.7878 7.92146 28.5302 7.72604 28.2645C5.7567 25.6423 4.69272 22.4511 4.69435 19.1718V18.8322C4.69027 15.874 5.55626 12.9799 7.18454 10.5102C7.3536 10.245 7.53427 9.98748 7.72604 9.73828H19.5179C19.8919 9.74076 20.25 9.8902 20.5148 10.1544C20.7796 10.4185 20.93 10.7762 20.9334 11.1502Z" fill="black"/>
<path opacity="0.2" d="M20.1603 11.9229V28.3947C20.1587 28.5773 20.1221 28.7579 20.0523 28.9267C19.9451 29.1855 19.7641 29.407 19.5318 29.5635C19.2994 29.72 19.0262 29.8046 18.746 29.8066H9.04891C8.80429 29.5581 8.56956 29.3008 8.34472 29.0348C8.12786 28.7862 7.92145 28.5287 7.72604 28.2629C5.7567 25.6407 4.69272 22.4496 4.69435 19.1702V18.8306C4.6905 15.8728 5.55648 12.9792 7.18454 10.5098H18.7448C19.1191 10.5122 19.4773 10.6619 19.7422 10.9263C20.007 11.1907 20.1572 11.5487 20.1603 11.9229Z" fill="black"/>
<path opacity="0.2" d="M20.1603 11.9229V26.851C20.1569 27.225 20.0066 27.5827 19.7418 27.8468C19.4769 28.111 19.1189 28.2604 18.7448 28.2629H7.72604C5.7567 25.6407 4.69272 22.4496 4.69435 19.1702V18.8306C4.6905 15.8728 5.55648 12.9792 7.18454 10.5098H18.7448C19.1191 10.5122 19.4773 10.6619 19.7422 10.9263C20.007 11.1907 20.1572 11.5487 20.1603 11.9229Z" fill="black"/>
<path opacity="0.2" d="M19.3873 11.9229V26.851C19.3839 27.225 19.2335 27.5827 18.9687 27.8468C18.7039 28.111 18.3458 28.2604 17.9718 28.2629H7.72604C5.7567 25.6407 4.69272 22.4496 4.69435 19.1702V18.8306C4.6905 15.8728 5.55648 12.9792 7.18454 10.5098H17.9718C18.346 10.5122 18.7043 10.6619 18.9691 10.9263C19.234 11.1907 19.3842 11.5487 19.3873 11.9229Z" fill="black"/>
<path d="M3.79288 10.5098H17.9692C18.3448 10.5095 18.7051 10.6583 18.9709 10.9235C19.2368 11.1887 19.3865 11.5486 19.3871 11.9241V26.0767C19.3865 26.4522 19.2368 26.8121 18.9709 27.0773C18.7051 27.3425 18.3448 27.4913 17.9692 27.491H3.79288C3.6068 27.4916 3.42244 27.4555 3.25036 27.3847C3.07829 27.3139 2.92189 27.2098 2.79015 27.0784C2.65841 26.947 2.55392 26.7908 2.48268 26.619C2.41144 26.4471 2.37484 26.2628 2.375 26.0767V11.9241C2.37484 11.738 2.41144 11.5537 2.48268 11.3818C2.55392 11.2099 2.65841 11.0538 2.79015 10.9224C2.92189 10.791 3.07829 10.6869 3.25036 10.6161C3.42244 10.5453 3.6068 10.5091 3.79288 10.5098Z" fill="url(#paint0_linear_214_10534)"/>
<path d="M11.0355 14.2839C11.9582 14.2231 12.8726 14.4906 13.6171 15.0391C13.923 15.3114 14.1628 15.6498 14.3183 16.0286C14.4739 16.4074 14.5411 16.8166 14.5149 17.2253C14.5249 17.8009 14.3713 18.3676 14.0719 18.8593C13.7682 19.3426 13.3316 19.7281 12.8144 19.9696C12.2231 20.2441 11.5768 20.3798 10.925 20.3662H9.12836V23.6912H7.29248V14.2839H11.0355ZM9.12717 18.9294H10.7077C11.2088 18.9649 11.7057 18.8168 12.1054 18.5125C12.2688 18.3567 12.396 18.167 12.478 17.9567C12.5601 17.7464 12.5951 17.5206 12.5804 17.2954C12.5804 16.2591 11.9768 15.7405 10.7695 15.7397H9.12717V18.9294Z" fill="white"/>
<defs>
<linearGradient id="paint0_linear_214_10534" x1="5.33663" y1="9.39827" x2="16.4255" y2="28.6025" gradientUnits="userSpaceOnUse">
<stop stop-color="#CA4C28"/>
<stop offset="0.5" stop-color="#C5401E"/>
<stop offset="1" stop-color="#B62F14"/>
</linearGradient>
</defs>
</svg>
