<svg width="33" height="33" viewBox="0 0 33 33" fill="none" xmlns="http://www.w3.org/2000/svg">
<path d="M10.3125 16.5C10.3125 17.7238 10.6754 18.9201 11.3553 19.9376C12.0352 20.9551 13.0015 21.7482 14.1321 22.2165C15.2628 22.6848 16.5069 22.8074 17.7071 22.5686C18.9074 22.3299 20.0099 21.7406 20.8752 20.8752C21.7406 20.0099 22.3299 18.9074 22.5686 17.7071C22.8074 16.5069 22.6848 15.2628 22.2165 14.1321C21.7482 13.0015 20.9551 12.0352 19.9376 11.3553C18.9201 10.6754 17.7238 10.3125 16.5 10.3125C14.8595 10.3144 13.2868 10.9668 12.1268 12.1268C10.9668 13.2868 10.3144 14.8595 10.3125 16.5ZM21.6562 16.5C21.6562 17.5198 21.3538 18.5167 20.7873 19.3647C20.2207 20.2126 19.4154 20.8735 18.4732 21.2638C17.531 21.654 16.4943 21.7561 15.4941 21.5572C14.4939 21.3582 13.5751 20.8671 12.854 20.146C12.1329 19.4249 11.6418 18.5062 11.4428 17.5059C11.2439 16.5057 11.346 15.469 11.7362 14.5268C12.1265 13.5846 12.7874 12.7793 13.6353 12.2127C14.4833 11.6462 15.4802 11.3438 16.5 11.3438C17.867 11.3453 19.1777 11.889 20.1443 12.8557C21.111 13.8223 21.6547 15.133 21.6562 16.5Z" fill="#EF9B51"/>
<path d="M4.125 29.3906C4.12578 30.0742 4.39765 30.7295 4.88097 31.2128C5.3643 31.6961 6.0196 31.968 6.70312 31.9688H26.2969C26.9804 31.968 27.6357 31.6961 28.119 31.2128C28.6024 30.7295 28.8742 30.0742 28.875 29.3906V10.1356C28.8759 9.79687 28.8096 9.46134 28.68 9.14842C28.5504 8.83549 28.36 8.55137 28.1199 8.31251L21.5937 1.78644C21.3549 1.54626 21.0708 1.35585 20.7579 1.22622C20.4449 1.09659 20.1094 1.03033 19.7707 1.03126H6.70312C6.0196 1.03204 5.3643 1.30391 4.88097 1.78723C4.39765 2.27056 4.12578 2.92586 4.125 3.60938V29.3906ZM6.70312 2.06251H19.7707C19.8846 2.06258 19.9982 2.07514 20.1094 2.09994V7.21876C20.1102 7.90228 20.382 8.55759 20.8653 9.04091C21.3487 9.52424 22.004 9.79611 22.6875 9.79688H25.7812V8.76564H22.6875C22.2774 8.76517 21.8842 8.60205 21.5942 8.31205C21.3042 8.02206 21.1411 7.62887 21.1406 7.21876V2.79176L27.3907 9.0417C27.5347 9.18502 27.649 9.3555 27.7268 9.54326C27.8045 9.73102 27.8443 9.93235 27.8438 10.1356V15.9844H23.7188V17.0156H27.8438V29.3906C27.8433 29.8007 27.6802 30.1939 27.3902 30.4839C27.1002 30.7739 26.707 30.937 26.2969 30.9375H6.70312C6.29301 30.937 5.89983 30.7739 5.60984 30.4839C5.31984 30.1939 5.15672 29.8007 5.15625 29.3906V17.0156H9.28125V15.9844H5.15625V3.60938C5.15672 3.19927 5.31984 2.80609 5.60984 2.5161C5.89983 2.2261 6.29301 2.06298 6.70312 2.06251Z" fill="#EF9B51" stroke="#EF9B51" stroke-width="0.5"/>
<path d="M14.6671 13.3197L15.2167 13.6861C14.4783 14.0229 13.9017 14.6363 13.6112 15.3942C13.3207 16.152 13.3397 16.9937 13.6639 17.7378L14.6089 17.3249C14.4987 17.0715 14.4404 16.7987 14.4376 16.5224C14.4348 16.2462 14.4875 15.9722 14.5925 15.7167C14.6976 15.4611 14.8529 15.2293 15.0492 15.035C15.2455 14.8406 15.4789 14.6876 15.7354 14.5851L15.4952 15.3057L16.4735 15.6319L16.9892 14.085C17.0249 13.9777 17.0244 13.8616 16.9877 13.7546C16.951 13.6476 16.8801 13.5557 16.786 13.4929L15.2391 12.4617L14.6671 13.3197Z" fill="#EF9B51"/>
<path d="M16.5265 17.3681L16.0108 18.9149C15.9751 19.0223 15.9756 19.1384 16.0123 19.2454C16.049 19.3524 16.1199 19.4443 16.214 19.507L17.7609 20.5383L18.3329 19.6803L17.7833 19.3138C18.5218 18.9771 19.0984 18.3637 19.3888 17.6058C19.6793 16.8479 19.6603 16.0063 19.3361 15.2622L18.3911 15.6751C18.5013 15.9284 18.5596 16.2013 18.5624 16.4776C18.5652 16.7538 18.5125 17.0278 18.4075 17.2833C18.3024 17.5388 18.1471 17.7706 17.9508 17.965C17.7545 18.1594 17.5211 18.3124 17.2646 18.4149L17.5048 17.6942L16.5265 17.3681Z" fill="#EF9B51"/>
</svg>
