<svg width="28" height="28" viewBox="0 0 28 28" fill="none" xmlns="http://www.w3.org/2000/svg">
<path d="M22.75 6.34375H19.6011L18.0469 4.01078C17.9868 3.92081 17.9055 3.84707 17.8101 3.79612C17.7147 3.74517 17.6082 3.71859 17.5 3.71875H10.5C10.3918 3.71859 10.2853 3.74517 10.1899 3.79612C10.0945 3.84707 10.0132 3.92081 9.95312 4.01078L8.39781 6.34375H5.25C4.61182 6.34375 3.99978 6.59727 3.54852 7.04852C3.09726 7.49978 2.84375 8.11182 2.84375 8.75V21C2.84375 21.6382 3.09726 22.2502 3.54852 22.7015C3.99978 23.1527 4.61182 23.4062 5.25 23.4062H22.75C23.3882 23.4062 24.0002 23.1527 24.4515 22.7015C24.9027 22.2502 25.1562 21.6382 25.1562 21V8.75C25.1562 8.11182 24.9027 7.49978 24.4515 7.04852C24.0002 6.59727 23.3882 6.34375 22.75 6.34375ZM23.8438 21C23.8438 21.2901 23.7285 21.5683 23.5234 21.7734C23.3183 21.9785 23.0401 22.0938 22.75 22.0938H5.25C4.95992 22.0938 4.68172 21.9785 4.4766 21.7734C4.27148 21.5683 4.15625 21.2901 4.15625 21V8.75C4.15625 8.45992 4.27148 8.18172 4.4766 7.9766C4.68172 7.77148 4.95992 7.65625 5.25 7.65625H8.75C8.85816 7.65641 8.96469 7.62983 9.0601 7.57889C9.15551 7.52794 9.23685 7.45419 9.29688 7.36422L10.8511 5.03125H17.1478L18.7031 7.36422C18.7632 7.45419 18.8445 7.52794 18.9399 7.57889C19.0353 7.62983 19.1418 7.65641 19.25 7.65625H22.75C23.0401 7.65625 23.3183 7.77148 23.5234 7.9766C23.7285 8.18172 23.8438 8.45992 23.8438 8.75V21ZM19.0312 10.5V13.125C19.0312 13.299 18.9621 13.466 18.839 13.589C18.716 13.7121 18.549 13.7813 18.375 13.7813H15.75C15.576 13.7813 15.409 13.7121 15.286 13.589C15.1629 13.466 15.0938 13.299 15.0938 13.125C15.0938 12.951 15.1629 12.784 15.286 12.661C15.409 12.5379 15.576 12.4688 15.75 12.4688H16.8438L16.625 12.2402C15.9905 11.612 15.1519 11.2322 14.2612 11.1696C13.3706 11.107 12.4871 11.3657 11.7709 11.8989C11.7021 11.9508 11.6237 11.9885 11.5402 12.0101C11.4567 12.0316 11.3698 12.0365 11.2844 12.0245C11.1991 12.0125 11.1169 11.9837 11.0427 11.9399C10.9684 11.8962 10.9035 11.8382 10.8516 11.7693C10.7998 11.7004 10.762 11.622 10.7405 11.5385C10.7189 11.4551 10.714 11.3682 10.7261 11.2828C10.7381 11.1974 10.7668 11.1153 10.8106 11.041C10.8544 10.9668 10.9124 10.9019 10.9813 10.85C11.9519 10.1273 13.1497 9.77694 14.3568 9.86265C15.564 9.94835 16.7002 10.4644 17.5591 11.317C17.5622 11.3212 17.5659 11.3249 17.57 11.328L17.7188 11.4844V10.5C17.7188 10.326 17.7879 10.159 17.911 10.036C18.034 9.91289 18.201 9.84375 18.375 9.84375C18.549 9.84375 18.716 9.91289 18.839 10.036C18.9621 10.159 19.0312 10.326 19.0312 10.5ZM17.15 17.1063C17.2545 17.2454 17.2996 17.4203 17.2752 17.5926C17.2507 17.7649 17.1589 17.9204 17.0198 18.025C16.0493 18.7481 14.8515 19.0988 13.6442 19.0131C12.437 18.9273 11.3006 18.411 10.442 17.558L10.4311 17.547L10.2812 17.3906V18.375C10.2812 18.549 10.2121 18.716 10.089 18.839C9.96597 18.9621 9.79905 19.0312 9.625 19.0312C9.45095 19.0312 9.28403 18.9621 9.16096 18.839C9.03789 18.716 8.96875 18.549 8.96875 18.375V15.75C8.96875 15.576 9.03789 15.409 9.16096 15.286C9.28403 15.1629 9.45095 15.0938 9.625 15.0938H12.25C12.424 15.0938 12.591 15.1629 12.714 15.286C12.8371 15.409 12.9062 15.576 12.9062 15.75C12.9062 15.924 12.8371 16.091 12.714 16.214C12.591 16.3371 12.424 16.4063 12.25 16.4063H11.1562L11.375 16.6348C12.0095 17.263 12.8481 17.6428 13.7388 17.7054C14.6294 17.768 15.5129 17.5093 16.2291 16.9761C16.298 16.924 16.3766 16.886 16.4602 16.8644C16.5439 16.8427 16.631 16.8378 16.7166 16.8499C16.8021 16.8619 16.8845 16.8908 16.9589 16.9348C17.0332 16.9788 17.0982 17.0371 17.15 17.1063Z" fill="#009A99"/>
</svg>
