<svg width="23" height="24" viewBox="0 0 23 24" fill="none" xmlns="http://www.w3.org/2000/svg">
<path d="M13.8192 2L12.5293 3.11C11.8431 3.701 11.5 3.996 11.5 4.364H12.4583C16.0722 4.364 17.8796 4.364 19.0018 5.535C20.124 6.706 20.125 8.592 20.125 12.364V13M2.875 15C2.875 18.3 2.875 19.95 3.85729 20.975C4.83958 22 6.42083 22 9.58333 22C12.7458 22 14.3271 22 15.3094 20.975C16.2917 19.95 16.2917 18.3 16.2917 15C16.2917 11.7 16.2917 10.05 15.3094 9.025C14.3271 8 12.7458 8 9.58333 8C6.42083 8 4.83958 8 3.85729 9.025C2.875 10.05 2.875 11.7 2.875 15Z" stroke="#009A99" stroke-width="1.5" stroke-linecap="round" stroke-linejoin="round"/>
</svg>
