<svg width="30" height="30" viewBox="0 0 30 30" fill="none" xmlns="http://www.w3.org/2000/svg">
<path d="M20.625 22.5H9.375C8.87772 22.5 8.40081 22.3025 8.04918 21.9508C7.69754 21.5992 7.5 21.1223 7.5 20.625V17.8125H9.375V20.625H20.625V17.8125H22.5V20.625C22.5 21.1223 22.3025 21.5992 21.9508 21.9508C21.5992 22.3025 21.1223 22.5 20.625 22.5ZM1.875 14.0625H28.125V15.9375H1.875V14.0625ZM22.5 12.1875H20.625V9.375H9.375V12.1875H7.5V9.375C7.5 8.87772 7.69754 8.40081 8.04918 8.04918C8.40081 7.69754 8.87772 7.5 9.375 7.5H20.625C21.1223 7.5 21.5992 7.69754 21.9508 8.04918C22.3025 8.40081 22.5 8.87772 22.5 9.375V12.1875ZM28.125 9.375H26.25V3.75H20.625V1.875H28.125V9.375ZM3.75 9.375H1.875V1.875H9.375V3.75H3.75V9.375ZM9.375 28.125H1.875V20.625H3.75V26.25H9.375V28.125ZM28.125 28.125H20.625V26.25H26.25V20.625H28.125V28.125Z" fill="white"/>
</svg>
