<svg width="30" height="30" viewBox="0 0 30 30" fill="none" xmlns="http://www.w3.org/2000/svg">
<path d="M8.8125 8.07756C9.15269 8.19731 9.51477 8.24204 9.87388 8.20867C10.233 8.1753 10.5806 8.06463 10.8929 7.88425C11.2052 7.70387 11.4748 7.45806 11.6832 7.16368C11.8915 6.8693 12.0337 6.53332 12.1 6.17881L12.5 4.02881C14.1448 3.65413 15.8527 3.65413 17.4975 4.02881L17.9 6.17881C17.9663 6.53332 18.1085 6.8693 18.3168 7.16368C18.5252 7.45806 18.7948 7.70387 19.1071 7.88425C19.4194 8.06463 19.767 8.1753 20.1261 8.20867C20.4852 8.24204 20.8473 8.19731 21.1875 8.07756L23.2488 7.35256C24.3961 8.58853 25.251 10.0666 25.75 11.6776L24.0875 13.1026C23.8137 13.3373 23.5939 13.6284 23.4432 13.9561C23.2925 14.2837 23.2145 14.6401 23.2145 15.0007C23.2145 15.3613 23.2925 15.7177 23.4432 16.0453C23.5939 16.373 23.8137 16.6641 24.0875 16.8988L25.75 18.3226C25.251 19.9335 24.3961 21.4116 23.2488 22.6476L21.1862 21.9226C20.8461 21.8028 20.484 21.7581 20.1249 21.7915C19.7658 21.8248 19.4181 21.9355 19.1058 22.1159C18.7935 22.2963 18.5239 22.5421 18.3156 22.8364C18.1072 23.1308 17.965 23.4668 17.8988 23.8213L17.5 25.9713C15.8552 26.346 14.1473 26.346 12.5025 25.9713L12.1 23.8213C12.0337 23.4668 11.8915 23.1308 11.6832 22.8364C11.4748 22.5421 11.2052 22.2963 10.8929 22.1159C10.5806 21.9355 10.233 21.8248 9.87388 21.7915C9.51477 21.7581 9.15269 21.8028 8.8125 21.9226L6.75125 22.6476C5.60387 21.4116 4.74904 19.9335 4.25 18.3226L5.9125 16.8976C6.1861 16.6629 6.4057 16.3718 6.55626 16.0443C6.70682 15.7167 6.78477 15.3605 6.78477 15.0001C6.78477 14.6396 6.70682 14.2834 6.55626 13.9559C6.4057 13.6283 6.1861 13.3373 5.9125 13.1026L4.25 11.6776C4.74867 10.0668 5.60307 8.58865 6.75 7.35256L8.8125 8.07756ZM15 11.2501C15.9946 11.2501 16.9484 11.6452 17.6517 12.3484C18.3549 13.0517 18.75 14.0055 18.75 15.0001C18.75 15.9946 18.3549 16.9485 17.6517 17.6517C16.9484 18.355 15.9946 18.7501 15 18.7501C14.0054 18.7501 13.0516 18.355 12.3483 17.6517C11.6451 16.9485 11.25 15.9946 11.25 15.0001C11.25 14.0055 11.6451 13.0517 12.3483 12.3484C13.0516 11.6452 14.0054 11.2501 15 11.2501Z" stroke="white" stroke-width="2" stroke-linecap="round" stroke-linejoin="round"/>
</svg>
