<svg width="31" height="32" viewBox="0 0 31 32" fill="none" xmlns="http://www.w3.org/2000/svg">
<g clip-path="url(#clip0_391_10333)">
<path d="M26.4792 17.3333H24.5417C24.3704 17.3333 24.2061 17.4035 24.085 17.5285C23.9639 17.6535 23.8958 17.8231 23.8958 17.9999C23.8958 18.1767 23.9639 18.3463 24.085 18.4713C24.2061 18.5963 24.3704 18.6666 24.5417 18.6666H25.8333V29.3333C25.8329 29.6867 25.6967 30.0256 25.4545 30.2756C25.2124 30.5255 24.8841 30.6661 24.5417 30.6666H6.45833C6.1159 30.6661 5.78762 30.5255 5.54548 30.2756C5.30334 30.0256 5.16711 29.6867 5.16667 29.3333V18.6666H6.45833C6.62962 18.6666 6.79389 18.5963 6.91501 18.4713C7.03612 18.3463 7.10417 18.1767 7.10417 17.9999C7.10417 17.8231 7.03612 17.6535 6.91501 17.5285C6.79389 17.4035 6.62962 17.3333 6.45833 17.3333H4.52083C4.43601 17.3332 4.352 17.3504 4.27363 17.3839C4.19525 17.4174 4.12403 17.4665 4.06405 17.5284C4.00407 17.5903 3.9565 17.6638 3.92406 17.7447C3.89162 17.8256 3.87495 17.9124 3.875 17.9999V29.3333C3.87568 30.0403 4.14808 30.7181 4.6324 31.2181C5.11672 31.718 5.7734 31.9992 6.45833 31.9999H24.5417C25.2266 31.9992 25.8833 31.718 26.3676 31.2181C26.8519 30.7181 27.1243 30.0403 27.125 29.3333V17.9999C27.125 17.9124 27.1084 17.8256 27.0759 17.7447C27.0435 17.6638 26.9959 17.5903 26.9359 17.5284C26.876 17.4665 26.8048 17.4174 26.7264 17.3839C26.648 17.3504 26.564 17.3332 26.4792 17.3333Z" fill="#C820E4" stroke="#C820E4" stroke-width="0.2"/>
<path d="M26.9358 6.86197L20.4775 0.195307C20.4175 0.133378 20.3463 0.0842526 20.268 0.0507405C20.1896 0.0172284 20.1056 -1.37008e-05 20.0208 8.16841e-09H6.45833C5.7734 0.000705977 5.11672 0.281884 4.6324 0.781828C4.14808 1.28177 3.87568 1.95964 3.875 2.66667V14C3.87495 14.0876 3.89162 14.1743 3.92406 14.2552C3.9565 14.3361 4.00407 14.4096 4.06405 14.4715C4.12403 14.5334 4.19525 14.5825 4.27363 14.616C4.352 14.6495 4.43601 14.6667 4.52083 14.6667H6.45833C6.62962 14.6667 6.79389 14.5964 6.91501 14.4714C7.03612 14.3464 7.10417 14.1768 7.10417 14C7.10417 13.8232 7.03612 13.6536 6.91501 13.5286C6.79389 13.4036 6.62962 13.3333 6.45833 13.3333H5.16667V2.66667C5.16711 2.31319 5.30334 1.97431 5.54548 1.72436C5.78762 1.47442 6.1159 1.33379 6.45833 1.33333H19.375V5.33333C19.3757 6.04036 19.6481 6.71823 20.1324 7.21817C20.6167 7.71812 21.2734 7.99929 21.9583 8H25.8333V13.3333H24.5417C24.3704 13.3333 24.2061 13.4036 24.085 13.5286C23.9639 13.6536 23.8958 13.8232 23.8958 14C23.8958 14.1768 23.9639 14.3464 24.085 14.4714C24.2061 14.5964 24.3704 14.6667 24.5417 14.6667H26.4792C26.564 14.6667 26.648 14.6495 26.7264 14.616C26.8048 14.5825 26.876 14.5334 26.9359 14.4715C26.9959 14.4096 27.0435 14.3361 27.0759 14.2552C27.1084 14.1743 27.125 14.0876 27.125 14V7.33333C27.125 7.24579 27.1083 7.15909 27.0758 7.07822C27.0434 6.99734 26.9958 6.92386 26.9358 6.86197ZM20.6667 5.33333V2.276L24.9201 6.66667H21.9583C21.6159 6.66621 21.2876 6.52559 21.0455 6.27564C20.8033 6.02569 20.6671 5.68681 20.6667 5.33333Z" fill="#C820E4" stroke="#C820E4" stroke-width="0.2"/>
<path d="M9.6875 13.9999C9.68745 14.0875 9.70412 14.1742 9.73656 14.2551C9.769 14.336 9.81657 14.4095 9.87655 14.4714C9.93653 14.5334 10.0077 14.5825 10.0861 14.6159C10.1645 14.6494 10.2485 14.6666 10.3333 14.6666H13.5625C13.7338 14.6666 13.8981 14.5963 14.0192 14.4713C14.1403 14.3463 14.2083 14.1767 14.2083 13.9999C14.2083 13.8231 14.1403 13.6535 14.0192 13.5285C13.8981 13.4035 13.7338 13.3333 13.5625 13.3333H10.3333C10.2485 13.3332 10.1645 13.3504 10.0861 13.3839C10.0077 13.4174 9.93653 13.4665 9.87655 13.5284C9.81657 13.5903 9.769 13.6638 9.73656 13.7447C9.70412 13.8256 9.68745 13.9124 9.6875 13.9999Z" fill="#C820E4"/>
<path d="M20.6665 13.3333H17.4373C17.2661 13.3333 17.1018 13.4035 16.9807 13.5285C16.8595 13.6535 16.7915 13.8231 16.7915 13.9999C16.7915 14.1767 16.8595 14.3463 16.9807 14.4713C17.1018 14.5963 17.2661 14.6666 17.4373 14.6666H20.6665C20.8378 14.6666 21.0021 14.5963 21.1232 14.4713C21.2443 14.3463 21.3123 14.1767 21.3123 13.9999C21.3123 13.8231 21.2443 13.6535 21.1232 13.5285C21.0021 13.4035 20.8378 13.3333 20.6665 13.3333Z" fill="#C820E4"/>
<path d="M10.3333 18.6666H13.5625C13.7338 18.6666 13.8981 18.5963 14.0192 18.4713C14.1403 18.3463 14.2083 18.1767 14.2083 17.9999C14.2083 17.8231 14.1403 17.6535 14.0192 17.5285C13.8981 17.4035 13.7338 17.3333 13.5625 17.3333H10.3333C10.162 17.3333 9.99778 17.4035 9.87666 17.5285C9.75554 17.6535 9.6875 17.8231 9.6875 17.9999C9.6875 18.1767 9.75554 18.3463 9.87666 18.4713C9.99778 18.5963 10.162 18.6666 10.3333 18.6666Z" fill="#C820E4"/>
<path d="M21.3123 17.9999C21.3124 17.9124 21.2957 17.8256 21.2633 17.7447C21.2308 17.6638 21.1833 17.5903 21.1233 17.5284C21.0633 17.4665 20.9921 17.4174 20.9137 17.3839C20.8353 17.3504 20.7513 17.3332 20.6665 17.3333H17.4373C17.2661 17.3333 17.1018 17.4035 16.9807 17.5285C16.8595 17.6535 16.7915 17.8231 16.7915 17.9999C16.7915 18.1767 16.8595 18.3463 16.9807 18.4713C17.1018 18.5963 17.2661 18.6666 17.4373 18.6666H20.6665C20.7513 18.6666 20.8353 18.6494 20.9137 18.6159C20.9921 18.5825 21.0633 18.5334 21.1233 18.4714C21.1833 18.4095 21.2308 18.336 21.2633 18.2551C21.2957 18.1742 21.3124 18.0875 21.3123 17.9999Z" fill="#C820E4"/>
<path d="M16.0166 6.9336C15.9539 6.85482 15.875 6.79137 15.7857 6.7478C15.6964 6.70424 15.5989 6.68164 15.5001 6.68164C15.4013 6.68164 15.3037 6.70424 15.2144 6.7478C15.1251 6.79137 15.0463 6.85482 14.9835 6.9336L13.046 9.60027C12.9433 9.74168 12.8993 9.91942 12.9235 10.0944C12.9477 10.2693 13.0383 10.4272 13.1753 10.5332C13.3123 10.6392 13.4845 10.6847 13.654 10.6597C13.8235 10.6347 13.9764 10.5411 14.0791 10.3997L15.5001 8.44467L16.921 10.3997C17.0237 10.5411 17.1767 10.6347 17.3461 10.6597C17.5156 10.6847 17.6878 10.6392 17.8248 10.5332C17.9618 10.4272 18.0524 10.2693 18.0766 10.0944C18.1009 9.91942 18.0568 9.74168 17.9541 9.60027L16.0166 6.9336Z" fill="#C820E4"/>
<path d="M16.921 21.6002L15.5001 23.5552L14.0791 21.6002C13.9764 21.4588 13.8235 21.3652 13.654 21.3402C13.4845 21.3152 13.3123 21.3607 13.1753 21.4667C13.0383 21.5727 12.9477 21.7306 12.9235 21.9055C12.8993 22.0805 12.9433 22.2582 13.046 22.3996L14.9835 25.0663C15.0436 25.1492 15.1216 25.2164 15.2112 25.2628C15.3009 25.3091 15.3998 25.3332 15.5001 25.3332C15.6003 25.3332 15.6992 25.3091 15.7889 25.2628C15.8786 25.2164 15.9565 25.1492 16.0166 25.0663L17.9541 22.3996C18.0568 22.2582 18.1009 22.0805 18.0766 21.9055C18.0524 21.7306 17.9618 21.5727 17.8248 21.4667C17.6878 21.3607 17.5156 21.3152 17.3461 21.3402C17.1767 21.3652 17.0237 21.4588 16.921 21.6002Z" fill="#C820E4"/>
</g>
<defs>
<clipPath id="clip0_391_10333">
<rect width="31" height="32" fill="white"/>
</clipPath>
</defs>
</svg>
