<svg width="35" height="27" viewBox="0 0 35 27" fill="none" xmlns="http://www.w3.org/2000/svg">
<g clip-path="url(#clip0_129_5055)">
<g clip-path="url(#clip1_129_5055)">
<path d="M20.9653 23.0263H27.0239C31.2518 23.0263 34.6951 19.3902 34.6951 14.8796C34.6951 10.415 31.2518 6.77885 27.0239 6.77885C26.4572 6.77885 25.9342 6.82488 25.4547 6.91693C24.0164 3.05067 20.4423 0.289062 16.258 0.289062C10.8533 0.289062 6.40742 4.93777 6.40742 10.6911V10.8292C6.32025 10.8292 6.18949 10.8292 6.05873 10.8292C2.87691 10.8292 0.261719 13.5448 0.261719 16.9508C0.261719 20.3107 2.87691 23.0263 6.05873 23.0263H20.9653Z" fill="url(#paint0_linear_129_5055)"/>
<path d="M20.9651 22.7509H27.0237C29.0722 22.7509 30.9029 21.8764 32.254 20.4496C33.6052 19.0228 34.4334 17.0436 34.4334 14.8803C34.4334 12.7171 33.6052 10.784 32.254 9.35712C30.9029 7.93029 29.0722 7.05578 27.0237 7.05578C26.7621 7.05578 26.5006 7.05578 26.2391 7.10181C26.0212 7.10181 25.7597 7.14783 25.4981 7.19386C25.3674 7.23989 25.2366 7.14783 25.193 7.00975C24.4956 5.12265 23.2316 3.46569 21.6625 2.36104C20.137 1.2564 18.2628 0.612021 16.2578 0.612021C13.6426 0.612021 11.2453 1.71667 9.50187 3.55774C7.75841 5.39881 6.71233 7.93029 6.71233 10.6919V10.7379V10.83C6.71233 11.0141 6.58157 11.1522 6.45081 11.1522C6.40722 11.1522 6.40722 11.1522 6.40722 11.1522C6.32005 11.1522 6.27646 11.1522 6.23288 11.1061C6.18929 11.1061 6.10212 11.1061 6.05853 11.1061C4.533 11.1061 3.13823 11.7965 2.17933 12.8091C1.17684 13.8678 0.566625 15.3406 0.566625 16.9516C0.566625 18.5165 1.17684 19.9893 2.17933 21.0479C3.13823 22.1066 4.533 22.7509 6.05853 22.7509H20.9651ZM27.0237 23.3033H20.9651H6.05853C4.35865 23.3033 2.87671 22.6129 1.78705 21.4622C0.697385 20.3115 0 18.7006 0 16.9516C0 15.1565 0.697385 13.5916 1.78705 12.4409C2.87671 11.2442 4.35865 10.5538 6.05853 10.5538H6.1457C6.18929 7.65413 7.32254 5.0306 9.10959 3.1435C10.9402 1.21037 13.4682 0.0136719 16.2578 0.0136719C18.3935 0.0136719 20.3549 0.704075 21.9676 1.85475C23.5803 3.05144 24.8443 4.66238 25.6289 6.59551C25.8032 6.54948 26.0212 6.54948 26.1955 6.50346C26.457 6.50346 26.7621 6.45743 27.0237 6.45743C29.203 6.45743 31.208 7.424 32.6463 8.94288C34.0847 10.4618 35 12.579 35 14.8803C35 17.2277 34.0847 19.3449 32.6463 20.8638C31.208 22.3827 29.203 23.3033 27.0237 23.3033Z" fill="url(#paint1_linear_129_5055)"/>
<path fill-rule="evenodd" clip-rule="evenodd" d="M19.6141 17.6414V26.7087H15.3427V17.6414H12.8146C12.5095 17.6414 12.2044 17.4573 12.0737 17.1812C11.9429 16.905 11.9429 16.5368 12.1173 16.3067L16.8246 8.62017C16.9554 8.39003 17.2169 8.25195 17.4784 8.25195C17.7835 8.25195 18.045 8.39003 18.1758 8.62017L22.8831 16.3067C23.0575 16.5368 23.0575 16.905 22.9267 17.1812C22.7524 17.4573 22.4909 17.6414 22.1858 17.6414H19.6141Z" fill="white"/>
</g>
</g>
<defs>
<linearGradient id="paint0_linear_129_5055" x1="0.369393" y1="0.166489" x2="16.6828" y2="31.6455" gradientUnits="userSpaceOnUse">
<stop stop-color="#25515C"/>
<stop offset="1" stop-color="#00FFF2"/>
</linearGradient>
<linearGradient id="paint1_linear_129_5055" x1="0.109446" y1="-0.111879" x2="16.8929" y2="32.0265" gradientUnits="userSpaceOnUse">
<stop stop-color="#25515C"/>
<stop offset="1" stop-color="#00FFF2"/>
</linearGradient>
<clipPath id="clip0_129_5055">
<rect width="35" height="27" fill="white"/>
</clipPath>
<clipPath id="clip1_129_5055">
<rect width="35" height="27" fill="white"/>
</clipPath>
</defs>
</svg>
