<svg width="3" height="3" viewBox="0 0 3 3" fill="none" xmlns="http://www.w3.org/2000/svg">
<path d="M1.7456 1.37114C1.71599 1.37114 1.68638 1.35986 1.66382 1.33724C1.48343 1.15685 1.1899 1.1568 1.00945 1.33724C0.96434 1.38241 0.891002 1.38241 0.84589 1.33724C0.800719 1.29207 0.800719 1.21885 0.84589 1.17368C1.11651 0.903014 1.55682 0.903071 1.82738 1.17368C1.87255 1.21885 1.87255 1.29207 1.82738 1.33724C1.80483 1.35986 1.77515 1.37114 1.7456 1.37114Z" fill="black"/>
<path d="M1.66378 2.03027C1.48605 2.03027 1.30832 1.9626 1.17304 1.82732C1.12787 1.78215 1.12787 1.70893 1.17304 1.66376C1.21815 1.61859 1.29149 1.61859 1.3366 1.66376C1.51699 1.84415 1.81052 1.84421 1.99097 1.66376C2.03608 1.61859 2.10942 1.61859 2.15453 1.66376C2.1997 1.70893 2.1997 1.78215 2.15453 1.82732C2.01919 1.9626 1.84146 2.03027 1.66378 2.03027Z" fill="black"/>
<path d="M2.07269 1.86087C2.04308 1.86087 2.01347 1.84959 1.99091 1.82698C1.94574 1.78181 1.94574 1.70859 1.99091 1.66342L2.63706 1.01728C2.68218 0.972106 2.75551 0.972106 2.80063 1.01728C2.8458 1.06245 2.8458 1.13567 2.80063 1.18084L2.15447 1.82698C2.13192 1.84959 2.1023 1.86087 2.07269 1.86087Z" fill="black"/>
<path d="M1.09906 2.8347C1.06945 2.8347 1.03983 2.82342 1.01728 2.80081C0.972106 2.75564 0.972106 2.68242 1.01728 2.63725L1.37847 2.27606C1.42358 2.2309 1.49692 2.2309 1.54203 2.27606C1.5872 2.32123 1.5872 2.39445 1.54203 2.43962L1.18084 2.80081C1.15828 2.82342 1.12867 2.8347 1.09906 2.8347Z" fill="black"/>
<path d="M0.281187 2.01608C0.251574 2.01608 0.221962 2.00481 0.199405 1.98219C0.154235 1.93702 0.154235 1.8638 0.199405 1.81863L0.845559 1.17255C0.89073 1.12738 0.964009 1.12738 1.00912 1.17255C1.05429 1.21772 1.05429 1.29094 1.00912 1.33611L0.362968 1.98219C0.340354 2.00475 0.310741 2.01608 0.281187 2.01608Z" fill="black"/>
<path d="M1.53949 0.75761C1.50987 0.75761 1.48032 0.746332 1.45771 0.723776C1.41254 0.678606 1.41254 0.605386 1.45771 0.560158L1.8189 0.198916C1.86407 0.153747 1.93729 0.153747 1.98252 0.198916C2.02769 0.244086 2.02769 0.317306 1.98252 0.362534L1.62133 0.723776C1.59871 0.746274 1.56904 0.75761 1.53949 0.75761Z" fill="black"/>
<path d="M0.690283 3.0001C0.511394 3.0001 0.332504 2.93359 0.199537 2.80056C-0.0665124 2.53452 -0.0665124 2.08508 0.199537 1.81903C0.24465 1.77386 0.317987 1.77386 0.3631 1.81903C0.408271 1.8642 0.408271 1.93742 0.3631 1.98259C0.185772 2.15992 0.185772 2.45962 0.3631 2.63695C0.540428 2.81427 0.840138 2.81427 1.01747 2.63695C1.06258 2.59178 1.13592 2.59178 1.18103 2.63695C1.2262 2.68212 1.2262 2.75534 1.18103 2.80051C1.04806 2.93359 0.869173 3.0001 0.690283 3.0001Z" fill="black"/>
<path d="M2.71874 1.2149C2.68913 1.2149 2.65952 1.20362 2.63696 1.18101C2.59179 1.13584 2.59179 1.06262 2.63696 1.01745C2.81429 0.840122 2.81429 0.540417 2.63696 0.363093C2.45964 0.185768 2.15992 0.185768 1.9826 0.363093C1.93748 0.408263 1.86415 0.408263 1.81903 0.363093C1.77386 0.317923 1.77386 0.244703 1.81903 0.199533C2.08508 -0.0665111 2.53453 -0.0665111 2.80058 0.199533C3.06663 0.465578 3.06663 0.915019 2.80058 1.18106C2.77797 1.20362 2.74836 1.2149 2.71874 1.2149Z" fill="black"/>
</svg>
