<svg width="34" height="34" viewBox="0 0 34 34" fill="none" xmlns="http://www.w3.org/2000/svg">
<path d="M30.6063 3.18751H10.3115C10.1451 3.18709 9.98027 3.21952 9.82643 3.28294C9.67259 3.34636 9.53278 3.43952 9.41502 3.55708C9.29726 3.67464 9.20387 3.81429 9.14019 3.96803C9.07651 4.12176 9.04381 4.28655 9.04395 4.45294V10.0938L20.8048 13.5469L31.8749 10.0938V4.45294C31.8751 4.28646 31.8423 4.12158 31.7786 3.96778C31.7149 3.81398 31.6214 3.67428 31.5035 3.5567C31.3856 3.43913 31.2457 3.34599 31.0917 3.28263C30.9378 3.21927 30.7728 3.18695 30.6063 3.18751Z" fill="#41A5EE"/>
<path d="M31.8749 10.0938H9.04395V17L20.8048 19.0719L31.8749 17V10.0938Z" fill="#2B7CD3"/>
<path d="M9.04395 17V23.9062L20.1131 25.2875L31.8749 23.9062V17H9.04395Z" fill="#185ABD"/>
<path d="M10.3115 30.8125H30.6053C30.7718 30.8132 30.9369 30.781 31.091 30.7177C31.2451 30.6544 31.3851 30.5613 31.5031 30.4437C31.6211 30.3261 31.7147 30.1863 31.7785 30.0325C31.8423 29.8786 31.8751 29.7136 31.8749 29.5471V23.9062H9.04395V29.5471C9.04381 29.7135 9.07651 29.8782 9.14019 30.032C9.20387 30.1857 9.29726 30.3254 9.41502 30.4429C9.53278 30.5605 9.67259 30.6537 9.82643 30.7171C9.98027 30.7805 10.1451 30.8129 10.3115 30.8125Z" fill="#103F91"/>
<path opacity="0.1" d="M17.4611 8.71289H9.04395V25.9785H17.4611C17.7965 25.9768 18.1177 25.8431 18.3552 25.6062C18.5926 25.3694 18.7272 25.0485 18.7297 24.7131V9.97833C18.7272 9.64294 18.5926 9.32205 18.3552 9.08518C18.1177 8.84832 17.7965 8.71456 17.4611 8.71289Z" fill="black"/>
<path opacity="0.2" d="M16.7694 9.40234H9.04395V26.668H16.7694C17.1048 26.6663 17.426 26.5325 17.6635 26.2957C17.9009 26.0588 18.0355 25.7379 18.038 25.4025V10.6678C18.0355 10.3324 17.9009 10.0115 17.6635 9.77463C17.426 9.53777 17.1048 9.40401 16.7694 9.40234Z" fill="black"/>
<path opacity="0.2" d="M16.7694 9.40234H9.04395V25.2867H16.7694C17.1048 25.285 17.426 25.1513 17.6635 24.9144C17.9009 24.6776 18.0355 24.3567 18.038 24.0213V10.6678C18.0355 10.3324 17.9009 10.0115 17.6635 9.77463C17.426 9.53777 17.1048 9.40401 16.7694 9.40234Z" fill="black"/>
<path opacity="0.2" d="M16.0777 9.40234H9.04395V25.2867H16.0777C16.4131 25.285 16.7343 25.1513 16.9718 24.9144C17.2092 24.6776 17.3438 24.3567 17.3463 24.0213V10.6678C17.3438 10.3324 17.2092 10.0115 16.9718 9.77463C16.7343 9.53777 16.4131 9.40401 16.0777 9.40234Z" fill="black"/>
<path d="M3.39363 9.40235H16.0777C16.4137 9.40207 16.7361 9.5352 16.974 9.77248C17.2119 10.0098 17.3458 10.3318 17.3464 10.6678V23.3307C17.3458 23.6667 17.2119 23.9887 16.974 24.226C16.7361 24.4633 16.4137 24.5964 16.0777 24.5961H3.39363C3.22714 24.5967 3.06218 24.5643 2.90822 24.501C2.75426 24.4376 2.61432 24.3445 2.49645 24.2269C2.37858 24.1093 2.28509 23.9696 2.22134 23.8158C2.1576 23.662 2.12486 23.4972 2.125 23.3307V10.6678C2.12486 10.5013 2.1576 10.3364 2.22134 10.1826C2.28509 10.0288 2.37858 9.88912 2.49645 9.77155C2.61432 9.65397 2.75426 9.56083 2.90822 9.49747C3.06218 9.43412 3.22714 9.40179 3.39363 9.40235Z" fill="url(#paint0_linear_214_10529)"/>
<path d="M7.33104 19.1117C7.35583 19.3072 7.37212 19.4776 7.37991 19.6228H7.40966C7.42029 19.4846 7.44331 19.3182 7.47872 19.1234C7.53185 18.8312 7.5446 18.7643 7.57328 18.6293L8.90672 12.8844H10.6322L12.0135 18.5433C12.0932 18.8934 12.1507 19.2483 12.1856 19.6058H12.209C12.2355 19.2578 12.2834 18.9119 12.3524 18.5698L13.4563 12.877H15.0257L13.0877 21.1092H11.2527L9.93841 15.6628C9.90016 15.5056 9.85695 15.3009 9.80879 15.0487C9.76062 14.7965 9.73087 14.6124 9.71953 14.4962H9.69722C9.68235 14.6301 9.6526 14.8288 9.60797 15.0923C9.56335 15.3558 9.52793 15.5513 9.50172 15.6788L8.26604 21.1124H6.40029L4.45166 12.8844H6.04541L7.2471 18.641C7.28213 18.7966 7.31013 18.9536 7.33104 19.1117Z" fill="white"/>
<defs>
<linearGradient id="paint0_linear_214_10529" x1="4.77488" y1="8.40785" x2="14.6965" y2="25.5906" gradientUnits="userSpaceOnUse">
<stop stop-color="#2368C4"/>
<stop offset="0.5" stop-color="#1A5DBE"/>
<stop offset="1" stop-color="#1146AC"/>
</linearGradient>
</defs>
</svg>
