<svg width="198" height="209" viewBox="0 0 198 209" fill="none" xmlns="http://www.w3.org/2000/svg">
<path fill-rule="evenodd" clip-rule="evenodd" d="M192.833 149.691V29.2144C192.833 22.8239 190.295 16.6952 185.776 12.1765C181.257 7.65774 175.128 5.11914 168.738 5.11914H72.357C65.9665 5.11914 59.8378 7.65774 55.319 12.1765C50.8003 16.6952 48.2617 22.8239 48.2617 29.2144V149.691C48.2617 156.081 50.8003 162.21 55.319 166.728C59.8378 171.247 65.9665 173.786 72.357 173.786H168.738C175.128 173.786 181.257 171.247 185.776 166.728C190.295 162.21 192.833 156.081 192.833 149.691Z" stroke="#009A99" stroke-width="10" stroke-linecap="round" stroke-linejoin="round"/>
<path d="M45.9122 34.4551L21.7688 43.2498C15.7657 45.4364 10.8768 49.9175 8.17699 55.708C5.4772 61.4984 5.18761 68.124 7.37189 74.1279L48.5748 187.339C49.6574 190.313 51.3152 193.045 53.4536 195.378C55.592 197.711 58.169 199.6 61.0375 200.937C63.9061 202.274 67.0099 203.032 70.1716 203.169C73.3334 203.307 76.4913 202.82 79.4649 201.736L146.546 175.256M84.4044 65.3572H144.642M84.4044 89.4525H156.69M84.4044 113.548H120.547" stroke="#009A99" stroke-width="10" stroke-linecap="round" stroke-linejoin="round"/>
</svg>
